<?xml version="1.0" encoding="UTF-8"?>
<svg width="53px" height="52px" viewBox="0 0 53 52" version="1.1" xmlns="http://www.w3.org/2000/svg" xmlns:xlink="http://www.w3.org/1999/xlink">
    <!-- Generator: sketchtool 61.2 (101010) - https://sketch.com -->
    <title>EAEF2C3D-C99E-46A0-9070-8D108BB54053</title>
    <desc>Created with sketchtool.</desc>
    <g id="Asset-Artboard-Page" stroke="none" stroke-width="1" fill="none" fill-rule="evenodd">
        <g id="icon-/-fast" transform="translate(0.364915, 0.000000)" fill="#FF5E45" fill-rule="nonzero">
            <g id="icons8-time-span">
                <path d="M26,0 C11.6499287,0 0,11.6499287 0,26 C0,40.3500713 11.6499287,52 26,52 C40.3500713,52 52,40.3500713 52,26 C52,11.6499287 40.3500713,0 26,0 Z M26,1.57575758 C25.5648666,1.57575758 25.2121212,1.92850292 25.2121212,2.36363636 C25.2121212,2.7987698 25.5648666,3.15151515 26,3.15151515 C26.4351334,3.15151515 26.7878788,2.7987698 26.7878788,2.36363636 C26.7880947,1.94984207 26.4681676,1.60639103 26.0553973,1.57729638 C39.5281868,1.60733008 50.4242424,12.5201196 50.4242424,26 C50.4242424,39.4984688 39.4984688,50.4242424 26,50.4242424 C12.5015312,50.4242424 1.57575758,39.4984688 1.57575758,26 C1.57575758,17.0896432 6.33815788,9.30233121 13.4570312,5.03657661 C13.5809482,5.32688539 13.8661687,5.51521568 14.1818182,5.51515152 C14.6169516,5.51515152 14.969697,5.16240617 14.969697,4.72727273 C14.9698908,4.56672475 14.9210327,4.40994912 14.8296641,4.277936 C16.6050954,3.36383509 18.5057663,2.66222745 20.5017753,2.20359848 C20.4906853,2.25622686 20.4850135,2.30985249 20.4848485,2.36363636 C20.4848485,2.7987698 20.8375938,3.15151515 21.2727273,3.15151515 C21.7078607,3.15151515 22.0606061,2.7987698 22.0606061,2.36363636 C22.0604608,2.20551296 22.0127404,2.05109166 21.9236507,1.92045455 C23.2495719,1.69800477 24.610441,1.57575758 26,1.57575758 Z M18.9090909,3.93939394 C18.4739575,3.93939394 18.1212121,4.29213929 18.1212121,4.72727273 C18.1212121,5.16240617 18.4739575,5.51515152 18.9090909,5.51515152 C19.3442243,5.51515152 19.6969697,5.16240617 19.6969697,4.72727273 C19.6969697,4.29213929 19.3442243,3.93939394 18.9090909,3.93939394 Z M23.6363636,3.93939394 C23.2012302,3.93939394 22.8484848,4.29213929 22.8484848,4.72727273 C22.8484848,5.16240617 23.2012302,5.51515152 23.6363636,5.51515152 C24.0714971,5.51515152 24.4242424,5.16240617 24.4242424,4.72727273 C24.4242424,4.29213929 24.0714971,3.93939394 23.6363636,3.93939394 Z M11.8181818,6.3030303 C11.3830484,6.3030303 11.030303,6.65577565 11.030303,7.09090909 C11.030303,7.52604253 11.3830484,7.87878788 11.8181818,7.87878788 C12.2533153,7.87878788 12.6060606,7.52604253 12.6060606,7.09090909 C12.6060606,6.65577565 12.2533153,6.3030303 11.8181818,6.3030303 Z M16.5454545,6.3030303 C16.1103211,6.3030303 15.7575758,6.65577565 15.7575758,7.09090909 C15.7575758,7.52604253 16.1103211,7.87878788 16.5454545,7.87878788 C16.980588,7.87878788 17.3333333,7.52604253 17.3333333,7.09090909 C17.3333333,6.65577565 16.980588,6.3030303 16.5454545,6.3030303 Z M21.2727273,6.3030303 C20.8375938,6.3030303 20.4848485,6.65577565 20.4848485,7.09090909 C20.4848485,7.52604253 20.8375938,7.87878788 21.2727273,7.87878788 C21.7078607,7.87878788 22.0606061,7.52604253 22.0606061,7.09090909 C22.0606061,6.65577565 21.7078607,6.3030303 21.2727273,6.3030303 Z M26,6.3030303 C25.5648666,6.3030303 25.2121212,6.65577565 25.2121212,7.09090909 C25.2121212,7.52604253 25.5648666,7.87878788 26,7.87878788 C26.4351334,7.87878788 26.7878788,7.52604253 26.7878788,7.09090909 C26.7878788,6.65577565 26.4351334,6.3030303 26,6.3030303 Z M9.45454545,8.66666667 C9.01941202,8.66666667 8.66666667,9.01941202 8.66666667,9.45454545 C8.66666667,9.88967889 9.01941202,10.2424242 9.45454545,10.2424242 C9.88967889,10.2424242 10.2424242,9.88967889 10.2424242,9.45454545 C10.2424242,9.01941202 9.88967889,8.66666667 9.45454545,8.66666667 Z M14.1818182,8.66666667 C13.7466847,8.66666667 13.3939394,9.01941202 13.3939394,9.45454545 C13.3939394,9.88967889 13.7466847,10.2424242 14.1818182,10.2424242 C14.6169516,10.2424242 14.969697,9.88967889 14.969697,9.45454545 C14.969697,9.01941202 14.6169516,8.66666667 14.1818182,8.66666667 Z M18.9090909,8.66666667 C18.4739575,8.66666667 18.1212121,9.01941202 18.1212121,9.45454545 C18.1212121,9.88967889 18.4739575,10.2424242 18.9090909,10.2424242 C19.3442243,10.2424242 19.6969697,9.88967889 19.6969697,9.45454545 C19.6969697,9.01941202 19.3442243,8.66666667 18.9090909,8.66666667 Z M23.6363636,8.66666667 C23.2012302,8.66666667 22.8484848,9.01941202 22.8484848,9.45454545 C22.8484848,9.88967889 23.2012302,10.2424242 23.6363636,10.2424242 C24.0714971,10.2424242 24.4242424,9.88967889 24.4242424,9.45454545 C24.4242424,9.01941202 24.0714971,8.66666667 23.6363636,8.66666667 Z M16.5454545,11.030303 C16.1103211,11.030303 15.7575758,11.3830484 15.7575758,11.8181818 C15.7575758,12.2533153 16.1103211,12.6060606 16.5454545,12.6060606 C16.980588,12.6060606 17.3333333,12.2533153 17.3333333,11.8181818 C17.3333333,11.3830484 16.980588,11.030303 16.5454545,11.030303 Z M21.2727273,11.030303 C20.8375938,11.030303 20.4848485,11.3830484 20.4848485,11.8181818 C20.4848485,12.2533153 20.8375938,12.6060606 21.2727273,12.6060606 C21.7078607,12.6060606 22.0606061,12.2533153 22.0606061,11.8181818 C22.0606061,11.3830484 21.7078607,11.030303 21.2727273,11.030303 Z M26,11.030303 C25.5648666,11.030303 25.2121212,11.3830484 25.2121212,11.8181818 C25.2121212,12.2533153 25.5648666,12.6060606 26,12.6060606 C26.4351334,12.6060606 26.7878788,12.2533153 26.7878788,11.8181818 C26.7878788,11.3830484 26.4351334,11.030303 26,11.030303 Z M12.3752364,11.2611269 L11.2611269,12.3752364 L23.2962828,24.410393 C23.0182239,24.8794583 22.8484848,25.4189409 22.8484848,26 C22.8484848,27.7312013 24.2687987,29.1515152 26,29.1515152 C27.7312014,29.1515152 29.1515152,27.7312013 29.1515152,26 C29.1515152,25.4189409 28.9817762,24.8794583 28.7037172,24.410393 L37.587358,15.5267515 L36.4732485,14.4126421 L27.589607,23.2962828 C27.1205417,23.0182238 26.5810591,22.8484848 26,22.8484848 C25.418941,22.8484848 24.8794583,23.0182238 24.4103931,23.2962828 L12.3752364,11.2611269 Z M18.9090909,13.3939394 C18.4739575,13.3939394 18.1212121,13.7466847 18.1212121,14.1818182 C18.1212121,14.6169516 18.4739575,14.969697 18.9090909,14.969697 C19.3442243,14.969697 19.6969697,14.6169516 19.6969697,14.1818182 C19.6969697,13.7466847 19.3442243,13.3939394 18.9090909,13.3939394 Z M23.6363636,13.3939394 C23.2012302,13.3939394 22.8484848,13.7466847 22.8484848,14.1818182 C22.8484848,14.6169516 23.2012302,14.969697 23.6363636,14.969697 C24.0714971,14.969697 24.4242424,14.6169516 24.4242424,14.1818182 C24.4242424,13.7466847 24.0714971,13.3939394 23.6363636,13.3939394 Z M21.2727273,15.7575758 C20.8375938,15.7575758 20.4848485,16.1103211 20.4848485,16.5454545 C20.4848485,16.980588 20.8375938,17.3333333 21.2727273,17.3333333 C21.7078607,17.3333333 22.0606061,16.980588 22.0606061,16.5454545 C22.0606061,16.1103211 21.7078607,15.7575758 21.2727273,15.7575758 Z M26,15.7575758 C25.5648666,15.7575758 25.2121212,16.1103211 25.2121212,16.5454545 C25.2121212,16.980588 25.5648666,17.3333333 26,17.3333333 C26.4351334,17.3333333 26.7878788,16.980588 26.7878788,16.5454545 C26.7878788,16.1103211 26.4351334,15.7575758 26,15.7575758 Z M23.6363636,18.1212121 C23.2012302,18.1212121 22.8484848,18.4739575 22.8484848,18.9090909 C22.8484848,19.3442243 23.2012302,19.6969697 23.6363636,19.6969697 C24.0714971,19.6969697 24.4242424,19.3442243 24.4242424,18.9090909 C24.4242424,18.4739575 24.0714971,18.1212121 23.6363636,18.1212121 Z M26,20.4848485 C25.5648666,20.4848485 25.2121212,20.8375938 25.2121212,21.2727273 C25.2121212,21.7078607 25.5648666,22.0606061 26,22.0606061 C26.4351334,22.0606061 26.7878788,21.7078607 26.7878788,21.2727273 C26.7878788,20.8375938 26.4351334,20.4848485 26,20.4848485 Z M4.72727273,24.4242424 C3.85700585,24.4242424 3.15151515,25.1297331 3.15151515,26 C3.15151515,26.8702669 3.85700585,27.5757576 4.72727273,27.5757576 C5.59753961,27.5757576 6.3030303,26.8702669 6.3030303,26 C6.3030303,25.1297331 5.59753961,24.4242424 4.72727273,24.4242424 Z M26,24.4242424 C26.8795989,24.4242424 27.5757576,25.1204011 27.5757576,26 C27.5757576,26.8795989 26.8795989,27.5757576 26,27.5757576 C25.1204011,27.5757576 24.4242424,26.8795989 24.4242424,26 C24.4242424,25.1204011 25.1204011,24.4242424 26,24.4242424 Z M47.2727273,24.4242424 C46.4024604,24.4242424 45.6969697,25.1297331 45.6969697,26 C45.6969697,26.8702669 46.4024604,27.5757576 47.2727273,27.5757576 C48.1429942,27.5757576 48.8484848,26.8702669 48.8484848,26 C48.8484848,25.1297331 48.1429942,24.4242424 47.2727273,24.4242424 Z M8.66666667,25.2121212 C8.23153323,25.2121212 7.87878788,25.5648666 7.87878788,26 C7.87878788,26.4351334 8.23153323,26.7878788 8.66666667,26.7878788 C9.10180011,26.7878788 9.45454545,26.4351334 9.45454545,26 C9.45454545,25.5648666 9.10180011,25.2121212 8.66666667,25.2121212 Z M43.3333333,25.2121212 C42.8981999,25.2121212 42.5454545,25.5648666 42.5454545,26 C42.5454545,26.4351334 42.8981999,26.7878788 43.3333333,26.7878788 C43.7684668,26.7878788 44.1212121,26.4351334 44.1212121,26 C44.1212121,25.5648666 43.7684668,25.2121212 43.3333333,25.2121212 Z M26,42.5454545 C25.5648666,42.5454545 25.2121212,42.8981999 25.2121212,43.3333333 C25.2121212,43.7684668 25.5648666,44.1212121 26,44.1212121 C26.4351334,44.1212121 26.7878788,43.7684668 26.7878788,43.3333333 C26.7878788,42.8981999 26.4351334,42.5454545 26,42.5454545 Z M26,45.6969697 C25.1297331,45.6969697 24.4242424,46.4024604 24.4242424,47.2727273 C24.4242424,48.1429942 25.1297331,48.8484848 26,48.8484848 C26.8702669,48.8484848 27.5757576,48.1429942 27.5757576,47.2727273 C27.5757576,46.4024604 26.8702669,45.6969697 26,45.6969697 Z" id="Shape"></path>
            </g>
        </g>
    </g>
</svg>