<?xml version="1.0" encoding="UTF-8"?>
<svg width="52px" height="52px" viewBox="0 0 52 52" version="1.1" xmlns="http://www.w3.org/2000/svg" xmlns:xlink="http://www.w3.org/1999/xlink">
    <!-- Generator: sketchtool 61.2 (101010) - https://sketch.com -->
    <title>D9448B61-9587-403C-8D66-32725404EDA3</title>
    <desc>Created with sketchtool.</desc>
    <g id="Asset-Artboard-Page" stroke="none" stroke-width="1" fill="none" fill-rule="evenodd">
        <g id="icon-/-save-money" transform="translate(0.364915, 0.000000)" fill="#FF5E45" fill-rule="nonzero">
            <path d="M24.75,0 C19.374363,0 15,4.39549511 15,9.79710145 C15,11.1218045 15.2754698,12.3801811 15.7514648,13.5343068 C9.9446805,16.306527 5.52465375,21.373049 3.7998045,27.1319066 C3.7832238,27.1308619 3.76661314,27.130371 3.75,27.1304348 C2.49863707,27.1304348 1.5,26.1269734 1.5,24.8695652 C1.5,24.1005824 1.87755255,23.4303348 2.45507812,23.0208333 C2.73382739,22.8296254 2.85115632,22.4748917 2.74176456,22.1540619 C2.63237279,21.8332322 2.32320381,21.6253278 1.98632812,21.6460596 C1.84313993,21.6545329 1.70537193,21.7040829 1.58935545,21.7888358 C0.6278811,22.4705806 0,23.6022581 0,24.8695652 C0,26.8295311 1.51035705,28.4515174 3.41894535,28.6214903 C3.15339345,29.8642474 3,31.1288429 3,32.4057971 C3,38.8029027 6.59774475,43.946439 12,47.067595 L12,49.7391304 C12,50.978818 13.0162725,52 14.25,52 L18,52 C19.152963,52 20.0424262,51.0767257 20.1635745,49.9481433 C21.8851088,50.2587024 23.6500312,50.4927536 25.5,50.4927536 C27.6005183,50.4927536 29.6142757,50.2471991 31.5454103,49.8495242 C31.6122863,51.0308798 32.5588973,52 33.75,52 L37.5,52 C38.7337275,52 39.75,50.978818 39.75,49.7391304 L39.75,46.6377947 C42.9683535,44.6037906 45.447276,41.8132641 46.807617,38.4347826 L48.75,38.4347826 C49.9837275,38.4347826 51,37.4136006 51,36.173913 L51,27.1304348 C51,25.8907472 49.9837275,24.8695652 48.75,24.8695652 L46.0737307,24.8695652 C45.2988608,23.2759152 44.30304,21.7332493 43.1264648,20.2801176 L49.177734,14.201087 L48.416016,13.6918027 C48.416016,13.6918027 46.7540768,12.5783523 44.337891,12.130095 C43.7338432,12.0180305 43.0762215,11.9485178 42.3823245,11.9475773 C40.430535,11.9449396 38.1901965,12.5478306 36.020508,14.215806 C35.3348783,13.8256281 34.630389,13.4646863 33.9082035,13.1368889 C34.2859208,12.0926535 34.5,10.9703443 34.5,9.79710145 C34.5,4.39549511 30.125637,0 24.75,0 Z M24.75,1.50724638 C29.314863,1.50724638 33,5.21018597 33,9.79710145 C33,12.1818192 31.9943115,14.3144605 30.3940432,15.826087 L19.104492,15.826087 C17.5052393,14.3136443 16.5,12.181462 16.5,9.79710145 C16.5,5.21018597 20.185137,1.50724638 24.75,1.50724638 Z M24.75,3.01449275 C24.3357864,3.01449275 24,3.35190135 24,3.76811594 C24,4.18433054 24.3357864,4.52173913 24.75,4.52173913 C25.1642136,4.52173913 25.5,4.18433054 25.5,3.76811594 C25.5,3.35190135 25.1642136,3.01449275 24.75,3.01449275 Z M21.7324215,3.82257697 C21.6066908,3.82578196 21.4837811,3.86070716 21.375,3.92413946 C21.0163196,4.13192994 20.8930519,4.59246318 21.099609,4.95301206 C21.1991674,5.12624404 21.3631841,5.25259446 21.5555205,5.30422391 C21.747857,5.35585337 21.9527304,5.32852524 22.125,5.22826087 C22.4831483,5.01996599 22.6057283,4.55955197 22.3989255,4.19938857 C22.2619617,3.96085324 22.0064185,3.81638056 21.7324215,3.82257697 Z M27.713379,3.82404895 C27.4585794,3.83614197 27.227365,3.97753683 27.099609,4.19938857 C26.9999484,4.37266903 26.9729748,4.57866644 27.0246366,4.77195315 C27.0762984,4.96523987 27.2023522,5.12993989 27.375,5.2297327 C27.7338151,5.43728734 28.1921338,5.3134246 28.3989255,4.95301206 C28.6057285,4.59284859 28.4831485,4.13243434 28.125,3.92413946 C28.0002111,3.85173504 27.857306,3.81698599 27.713379,3.82404895 L27.713379,3.82404895 Z M29.926758,6.02898551 C29.8016536,6.0319866 29.6792848,6.06639495 29.5708005,6.12907571 C29.3981527,6.22886864 29.272099,6.39356881 29.2204374,6.58685562 C29.1687757,6.78014243 29.1957495,6.98613988 29.2954102,7.15942029 C29.3949686,7.33265207 29.5589852,7.45900234 29.7513215,7.51063178 C29.9436577,7.56226123 30.1485309,7.53493323 30.3208005,7.4346691 C30.6789489,7.22637449 30.8015292,6.76596063 30.5947267,6.4057971 C30.4575094,6.1667914 30.2012746,6.02224538 29.926758,6.02898551 L29.926758,6.02898551 Z M19.5190433,6.03045733 C19.2637141,6.04205902 19.0318418,6.18351865 18.9038085,6.4057971 C18.6972518,6.76634585 18.8205194,7.22687863 19.1791995,7.4346691 C19.5376313,7.6424707 19.9958315,7.51929857 20.203125,7.15942029 C20.4099275,6.79925696 20.2873476,6.33884316 19.9291995,6.13054829 C19.8048353,6.05841896 19.6624785,6.02367944 19.5190433,6.03045733 Z M24.75,7.53623188 C24.3357864,7.53623188 24,7.87364048 24,8.28985507 C24,8.70606967 24.3357864,9.04347826 24.75,9.04347826 C25.1642136,9.04347826 25.5,8.70606967 25.5,8.28985507 C25.5,7.87364048 25.1642136,7.53623188 24.75,7.53623188 Z M18.75,9.04347826 C18.3357864,9.04347826 18,9.38088686 18,9.79710145 C18,10.213316 18.3357864,10.5507246 18.75,10.5507246 C19.1642136,10.5507246 19.5,10.213316 19.5,9.79710145 C19.5,9.38088686 19.1642136,9.04347826 18.75,9.04347826 Z M30.75,9.04347826 C30.3357864,9.04347826 30,9.38088686 30,9.79710145 C30,10.213316 30.3357864,10.5507246 30.75,10.5507246 C31.1642136,10.5507246 31.5,10.213316 31.5,9.79710145 C31.5,9.38088686 31.1642136,9.04347826 30.75,9.04347826 Z M24.75,10.5507246 C24.3357864,10.5507246 24,10.8881332 24,11.3043478 C24,11.7205624 24.3357864,12.057971 24.75,12.057971 C25.1642136,12.057971 25.5,11.7205624 25.5,11.3043478 C25.5,10.8881332 25.1642136,10.5507246 24.75,10.5507246 Z M19.5351562,12.057971 C19.4095532,12.0607272 19.2866515,12.0951438 19.177734,12.1580612 C19.0053349,12.2581006 18.8795919,12.4229096 18.8282107,12.6161752 C18.7768294,12.8094408 18.8040262,13.015304 18.9038085,13.1884058 C19.111102,13.5482841 19.5693022,13.6714562 19.927734,13.4636546 C20.2864141,13.2558641 20.4096817,12.7953314 20.203125,12.4347826 C20.0659077,12.1957769 19.8096729,12.0512309 19.5351562,12.057971 Z M29.9106443,12.0594428 C29.6555509,12.0718482 29.4242724,12.2138371 29.296875,12.4362544 C29.0900719,12.7964179 29.212652,13.2568323 29.5708005,13.4651272 C29.9292326,13.6729292 30.3874335,13.5497566 30.5947268,13.1898776 C30.6945088,13.0167758 30.7217053,12.8109127 30.6703239,12.6176473 C30.6189425,12.4243819 30.4931996,12.259573 30.3208005,12.1595338 C30.1964363,12.0874045 30.0540795,12.052665 29.9106443,12.0594428 Z M42.3837892,13.4456321 C42.9752887,13.4513103 43.53918,13.5146877 44.0654295,13.6123188 C45.2734703,13.8364381 46.141455,14.1957483 46.7578125,14.5013591 L41.115234,20.1697238 L41.25,20.327219 C41.2499065,20.3340877 41.2499065,20.3409574 41.25,20.3478261 C41.2499052,20.7192187 41.5190964,21.0353128 41.8842772,21.0926176 C43.1406383,22.6231705 44.185761,24.2648474 44.953125,25.9381795 L45.1538085,26.3768116 L48.75,26.3768116 C49.1737725,26.3768116 49.5,26.7046151 49.5,27.1304348 L49.5,36.173913 C49.5,36.5997328 49.1737725,36.9275362 48.75,36.9275362 L45.8115233,36.9275362 L45.6313477,37.4235733 C44.4053332,40.8088976 41.9372077,43.6006533 38.614746,45.6030346 L38.25,45.8223503 L38.25,49.7391304 C38.25,50.1649501 37.9237725,50.4927536 37.5,50.4927536 L33.75,50.4927536 C33.3262275,50.4927536 33,50.1649501 33,49.7391304 L33,48.0081522 L32.0771482,48.2274686 C30.0099638,48.7207413 27.800139,48.9855072 25.5,48.9855072 C23.4687922,48.9855072 21.507876,48.77886 19.6523438,48.3908518 L18.75,48.2009734 L18.75,49.7391304 C18.75,50.1649501 18.4237725,50.4927536 18,50.4927536 L14.25,50.4927536 C13.8262275,50.4927536 13.5,50.1649501 13.5,49.7391304 L13.5,46.2344879 L13.108887,46.0195878 C7.84709925,43.1351937 4.5,38.3988604 4.5,32.4057971 C4.5,25.4253857 9.13905075,18.5711059 15.9301755,15.1239807 C15.8190817,15.3344533 15.75,15.5711317 15.75,15.826087 C15.75,16.6588406 16.42125,17.3333333 17.25,17.3333333 L32.25,17.3333333 C33.07875,17.3333333 33.75,16.6588406 33.75,15.826087 C33.75,15.3572889 33.5330168,14.9440758 33.1992188,14.667686 C33.2297873,14.6142646 33.2560545,14.5583511 33.2856443,14.5043027 C34.1093213,14.8666169 34.914588,15.2684653 35.6850585,15.7274686 L36.1435545,15.9997737 L36.5507812,15.6553446 C38.582817,13.941301 40.60929,13.430037 42.3837892,13.4456321 Z M39.75,21.8550725 C39.3357864,21.8550725 39,22.1924811 39,22.6086957 C39,23.0249102 39.3357864,23.3623188 39.75,23.3623188 C40.1642136,23.3623188 40.5,23.0249102 40.5,22.6086957 C40.5,22.1924811 40.1642136,21.8550725 39.75,21.8550725 Z M37.5,24.115942 C37.0857864,24.115942 36.75,24.4533506 36.75,24.8695652 C36.75,25.2857798 37.0857864,25.6231884 37.5,25.6231884 C37.9142136,25.6231884 38.25,25.2857798 38.25,24.8695652 C38.25,24.4533506 37.9142136,24.115942 37.5,24.115942 Z M46.5,27.884058 C46.0857864,27.884058 45.75,28.2214666 45.75,28.6376812 C45.75,29.0538958 46.0857864,29.3913043 46.5,29.3913043 C46.9142136,29.3913043 47.25,29.0538958 47.25,28.6376812 C47.25,28.2214666 46.9142136,27.884058 46.5,27.884058 Z M46.5,30.8985507 C46.0857864,30.8985507 45.75,31.2359593 45.75,31.6521739 C45.75,32.0683885 46.0857864,32.4057971 46.5,32.4057971 C46.9142136,32.4057971 47.25,32.0683885 47.25,31.6521739 C47.25,31.2359593 46.9142136,30.8985507 46.5,30.8985507 Z M46.5,33.9130435 C46.0857864,33.9130435 45.75,34.2504521 45.75,34.6666667 C45.75,35.0828813 46.0857864,35.4202899 46.5,35.4202899 C46.9142136,35.4202899 47.25,35.0828813 47.25,34.6666667 C47.25,34.2504521 46.9142136,33.9130435 46.5,33.9130435 Z M19.5,42.2028986 C19.0857864,42.2028986 18.75,42.5403071 18.75,42.9565217 C18.75,43.3727363 19.0857864,43.7101449 19.5,43.7101449 C19.9142136,43.7101449 20.25,43.3727363 20.25,42.9565217 C20.25,42.5403071 19.9142136,42.2028986 19.5,42.2028986 Z M32.25,42.2028986 C31.8357864,42.2028986 31.5,42.5403071 31.5,42.9565217 C31.5,43.3727363 31.8357864,43.7101449 32.25,43.7101449 C32.6642136,43.7101449 33,43.3727363 33,42.9565217 C33,42.5403071 32.6642136,42.2028986 32.25,42.2028986 Z M19.5,45.2173913 C19.0857864,45.2173913 18.75,45.5547999 18.75,45.9710145 C18.75,46.3872291 19.0857864,46.7246377 19.5,46.7246377 C19.9142136,46.7246377 20.25,46.3872291 20.25,45.9710145 C20.25,45.5547999 19.9142136,45.2173913 19.5,45.2173913 Z M32.25,45.2173913 C31.8357864,45.2173913 31.5,45.5547999 31.5,45.9710145 C31.5,46.3872291 31.8357864,46.7246377 32.25,46.7246377 C32.6642136,46.7246377 33,46.3872291 33,45.9710145 C33,45.5547999 32.6642136,45.2173913 32.25,45.2173913 Z" id="Shape"></path>
        </g>
    </g>
</svg>