<?xml version="1.0" encoding="UTF-8"?>
<svg width="47px" height="46px" viewBox="0 0 47 46" version="1.1" xmlns="http://www.w3.org/2000/svg" xmlns:xlink="http://www.w3.org/1999/xlink">
    <!-- Generator: sketchtool 61.2 (101010) - https://sketch.com -->
    <title>32D249D7-E4C6-4B5F-87B2-703EB6B9F4E4</title>
    <desc>Created with sketchtool.</desc>
    <g id="Asset-Artboard-Page" stroke="none" stroke-width="1" fill="none" fill-rule="evenodd">
        <g id="icon-/-scale" transform="translate(0.364915, 0.000000)" fill="#FF6046" fill-rule="nonzero">
            <path d="M27.7583916,0 L33.2654801,5.50708933 L5.50708933,33.2654801 L0,27.7583916 L0,46 L18.2416092,46 L12.7345199,40.4929107 L40.4929107,12.7345199 L46,18.2416092 L46,0 L27.7583916,0 Z M31.8712389,1.7037037 L44.2962963,1.7037037 L44.2962963,14.128762 L40.4929107,10.3253764 L10.3253764,40.4929107 L14.128762,44.2962963 L1.7037037,44.2962963 L1.7037037,31.8712389 L5.50708933,35.6746236 L35.6746236,5.50708933 L31.8712389,1.7037037 Z M36.6296296,6.81481481 C36.1604458,6.81481481 35.7777778,7.19748285 35.7777778,7.66666667 C35.7777778,8.13585048 36.1604458,8.51851852 36.6296296,8.51851852 C37.0988134,8.51851852 37.4814815,8.13585048 37.4814815,7.66666667 C37.4814815,7.19748285 37.0988134,6.81481481 36.6296296,6.81481481 Z M34.0740741,9.37037037 C33.6048903,9.37037037 33.2222222,9.75303841 33.2222222,10.2222222 C33.2222222,10.691406 33.6048903,11.0740741 34.0740741,11.0740741 C34.5432579,11.0740741 34.9259259,10.691406 34.9259259,10.2222222 C34.9259259,9.75303841 34.5432579,9.37037037 34.0740741,9.37037037 Z M31.5185185,11.9259259 C31.0493347,11.9259259 30.6666667,12.308594 30.6666667,12.7777778 C30.6666667,13.2469616 31.0493347,13.6296296 31.5185185,13.6296296 C31.9877023,13.6296296 32.3703704,13.2469616 32.3703704,12.7777778 C32.3703704,12.308594 31.9877023,11.9259259 31.5185185,11.9259259 Z M28.962963,14.4814815 C28.4937791,14.4814815 28.1111111,14.8641495 28.1111111,15.3333333 C28.1111111,15.8025171 28.4937791,16.1851852 28.962963,16.1851852 C29.4321468,16.1851852 29.8148148,15.8025171 29.8148148,15.3333333 C29.8148148,14.8641495 29.4321468,14.4814815 28.962963,14.4814815 Z M26.4074074,17.037037 C25.9382236,17.037037 25.5555556,17.4197051 25.5555556,17.8888889 C25.5555556,18.3580727 25.9382236,18.7407407 26.4074074,18.7407407 C26.8765912,18.7407407 27.2592593,18.3580727 27.2592593,17.8888889 C27.2592593,17.4197051 26.8765912,17.037037 26.4074074,17.037037 Z M23.8518519,19.5925926 C23.382668,19.5925926 23,19.9752606 23,20.4444444 C23,20.9136283 23.382668,21.2962963 23.8518519,21.2962963 C24.3210357,21.2962963 24.7037037,20.9136283 24.7037037,20.4444444 C24.7037037,19.9752606 24.3210357,19.5925926 23.8518519,19.5925926 Z M21.2962963,22.1481481 C20.8271125,22.1481481 20.4444444,22.5308162 20.4444444,23 C20.4444444,23.4691838 20.8271125,23.8518519 21.2962963,23.8518519 C21.7654801,23.8518519 22.1481481,23.4691838 22.1481481,23 C22.1481481,22.5308162 21.7654801,22.1481481 21.2962963,22.1481481 Z M18.7407407,24.7037037 C18.2715569,24.7037037 17.8888889,25.0863717 17.8888889,25.5555556 C17.8888889,26.0247394 18.2715569,26.4074074 18.7407407,26.4074074 C19.2099246,26.4074074 19.5925926,26.0247394 19.5925926,25.5555556 C19.5925926,25.0863717 19.2099246,24.7037037 18.7407407,24.7037037 Z M16.1851852,27.2592593 C15.7160014,27.2592593 15.3333333,27.6419273 15.3333333,28.1111111 C15.3333333,28.5802949 15.7160014,28.962963 16.1851852,28.962963 C16.654369,28.962963 17.037037,28.5802949 17.037037,28.1111111 C17.037037,27.6419273 16.654369,27.2592593 16.1851852,27.2592593 Z M13.6296296,29.8148148 C13.1604458,29.8148148 12.7777778,30.1974829 12.7777778,30.6666667 C12.7777778,31.1358505 13.1604458,31.5185185 13.6296296,31.5185185 C14.0988134,31.5185185 14.4814815,31.1358505 14.4814815,30.6666667 C14.4814815,30.1974829 14.0988134,29.8148148 13.6296296,29.8148148 Z M11.0740741,32.3703704 C10.6048903,32.3703704 10.2222222,32.7530384 10.2222222,33.2222222 C10.2222222,33.691406 10.6048903,34.0740741 11.0740741,34.0740741 C11.5432579,34.0740741 11.9259259,33.691406 11.9259259,33.2222222 C11.9259259,32.7530384 11.5432579,32.3703704 11.0740741,32.3703704 Z M8.51851852,34.9259259 C8.0493347,34.9259259 7.66666667,35.308594 7.66666667,35.7777778 C7.66666667,36.2469616 8.0493347,36.6296296 8.51851852,36.6296296 C8.98770233,36.6296296 9.37037037,36.2469616 9.37037037,35.7777778 C9.37037037,35.308594 8.98770233,34.9259259 8.51851852,34.9259259 Z" id="Shape"></path>
        </g>
    </g>
</svg>