<?xml version="1.0" encoding="UTF-8"?>
<svg width="49px" height="53px" viewBox="0 0 49 53" version="1.1" xmlns="http://www.w3.org/2000/svg" xmlns:xlink="http://www.w3.org/1999/xlink">
    <!-- Generator: sketchtool 61.2 (101010) - https://sketch.com -->
    <title>2208BCAA-767C-4C96-8896-8A54960B9E9A</title>
    <desc>Created with sketchtool.</desc>
    <g id="Asset-Artboard-Page" stroke="none" stroke-width="1" fill="none" fill-rule="evenodd">
        <g id="icon-/-security" transform="translate(0.364915, 0.000000)" fill="#FF5E45" fill-rule="nonzero">
            <path d="M24,-2.94209102e-14 L23.6298488,0.184387248 C23.6298488,0.184387248 13.862069,5.06579614 0.827586207,5.06579614 L0,5.06579614 L0,5.89392114 C0,25.108821 5.86735697,36.7245958 11.7898709,43.4975892 C17.712384,50.2705826 23.7462281,52.2301027 23.7462281,52.2301027 L24,52.3109741 L24.2521548,52.2301027 C24.2521548,52.2301027 30.2859989,50.2705826 36.2085128,43.4975892 C42.1310268,36.7245958 48,25.108821 48,5.89392114 L48,5.06579614 L47.1724138,5.06579614 C34.137931,5.06579614 24.3701512,0.184387248 24.3701512,0.184387248 L24,-2.94209102e-14 Z M24,1.82931558 C24.9508378,2.28888273 33.9975741,6.48155792 46.314116,6.68322789 C46.1499949,25.0623967 40.5428666,36.0254808 34.9622848,42.4074411 C29.5046814,48.6487626 24.3824706,50.4024307 24,50.5301823 C23.6192566,50.4030369 18.494688,48.6498897 13.036099,42.4074411 C7.45551718,36.0254808 1.85000599,25.0623967 1.68588323,6.68322789 C14.0022819,6.48149416 23.0491697,2.28887859 24,1.82931558 Z M22.4466594,6.10580444 L22.1605603,6.15917958 L22.0829741,6.18829315 L21.5786638,6.73336834 L21.7144392,7.4628297 L22.3787717,7.79116802 L22.6648707,7.73779287 L22.7424569,7.70867931 L23.2467672,7.16360495 L23.110991,6.43414359 L22.4466594,6.10580444 Z M25.8216599,6.16564981 L25.0862071,6.25299133 L24.7144397,6.89672851 L25.0086209,7.57766755 L25.2607757,7.72323619 L25.3383619,7.75234975 L26.0754309,7.66339091 L26.4455821,7.02127106 L26.1530171,6.33871469 L25.8992461,6.19314604 L25.8216599,6.16564981 Z M19.2947197,7.2024231 L19.0053881,7.23638947 L18.9261848,7.26065022 L18.387931,7.77014168 L18.4735994,8.50769048 L19.1153015,8.87969911 L19.4062502,8.84573357 L19.4854527,8.82147199 L20.0220902,8.3103632 L19.9364226,7.57443256 L19.2947197,7.2024231 Z M28.9849137,7.23638995 L28.2543107,7.36901914 L27.924569,8.03216591 L28.2575433,8.69531269 L28.5177802,8.82632455 L28.5969827,8.8489688 L29.3275865,8.71795694 L29.6589438,8.05319284 L29.324354,7.39004523 L29.0641162,7.2606507 L28.9849137,7.23638995 Z M16.0829743,8.1227417 L15.7920256,8.13891581 L15.7112069,8.15670807 L15.1422414,8.63385052 L15.1826508,9.37463401 L15.8001079,9.78546103 L16.0910557,9.76928692 L16.1718753,9.74987816 L16.7408408,9.27435304 L16.7004306,8.53356955 L16.0829743,8.1227417 Z M32.2225216,8.13568115 L31.4983837,8.29257192 L31.1896552,8.9670408 L31.5452582,9.61886626 L31.8103448,9.74017333 L31.8895473,9.76120025 L32.6153014,9.60430865 L32.92403,8.92983977 L32.568427,8.27801514 L32.3033404,8.15670807 L32.2225216,8.13568115 Z M12.8033404,8.8586731 L12.5123917,8.86514241 L12.4299567,8.88131735 L11.8448276,9.33581553 L11.8593749,10.0782163 L12.4622847,10.5116884 L12.7532325,10.5052183 L12.8356684,10.4890442 L13.4207975,10.0329287 L13.4062502,9.29214436 L12.8033404,8.8586731 Z M35.4682113,8.86837769 L34.7570044,9.07864359 L34.5,9.77413941 L34.9024783,10.3968505 L35.1756464,10.4971315 L35.2580822,10.5133056 L35.9692883,10.3030388 L36.2262927,9.60592652 L35.8238144,8.98321461 L35.5490301,8.88293447 L35.4682113,8.86837769 Z M38.7769398,9.41830444 L38.0754305,9.65930207 L37.8475216,10.3645018 L38.275862,10.9694215 L38.5538788,11.0599977 L38.6346984,11.0713198 L39.3362069,10.8303222 L39.565733,10.1251224 L39.1357754,9.52020274 L38.8577586,9.42962657 L38.7769398,9.41830444 Z M9.2020467,9.43447876 L9.12122794,9.44741821 L8.51831897,9.8808903 L8.50538793,10.6216738 L9.09213332,11.076172 L9.38308119,11.0826421 L9.46551705,11.0697026 L10.0668098,10.6362306 L10.0797408,9.89382975 L9.49461167,9.43933157 L9.2020467,9.43447876 Z M5.97575426,9.8097227 C5.95634462,9.80957888 5.93693593,9.81011832 5.91756419,9.81134003 C5.86930846,9.81415566 5.85703619,9.81735222 5.87715481,9.81619285 L5.09806016,9.86148052 L5.09806016,10.6782842 C5.09407091,11.0183452 5.29823728,11.3262832 5.61289885,11.4547999 C5.92756042,11.5833166 6.28875374,11.5062876 6.52370656,11.2605588 C6.52478732,11.2594835 6.52586512,11.2584053 6.52693994,11.2573241 C6.78425127,11.0287766 6.87343039,10.664775 6.75093276,10.3430545 C6.62843514,10.021334 6.31981035,9.80899655 5.97575426,9.8097227 Z M42.0000013,9.80972289 C41.6583981,9.81851453 41.3573124,10.036474 41.2420862,10.3583865 C41.1268601,10.6802991 41.2211848,11.039977 41.4795274,11.2637945 C41.4806019,11.2648757 41.4816794,11.2659539 41.4827599,11.2670291 C41.7196509,11.5093126 42.0801701,11.5826989 42.3928287,11.4522803 C42.7054872,11.3218617 42.9071696,11.0139653 42.9019412,10.6750489 L42.9019412,9.86148071 L42.1228457,9.81619304 C42.1429644,9.81735241 42.1307095,9.81423949 42.0824364,9.81134022 C42.0550019,9.80943104 42.0274894,9.80889126 42.0000013,9.80972289 Z M41.7963359,13.2419128 L41.2144393,13.701263 L41.1400857,13.9843137 L41.1320043,14.0684205 L41.4084048,14.7574462 L42.1260776,14.9466852 L42.7063579,14.487335 L42.782327,14.2042844 L42.7887929,14.1201783 L42.5123915,13.4327692 L41.7963359,13.2419128 Z M5.75431021,13.3066101 L5.23545258,13.8371277 L5.19665948,14.1266476 L5.19827576,14.160614 L5.19827576,14.1719361 L5.19827576,14.1848748 L5.20312459,14.2350152 L5.58135712,14.8739013 L6.32004314,14.9499207 L6.82273636,14.4064636 L6.85344808,14.1153255 L6.8518318,14.0894466 L6.85021553,14.065185 L6.85021553,14.0554802 L6.48976286,13.4068902 L5.75431021,13.3066101 Z M22.448276,13.3244019 L21.4865298,15.757019 C20.0233573,16.1868159 18.6876464,16.9653313 17.5894396,18.0311281 L15.030711,17.6591187 L13.359375,20.5834351 L14.9595907,22.6424254 C14.7758666,23.3976754 14.6815731,24.1604175 14.6815731,24.9181519 C14.6815731,25.6758862 14.775039,26.4386283 14.9595907,27.1938783 L13.359375,29.2528687 L15.030711,32.1788024 L17.5894396,31.8051756 C18.688474,32.8701443 20.0233573,33.6503159 21.4865298,34.0792847 L22.448276,36.5119019 L25.7877154,36.5119019 L26.7494616,34.0792847 C28.212634,33.6503159 29.5483449,32.8709724 30.6465518,31.8051756 L33.2052804,32.1788024 L34.8766164,29.2528687 L33.2764007,27.1938783 C33.4601248,26.4386283 33.5544183,25.6758862 33.5544183,24.9181519 C33.5544183,24.1604175 33.4609524,23.3976754 33.2764007,22.6424254 L34.8766164,20.5834351 L33.2052804,17.6575013 L30.6465518,18.0311281 C29.5475173,16.9661594 28.212634,16.1859878 26.7494616,15.757019 L25.7877154,13.3244019 L22.448276,13.3244019 Z M23.3615306,14.6895142 L24.8744608,14.6895142 L25.7521549,16.9053952 L26.0851293,16.9911186 C27.5499569,17.3612904 28.8779225,18.137309 29.9256466,19.2312612 L30.1648712,19.4803463 L32.4940738,19.1406859 L33.2521552,20.4685967 L31.7957979,22.3399653 L31.8895477,22.6747738 C32.0997546,23.41843 32.2063576,24.1728386 32.2063584,24.9181511 C32.2063584,25.6634635 32.0997546,26.4187003 31.8895477,27.1615284 L31.7957979,27.4963368 L33.2505389,29.3677054 L32.4940738,30.6956163 L30.1632549,30.3559558 L29.9240304,30.6050409 C28.8763062,31.6998221 27.5499569,32.4750117 26.0851293,32.8451836 L25.7505386,32.9309069 L24.8744608,35.146788 L23.3615306,35.146788 L22.4838362,32.9309069 L22.1508621,32.8451836 C20.6860345,32.4750117 19.3580689,31.6989932 18.3103447,30.6050409 L18.0711202,30.3559558 L15.7419176,30.6956163 L14.9838362,29.3677054 L16.4401935,27.4963368 L16.3448274,27.1615284 C16.1354481,26.4187003 16.0296338,25.6634635 16.0296329,24.9181511 C16.0296329,24.1728386 16.1362368,23.4176019 16.3464437,22.6747738 L16.4401935,22.3399653 L14.9854525,20.4685967 L15.7419176,19.1406859 L18.0727364,19.4803463 L18.311961,19.2312612 C19.3596852,18.1364808 20.6860345,17.3612904 22.1508621,16.9911186 L22.4854527,16.9053952 L23.3615306,14.6895142 Z M41.498922,16.6757202 L40.8879308,17.0962529 L40.794181,17.3728334 L40.78125,17.4569394 L41.0107752,18.16214 L41.7139008,18.3999021 L42.324892,17.9793703 L42.4186417,17.702789 L42.4315728,17.618683 L42.2004304,16.9134824 L41.498922,16.6757202 Z M5.99353417,16.8034973 L5.5231681,17.3776852 L5.51023707,17.6688234 L5.52155183,17.7529294 L5.94019376,18.3659365 L6.6804961,18.3982847 L7.14924589,17.8240968 L7.16217692,17.5329587 L7.15086216,17.4488526 L6.73383651,16.8358455 L5.99353417,16.8034973 Z M40.9525867,20.0787964 L40.3141164,20.4572752 L40.2025867,20.7273864 L40.184806,20.8098751 L40.3658405,21.5280151 L41.0511862,21.8126831 L41.6896557,21.4342043 L41.8011861,21.1657104 L41.818966,21.0816044 L41.6363153,20.3634644 L40.9525867,20.0787964 Z M7.22844808,20.2518616 L6.48652946,20.264801 L6.0549565,20.8681033 L6.05980616,21.1592414 L6.07596974,21.2433475 L6.5317885,21.8288575 L7.27209001,21.8143007 L7.70528007,21.2126166 L7.70043042,20.9198611 L7.68265056,20.8373724 L7.22844808,20.2518616 Z M24.1179961,20.8600159 C22.8283412,20.8600159 21.7674336,21.3711106 21.0792029,22.1458746 C20.3909723,22.9206377 20.0625,23.9244022 20.0625,24.9181523 C20.0625,25.9119023 20.3909723,26.9156668 21.0792029,27.6904299 C21.7674336,28.4651939 22.8283412,28.9762886 24.1179961,28.9762886 C25.407651,28.9762886 26.4685586,28.4651939 27.1567893,27.6904299 C27.8450199,26.9156668 28.1734922,25.9119023 28.1734922,24.9181523 C28.1734922,23.9244022 27.8450199,22.9206377 27.1567893,22.1458746 C26.4685586,21.3711106 25.407651,20.8600159 24.1179961,20.8600159 Z M24.1179953,22.3512878 C25.0352364,22.3512878 25.629502,22.6683181 26.0447194,23.1357416 C26.4599367,23.603166 26.6831889,24.2556515 26.6831889,24.9181515 C26.6831889,25.5806514 26.4599367,26.2331369 26.0447194,26.7005613 C25.629502,27.1679848 25.0352364,27.4850151 24.1179953,27.4850151 C23.2007542,27.4850151 22.6064886,27.1679848 22.1912712,26.7005613 C21.7760539,26.2331369 21.5528017,25.5806514 21.5528017,24.9181515 C21.5528017,24.2556515 21.7760539,23.603166 22.1912712,23.1357416 C22.6064886,22.6683181 23.2007542,22.3512878 24.1179953,22.3512878 Z M40.1492457,23.4301147 L39.4881467,23.7649232 L39.3588363,24.0269469 L39.3345905,24.1078183 L39.4687497,24.8372805 L40.1330813,25.1672361 L40.7941811,24.8308103 L40.9251077,24.570404 L40.9477373,24.4895326 L40.8135773,23.7584531 L40.1492457,23.4301147 Z M7.9655168,23.6209717 L7.2268316,23.6824335 L6.83405093,24.3116147 L6.85829673,24.6027528 L6.87930997,24.6836242 L7.37068925,25.2400207 L8.10937445,25.178558 L8.50377057,24.5493777 L8.4795256,24.2598569 L8.45689609,24.1773682 L7.9655168,23.6209717 Z M39.1082975,26.7070312 L38.4164876,26.9771424 L38.2629314,27.2246094 L38.2306034,27.3022461 L38.2936423,28.0414122 L38.9224142,28.4344486 L39.6142241,28.1659548 L39.7677803,27.9168705 L39.8001083,27.8392338 L39.7370694,27.1000677 L39.1082975,26.7070312 Z M8.94504311,26.9124451 L8.21605552,27.0450743 L7.88469828,27.7082218 L7.93642241,27.9961245 L7.96551703,28.0753785 L8.50862049,28.5816345 L9.23922352,28.4490053 L9.56896532,27.7842412 L9.51724118,27.4979551 L9.48814656,27.4187011 L8.94504311,26.9124451 Z M37.7570044,29.8820496 L37.0538789,30.1181944 L36.8890088,30.3591911 L36.8534483,30.4352105 L36.8809266,31.1776121 L37.4919178,31.5981439 L38.1950433,31.3619991 L38.3599134,31.1226197 L38.3954739,31.044983 L38.3679956,30.3041987 L37.7570044,29.8820496 Z M10.2300648,30.1036377 L9.51400913,30.2944948 L9.23760776,30.9835205 L9.31196141,31.264953 L9.34752196,31.3425897 L9.92941851,31.8019407 L10.6454742,31.6127009 L10.9218756,30.9236752 L10.8475219,30.6422419 L10.8119614,30.5646052 L10.2300648,30.1036377 Z M36.1955817,32.9389954 L35.4698275,33.0877987 L35.275862,33.306152 L35.23222,33.3789368 L35.1707974,34.1181029 L35.7252156,34.6114195 L36.4525861,34.4609989 L36.6449354,34.2426455 L36.6885773,34.1698607 L36.7516162,33.4306946 L36.1955817,32.9389954 Z M11.7381469,33.1735229 L11.0511858,33.4533389 L10.8636853,34.1714782 L10.9735996,34.4415894 L11.0188578,34.5127568 L11.6540947,34.8977049 L12.3410558,34.6178897 L12.5285562,33.8997497 L12.418642,33.6296385 L12.3733838,33.5584719 L11.7381469,33.1735229 Z M34.3448281,35.84552 L33.612608,35.9538885 L33.4057114,36.1609197 L33.3588369,36.2304689 L33.2537716,36.9664004 L33.7807114,37.4888314 L34.5129315,37.3804629 L34.7198281,37.1734317 L34.7667034,37.1038824 L34.8717679,36.3695683 L34.3448281,35.84552 Z M13.614763,36.070343 L12.9455818,36.3905947 L12.8017241,37.1184387 L12.9278019,37.3820798 L12.977909,37.4500117 L13.6341592,37.7945249 L14.3033404,37.4742733 L14.4471981,36.7464292 L14.3211203,36.4827882 L14.2726295,36.4148554 L13.614763,36.070343 Z M32.2758618,38.5870667 L31.5355603,38.616181 L31.3076505,38.7989507 L31.2526939,38.863648 L31.0700431,39.5834045 L31.5371766,40.1592106 L32.2774781,40.130097 L32.5053879,39.9473274 L32.5603445,39.8826293 L32.7429953,39.16449 L32.2758618,38.5870667 Z M15.7209051,38.768219 L15.0937495,39.1628727 L15.033944,39.9020389 L15.1891164,40.1495058 L15.2456893,40.2125857 L15.9391164,40.4794623 L16.5662711,40.0831912 L16.6260775,39.3440251 L16.4709051,39.0965581 L16.412715,39.0350955 L15.7209051,38.768219 Z M29.2273705,41.087616 L28.9832971,41.2477414 L28.9218753,41.3059685 L28.6681034,42.0030817 L29.0754306,42.6241754 L29.815733,42.6694639 L30.0581893,42.5093385 L30.1196119,42.4511105 L30.3733838,41.7539974 L29.9676721,41.1329036 L29.2273705,41.087616 Z M18.1050647,41.22995 L17.5231681,41.6893001 L17.540948,42.4300836 L17.7219824,42.6597591 L17.7850213,42.7163698 L18.5026942,42.9088434 L19.0845907,42.4494932 L19.0651937,41.7070924 L18.8857755,41.4790342 L18.8211204,41.4224244 L18.1050647,41.22995 Z M26.6831898,43.3180542 L26.4245691,43.453918 L26.3582976,43.5056759 L26.0382543,44.1752928 L26.3825434,44.8319702 L27.1147636,44.9500426 L27.3733843,44.8141788 L27.4396557,44.762421 L27.7596991,44.0928041 L27.4154099,43.4361266 L26.6831898,43.3180542 Z M20.751078,43.4151001 L20.2144397,43.9278254 L20.3033406,44.6637569 L20.5053883,44.8756402 L20.5732761,44.9257806 L21.3054954,45.0487059 L21.8421337,44.5359797 L21.7532328,43.8000482 L21.5511859,43.588165 L21.4832973,43.5380245 L20.751078,43.4151001 Z M23.9321122,45.1845714 C23.5497775,45.1933215 23.2232176,45.4630501 23.1421684,45.837041 C23.0611193,46.211032 23.2466876,46.5918907 23.5910556,46.7583328 C23.5885729,46.7570906 23.5993282,46.7633048 23.6249999,46.7761242 L23.9951503,46.960512 L24.400862,46.7583328 C24.7557571,46.5861456 24.9399271,46.1872922 24.8409447,45.8052547 C24.7419623,45.4232171 24.3873297,45.1641444 23.993534,45.1861887 C23.9730871,45.1848891 23.9525991,45.1843496 23.9321122,45.1845714 L23.9321122,45.1845714 Z" id="Shape"></path>
        </g>
    </g>
</svg>