<?xml version="1.0" encoding="UTF-8"?>
<svg width="804px" height="450px" viewBox="0 0 804 450" version="1.1" xmlns="http://www.w3.org/2000/svg" xmlns:xlink="http://www.w3.org/1999/xlink">
    <!-- Generator: Sketch 54.1 (76490) - https://sketchapp.com -->
    <title>bg</title>
    <desc>Created with Sketch.</desc>
    <g id="💻-Desktop" stroke="none" stroke-width="1" fill="none" fill-rule="evenodd">
        <g id="0.0.2-Get-an-estimate-Thank-you" transform="translate(-151.000000, -93.000000)" fill-rule="nonzero">
            <g id="bg" transform="translate(151.000000, 93.000000)">
                <circle id="Oval" fill="#FF5E45" cx="794" cy="10" r="10"></circle>
                <circle id="Oval-Copy-4" fill="#FFB040" cx="10" cy="440" r="10"></circle>
                <g id="quote" transform="translate(291.000000, 227.000000)" fill="#FFF7F1">
                    <path d="M25.9112395,28.6360388 L15.8344538,28.6360388 C14.6347689,28.6360388 13.6148634,28.2185463 12.7750525,27.3832478 C11.9357143,26.5479493 11.5154937,25.5338373 11.5154937,24.3402851 L11.5154937,22.9091507 C11.5154937,19.7470836 12.6403361,17.0478 14.8898634,14.8103597 C17.1392332,12.573703 19.8535714,11.4549045 23.0324055,11.4549045 L25.9112395,11.4549045 C26.6908613,11.4549045 27.3653887,11.1714045 27.9354517,10.6048746 C28.5051996,10.0380313 28.7900735,9.36712836 28.7900735,8.59153881 L28.7900735,2.86386716 C28.7900735,2.08843433 28.505042,1.41690448 27.9354517,0.850061194 C27.3655462,0.284001493 26.6910189,3.13432836e-05 25.9112395,3.13432836e-05 L23.0324055,3.13432836e-05 C19.9131303,3.13432836e-05 16.9372374,0.604643284 14.1028361,1.81214328 C11.26875,3.02042687 8.81738445,4.65372537 6.74779412,6.71219552 C4.67836134,8.76972537 3.03671218,11.2080761 1.82205882,14.0272478 C0.607405462,16.846106 -1.39266376e-12,19.8067925 -1.39266376e-12,22.908994 L-1.39266376e-12,54.4075836 C-1.39266376e-12,56.7951582 0.839338235,58.8224418 2.51880252,60.493509 C4.19842437,62.1636358 6.23823529,62.9986209 8.63728992,62.9986209 L25.9123424,62.9986209 C28.3112395,62.9986209 30.3504202,62.1636358 32.0301996,60.493509 C33.7093487,58.8224418 34.5491597,56.7951582 34.5491597,54.4075836 L34.5491597,37.2269194 C34.5491597,34.8396582 33.7093487,32.8125313 32.0290966,31.1413075 C30.350105,29.4713373 28.3101366,28.6360388 25.9112395,28.6360388" id="Fill-1"></path>
                    <path d="M72.3375473,31.1412761 C70.6587132,29.471306 68.6192174,28.6360075 66.2198477,28.6360075 L56.1432195,28.6360075 C54.9440074,28.6360075 53.9233141,28.2185149 53.0849212,27.3832164 C52.2447952,26.5479179 51.8252048,25.533806 51.8252048,24.3402537 L51.8252048,22.9091194 C51.8252048,19.7470522 52.9500473,17.0477687 55.1986292,14.8103284 C57.4470536,12.5736716 60.1613918,11.4548731 63.3416439,11.4548731 L66.2200053,11.4548731 C66.9996271,11.4548731 67.6746271,11.1713731 68.2442174,10.6048433 C68.8136502,10.038 69.0994695,9.36709701 69.0994695,8.59150746 L69.0994695,2.86383582 C69.0994695,2.08840299 68.8138078,1.41687313 68.2442174,0.850029851 C67.6747847,0.283970149 66.9997847,0 66.2200053,0 L63.3416439,0 C60.2207931,0 57.2455305,0.60461194 54.4103414,1.81211194 C51.5765704,3.02039552 49.1261502,4.65369403 47.0565599,6.71216418 C44.986812,8.76969403 43.344375,11.2080448 42.1301943,14.0272164 C40.9158561,16.8460746 40.3078204,19.8067612 40.3078204,22.9089627 L40.3078204,54.4075522 C40.3078204,56.7951269 41.1479464,58.8224104 42.8267805,60.4934776 C44.5059296,62.1636045 46.5454254,62.9985896 48.9446376,62.9985896 L66.2187447,62.9985896 C68.6184296,62.9985896 70.6576103,62.1636045 72.3364443,60.4934776 C74.0166964,58.8224104 74.8552468,56.7951269 74.8552468,54.4075522 L74.8552468,37.2268881 C74.8552468,34.8396269 74.0166964,32.8125 72.3375473,31.1412761" id="Fill-4"></path>
                </g>
            </g>
        </g>
    </g>
</svg>