<?xml version="1.0" encoding="UTF-8"?>
<svg width="59px" height="20px" viewBox="0 0 59 20" version="1.1" xmlns="http://www.w3.org/2000/svg" xmlns:xlink="http://www.w3.org/1999/xlink">
    <!-- Generator: sketchtool 63.1 (101010) - https://sketch.com -->
    <title>0B87B007-BF0E-44AC-94D1-D437B6C6D778</title>
    <desc>Created with sketchtool.</desc>
    <g id="Asset-Artboard-Page" stroke="none" stroke-width="1" fill="none" fill-rule="evenodd">
        <g id="Logo-/-PWA" transform="translate(0.364915, 0.000000)" fill="#FF5E45" fill-rule="nonzero">
            <path d="M1.596,19.6 L1.596,11.088 L6.832,11.088 C10.64,11.088 13.076,9.016 13.076,5.488 C13.076,1.988 10.612,-1.59872116e-13 7,-1.59872116e-13 L2.50111043e-12,-1.59872116e-13 L2.50111043e-12,19.6 L1.596,19.6 Z M6.944,9.66 L1.596,9.66 L1.596,1.456 L7.056,1.456 C9.66,1.456 11.396,2.912 11.396,5.544 C11.396,7.98 10.08,9.66 6.944,9.66 Z M22.344,19.6 C23.716,14.756 26.712,4.62 27.216,2.044 L27.244,2.044 C27.608,3.752 30.632,14.98 31.892,19.6 L33.684,19.6 L39.676,-1.59872116e-13 L38.08,-1.59872116e-13 C36.736,4.648 33.488,14.952 32.872,17.752 L32.844,17.752 C32.536,16.184 29.428,4.76 28.14,-1.59872116e-13 L26.432,-1.59872116e-13 C25.06,5.18 21.868,15.904 21.504,17.78 L21.476,17.78 C21.028,15.484 18.116,4.816 16.772,-1.59872116e-13 L15.148,-1.59872116e-13 L20.552,19.6 L22.344,19.6 Z M42.672,19.6 L45.136,12.88 L53.368,12.88 L55.888,19.6 L57.596,19.6 L50.12,-1.59872116e-13 L48.244,-1.59872116e-13 L41.076,19.6 L42.672,19.6 Z M52.864,11.424 L45.668,11.424 C47.432,6.468 48.664,3.024 49.14,1.512 L49.168,1.512 C49.588,2.856 50.68,5.656 52.864,11.424 Z" id="PWA"></path>
        </g>
    </g>
</svg>