<?xml version="1.0" encoding="UTF-8"?>
<svg width="60px" height="21px" viewBox="0 0 60 21" version="1.1" xmlns="http://www.w3.org/2000/svg" xmlns:xlink="http://www.w3.org/1999/xlink">
    <!-- Generator: sketchtool 63.1 (101010) - https://sketch.com -->
    <title>DC329748-A5D9-4AE1-99B6-05C2ED8A832C</title>
    <desc>Created with sketchtool.</desc>
    <g id="Asset-Artboard-Page" stroke="none" stroke-width="1" fill="none" fill-rule="evenodd">
        <g id="Logo-/-PWA" transform="translate(0.364915, 0.000000)" fill="#FF5E45" fill-rule="nonzero">
            <path d="M7.056,20.104 C11.62,20.104 13.72,17.612 13.72,14.728 C13.72,12.348 12.908,10.136 7.392,8.764 C3.78,7.896 2.52,7.056 2.52,4.9 C2.52,2.744 4.032,1.456 6.832,1.456 C9.912,1.456 11.256,2.94 11.704,5.04 L13.328,5.04 C13.076,2.632 11.256,-4.4941828e-13 6.916,-4.4941828e-13 C2.716,-4.4941828e-13 0.84,2.408 0.84,5.012 C0.84,7.84 2.604,9.184 6.776,10.22 C11.06,11.284 12.04,12.628 12.04,14.84 C12.04,16.94 10.696,18.732 7.14,18.732 C3.92,18.732 2.212,17.192 1.624,14.616 L4.5972115e-12,14.616 C0.364,17.248 2.156,20.104 7.056,20.104 Z M21.056,20.216 C23.94,20.216 25.172,18.76 25.648,17.752 C25.704,18.928 25.788,19.544 25.9,19.88 L27.3,19.88 C27.216,19.432 27.104,18.424 27.104,17.192 L27.104,9.968 C27.104,6.888 25.284,5.544 22.092,5.544 C18.2,5.544 17.248,7.896 17.08,9.464 L18.536,9.464 C18.844,8.316 19.264,6.86 22.064,6.86 C25.228,6.86 25.648,8.708 25.648,10.108 L25.648,11.508 L22.988,11.508 C18.788,11.508 16.408,12.936 16.408,16.016 C16.408,18.116 17.808,20.216 21.056,20.216 Z M21.14,18.9 C19.18,18.9 17.948,17.696 17.948,15.96 C17.948,13.552 19.852,12.74 22.932,12.74 L25.676,12.74 L25.676,13.244 C25.676,16.24 25.116,18.9 21.14,18.9 Z M35.308,20.216 C38.192,20.216 39.424,18.76 39.9,17.752 C39.956,18.928 40.04,19.544 40.152,19.88 L41.552,19.88 C41.468,19.432 41.356,18.424 41.356,17.192 L41.356,9.968 C41.356,6.888 39.536,5.544 36.344,5.544 C32.452,5.544 31.5,7.896 31.332,9.464 L32.788,9.464 C33.096,8.316 33.516,6.86 36.316,6.86 C39.48,6.86 39.9,8.708 39.9,10.108 L39.9,11.508 L37.24,11.508 C33.04,11.508 30.66,12.936 30.66,16.016 C30.66,18.116 32.06,20.216 35.308,20.216 Z M35.392,18.9 C33.432,18.9 32.2,17.696 32.2,15.96 C32.2,13.552 34.104,12.74 37.184,12.74 L39.928,12.74 L39.928,13.244 C39.928,16.24 39.368,18.9 35.392,18.9 Z M52.024,20.104 C56.588,20.104 58.688,17.612 58.688,14.728 C58.688,12.348 57.876,10.136 52.36,8.764 C48.748,7.896 47.488,7.056 47.488,4.9 C47.488,2.744 49,1.456 51.8,1.456 C54.88,1.456 56.224,2.94 56.672,5.04 L58.296,5.04 C58.044,2.632 56.224,-4.4941828e-13 51.884,-4.4941828e-13 C47.684,-4.4941828e-13 45.808,2.408 45.808,5.012 C45.808,7.84 47.572,9.184 51.744,10.22 C56.028,11.284 57.008,12.628 57.008,14.84 C57.008,16.94 55.664,18.732 52.108,18.732 C48.888,18.732 47.18,17.192 46.592,14.616 L44.968,14.616 C45.332,17.248 47.124,20.104 52.024,20.104 Z" id="SaaS"></path>
        </g>
    </g>
</svg>