<?xml version="1.0" encoding="UTF-8"?>
<svg width="45px" height="44px" viewBox="0 0 45 44" version="1.1" xmlns="http://www.w3.org/2000/svg" xmlns:xlink="http://www.w3.org/1999/xlink">
    <!-- Generator: sketchtool 61.2 (101010) - https://sketch.com -->
    <title>776A6CD1-DDF4-4085-8249-95E0F1FC69B8</title>
    <desc>Created with sketchtool.</desc>
    <g id="Asset-Artboard-Page" stroke="none" stroke-width="1" fill="none" fill-rule="evenodd">
        <g id="icon-/-analytics" transform="translate(0.487992, 0.000000)" fill="#FF5E45" fill-rule="nonzero">
            <path d="M32,0 C29.802666,0 28,1.8026661 28,4 L28,14 L18,14 C15.802666,14 14,15.802666 14,18 L14,28 L4,28 C1.8026661,28 0,29.802666 0,32 L0,40 C0,42.197334 1.8026661,44 4,44 L28,44 L30,44 L40,44 C42.197334,44 44,42.197334 44,40 L44,4 C44,1.8026661 42.197334,0 40,0 L32,0 Z M32,2 L40,2 C40.762173,2 41.408007,2.4168569 41.746094,3.0332031 C41.3066477,3.14856153 41.0001963,3.54566471 41,4 C41,4.55228475 41.4477153,5 42,5 L42,9 C41.4477153,9 41,9.44771525 41,10 C41,10.5522847 41.4477153,11 42,11 L42,16 C41.4477153,16 41,16.4477153 41,17 C41,17.5522847 41.4477153,18 42,18 L42,22 C41.4477153,22 41,22.4477153 41,23 C41,23.5522847 41.4477153,24 42,24 L42,27 C41.4477153,27 41,27.4477153 41,28 C41,28.5522847 41.4477153,29 42,29 L42,33 C41.4477153,33 41,33.4477153 41,34 C41,34.5522847 41.4477153,35 42,35 L42,39 C41.4477153,39 41,39.4477153 41,40 C41.0001962,40.4543353 41.3066477,40.8514386 41.746094,40.966797 C41.408007,41.583143 40.762173,42 40,42 L30,42 L30,41 C30.5522847,41 31,40.5522847 31,40 C31,39.4477153 30.5522847,39 30,39 L30,35 C30.5522847,35 31,34.5522847 31,34 C31,33.4477153 30.5522847,33 30,33 L30,29 C30.5522847,29 31,28.5522847 31,28 C31,27.4477153 30.5522847,27 30,27 L30,23 C30.5522847,23 31,22.5522847 31,22 C31,21.4477153 30.5522847,21 30,21 L30,17 C30.5522847,17 31,16.5522847 31,16 C31.0000511,15.4530107 30.5606101,15.0074784 30.013672,15 C30.013315,14.9469866 30.0087432,14.8940856 30,14.841797 L30,11 C30.5522847,11 31,10.5522847 31,10 C31,9.44771525 30.5522847,9 30,9 L30,5 C30.5522847,5 31,4.55228475 31,4 C30.9998037,3.54566471 30.6933523,3.14856153 30.253906,3.0332031 C30.591993,2.4168569 31.237827,2 32,2 Z M36,3 C35.4477153,3 35,3.44771525 35,4 C35,4.55228475 35.4477153,5 36,5 C36.5522847,5 37,4.55228475 37,4 C37,3.44771525 36.5522847,3 36,3 Z M33,6 C32.4477153,6 32,6.44771525 32,7 C32,7.55228475 32.4477153,8 33,8 C33.5522847,8 34,7.55228475 34,7 C34,6.44771525 33.5522847,6 33,6 Z M39,6 C38.4477153,6 38,6.44771525 38,7 C38,7.55228475 38.4477153,8 39,8 C39.5522847,8 40,7.55228475 40,7 C40,6.44771525 39.5522847,6 39,6 Z M36,9 C35.4477153,9 35,9.44771525 35,10 C35,10.5522847 35.4477153,11 36,11 C36.5522847,11 37,10.5522847 37,10 C37,9.44771525 36.5522847,9 36,9 Z M33,12 C32.4477153,12 32,12.4477153 32,13 C32,13.5522847 32.4477153,14 33,14 C33.5522847,14 34,13.5522847 34,13 C34,12.4477153 33.5522847,12 33,12 Z M39,12 C38.4477153,12 38,12.4477153 38,13 C38,13.5522847 38.4477153,14 39,14 C39.5522847,14 40,13.5522847 40,13 C40,12.4477153 39.5522847,12 39,12 Z M36,15 C35.4477153,15 35,15.4477153 35,16 C35,16.5522847 35.4477153,17 36,17 C36.5522847,17 37,16.5522847 37,16 C37,15.4477153 36.5522847,15 36,15 Z M18,16 L28,16 L28,42 L4,42 C2.8833339,42 2,41.116666 2,40 L2,32 C2,30.883334 2.8833339,30 4,30 L15,30 C15.5522619,29.9999448 15.9999448,29.5522619 16,29 L16,18 C16,16.883334 16.883334,16 18,16 Z M33,18 C32.4477153,18 32,18.4477153 32,19 C32,19.5522847 32.4477153,20 33,20 C33.5522847,20 34,19.5522847 34,19 C34,18.4477153 33.5522847,18 33,18 Z M39,18 C38.4477153,18 38,18.4477153 38,19 C38,19.5522847 38.4477153,20 39,20 C39.5522847,20 40,19.5522847 40,19 C40,18.4477153 39.5522847,18 39,18 Z M36,21 C35.4477153,21 35,21.4477153 35,22 C35,22.5522847 35.4477153,23 36,23 C36.5522847,23 37,22.5522847 37,22 C37,21.4477153 36.5522847,21 36,21 Z M33,24 C32.4477153,24 32,24.4477153 32,25 C32,25.5522847 32.4477153,26 33,26 C33.5522847,26 34,25.5522847 34,25 C34,24.4477153 33.5522847,24 33,24 Z M39,24 C38.4477153,24 38,24.4477153 38,25 C38,25.5522847 38.4477153,26 39,26 C39.5522847,26 40,25.5522847 40,25 C40,24.4477153 39.5522847,24 39,24 Z M36,27 C35.4477153,27 35,27.4477153 35,28 C35,28.5522847 35.4477153,29 36,29 C36.5522847,29 37,28.5522847 37,28 C37,27.4477153 36.5522847,27 36,27 Z M33,30 C32.4477153,30 32,30.4477153 32,31 C32,31.5522847 32.4477153,32 33,32 C33.5522847,32 34,31.5522847 34,31 C34,30.4477153 33.5522847,30 33,30 Z M39,30 C38.4477153,30 38,30.4477153 38,31 C38,31.5522847 38.4477153,32 39,32 C39.5522847,32 40,31.5522847 40,31 C40,30.4477153 39.5522847,30 39,30 Z M36,33 C35.4477153,33 35,33.4477153 35,34 C35,34.5522847 35.4477153,35 36,35 C36.5522847,35 37,34.5522847 37,34 C37,33.4477153 36.5522847,33 36,33 Z M33,36 C32.4477153,36 32,36.4477153 32,37 C32,37.5522847 32.4477153,38 33,38 C33.5522847,38 34,37.5522847 34,37 C34,36.4477153 33.5522847,36 33,36 Z M39,36 C38.4477153,36 38,36.4477153 38,37 C38,37.5522847 38.4477153,38 39,38 C39.5522847,38 40,37.5522847 40,37 C40,36.4477153 39.5522847,36 39,36 Z M36,39 C35.4477153,39 35,39.4477153 35,40 C35,40.5522847 35.4477153,41 36,41 C36.5522847,41 37,40.5522847 37,40 C37,39.4477153 36.5522847,39 36,39 Z" id="Shape"></path>
        </g>
    </g>
</svg>