<?xml version="1.0" encoding="UTF-8"?>
<svg width="103px" height="36px" viewBox="0 0 103 36" version="1.1" xmlns="http://www.w3.org/2000/svg" xmlns:xlink="http://www.w3.org/1999/xlink">
    <!-- Generator: sketchtool 61.2 (101010) - https://sketch.com -->
    <title>3FCA5A83-9090-4D72-9934-377F6B1803B3</title>
    <desc>Created with sketchtool.</desc>
    <g id="Asset-Artboard-Page" stroke="none" stroke-width="1" fill="none" fill-rule="evenodd">
        <g id="Logo-/-Ror" transform="translate(0.487992, 0.000000)" fill="#CC0000" fill-rule="nonzero">
            <g id="rails-seeklogo.com">
                <path d="M43.6518874,30.1267501 C43.6518874,30.1267501 48.148109,29.7398483 48.148109,23.9105286 C48.148109,18.0812087 42.7012578,17.5395462 42.7012578,17.5395462 L32.8866486,17.5395462 L32.8866486,35.9302765 L37.8196457,35.9302765 L37.8196457,31.4938031 L42.0846332,35.9302765 L49.3813583,35.9302765 L43.6518874,30.1267501 Z M41.750628,26.3609062 L37.8196457,26.3609062 L37.8196457,22.1565739 L41.7763209,22.1565739 C41.7763209,22.1565739 42.8811068,22.5692691 42.8811068,24.2458432 C42.8811068,25.9224176 41.750628,26.3609062 41.750628,26.3609062 Z M60.3264469,17.6685135 L55.3163714,17.6685135 C51.7450866,17.6685135 50.5375299,20.9184882 50.5375299,22.4660954 L50.5375299,35.9302765 L55.5476056,35.9302765 L55.5476056,32.7060953 L60.249369,32.7060953 L60.249369,35.9302765 L65.1052885,35.9302765 L65.1052885,22.4660954 C65.1052885,18.5454908 61.5596965,17.6685135 60.3264469,17.6685135 Z M60.2493683,27.4958183 L55.5219124,27.4958183 L55.5219124,23.0335512 C55.5219124,23.0335512 55.5219124,22.0276066 57.0891667,22.0276066 L58.8105772,22.0276066 C60.1979828,22.0276066 60.2236755,23.0335512 60.2236755,23.0335512 L60.2236755,27.4958183 L60.2493683,27.4958183 Z M67.3919374,17.6685135 L72.6075546,17.6685135 L72.6075546,35.9302765 L67.3919374,35.9302765 L67.3919374,17.6685135 Z M79.9299742,31.2100751 L79.9299742,17.6685135 L74.74005,17.6685135 L74.74005,31.2100751 L74.74005,35.9302765 L79.9299742,35.9302765 L86.9440801,35.9302765 L86.9440801,31.2100751 L79.9299742,31.2100751 Z M88.6654911,31.2616619 L88.6654911,35.9302765 L97.0670025,35.9302765 C98.7884131,35.9302765 101.743073,34.6663975 101.845844,31.1326947 L101.845844,29.3271531 C101.845844,26.3093193 99.3793451,24.5295714 97.0670025,24.5295714 L92.8790932,24.5295714 L92.8790932,22.3629216 L101.177834,22.3629216 L101.177834,17.6685135 L93.2130982,17.6685135 C91.1576826,17.6685135 88.408564,19.3708812 88.408564,22.5434756 L88.408564,24.168463 C88.408564,27.3410575 91.1319898,28.9660449 93.2130982,28.9660449 C98.9939546,28.9918383 91.8256926,28.9660449 97.1697733,28.9660449 L97.1697733,31.2358685 L88.6654911,31.2616619 Z" id="Shape"></path>
                <path d="M1.79848871,35.9044832 L22.0957184,35.9044832 C22.0957184,35.9044832 18.2161213,18.1327957 31.0624693,10.936423 C33.862973,9.56937014 42.7783386,4.4622669 57.3717897,15.2955162 C57.8342583,14.9086144 58.2710341,14.599093 58.2710341,14.599093 C58.2710341,14.599093 44.9108323,1.21229212 30.0347613,2.70831226 C22.5581869,3.37894197 13.3602018,10.2142064 7.96473571,19.2419141 C2.56926958,28.2696219 1.79848871,35.9044832 1.79848871,35.9044832 Z M44.0886658,4.15274563 L44.1914366,2.42458438 C43.9602022,2.29561712 43.3178849,1.98609571 41.6992451,1.52181358 L41.5964743,3.22418137 C42.4443332,3.50790934 43.2664994,3.81743076 44.0886658,4.15274563 Z M41.6478597,9.62095718 L41.5450889,11.2459446 C42.392948,11.2717381 43.2408069,11.3749119 44.088666,11.5554661 L44.1914368,9.95627206 C43.3178851,9.77571789 42.4700262,9.67254409 41.6478597,9.62095718 Z M32.1415627,1.57340052 L32.3984897,1.57340052 L31.8846358,-2.84217094e-15 C31.0881623,-2.84217094e-15 30.265996,0.0515869023 29.418137,0.154760707 L29.9062982,1.67657433 C30.6513865,1.59919397 31.3964746,1.57340052 32.1415627,1.57340052 Z M33.3748099,11.0653906 L33.9657419,12.8451387 C34.7108302,12.4840304 35.4559182,12.174509 36.2010063,11.9423679 L35.6357672,10.2400002 C34.7622155,10.4979347 34.0171274,10.7816626 33.3748099,11.0653906 Z M21.7103273,4.28171282 L20.5541561,2.50196476 C19.9118387,2.83727961 19.2438286,3.19838791 18.5501258,3.61108312 L19.7319898,5.41662464 C20.3999999,5.00392945 21.0423172,4.61702768 21.7103273,4.28171282 Z M26.9773303,15.8887661 L28.2105796,17.7458946 C28.6473556,17.1010583 29.1612094,16.5078089 29.7264486,15.9145596 L28.5702774,14.1606049 C27.9793454,14.7022673 27.4397989,15.2955167 26.9773303,15.8887661 Z M23.2518886,24.1942574 L25.3329971,25.8450382 C25.4357678,24.8390936 25.6156168,23.833149 25.8725436,22.8272044 L24.0226696,21.3569778 C23.6886646,22.3113354 23.4574302,23.265693 23.2518886,24.1942574 Z M11.9984885,11.942368 L10.1743071,10.343174 C9.50629696,10.9880103 8.86397957,11.6328466 8.27304755,12.2776829 L10.2513852,13.9800507 C10.7909318,13.2836275 11.3818638,12.5872043 11.9984885,11.942368 Z M4.23929458,23.4720411 L1.28463472,22.3887161 C0.796473527,23.4978345 0.256926943,24.7875069 0,25.48393 L2.95465986,26.567255 C3.28866489,25.6902776 3.82821146,24.4263987 4.23929458,23.4720411 Z M22.8664981,30.7457947 C22.9178836,32.1128476 23.046347,33.221966 23.1748104,33.9957694 L26.2579339,35.1048878 C26.0266997,34.0989432 25.7954653,32.9640314 25.6413093,31.7517393 L22.8664981,30.7457947 Z" id="Shape"></path>
            </g>
        </g>
    </g>
</svg>