<?xml version="1.0" encoding="UTF-8"?>
<svg width="57px" height="64px" viewBox="0 0 57 64" version="1.1" xmlns="http://www.w3.org/2000/svg" xmlns:xlink="http://www.w3.org/1999/xlink">
    <!-- Generator: sketchtool 61.2 (101010) - https://sketch.com -->
    <title>F0F74B8E-E70A-45CC-B0F4-90410CAA4511</title>
    <desc>Created with sketchtool.</desc>
    <g id="Asset-Artboard-Page" stroke="none" stroke-width="1" fill="none" fill-rule="evenodd">
        <g id="Logo-/-Shopify" transform="translate(0.364915, 0.000000)" fill-rule="nonzero">
            <g id="shopify-seeklogo.com">
                <path d="M49.0580643,12.5677168 C49.014066,12.2475267 48.7337045,12.0705526 48.5019458,12.0511162 C48.2706985,12.0316797 43.3756264,11.6690363 43.3756264,11.6690363 C43.3756264,11.6690363 39.9759864,8.2947647 39.6030235,7.92138009 C39.2295492,7.54799547 38.5005067,7.6615453 38.2175872,7.74491749 C38.1756352,7.75719315 37.4747314,7.97355164 36.3149143,8.33210316 C35.179143,5.06524356 33.1751717,2.0628221 29.6491644,2.0628221 C29.5519588,2.0628221 29.4516833,2.06691398 29.351408,2.07254033 C28.348655,0.746769216 27.1064689,0.17083624 26.0336254,0.17083624 C17.8202591,0.17083624 13.8962202,10.4358441 12.6658012,15.6524875 C9.474386,16.6411895 7.20693614,17.3439709 6.91736559,17.4350154 C5.13594404,17.9935578 5.07966706,18.0498213 4.84586188,19.7280061 C4.66935688,20.9985367 0.00808981283,57.0378239 0.00808981283,57.0378239 L36.329751,63.8416076 L56.0103153,59.585023 C56.0103153,59.585023 49.1015511,12.8879069 49.0580643,12.5677168 L49.0580643,12.5677168 Z M34.3073634,8.95304693 C33.395165,9.23538708 32.3581341,9.55608866 31.2341296,9.90389898 C31.2351529,9.6875405 31.2361761,9.47425094 31.2361761,9.24152492 C31.2361761,7.21092642 30.9542797,5.57621793 30.5020176,4.280113 C32.3187401,4.50823565 33.5286949,6.57463814 34.3073634,8.95304693 L34.3073634,8.95304693 Z M28.2483797,4.68265198 C28.7533375,5.94806776 29.0817903,7.76384221 29.0817903,10.2143705 C29.0817903,10.3396845 29.080767,10.4542573 29.0797438,10.5703646 C27.0808886,11.1892624 24.9091094,11.8613546 22.7322143,12.5354929 C23.9544475,7.81959416 26.2454315,5.54194808 28.2483797,4.68265198 L28.2483797,4.68265198 Z M25.8080058,2.37329403 C26.1625506,2.37329403 26.5196534,2.49349318 26.8614081,2.72877665 C24.2291812,3.96708372 21.4076592,7.08612398 20.2161225,13.3144863 C18.4746064,13.8535923 16.7724842,14.3804226 15.1987758,14.8678686 C16.5944444,10.1171887 19.9086457,2.37329403 25.8080058,2.37329403 L25.8080058,2.37329403 Z" id="Shape" fill="#95BF46"></path>
                <path d="M48.5019448,12.0511159 C48.2706976,12.0316794 43.3756256,11.669036 43.3756256,11.669036 C43.3756256,11.669036 39.9759856,8.29476449 39.6030227,7.92137989 C39.4633537,7.78225575 39.2750816,7.71115925 39.0781124,7.68047009 L36.3317967,63.8410946 L56.0103142,59.5850215 C56.0103142,59.5850215 49.1015502,12.8879066 49.0580633,12.5677165 C49.014065,12.2475264 48.7337035,12.0705523 48.5019448,12.0511159" id="Path" fill="#5E8E3E"></path>
                <path d="M29.6491654,22.9227457 L27.2226052,30.1392984 C27.2226052,30.1392984 25.0963593,29.004823 22.4902243,29.004823 C18.6695302,29.004823 18.4771653,31.4021566 18.4771653,32.0062213 C18.4771653,35.3022355 27.0711689,36.565094 27.0711689,44.28546 C27.0711689,50.3593534 23.2177319,54.2706851 18.0218335,54.2706851 C11.7868578,54.2706851 8.59851211,50.3910656 8.59851211,50.3910656 L10.2678914,44.8767375 C10.2678914,44.8767375 13.545257,47.6899092 16.3110139,47.6899092 C18.1180159,47.6899092 18.8531977,46.2674674 18.8531977,45.2281282 C18.8531977,40.9285789 11.8027176,40.7367718 11.8027176,33.6721305 C11.8027176,27.7261085 16.071581,21.9718937 24.6886069,21.9718937 C28.0089478,21.9718937 29.6491654,22.9227457 29.6491654,22.9227457" id="Path" fill="#FFFFFF"></path>
            </g>
        </g>
    </g>
</svg>