<!-- Generated by IcoMoon.io -->
<svg version="1.1" xmlns="http://www.w3.org/2000/svg" width="32" height="32" viewBox="0 0 32 32">
<title>accounting</title>
<path d="M13.2 2c-1.18 0-2.12 0.877-2.319 2h-5.681c-0.658 0-1.2 0.542-1.2 1.2v20c0 0.658 0.542 1.2 1.2 1.2h10v-0.8h-10c-0.227 0-0.4-0.173-0.4-0.4v-20c0-0.227 0.173-0.4 0.4-0.4h3.2v1.2c0 0.658 0.542 1.2 1.2 1.2h7.2c0.658 0 1.2-0.542 1.2-1.2v-1.2h3.2c0.227 0 0.4 0.173 0.4 0.4v6h0.8v-6c0-0.658-0.542-1.2-1.2-1.2h-5.681c-0.198-1.123-1.139-2-2.319-2zM13.2 2.8c0.887 0 1.6 0.712 1.6 1.6v0.4h2.4v1.2c0 0.227-0.173 0.4-0.4 0.4h-7.2c-0.227 0-0.4-0.173-0.4-0.4v-1.2h2.4v-0.4c0-0.888 0.713-1.6 1.6-1.6zM13.2 4c-0.22 0-0.4 0.18-0.4 0.4s0.18 0.4 0.4 0.4c0.22 0 0.4-0.18 0.4-0.4s-0.18-0.4-0.4-0.4zM7.6 8.8c-0.22 0-0.4 0.18-0.4 0.4s0.18 0.4 0.4 0.4c0.22 0 0.4-0.18 0.4-0.4s-0.18-0.4-0.4-0.4zM7.6 10.4c-0.22 0-0.4 0.18-0.4 0.4s0.18 0.4 0.4 0.4c0.22 0 0.4-0.18 0.4-0.4s-0.18-0.4-0.4-0.4zM10.8 10.4c-0.22 0-0.4 0.18-0.4 0.4s0.18 0.4 0.4 0.4c0.22 0 0.4-0.18 0.4-0.4s-0.18-0.4-0.4-0.4zM14 10.4c-0.22 0-0.4 0.18-0.4 0.4s0.18 0.4 0.4 0.4c0.22 0 0.4-0.18 0.4-0.4s-0.18-0.4-0.4-0.4zM7.6 12c-0.22 0-0.4 0.18-0.4 0.4s0.18 0.4 0.4 0.4c0.22 0 0.4-0.18 0.4-0.4s-0.18-0.4-0.4-0.4zM9.2 12c-0.22 0-0.4 0.18-0.4 0.4s0.18 0.4 0.4 0.4c0.22 0 0.4-0.18 0.4-0.4s-0.18-0.4-0.4-0.4zM10.8 12c-0.22 0-0.4 0.18-0.4 0.4s0.18 0.4 0.4 0.4c0.22 0 0.4-0.18 0.4-0.4s-0.18-0.4-0.4-0.4zM12.4 12c-0.22 0-0.4 0.18-0.4 0.4s0.18 0.4 0.4 0.4c0.22 0 0.4-0.18 0.4-0.4s-0.18-0.4-0.4-0.4zM14 12c-0.22 0-0.4 0.18-0.4 0.4s0.18 0.4 0.4 0.4c0.22 0 0.4-0.18 0.4-0.4s-0.18-0.4-0.4-0.4zM16.8 12c-0.438 0-0.8 0.363-0.8 0.8v14.4c0 0.438 0.363 0.8 0.8 0.8h10.4c0.438 0 0.8-0.363 0.8-0.8v-14.4c0-0.438-0.363-0.8-0.8-0.8zM16.8 12.8h10.4v14.4h-10.4zM7.6 13.6c-0.22 0-0.4 0.18-0.4 0.4s0.18 0.4 0.4 0.4c0.22 0 0.4-0.18 0.4-0.4s-0.18-0.4-0.4-0.4zM9.2 13.6c-0.22 0-0.4 0.18-0.4 0.4s0.18 0.4 0.4 0.4c0.22 0 0.4-0.18 0.4-0.4s-0.18-0.4-0.4-0.4zM10.8 13.6c-0.22 0-0.4 0.18-0.4 0.4s0.18 0.4 0.4 0.4c0.22 0 0.4-0.18 0.4-0.4s-0.18-0.4-0.4-0.4zM12.4 13.6c-0.22 0-0.4 0.18-0.4 0.4s0.18 0.4 0.4 0.4c0.22 0 0.4-0.18 0.4-0.4s-0.18-0.4-0.4-0.4zM14 13.6c-0.22 0-0.4 0.18-0.4 0.4s0.18 0.4 0.4 0.4c0.22 0 0.4-0.18 0.4-0.4s-0.18-0.4-0.4-0.4zM18 14v4h8v-4zM18.8 14.8h6.4v2.4h-6.4zM22.4 15.6c-0.22 0-0.4 0.18-0.4 0.4s0.18 0.4 0.4 0.4c0.22 0 0.4-0.18 0.4-0.4s-0.18-0.4-0.4-0.4zM24 15.6c-0.22 0-0.4 0.18-0.4 0.4s0.18 0.4 0.4 0.4c0.22 0 0.4-0.18 0.4-0.4s-0.18-0.4-0.4-0.4zM10.4 16.4c-1.983 0-3.6 1.617-3.6 3.6s1.617 3.6 3.6 3.6c1.983 0 3.6-1.617 3.6-3.6s-1.617-3.6-3.6-3.6zM10 17.231v3.169h3.169c-0.194 1.359-1.355 2.4-2.769 2.4-1.552 0-2.8-1.248-2.8-2.8 0-1.414 1.041-2.575 2.4-2.769zM10.8 17.231c1.228 0.175 2.194 1.141 2.369 2.369h-2.369zM18 20.4v0.8h0.8v-0.8zM19.6 20.4v0.8h0.8v-0.8zM21.2 20.4v0.8h0.8v-0.8zM22.8 20.4v0.8h0.8v-0.8zM25.2 20.4v0.8h0.8v-0.8zM18 22v0.8h0.8v-0.8zM19.6 22v0.8h0.8v-0.8zM21.2 22v0.8h0.8v-0.8zM22.8 22v0.8h0.8v-0.8zM25.2 22v0.8h0.8v-0.8zM18 23.6v0.8h0.8v-0.8zM19.6 23.6v0.8h0.8v-0.8zM21.2 23.6v0.8h0.8v-0.8zM22.8 23.6v0.8h0.8v-0.8zM25.2 23.6v0.8h0.8v-0.8zM18 25.2v0.8h0.8v-0.8zM19.6 25.2v0.8h0.8v-0.8zM21.2 25.2v0.8h0.8v-0.8zM22.8 25.2v0.8h0.8v-0.8zM25.2 25.2v0.8h0.8v-0.8z"></path>
</svg>
