<!-- Generated by IcoMoon.io -->
<svg version="1.1" xmlns="http://www.w3.org/2000/svg" width="32" height="32" viewBox="0 0 32 32">
<title>advanced-search</title>
<path d="M14.529 2.4l-0.898 2.245c-1.428 0.296-2.767 0.85-3.986 1.65l-2.222-0.952-2.080 2.080 0.952 2.222c-0.8 1.219-1.354 2.558-1.65 3.986l-2.245 0.898v2.942l2.245 0.898c0.296 1.428 0.85 2.767 1.65 3.986l-0.952 2.222 2.080 2.080 2.222-0.952c1.219 0.8 2.558 1.354 3.986 1.65l0.898 2.245h2.942l0.898-2.245c0.141-0.029 0.281-0.063 0.42-0.097-0.201-0.219-0.391-0.448-0.559-0.695-0.076 0.016-0.151 0.034-0.227 0.048l-0.216 0.041-0.86 2.148h-1.858l-0.859-2.148-0.216-0.041c-1.472-0.276-2.846-0.845-4.083-1.691l-0.181-0.124-2.126 0.911-1.314-1.314 0.911-2.126-0.124-0.181c-0.845-1.236-1.413-2.61-1.69-4.083l-0.041-0.216-2.148-0.859v-1.858l2.148-0.859 0.041-0.216c0.276-1.472 0.845-2.846 1.691-4.083l0.124-0.181-0.911-2.126 1.314-1.314 2.126 0.911 0.181-0.124c1.236-0.845 2.61-1.413 4.083-1.69l0.216-0.041 0.859-2.148h1.858l0.859 2.148 0.216 0.041c1.472 0.276 2.846 0.845 4.083 1.691l0.181 0.124 2.126-0.911 1.314 1.314-0.911 2.126 0.124 0.181c0.845 1.236 1.413 2.61 1.69 4.083l0.041 0.216 2.148 0.859v1.858l-2.148 0.859-0.041 0.216c-0.014 0.076-0.033 0.151-0.049 0.227 0.247 0.167 0.477 0.357 0.695 0.559 0.034-0.14 0.068-0.279 0.098-0.42l2.245-0.898v-2.942l-2.245-0.898c-0.296-1.428-0.85-2.767-1.65-3.986l0.952-2.222-2.080-2.080-2.222 0.952c-1.219-0.8-2.558-1.355-3.986-1.651l-0.898-2.245h-2.942zM16 8.4c-0.221 0-0.4 0.179-0.4 0.4v0c0 0.221 0.179 0.4 0.4 0.4v0c0.221 0 0.4-0.179 0.4-0.4v0c0-0.221-0.179-0.4-0.4-0.4v0zM14.136 8.645c-0.221 0-0.4 0.179-0.4 0.4v0c0 0.221 0.179 0.4 0.4 0.4v0c0.221 0 0.4-0.179 0.4-0.4v0c0-0.221-0.179-0.4-0.4-0.4v0zM17.863 8.645c-0.221 0-0.4 0.179-0.4 0.4v0c0 0.221 0.179 0.4 0.4 0.4v0c0.221 0 0.4-0.179 0.4-0.4v0c0-0.221-0.179-0.4-0.4-0.4v0zM12.399 9.364c-0.221 0-0.4 0.179-0.4 0.4v0c0 0.221 0.179 0.4 0.4 0.4v0c0.221 0 0.4-0.179 0.4-0.4v0c0-0.221-0.179-0.4-0.4-0.4v0zM19.6 9.365c-0.221 0-0.4 0.179-0.4 0.4v0c0 0.221 0.179 0.4 0.4 0.4v0c0.221 0 0.4-0.179 0.4-0.4v0c0-0.221-0.179-0.4-0.4-0.4v0zM10.909 10.509c-0.221 0-0.4 0.179-0.4 0.4v0c0 0.221 0.179 0.4 0.4 0.4v0c0.221 0 0.4-0.179 0.4-0.4v0c0-0.221-0.179-0.4-0.4-0.4v0zM21.091 10.509c-0.221 0-0.4 0.179-0.4 0.4v0c0 0.221 0.179 0.4 0.4 0.4v0c0.221 0 0.4-0.179 0.4-0.4v0c0-0.221-0.179-0.4-0.4-0.4v0zM22.235 11.999c-0.221 0-0.4 0.179-0.4 0.4v0c0 0.221 0.179 0.4 0.4 0.4v0c0.221 0 0.4-0.179 0.4-0.4v0c0-0.221-0.179-0.4-0.4-0.4v0zM9.764 12c-0.221 0-0.4 0.179-0.4 0.4v0c0 0.221 0.179 0.4 0.4 0.4v0c0.221 0 0.4-0.179 0.4-0.4v0c0-0.221-0.179-0.4-0.4-0.4v0zM16 12.8c-1.763 0-3.2 1.437-3.2 3.2s1.437 3.2 3.2 3.2c1.763 0 3.2-1.437 3.2-3.2s-1.437-3.2-3.2-3.2zM16 13.6c1.33 0 2.4 1.070 2.4 2.4s-1.070 2.4-2.4 2.4c-1.33 0-2.4-1.070-2.4-2.4s1.070-2.4 2.4-2.4zM9.045 13.737c-0.221 0-0.4 0.179-0.4 0.4v0c0 0.221 0.179 0.4 0.4 0.4v0c0.221 0 0.4-0.179 0.4-0.4v0c0-0.221-0.179-0.4-0.4-0.4v0zM22.954 13.737c-0.221 0-0.4 0.179-0.4 0.4v0c0 0.221 0.179 0.4 0.4 0.4v0c0.221 0 0.4-0.179 0.4-0.4v0c0-0.221-0.179-0.4-0.4-0.4v0zM8.8 15.6c-0.221 0-0.4 0.179-0.4 0.4v0c0 0.221 0.179 0.4 0.4 0.4v0c0.221 0 0.4-0.179 0.4-0.4v0c0-0.221-0.179-0.4-0.4-0.4v0zM23.2 15.6c-0.221 0-0.4 0.179-0.4 0.4v0c0 0.221 0.179 0.4 0.4 0.4v0c0.221 0 0.4-0.179 0.4-0.4v0c0-0.221-0.179-0.4-0.4-0.4v0zM9.045 17.463c-0.221 0-0.4 0.179-0.4 0.4v0c0 0.221 0.179 0.4 0.4 0.4v0c0.221 0 0.4-0.179 0.4-0.4v0c0-0.221-0.179-0.4-0.4-0.4v0zM23.2 18.4c-2.647 0-4.8 2.153-4.8 4.8s2.153 4.8 4.8 4.8c1.18 0 2.259-0.43 3.096-1.138l1.146 1.146-0.015 0.015c-0.302 0.302-0.302 0.794 0 1.096l2.654 2.655c0.146 0.146 0.342 0.227 0.548 0.227s0.402-0.081 0.548-0.227l0.595-0.595c0.302-0.302 0.303-0.794 0.001-1.096l-2.655-2.654c-0.294-0.293-0.804-0.293-1.096 0l-0.015 0.015-1.146-1.146c0.708-0.837 1.138-1.916 1.138-3.096 0-2.647-2.153-4.8-4.8-4.8zM9.764 19.199c-0.221 0-0.4 0.179-0.4 0.4v0c0 0.221 0.179 0.4 0.4 0.4v0c0.221 0 0.4-0.179 0.4-0.4v0c0-0.221-0.179-0.4-0.4-0.4v0zM23.2 19.2c2.206 0 4 1.794 4 4s-1.794 4-4 4c-2.206 0-4-1.794-4-4s1.794-4 4-4zM10.909 20.691c-0.221 0-0.4 0.179-0.4 0.4v0c0 0.221 0.179 0.4 0.4 0.4v0c0.221 0 0.4-0.179 0.4-0.4v0c0-0.221-0.179-0.4-0.4-0.4v0zM12.399 21.836c-0.221 0-0.4 0.179-0.4 0.4v0c0 0.221 0.179 0.4 0.4 0.4v0c0.221 0 0.4-0.179 0.4-0.4v0c0-0.221-0.179-0.4-0.4-0.4v0zM14.136 22.555c-0.221 0-0.4 0.179-0.4 0.4v0c0 0.221 0.179 0.4 0.4 0.4v0c0.221 0 0.4-0.179 0.4-0.4v0c0-0.221-0.179-0.4-0.4-0.4v0zM16 22.8c-0.221 0-0.4 0.179-0.4 0.4v0c0 0.221 0.179 0.4 0.4 0.4v0c0.221 0 0.4-0.179 0.4-0.4v0c0-0.221-0.179-0.4-0.4-0.4v0zM28.553 27.993l2.654 2.619-0.56 0.595-2.637-2.637 0.544-0.577z"></path>
</svg>
