<!-- Generated by IcoMoon.io -->
<svg version="1.1" xmlns="http://www.w3.org/2000/svg" width="33" height="32" viewBox="0 0 33 32">
<title>analytics</title>
<path d="M22.719 2c-1.398 0-2.545 1.147-2.545 2.545v6.364h-6.364c-1.398 0-2.545 1.147-2.545 2.545v6.364h-6.364c-1.398 0-2.545 1.147-2.545 2.545v5.091c0 1.398 1.147 2.545 2.545 2.545h22.909c1.398 0 2.545-1.147 2.545-2.545v-22.909c0-1.398-1.147-2.545-2.545-2.545h-5.091zM22.719 3.273h5.091c0.485 0 0.896 0.265 1.111 0.657-0.28 0.073-0.475 0.326-0.475 0.615 0 0.351 0.285 0.636 0.636 0.636v2.545c-0.351 0-0.636 0.285-0.636 0.636s0.285 0.636 0.636 0.636v3.182c-0.351 0-0.636 0.285-0.636 0.636s0.285 0.636 0.636 0.636v2.545c-0.351 0-0.636 0.285-0.636 0.636s0.285 0.636 0.636 0.636v1.909c-0.351 0-0.636 0.285-0.636 0.636s0.285 0.636 0.636 0.636v2.545c-0.351 0-0.636 0.285-0.636 0.636s0.285 0.636 0.636 0.636v2.545c-0.351 0-0.636 0.285-0.636 0.636 0 0.289 0.195 0.542 0.475 0.615-0.215 0.392-0.626 0.657-1.111 0.657h-6.364v-0.636c0.351 0 0.636-0.285 0.636-0.636s-0.285-0.636-0.636-0.636v-2.545c0.351 0 0.636-0.285 0.636-0.636s-0.285-0.636-0.636-0.636v-2.545c0.351 0 0.636-0.285 0.636-0.636s-0.285-0.636-0.636-0.636v-2.545c0.351 0 0.636-0.285 0.636-0.636s-0.285-0.636-0.636-0.636v-2.545c0.351 0 0.636-0.285 0.636-0.636 0-0.348-0.28-0.632-0.628-0.636 0-0.034-0.003-0.067-0.009-0.101v-2.445c0.351 0 0.636-0.285 0.636-0.636s-0.285-0.636-0.636-0.636v-2.545c0.351 0 0.636-0.285 0.636-0.636 0-0.289-0.195-0.542-0.475-0.615 0.215-0.392 0.626-0.657 1.111-0.657zM25.264 3.909c-0.351 0-0.636 0.285-0.636 0.636s0.285 0.636 0.636 0.636c0.351 0 0.636-0.285 0.636-0.636s-0.285-0.636-0.636-0.636zM23.355 5.818c-0.351 0-0.636 0.285-0.636 0.636s0.285 0.636 0.636 0.636c0.351 0 0.636-0.285 0.636-0.636s-0.285-0.636-0.636-0.636zM27.174 5.818c-0.351 0-0.636 0.285-0.636 0.636s0.285 0.636 0.636 0.636c0.351 0 0.636-0.285 0.636-0.636s-0.285-0.636-0.636-0.636zM25.264 7.727c-0.351 0-0.636 0.285-0.636 0.636s0.285 0.636 0.636 0.636c0.351 0 0.636-0.285 0.636-0.636s-0.285-0.636-0.636-0.636zM23.355 9.636c-0.351 0-0.636 0.285-0.636 0.636s0.285 0.636 0.636 0.636c0.351 0 0.636-0.285 0.636-0.636s-0.285-0.636-0.636-0.636zM27.174 9.636c-0.351 0-0.636 0.285-0.636 0.636s0.285 0.636 0.636 0.636c0.351 0 0.636-0.285 0.636-0.636s-0.285-0.636-0.636-0.636zM25.264 11.545c-0.351 0-0.636 0.285-0.636 0.636s0.285 0.636 0.636 0.636c0.351 0 0.636-0.285 0.636-0.636s-0.285-0.636-0.636-0.636zM13.81 12.182h6.364v16.545h-15.273c-0.711 0-1.273-0.562-1.273-1.273v-5.091c0-0.711 0.562-1.273 1.273-1.273h7c0.351 0 0.636-0.285 0.636-0.636v-7c0-0.711 0.562-1.273 1.273-1.273zM23.355 13.455c-0.351 0-0.636 0.285-0.636 0.636s0.285 0.636 0.636 0.636c0.351 0 0.636-0.285 0.636-0.636s-0.285-0.636-0.636-0.636zM27.174 13.455c-0.351 0-0.636 0.285-0.636 0.636s0.285 0.636 0.636 0.636c0.351 0 0.636-0.285 0.636-0.636s-0.285-0.636-0.636-0.636zM25.264 15.364c-0.351 0-0.636 0.285-0.636 0.636s0.285 0.636 0.636 0.636c0.351 0 0.636-0.285 0.636-0.636s-0.285-0.636-0.636-0.636zM23.355 17.273c-0.351 0-0.636 0.285-0.636 0.636s0.285 0.636 0.636 0.636c0.351 0 0.636-0.285 0.636-0.636s-0.285-0.636-0.636-0.636zM27.174 17.273c-0.351 0-0.636 0.285-0.636 0.636s0.285 0.636 0.636 0.636c0.351 0 0.636-0.285 0.636-0.636s-0.285-0.636-0.636-0.636zM25.264 19.182c-0.351 0-0.636 0.285-0.636 0.636s0.285 0.636 0.636 0.636c0.351 0 0.636-0.285 0.636-0.636s-0.285-0.636-0.636-0.636zM23.355 21.091c-0.351 0-0.636 0.285-0.636 0.636s0.285 0.636 0.636 0.636c0.351 0 0.636-0.285 0.636-0.636s-0.285-0.636-0.636-0.636zM27.174 21.091c-0.351 0-0.636 0.285-0.636 0.636s0.285 0.636 0.636 0.636c0.351 0 0.636-0.285 0.636-0.636s-0.285-0.636-0.636-0.636zM25.264 23c-0.351 0-0.636 0.285-0.636 0.636s0.285 0.636 0.636 0.636c0.351 0 0.636-0.285 0.636-0.636s-0.285-0.636-0.636-0.636zM23.355 24.909c-0.351 0-0.636 0.285-0.636 0.636s0.285 0.636 0.636 0.636c0.351 0 0.636-0.285 0.636-0.636s-0.285-0.636-0.636-0.636zM27.174 24.909c-0.351 0-0.636 0.285-0.636 0.636s0.285 0.636 0.636 0.636c0.351 0 0.636-0.285 0.636-0.636s-0.285-0.636-0.636-0.636zM25.264 26.818c-0.351 0-0.636 0.285-0.636 0.636s0.285 0.636 0.636 0.636c0.351 0 0.636-0.285 0.636-0.636s-0.285-0.636-0.636-0.636z"></path>
</svg>
