<!-- Generated by IcoMoon.io -->
<svg version="1.1" xmlns="http://www.w3.org/2000/svg" width="32" height="32" viewBox="0 0 32 32">
<title>apple</title>
<path d="M10.611 3.044c0.612 0.069 1.224 0.192 1.791 0.383 0.722 0.243 1.313 0.577 1.732 1.008 0.412 0.423 0.736 1.004 0.979 1.706 0.199 0.575 0.331 1.196 0.408 1.818 0.027 0.218 0.045 0.42 0.056 0.601 0.006 0.107 0.009 0.181 0.010 0.218 0.003 0.228 0.191 0.411 0.419 0.407s0.411-0.191 0.407-0.419c-0.001-0.050-0.004-0.137-0.011-0.257-0.012-0.197-0.032-0.417-0.061-0.653-0.084-0.675-0.228-1.351-0.447-1.986-0.279-0.808-0.661-1.492-1.168-2.012-0.522-0.536-1.225-0.933-2.061-1.214-0.628-0.211-1.295-0.346-1.962-0.421-0.233-0.026-0.45-0.043-0.644-0.052-0.119-0.006-0.205-0.008-0.254-0.008-0.226 0-0.41 0.181-0.413 0.407l-0 0.010c-0.002 0.227 0.013 0.569 0.059 0.986 0.074 0.667 0.209 1.331 0.423 1.956 0.229 0.667 0.535 1.254 0.933 1.736 0.145 0.176 0.405 0.201 0.582 0.056s0.201-0.405 0.056-0.582c-0.329-0.399-0.59-0.899-0.789-1.478-0.193-0.562-0.316-1.169-0.384-1.78-0.019-0.171-0.032-0.328-0.041-0.466 0.12 0.009 0.247 0.020 0.38 0.035z"></path>
<path d="M18.686 1.804c-0.408 0.233-0.994 0.721-1.573 1.508-0.955 1.296-1.526 2.969-1.526 5.047 0 0.228 0.185 0.413 0.413 0.413s0.413-0.185 0.413-0.413c0-1.898 0.513-3.4 1.365-4.557 0.296-0.401 0.612-0.731 0.926-0.993 0.184-0.153 0.322-0.248 0.392-0.288 0.198-0.113 0.267-0.366 0.154-0.564s-0.366-0.267-0.564-0.154z"></path>
<path d="M16 8.63c-0.034-0.028-0.070-0.058-0.108-0.089-0.314-0.254-0.674-0.508-1.077-0.745-1.156-0.68-2.426-1.090-3.772-1.090-4.887 0-8.674 3.543-8.674 9.913 0 2.482 1.143 5.865 2.963 8.545 2.157 3.175 5.002 5.086 8.19 5.086 0.608 0 1.242-0.169 1.871-0.449 0.239-0.106 0.444-0.213 0.607-0.306 0.162 0.093 0.368 0.2 0.607 0.306 0.629 0.28 1.263 0.449 1.872 0.449 3.188 0 6.032-1.91 8.19-5.086 1.82-2.68 2.963-6.062 2.963-8.545 0-6.37-3.787-9.913-8.674-9.913-1.346 0-2.616 0.41-3.772 1.090-0.403 0.237-0.763 0.491-1.077 0.745-0.038 0.031-0.074 0.061-0.108 0.089zM20.956 7.532c4.442 0 7.848 3.186 7.848 9.087 0 2.308-1.089 5.532-2.82 8.081-2.017 2.969-4.63 4.724-7.506 4.724-0.476 0-1.004-0.141-1.536-0.377-0.19-0.084-0.366-0.175-0.524-0.265-0.093-0.053-0.158-0.093-0.189-0.114l-0.229-0.153-0.229 0.153c-0.031 0.021-0.096 0.061-0.189 0.114-0.158 0.090-0.334 0.181-0.524 0.265-0.533 0.237-1.060 0.377-1.536 0.377-2.877 0-5.489-1.755-7.506-4.724-1.731-2.549-2.82-5.772-2.82-8.081 0-5.901 3.405-9.087 7.848-9.087 1.184 0 2.315 0.365 3.353 0.976 0.365 0.215 0.692 0.445 0.975 0.675 0.167 0.136 0.281 0.239 0.336 0.294l0.292 0.292 0.292-0.292c0.055-0.055 0.168-0.158 0.336-0.294 0.283-0.23 0.61-0.46 0.975-0.675 1.038-0.611 2.169-0.976 3.353-0.976z"></path>
<path d="M18.891 16.206c0.455 0 0.826 0.371 0.826 0.826s-0.826 2.065-0.826 2.065c0 0-0.826-1.61-0.826-2.065s0.371-0.826 0.826-0.826z"></path>
<path d="M11.043 7.532c0 0.227-0.186 0.413-0.413 0.413s-0.413-0.186-0.413-0.413c0-0.227 0.186-0.413 0.413-0.413s0.413 0.186 0.413 0.413z"></path>
<path d="M7.326 8.772c0 0.227-0.186 0.413-0.413 0.413s-0.413-0.186-0.413-0.413c0-0.227 0.186-0.413 0.413-0.413s0.413 0.186 0.413 0.413z"></path>
<path d="M9.804 8.772c0 0.227-0.186 0.413-0.413 0.413s-0.413-0.186-0.413-0.413c0-0.227 0.186-0.413 0.413-0.413s0.413 0.186 0.413 0.413z"></path>
<path d="M12.282 8.772c0 0.227-0.186 0.413-0.413 0.413s-0.413-0.186-0.413-0.413c0-0.227 0.186-0.413 0.413-0.413s0.413 0.186 0.413 0.413z"></path>
<path d="M14.761 8.772c0 0.227-0.186 0.413-0.413 0.413s-0.413-0.186-0.413-0.413c0-0.227 0.186-0.413 0.413-0.413s0.413 0.186 0.413 0.413z"></path>
<path d="M7.326 11.25c0 0.227-0.186 0.413-0.413 0.413s-0.413-0.186-0.413-0.413c0-0.227 0.186-0.413 0.413-0.413s0.413 0.186 0.413 0.413z"></path>
<path d="M9.804 11.25c0 0.227-0.186 0.413-0.413 0.413s-0.413-0.186-0.413-0.413c0-0.227 0.186-0.413 0.413-0.413s0.413 0.186 0.413 0.413z"></path>
<path d="M12.282 11.25c0 0.227-0.186 0.413-0.413 0.413s-0.413-0.186-0.413-0.413c0-0.227 0.186-0.413 0.413-0.413s0.413 0.186 0.413 0.413z"></path>
<path d="M14.761 11.25c0 0.227-0.186 0.413-0.413 0.413s-0.413-0.186-0.413-0.413c0-0.227 0.186-0.413 0.413-0.413s0.413 0.186 0.413 0.413z"></path>
<path d="M8.565 10.011c0 0.227-0.186 0.413-0.413 0.413s-0.413-0.186-0.413-0.413c0-0.227 0.186-0.413 0.413-0.413s0.413 0.186 0.413 0.413z"></path>
<path d="M6.087 10.011c0 0.227-0.186 0.413-0.413 0.413s-0.413-0.186-0.413-0.413c0-0.227 0.186-0.413 0.413-0.413s0.413 0.186 0.413 0.413z"></path>
<path d="M11.043 10.011c0 0.227-0.186 0.413-0.413 0.413s-0.413-0.186-0.413-0.413c0-0.227 0.186-0.413 0.413-0.413s0.413 0.186 0.413 0.413z"></path>
<path d="M13.521 10.011c0 0.227-0.186 0.413-0.413 0.413s-0.413-0.186-0.413-0.413c0-0.227 0.186-0.413 0.413-0.413s0.413 0.186 0.413 0.413z"></path>
<path d="M16 10.011c0 0.227-0.186 0.413-0.413 0.413s-0.413-0.186-0.413-0.413c0-0.227 0.186-0.413 0.413-0.413s0.413 0.186 0.413 0.413z"></path>
<path d="M8.565 12.489c0 0.227-0.186 0.413-0.413 0.413s-0.413-0.186-0.413-0.413c0-0.227 0.186-0.413 0.413-0.413s0.413 0.186 0.413 0.413z"></path>
<path d="M6.087 12.489c0 0.227-0.186 0.413-0.413 0.413s-0.413-0.186-0.413-0.413c0-0.227 0.186-0.413 0.413-0.413s0.413 0.186 0.413 0.413z"></path>
<path d="M11.043 12.489c0 0.227-0.186 0.413-0.413 0.413s-0.413-0.186-0.413-0.413c0-0.227 0.186-0.413 0.413-0.413s0.413 0.186 0.413 0.413z"></path>
<path d="M13.521 12.489c0 0.227-0.186 0.413-0.413 0.413s-0.413-0.186-0.413-0.413c0-0.227 0.186-0.413 0.413-0.413s0.413 0.186 0.413 0.413z"></path>
<path d="M16 12.489c0 0.227-0.186 0.413-0.413 0.413s-0.413-0.186-0.413-0.413c0-0.227 0.186-0.413 0.413-0.413s0.413 0.186 0.413 0.413z"></path>
<path d="M8.565 14.967c0 0.227-0.186 0.413-0.413 0.413s-0.413-0.186-0.413-0.413c0-0.227 0.186-0.413 0.413-0.413s0.413 0.186 0.413 0.413z"></path>
<path d="M6.087 14.967c0 0.227-0.186 0.413-0.413 0.413s-0.413-0.186-0.413-0.413c0-0.227 0.186-0.413 0.413-0.413s0.413 0.186 0.413 0.413z"></path>
<path d="M11.043 14.967c0 0.227-0.186 0.413-0.413 0.413s-0.413-0.186-0.413-0.413c0-0.227 0.186-0.413 0.413-0.413s0.413 0.186 0.413 0.413z"></path>
<path d="M13.521 14.967c0 0.227-0.186 0.413-0.413 0.413s-0.413-0.186-0.413-0.413c0-0.227 0.186-0.413 0.413-0.413s0.413 0.186 0.413 0.413z"></path>
<path d="M16 14.967c0 0.227-0.186 0.413-0.413 0.413s-0.413-0.186-0.413-0.413c0-0.227 0.186-0.413 0.413-0.413s0.413 0.186 0.413 0.413z"></path>
<path d="M8.565 17.446c0 0.227-0.186 0.413-0.413 0.413s-0.413-0.186-0.413-0.413c0-0.227 0.186-0.413 0.413-0.413s0.413 0.186 0.413 0.413z"></path>
<path d="M6.087 17.446c0 0.227-0.186 0.413-0.413 0.413s-0.413-0.186-0.413-0.413c0-0.227 0.186-0.413 0.413-0.413s0.413 0.186 0.413 0.413z"></path>
<path d="M3.608 14.967c0 0.227-0.186 0.413-0.413 0.413s-0.413-0.186-0.413-0.413c0-0.227 0.186-0.413 0.413-0.413s0.413 0.186 0.413 0.413z"></path>
<path d="M3.608 17.446c0 0.227-0.186 0.413-0.413 0.413s-0.413-0.186-0.413-0.413c0-0.227 0.186-0.413 0.413-0.413s0.413 0.186 0.413 0.413z"></path>
<path d="M11.043 17.446c0 0.227-0.186 0.413-0.413 0.413s-0.413-0.186-0.413-0.413c0-0.227 0.186-0.413 0.413-0.413s0.413 0.186 0.413 0.413z"></path>
<path d="M13.521 17.446c0 0.227-0.186 0.413-0.413 0.413s-0.413-0.186-0.413-0.413c0-0.227 0.186-0.413 0.413-0.413s0.413 0.186 0.413 0.413z"></path>
<path d="M16 17.446c0 0.227-0.186 0.413-0.413 0.413s-0.413-0.186-0.413-0.413c0-0.227 0.186-0.413 0.413-0.413s0.413 0.186 0.413 0.413z"></path>
<path d="M8.565 19.924c0 0.227-0.186 0.413-0.413 0.413s-0.413-0.186-0.413-0.413c0-0.227 0.186-0.413 0.413-0.413s0.413 0.186 0.413 0.413z"></path>
<path d="M6.087 19.924c0 0.227-0.186 0.413-0.413 0.413s-0.413-0.186-0.413-0.413c0-0.227 0.186-0.413 0.413-0.413s0.413 0.186 0.413 0.413z"></path>
<path d="M11.043 19.924c0 0.227-0.186 0.413-0.413 0.413s-0.413-0.186-0.413-0.413c0-0.227 0.186-0.413 0.413-0.413s0.413 0.186 0.413 0.413z"></path>
<path d="M13.521 19.924c0 0.227-0.186 0.413-0.413 0.413s-0.413-0.186-0.413-0.413c0-0.227 0.186-0.413 0.413-0.413s0.413 0.186 0.413 0.413z"></path>
<path d="M16 19.924c0 0.227-0.186 0.413-0.413 0.413s-0.413-0.186-0.413-0.413c0-0.227 0.186-0.413 0.413-0.413s0.413 0.186 0.413 0.413z"></path>
<path d="M8.565 22.402c0 0.227-0.186 0.413-0.413 0.413s-0.413-0.186-0.413-0.413c0-0.227 0.186-0.413 0.413-0.413s0.413 0.186 0.413 0.413z"></path>
<path d="M6.087 22.402c0 0.227-0.186 0.413-0.413 0.413s-0.413-0.186-0.413-0.413c0-0.227 0.186-0.413 0.413-0.413s0.413 0.186 0.413 0.413z"></path>
<path d="M11.043 22.402c0 0.227-0.186 0.413-0.413 0.413s-0.413-0.186-0.413-0.413c0-0.227 0.186-0.413 0.413-0.413s0.413 0.186 0.413 0.413z"></path>
<path d="M13.521 22.402c0 0.227-0.186 0.413-0.413 0.413s-0.413-0.186-0.413-0.413c0-0.227 0.186-0.413 0.413-0.413s0.413 0.186 0.413 0.413z"></path>
<path d="M16 22.402c0 0.227-0.186 0.413-0.413 0.413s-0.413-0.186-0.413-0.413c0-0.227 0.186-0.413 0.413-0.413s0.413 0.186 0.413 0.413z"></path>
<path d="M8.565 24.881c0 0.227-0.186 0.413-0.413 0.413s-0.413-0.186-0.413-0.413c0-0.227 0.186-0.413 0.413-0.413s0.413 0.186 0.413 0.413z"></path>
<path d="M11.043 24.881c0 0.227-0.186 0.413-0.413 0.413s-0.413-0.186-0.413-0.413c0-0.227 0.186-0.413 0.413-0.413s0.413 0.186 0.413 0.413z"></path>
<path d="M13.521 24.881c0 0.227-0.186 0.413-0.413 0.413s-0.413-0.186-0.413-0.413c0-0.227 0.186-0.413 0.413-0.413s0.413 0.186 0.413 0.413z"></path>
<path d="M16 24.881c0 0.227-0.186 0.413-0.413 0.413s-0.413-0.186-0.413-0.413c0-0.227 0.186-0.413 0.413-0.413s0.413 0.186 0.413 0.413z"></path>
<path d="M8.565 27.359c0 0.227-0.186 0.413-0.413 0.413s-0.413-0.186-0.413-0.413c0-0.227 0.186-0.413 0.413-0.413s0.413 0.186 0.413 0.413z"></path>
<path d="M11.043 27.359c0 0.227-0.186 0.413-0.413 0.413s-0.413-0.186-0.413-0.413c0-0.227 0.186-0.413 0.413-0.413s0.413 0.186 0.413 0.413z"></path>
<path d="M13.521 27.359c0 0.227-0.186 0.413-0.413 0.413s-0.413-0.186-0.413-0.413c0-0.227 0.186-0.413 0.413-0.413s0.413 0.186 0.413 0.413z"></path>
<path d="M16 27.359c0 0.227-0.186 0.413-0.413 0.413s-0.413-0.186-0.413-0.413c0-0.227 0.186-0.413 0.413-0.413s0.413 0.186 0.413 0.413z"></path>
<path d="M7.326 13.728c0 0.227-0.186 0.413-0.413 0.413s-0.413-0.186-0.413-0.413c0-0.227 0.186-0.413 0.413-0.413s0.413 0.186 0.413 0.413z"></path>
<path d="M9.804 13.728c0 0.227-0.186 0.413-0.413 0.413s-0.413-0.186-0.413-0.413c0-0.227 0.186-0.413 0.413-0.413s0.413 0.186 0.413 0.413z"></path>
<path d="M12.282 13.728c0 0.227-0.186 0.413-0.413 0.413s-0.413-0.186-0.413-0.413c0-0.227 0.186-0.413 0.413-0.413s0.413 0.186 0.413 0.413z"></path>
<path d="M14.761 13.728c0 0.227-0.186 0.413-0.413 0.413s-0.413-0.186-0.413-0.413c0-0.227 0.186-0.413 0.413-0.413s0.413 0.186 0.413 0.413z"></path>
<path d="M7.326 16.206c0 0.227-0.186 0.413-0.413 0.413s-0.413-0.186-0.413-0.413c0-0.227 0.186-0.413 0.413-0.413s0.413 0.186 0.413 0.413z"></path>
<path d="M9.804 16.206c0 0.227-0.186 0.413-0.413 0.413s-0.413-0.186-0.413-0.413c0-0.227 0.186-0.413 0.413-0.413s0.413 0.186 0.413 0.413z"></path>
<path d="M12.282 16.206c0 0.227-0.186 0.413-0.413 0.413s-0.413-0.186-0.413-0.413c0-0.227 0.186-0.413 0.413-0.413s0.413 0.186 0.413 0.413z"></path>
<path d="M14.761 16.206c0 0.227-0.186 0.413-0.413 0.413s-0.413-0.186-0.413-0.413c0-0.227 0.186-0.413 0.413-0.413s0.413 0.186 0.413 0.413z"></path>
<path d="M7.326 18.685c0 0.227-0.186 0.413-0.413 0.413s-0.413-0.186-0.413-0.413c0-0.227 0.186-0.413 0.413-0.413s0.413 0.186 0.413 0.413z"></path>
<path d="M9.804 18.685c0 0.227-0.186 0.413-0.413 0.413s-0.413-0.186-0.413-0.413c0-0.227 0.186-0.413 0.413-0.413s0.413 0.186 0.413 0.413z"></path>
<path d="M12.282 18.685c0 0.227-0.186 0.413-0.413 0.413s-0.413-0.186-0.413-0.413c0-0.227 0.186-0.413 0.413-0.413s0.413 0.186 0.413 0.413z"></path>
<path d="M14.761 18.685c0 0.227-0.186 0.413-0.413 0.413s-0.413-0.186-0.413-0.413c0-0.227 0.186-0.413 0.413-0.413s0.413 0.186 0.413 0.413z"></path>
<path d="M7.326 21.163c0 0.227-0.186 0.413-0.413 0.413s-0.413-0.186-0.413-0.413c0-0.227 0.186-0.413 0.413-0.413s0.413 0.186 0.413 0.413z"></path>
<path d="M4.848 11.25c0 0.227-0.186 0.413-0.413 0.413s-0.413-0.186-0.413-0.413c0-0.227 0.186-0.413 0.413-0.413s0.413 0.186 0.413 0.413z"></path>
<path d="M4.848 13.728c0 0.227-0.186 0.413-0.413 0.413s-0.413-0.186-0.413-0.413c0-0.227 0.186-0.413 0.413-0.413s0.413 0.186 0.413 0.413z"></path>
<path d="M4.848 16.206c0 0.227-0.186 0.413-0.413 0.413s-0.413-0.186-0.413-0.413c0-0.227 0.186-0.413 0.413-0.413s0.413 0.186 0.413 0.413z"></path>
<path d="M4.848 18.685c0 0.227-0.186 0.413-0.413 0.413s-0.413-0.186-0.413-0.413c0-0.227 0.186-0.413 0.413-0.413s0.413 0.186 0.413 0.413z"></path>
<path d="M4.848 21.163c0 0.227-0.186 0.413-0.413 0.413s-0.413-0.186-0.413-0.413c0-0.227 0.186-0.413 0.413-0.413s0.413 0.186 0.413 0.413z"></path>
<path d="M9.804 21.163c0 0.227-0.186 0.413-0.413 0.413s-0.413-0.186-0.413-0.413c0-0.227 0.186-0.413 0.413-0.413s0.413 0.186 0.413 0.413z"></path>
<path d="M12.282 21.163c0 0.227-0.186 0.413-0.413 0.413s-0.413-0.186-0.413-0.413c0-0.227 0.186-0.413 0.413-0.413s0.413 0.186 0.413 0.413z"></path>
<path d="M14.761 21.163c0 0.227-0.186 0.413-0.413 0.413s-0.413-0.186-0.413-0.413c0-0.227 0.186-0.413 0.413-0.413s0.413 0.186 0.413 0.413z"></path>
<path d="M7.326 23.641c0 0.227-0.186 0.413-0.413 0.413s-0.413-0.186-0.413-0.413c0-0.227 0.186-0.413 0.413-0.413s0.413 0.186 0.413 0.413z"></path>
<path d="M9.804 23.641c0 0.227-0.186 0.413-0.413 0.413s-0.413-0.186-0.413-0.413c0-0.227 0.186-0.413 0.413-0.413s0.413 0.186 0.413 0.413z"></path>
<path d="M12.282 23.641c0 0.227-0.186 0.413-0.413 0.413s-0.413-0.186-0.413-0.413c0-0.227 0.186-0.413 0.413-0.413s0.413 0.186 0.413 0.413z"></path>
<path d="M14.761 23.641c0 0.227-0.186 0.413-0.413 0.413s-0.413-0.186-0.413-0.413c0-0.227 0.186-0.413 0.413-0.413s0.413 0.186 0.413 0.413z"></path>
<path d="M7.326 26.12c0 0.227-0.186 0.413-0.413 0.413s-0.413-0.186-0.413-0.413c0-0.227 0.186-0.413 0.413-0.413s0.413 0.186 0.413 0.413z"></path>
<path d="M9.804 26.12c0 0.227-0.186 0.413-0.413 0.413s-0.413-0.186-0.413-0.413c0-0.227 0.186-0.413 0.413-0.413s0.413 0.186 0.413 0.413z"></path>
<path d="M12.282 26.12c0 0.227-0.186 0.413-0.413 0.413s-0.413-0.186-0.413-0.413c0-0.227 0.186-0.413 0.413-0.413s0.413 0.186 0.413 0.413z"></path>
<path d="M14.761 26.12c0 0.227-0.186 0.413-0.413 0.413s-0.413-0.186-0.413-0.413c0-0.227 0.186-0.413 0.413-0.413s0.413 0.186 0.413 0.413z"></path>
<path d="M12.282 28.598c0 0.227-0.186 0.413-0.413 0.413s-0.413-0.186-0.413-0.413c0-0.227 0.186-0.413 0.413-0.413s0.413 0.186 0.413 0.413z"></path>
<path d="M14.761 28.598c0 0.227-0.186 0.413-0.413 0.413s-0.413-0.186-0.413-0.413c0-0.227 0.186-0.413 0.413-0.413s0.413 0.186 0.413 0.413z"></path>
</svg>
