<!-- Generated by IcoMoon.io -->
<svg version="1.1" xmlns="http://www.w3.org/2000/svg" width="32" height="32" viewBox="0 0 32 32">
<title>barbell</title>
<path d="M21.252 0.002c-0.308 0-0.616 0.117-0.848 0.349l-0.869 0.869c-0.098 0.098-0.171 0.212-0.227 0.331l-0.407-0.4c-0.233-0.233-0.541-0.349-0.848-0.349s-0.616 0.117-0.848 0.349l-1.652 1.652c-0.465 0.465-0.465 1.232 0 1.697l4.56 4.56-3.219 3.219c-0.034 0.025-0.063 0.054-0.087 0.087l-0.001 0.001-4.435 4.435c-0.035 0.026-0.065 0.055-0.090 0.089l-0.001 0.001-3.219 3.219-4.56-4.56c-0.233-0.233-0.541-0.349-0.848-0.349s-0.616 0.117-0.848 0.349l-1.652 1.652c-0.465 0.465-0.465 1.232 0 1.697l0.4 0.407c-0.119 0.057-0.233 0.129-0.331 0.227l-0.869 0.869c-0.465 0.465-0.465 1.232 0 1.697l3.36 3.36-1.995 1.995c-0.072 0.072-0.117 0.172-0.117 0.283s0.045 0.21 0.117 0.283l2.263 2.262c0.072 0.072 0.172 0.117 0.283 0.117s0.21-0.045 0.283-0.117l1.995-1.995 3.343 3.343c0.465 0.465 1.232 0.465 1.697 0l0.869-0.869c0.098-0.098 0.171-0.212 0.228-0.332l0.441 0.435c0.465 0.465 1.232 0.465 1.697 0l1.652-1.652c0.465-0.465 0.465-1.232 0-1.697l-4.577-4.577 3.206-3.206c0.046-0.031 0.085-0.069 0.115-0.114l0.001-0.002 4.409-4.409c0.046-0.031 0.085-0.069 0.115-0.114l0.001-0.002 3.205-3.205 4.577 4.577c0.465 0.465 1.232 0.465 1.697 0l1.652-1.652c0.465-0.465 0.465-1.232 0-1.697l-0.435-0.441c0.12-0.057 0.234-0.13 0.332-0.228 0 0 0 0 0 0s0 0 0 0h-0l0.868-0.869c0.465-0.465 0.465-1.232 0-1.697l-3.343-3.343 1.995-1.995c0.072-0.072 0.117-0.172 0.117-0.283s-0.045-0.21-0.117-0.283l-2.262-2.263c-0.072-0.072-0.172-0.117-0.283-0.117-0.002 0-0.004 0-0.006 0h0c-0.108 0.002-0.206 0.046-0.277 0.117l-1.995 1.995-3.36-3.36c-0.233-0.233-0.541-0.349-0.848-0.349zM21.252 0.798c0.102 0 0.203 0.040 0.283 0.12l3.586 3.586c0.031 0.046 0.070 0.085 0.115 0.115l0.002 0.001 2.146 2.147c0.031 0.046 0.070 0.085 0.115 0.115l0.002 0.001 3.566 3.567c0.16 0.16 0.16 0.406 0 0.566l-0.869 0.869c-0.146 0.146-0.363 0.152-0.521 0.030l-0.191-0.194c-0.073-0.077-0.176-0.124-0.29-0.124-0.221 0-0.4 0.179-0.4 0.4 0 0.112 0.046 0.214 0.121 0.287l0 0 0.091 0.092c0.017 0.028 0.037 0.053 0.059 0.075l-0-0c0.024 0.024 0.051 0.041 0.077 0.063l1.156 1.17c0.001 0.001 0.001 0.001 0.002 0.002l0 0c0.16 0.16 0.16 0.406 0 0.566l-1.652 1.652c-0.16 0.16-0.406 0.16-0.566 0l-7.076-7.076c-0.026-0.036-0.056-0.066-0.091-0.091l-0.001-0.001-4.798-4.798c-0.16-0.16-0.16-0.406 0-0.566l1.652-1.652c0.16-0.16 0.406-0.16 0.566 0 0.001 0.001 0.002 0.002 0.002 0.002l0 0 0.983 0.966c0.022 0.022 0.047 0.042 0.073 0.059l0.002 0.001c0.041 0.060 0.087 0.119 0.14 0.172 0.073 0.076 0.175 0.123 0.289 0.123 0.221 0 0.4-0.179 0.4-0.4 0-0.113-0.047-0.216-0.123-0.288l-0-0c-0.16-0.16-0.16-0.406 0-0.566l0.869-0.869c0.080-0.080 0.181-0.12 0.283-0.12zM27.738 2.566l1.697 1.697-1.712 1.712-1.697-1.697 1.712-1.712zM20.8 3.2c-0.221 0-0.4 0.179-0.4 0.4v0c0 0.221 0.179 0.4 0.4 0.4v0c0.221 0 0.4-0.179 0.4-0.4v0c0-0.221-0.179-0.4-0.4-0.4v0zM22 4.4c-0.221 0-0.4 0.179-0.4 0.4v0c0 0.221 0.179 0.4 0.4 0.4v0c0.221 0 0.4-0.179 0.4-0.4v0c0-0.221-0.179-0.4-0.4-0.4v0zM23.2 5.6c-0.221 0-0.4 0.179-0.4 0.4v0c0 0.221 0.179 0.4 0.4 0.4v0c0.221 0 0.4-0.179 0.4-0.4v0c0-0.221-0.179-0.4-0.4-0.4v0zM24.409 6.809c-0.221 0-0.4 0.179-0.4 0.4v0c0 0.221 0.179 0.4 0.4 0.4v0c0.221 0 0.4-0.179 0.4-0.4v0c0-0.221-0.179-0.4-0.4-0.4v0zM25.609 8.009c-0.221 0-0.4 0.179-0.4 0.4v0c0 0.221 0.179 0.4 0.4 0.4v0c0.221 0 0.4-0.179 0.4-0.4v0c0-0.221-0.179-0.4-0.4-0.4v0zM26.809 9.209c-0.221 0-0.4 0.179-0.4 0.4v0c0 0.221 0.179 0.4 0.4 0.4v0c0.221 0 0.4-0.179 0.4-0.4v0c0-0.221-0.179-0.4-0.4-0.4v0zM20.677 9.626l1.697 1.697-2.98 2.98-1.697-1.697 2.98-2.98zM28.009 10.409c-0.221 0-0.4 0.179-0.4 0.4v0c0 0.221 0.179 0.4 0.4 0.4v0c0.221 0 0.4-0.179 0.4-0.4v0c0-0.221-0.179-0.4-0.4-0.4v0zM17.131 13.172l1.697 1.697-3.959 3.959-1.697-1.697 3.959-3.959zM3.652 15.998c0.102 0 0.203 0.040 0.283 0.12l11.966 11.966c0.16 0.16 0.16 0.406 0 0.566l-1.652 1.652c-0.16 0.16-0.406 0.16-0.566 0-0.001-0.001-0.001-0.001-0.002-0.002l-0-0-1.17-1.156c-0.021-0.025-0.039-0.053-0.063-0.077s-0.049-0.045-0.077-0.062l-0.002-0.001-0.088-0.087c-0.073-0.075-0.174-0.121-0.287-0.121-0.221 0-0.4 0.179-0.4 0.4 0 0.114 0.048 0.217 0.124 0.29l0 0 0.195 0.192c0.121 0.158 0.116 0.374-0.030 0.52l-0.869 0.869c-0.16 0.16-0.406 0.16-0.566 0l-9.531-9.531c-0.16-0.16-0.16-0.406 0-0.566l0.869-0.869c0.16-0.16 0.406-0.16 0.566 0 0.073 0.076 0.175 0.123 0.289 0.123 0.221 0 0.4-0.179 0.4-0.4 0-0.113-0.047-0.216-0.123-0.288l-0-0c-0.054-0.054-0.113-0.099-0.173-0.141-0.017-0.028-0.037-0.052-0.059-0.074v0l-0.966-0.983c-0.001-0.001-0.002-0.002-0.002-0.002l-0-0c-0.16-0.16-0.16-0.406 0-0.566l1.652-1.652c0.080-0.080 0.181-0.12 0.283-0.12zM12.606 17.697l1.697 1.697-2.98 2.98-1.697-1.697 2.98-2.98zM3.6 20.4c-0.221 0-0.4 0.179-0.4 0.4v0c0 0.221 0.179 0.4 0.4 0.4v0c0.221 0 0.4-0.179 0.4-0.4v0c0-0.221-0.179-0.4-0.4-0.4v0zM4.8 21.6c-0.221 0-0.4 0.179-0.4 0.4v0c0 0.221 0.179 0.4 0.4 0.4v0c0.221 0 0.4-0.179 0.4-0.4v0c0-0.221-0.179-0.4-0.4-0.4v0zM6 22.8c-0.221 0-0.4 0.179-0.4 0.4v0c0 0.221 0.179 0.4 0.4 0.4v0c0.221 0 0.4-0.179 0.4-0.4v0c0-0.221-0.179-0.4-0.4-0.4v0zM7.209 24.009c-0.221 0-0.4 0.179-0.4 0.4v0c0 0.221 0.179 0.4 0.4 0.4v0c0.221 0 0.4-0.179 0.4-0.4v0c0-0.221-0.179-0.4-0.4-0.4v0zM8.409 25.209c-0.221 0-0.4 0.179-0.4 0.4v0c0 0.221 0.179 0.4 0.4 0.4v0c0.221 0 0.4-0.179 0.4-0.4v0c0-0.221-0.179-0.4-0.4-0.4v0zM4.277 26.026l1.697 1.697-1.712 1.712-1.697-1.697 1.712-1.712zM9.609 26.409c-0.221 0-0.4 0.179-0.4 0.4v0c0 0.221 0.179 0.4 0.4 0.4v0c0.221 0 0.4-0.179 0.4-0.4v0c0-0.221-0.179-0.4-0.4-0.4v0zM10.809 27.609c-0.221 0-0.4 0.179-0.4 0.4v0c0 0.221 0.179 0.4 0.4 0.4v0c0.221 0 0.4-0.179 0.4-0.4v0c0-0.221-0.179-0.4-0.4-0.4v0z"></path>
</svg>
