<!-- Generated by IcoMoon.io -->
<svg version="1.1" xmlns="http://www.w3.org/2000/svg" width="32" height="32" viewBox="0 0 32 32">
<title>beach</title>
<path d="M10.994 4c-2.614 0-4.316 1.186-5.3 2.638-0.986 1.452-1.294 3.136-1.294 4.261v1.225l0.723-0.988c0 0 1.436-1.997 4.353-3.111-1.427 1.15-2.264 2.786-2.264 4.375 0 2.953 1.719 4.683 1.719 4.683l0.523 0.523 0.15-0.725c0 0 0.389-1.858 1.364-3.963 0.883-1.902 2.242-3.964 4.155-5.037-0.719 6.255-3.345 9.85-5.83 11.911-2.531 2.102-4.859 2.591-4.942 2.608h-0.352c-0.144-0.002-0.278 0.073-0.352 0.198-0.072 0.125-0.072 0.278 0 0.403 0.073 0.125 0.208 0.2 0.352 0.198h9.2c4.814 0 6.423 4.536 6.423 4.536 0.002 0.005 0.003 0.008 0.006 0.012 0.002 0.005 0.003 0.009 0.005 0.014 0.005 0.009 0.009 0.019 0.016 0.030 0.005 0.009 0.011 0.019 0.017 0.028 0.002 0.005 0.003 0.008 0.006 0.011 0.005 0.006 0.011 0.012 0.016 0.019 0.003 0.005 0.006 0.009 0.011 0.014 0.006 0.008 0.014 0.016 0.020 0.023 0.011 0.008 0.020 0.017 0.031 0.025 0.011 0.009 0.020 0.017 0.031 0.025 0.012 0.006 0.023 0.012 0.036 0.019 0.011 0.006 0.023 0.011 0.034 0.016 0 0 0.002 0 0.002 0.002 0 0 0.002 0 0.002 0 0.012 0.005 0.025 0.008 0.038 0.012 0.009 0.002 0.020 0.005 0.031 0.008 0.006 0 0.012 0.002 0.019 0.002 0.005 0.002 0.008 0.002 0.012 0.003 0.009 0 0.019 0 0.030 0.002 0.002 0 0.003 0 0.005 0 0.003 0 0.006 0 0.009 0 0.002 0 0.003 0 0.005 0 0.025 0 0.050-0.003 0.075-0.008 0.012-0.003 0.025-0.006 0.039-0.011 0.012-0.003 0.025-0.008 0.038-0.012 0.023-0.011 0.047-0.023 0.069-0.038 0.009-0.006 0.017-0.012 0.025-0.019 0.003-0.002 0.005-0.005 0.008-0.006s0.005-0.005 0.008-0.006c0.008-0.008 0.014-0.014 0.022-0.020 0.008-0.011 0.017-0.020 0.025-0.031 0.008-0.008 0.012-0.016 0.019-0.023 0-0.002 0.002-0.002 0.002-0.003 0.003-0.006 0.006-0.011 0.011-0.017 0.005-0.008 0.008-0.016 0.012-0.023 0.006-0.011 0.011-0.023 0.017-0.036 0-0.002 0-0.002 0-0.003 0.005-0.011 0.008-0.023 0.012-0.036 0.003-0.011 0.006-0.023 0.008-0.036 0 0 0-0.002 0-0.002 0.003-0.011 0.003-0.020 0.005-0.031 0-0.003 0-0.006 0.002-0.009 0-0.009 0-0.019 0-0.028 0-0.002 0-0.002 0-0.002 0-0.027-0.003-0.053-0.008-0.078 0 0 0-0.002 0-0.002-0.003-0.019-0.009-0.038-0.016-0.055 0 0-0.006-0.014-0.006-0.016 0 0-0.002-0.003-0.002-0.005 0 0-0.002-0.002-0.002-0.002-0.023-0.064-0.527-1.372-1.719-2.65 0.050 0.003 0.1 0.008 0.152 0.008 0.533 0 0.98-0.242 1.38-0.442s0.753-0.358 1.020-0.358c0.267 0 0.62 0.158 1.020 0.358s0.847 0.442 1.38 0.442c0.533 0 0.98-0.242 1.38-0.442s0.753-0.358 1.020-0.358c0.267 0 0.62 0.158 1.020 0.358s0.847 0.442 1.38 0.442v-0.8c-0.267 0-0.62-0.158-1.020-0.358s-0.847-0.442-1.38-0.442c-0.533 0-0.98 0.242-1.38 0.442s-0.753 0.358-1.020 0.358c-0.267 0-0.62-0.158-1.020-0.358s-0.847-0.442-1.38-0.442c-0.533 0-0.98 0.242-1.38 0.442s-0.753 0.358-1.020 0.358c-0.267 0-0.62-0.158-1.020-0.358-0.348-0.173-0.731-0.38-1.177-0.43-0.93-0.486-2.055-0.813-3.403-0.813h-1.128c0.581-0.491 1.323-1.245 2.064-2.381 0.628-0.964 1.252-2.202 1.77-3.761 0.061-0.072 0.094-0.164 0.094-0.258 0-0.009 0-0.017-0.002-0.025 0.669-2.116 1.144-4.805 1.194-8.205 1.63 1.219 2.544 3.267 3.034 5.13 0.555 2.098 0.573 3.905 0.573 3.905l0.006 0.739 0.616-0.411c0 0 2.578-1.733 2.578-5.133 0-1.153-0.28-2.188-0.783-3.042 1.367 1.031 2.053 2.148 2.053 2.148l0.742 1.223v-1.431c0-1.050 0.011-2.734-0.684-4.206-0.695-1.473-2.173-2.692-4.848-2.692-1.333 0-2.495 0.441-3.35 1.042-0.456 0.32-0.83 0.683-1.097 1.066-0.848-0.884-2.478-2.108-5.039-2.108zM10.994 4.8c2.411 0 3.786 1.128 4.481 1.898-0.709-0.095-1.381-0.131-2.025-0.125l-0.005-0.077c-0.292 0.020-0.573 0.061-0.85 0.112-3.603 0.273-6.034 1.988-7.228 3.109 0.148-0.85 0.408-1.778 0.989-2.631 0.862-1.273 2.258-2.287 4.638-2.287zM20.48 4.8c2.445 0 3.534 0.981 4.125 2.233 0.4 0.847 0.508 1.787 0.555 2.664-0.417-0.475-0.959-1.039-1.723-1.575-0.733-0.514-1.642-0.972-2.709-1.258-0.184-0.069-0.373-0.133-0.57-0.183l-0.012 0.047c-0.95-0.186-2.017-0.228-3.183-0.061-0.014-0.008-0.027-0.016-0.041-0.023l-0.017 0.031c-0.086 0.014-0.169 0.023-0.255 0.037 0.197-0.333 0.481-0.692 0.941-1.017 0.727-0.511 1.734-0.895 2.891-0.895zM13.677 7.295c0.258 0.003 0.523 0.017 0.794 0.037-2.002 1.227-3.345 3.348-4.227 5.248-0.67 1.448-1 2.545-1.198 3.289-0.436-0.603-1.033-1.627-1.033-3.47 0-2.247 2.117-4.855 5.458-5.102 0.070 0 0.137-0.003 0.206-0.003zM18.256 7.298c0.62-0.009 1.195 0.055 1.73 0.166 1.992 0.516 3.214 2.153 3.214 4.536 0 2.241-1.031 3.347-1.659 3.906-0.055-0.745-0.17-1.809-0.541-3.211-0.492-1.87-1.397-3.997-3.094-5.383 0.117-0.006 0.236-0.014 0.35-0.014zM16.189 7.569c0.044 0.008 0.086 0.014 0.13 0.023l0.075 0.014c-0.003 0.355-0.012 0.7-0.025 1.037-0.064-0.148-0.208-0.244-0.369-0.244-0.050 0-0.098 0.009-0.145 0.027 0.036-0.266 0.072-0.528 0.102-0.803l0.141-0.036c0.031-0.008 0.061-0.013 0.092-0.019zM16.352 8.989c-0.084 1.773-0.289 3.327-0.577 4.68-0.109 0.075-0.175 0.198-0.175 0.331 0 0.072 0.020 0.142 0.056 0.205-0.164 0.7-0.352 1.342-0.555 1.933-0.075-0.087-0.186-0.137-0.302-0.137-0.22 0-0.4 0.18-0.4 0.4s0.18 0.4 0.4 0.4c0.022 0 0.044-0.002 0.064-0.006-0.183 0.48-0.377 0.923-0.577 1.33-0.075-0.078-0.178-0.123-0.287-0.123-0.22 0-0.4 0.18-0.4 0.4 0 0.197 0.142 0.364 0.338 0.395-0.158 0.281-0.316 0.544-0.473 0.786-0.23 0.353-0.456 0.653-0.681 0.931 0.011-0.036 0.017-0.075 0.017-0.113 0-0.22-0.18-0.4-0.4-0.4s-0.4 0.18-0.4 0.4c0 0.22 0.18 0.4 0.4 0.4 0.063 0 0.125-0.016 0.181-0.044-0.405 0.472-0.786 0.841-1.098 1.098-0.455 0.373-0.708 0.506-0.786 0.545h-4.033c0.866-0.405 1.895-0.992 2.966-1.852 0.059 0.152 0.206 0.252 0.37 0.252 0.22 0 0.4-0.18 0.4-0.4 0-0.139-0.073-0.269-0.192-0.342 0.425-0.38 0.85-0.806 1.267-1.278 0.041 0.014 0.083 0.020 0.125 0.020 0.22 0 0.4-0.18 0.4-0.4 0-0.066-0.016-0.13-0.047-0.188 0.433-0.539 0.853-1.13 1.248-1.788 0.014 0.211 0.188 0.375 0.398 0.375 0.22 0 0.4-0.18 0.4-0.4s-0.18-0.4-0.4-0.4c-0.063 0-0.125 0.016-0.181 0.044 0.352-0.619 0.684-1.283 0.983-2.008 0.019 0.205 0.192 0.364 0.398 0.364 0.22 0 0.4-0.18 0.4-0.4s-0.18-0.4-0.4-0.4c-0.1 0-0.197 0.037-0.27 0.106 0.278-0.708 0.527-1.467 0.741-2.28 0.075 0.109 0.198 0.173 0.33 0.173 0.22 0 0.4-0.18 0.4-0.4s-0.18-0.4-0.4-0.4c-0.064 0-0.127 0.016-0.183 0.045 0.13-0.552 0.242-1.128 0.339-1.728 0.069 0.053 0.155 0.083 0.244 0.083 0.147 0 0.281-0.081 0.352-0.211zM12.8 18c-0.22 0-0.4 0.18-0.4 0.4s0.18 0.4 0.4 0.4c0.22 0 0.4-0.18 0.4-0.4s-0.18-0.4-0.4-0.4zM11.2 20c-0.22 0-0.4 0.18-0.4 0.4s0.18 0.4 0.4 0.4c0.22 0 0.4-0.18 0.4-0.4s-0.18-0.4-0.4-0.4zM4 27.2c-0.22 0-0.4 0.18-0.4 0.4s0.18 0.4 0.4 0.4c0.22 0 0.4-0.18 0.4-0.4s-0.18-0.4-0.4-0.4zM5.6 27.2c-0.22 0-0.4 0.18-0.4 0.4s0.18 0.4 0.4 0.4c0.22 0 0.4-0.18 0.4-0.4s-0.18-0.4-0.4-0.4zM7.2 27.2c-0.22 0-0.4 0.18-0.4 0.4s0.18 0.4 0.4 0.4c0.22 0 0.4-0.18 0.4-0.4s-0.18-0.4-0.4-0.4zM8.8 27.2c-0.22 0-0.4 0.18-0.4 0.4s0.18 0.4 0.4 0.4c0.22 0 0.4-0.18 0.4-0.4s-0.18-0.4-0.4-0.4zM10.4 27.2c-0.22 0-0.4 0.18-0.4 0.4s0.18 0.4 0.4 0.4c0.22 0 0.4-0.18 0.4-0.4s-0.18-0.4-0.4-0.4zM12 27.2c-0.22 0-0.4 0.18-0.4 0.4s0.18 0.4 0.4 0.4c0.22 0 0.4-0.18 0.4-0.4s-0.18-0.4-0.4-0.4zM13.6 27.2c-0.22 0-0.4 0.18-0.4 0.4s0.18 0.4 0.4 0.4c0.22 0 0.4-0.18 0.4-0.4s-0.18-0.4-0.4-0.4zM15.2 27.2c-0.22 0-0.4 0.18-0.4 0.4s0.18 0.4 0.4 0.4c0.22 0 0.4-0.18 0.4-0.4s-0.18-0.4-0.4-0.4zM16.8 27.2c-0.22 0-0.4 0.18-0.4 0.4s0.18 0.4 0.4 0.4c0.22 0 0.4-0.18 0.4-0.4s-0.18-0.4-0.4-0.4zM18.4 27.2c-0.22 0-0.4 0.18-0.4 0.4s0.18 0.4 0.4 0.4c0.22 0 0.4-0.18 0.4-0.4s-0.18-0.4-0.4-0.4zM21.6 27.2c-0.22 0-0.4 0.18-0.4 0.4s0.18 0.4 0.4 0.4c0.22 0 0.4-0.18 0.4-0.4s-0.18-0.4-0.4-0.4zM23.2 27.2c-0.22 0-0.4 0.18-0.4 0.4s0.18 0.4 0.4 0.4c0.22 0 0.4-0.18 0.4-0.4s-0.18-0.4-0.4-0.4zM24.8 27.2c-0.22 0-0.4 0.18-0.4 0.4s0.18 0.4 0.4 0.4c0.22 0 0.4-0.18 0.4-0.4s-0.18-0.4-0.4-0.4zM26.4 27.2c-0.22 0-0.4 0.18-0.4 0.4s0.18 0.4 0.4 0.4c0.22 0 0.4-0.18 0.4-0.4s-0.18-0.4-0.4-0.4zM28 27.2c-0.22 0-0.4 0.18-0.4 0.4s0.18 0.4 0.4 0.4c0.22 0 0.4-0.18 0.4-0.4s-0.18-0.4-0.4-0.4z"></path>
</svg>
