<!-- Generated by IcoMoon.io -->
<svg version="1.1" xmlns="http://www.w3.org/2000/svg" width="32" height="32" viewBox="0 0 32 32">
<title>binoculars</title>
<path d="M9.6 5.2c-1.542 0-2.8 1.258-2.8 2.8v0.114c-1.278 0.627-2.269 1.786-2.644 3.231l-1.88 7.255c-0.18 0.567-0.277 1.173-0.277 1.8 0 3.309 2.691 6 6 6 2.627 0 4.859-1.698 5.669-4.053 0.503 0.755 1.361 1.253 2.331 1.253s1.828-0.498 2.331-1.253c0.809 2.355 3.042 4.053 5.669 4.053 3.309 0 6-2.691 6-6 0-0.627-0.097-1.233-0.277-1.8l-1.88-7.255c-0.375-1.445-1.366-2.605-2.644-3.231v-0.114c0-1.542-1.258-2.8-2.8-2.8s-2.8 1.258-2.8 2.8v0.833c-0.462 0.416-0.841 0.919-1.116 1.483-0.467-0.898-1.405-1.516-2.484-1.516s-2.017 0.617-2.484 1.516c-0.275-0.564-0.653-1.067-1.116-1.483v-0.833c0-1.542-1.258-2.8-2.8-2.8zM9.6 6c1.109 0 2 0.891 2 2v0.25c-0.708-0.411-1.525-0.65-2.4-0.65h-0.202c-0.48 0-0.945 0.072-1.388 0.2 0.098-1.014 0.947-1.8 1.989-1.8zM22.4 6c1.042 0 1.891 0.786 1.989 1.8-0.442-0.128-0.908-0.2-1.387-0.2h-0.202c-0.875 0-1.692 0.239-2.4 0.65v-0.25c0-1.109 0.891-2 2-2zM8.998 8.4h0.202c2.214 0 4 1.786 4 4 0 0.22 0.18 0.4 0.4 0.4s0.4-0.18 0.4-0.4v-0.8c0-1.109 0.891-2 2-2s2 0.891 2 2v0.8c0 0.22 0.18 0.4 0.4 0.4s0.4-0.18 0.4-0.4c0-2.214 1.786-4 4-4h0.202c1.917 0 3.586 1.292 4.067 3.147l1.206 4.648c-1.089-1.106-2.603-1.795-4.275-1.795-2.836 0-5.212 1.98-5.836 4.627-0.514-0.625-1.294-1.027-2.164-1.027s-1.65 0.402-2.164 1.027c-0.623-2.647-3-4.627-5.836-4.627-1.672 0-3.186 0.689-4.275 1.795l1.206-4.648c0.481-1.855 2.15-3.147 4.067-3.147zM13.6 13.6c-0.22 0-0.4 0.18-0.4 0.4s0.18 0.4 0.4 0.4c0.22 0 0.4-0.18 0.4-0.4s-0.18-0.4-0.4-0.4zM18.4 13.6c-0.22 0-0.4 0.18-0.4 0.4s0.18 0.4 0.4 0.4c0.22 0 0.4-0.18 0.4-0.4s-0.18-0.4-0.4-0.4zM8 15.2c2.877 0 5.2 2.323 5.2 5.2s-2.323 5.2-5.2 5.2c-2.877 0-5.2-2.323-5.2-5.2 0-0.522 0.078-1.025 0.222-1.5h0.003l0.022-0.086c0.67-2.098 2.63-3.614 4.953-3.614zM13.6 15.2c-0.22 0-0.4 0.18-0.4 0.4s0.18 0.4 0.4 0.4c0.22 0 0.4-0.18 0.4-0.4s-0.18-0.4-0.4-0.4zM18.4 15.2c-0.22 0-0.4 0.18-0.4 0.4s0.18 0.4 0.4 0.4c0.22 0 0.4-0.18 0.4-0.4s-0.18-0.4-0.4-0.4zM24 15.2c2.323 0 4.283 1.516 4.952 3.614l0.023 0.086h0.005c0.142 0.475 0.22 0.978 0.22 1.5 0 2.877-2.323 5.2-5.2 5.2s-5.2-2.323-5.2-5.2c0-2.877 2.323-5.2 5.2-5.2zM8 16.4c-0.22 0-0.4 0.18-0.4 0.4s0.18 0.4 0.4 0.4c0.22 0 0.4-0.18 0.4-0.4s-0.18-0.4-0.4-0.4zM24 16.4c-0.22 0-0.4 0.18-0.4 0.4s0.18 0.4 0.4 0.4c0.22 0 0.4-0.18 0.4-0.4s-0.18-0.4-0.4-0.4zM13.6 16.8c-0.22 0-0.4 0.18-0.4 0.4s0.18 0.4 0.4 0.4c0.22 0 0.4-0.18 0.4-0.4s-0.18-0.4-0.4-0.4zM18.4 16.8c-0.22 0-0.4 0.18-0.4 0.4s0.18 0.4 0.4 0.4c0.22 0 0.4-0.18 0.4-0.4s-0.18-0.4-0.4-0.4zM6.191 16.881c-0.067 0.003-0.133 0.020-0.191 0.055-0.191 0.111-0.258 0.355-0.147 0.545 0.053 0.092 0.141 0.159 0.244 0.188 0.102 0.027 0.211 0.012 0.303-0.041 0.191-0.111 0.256-0.355 0.145-0.547-0.072-0.127-0.208-0.203-0.355-0.2zM22.189 16.881c-0.066 0.002-0.131 0.020-0.189 0.055-0.092 0.052-0.159 0.139-0.188 0.242-0.027 0.103-0.012 0.212 0.041 0.303 0.111 0.192 0.355 0.258 0.547 0.147 0.191-0.111 0.256-0.355 0.145-0.547-0.072-0.127-0.209-0.203-0.356-0.2zM9.781 16.883c-0.137 0.006-0.261 0.081-0.328 0.2-0.111 0.191-0.044 0.436 0.147 0.547 0.191 0.109 0.436 0.044 0.545-0.147 0.055-0.092 0.069-0.202 0.041-0.303-0.027-0.103-0.094-0.191-0.186-0.244-0.067-0.039-0.142-0.056-0.219-0.053zM25.781 16.883c-0.136 0.008-0.259 0.083-0.328 0.2-0.111 0.191-0.045 0.436 0.147 0.547 0.091 0.053 0.2 0.067 0.303 0.039 0.103-0.027 0.191-0.094 0.242-0.186 0.111-0.191 0.045-0.436-0.145-0.545-0.067-0.039-0.144-0.058-0.219-0.055zM4.862 18.2c-0.136 0.006-0.259 0.081-0.327 0.2-0.111 0.191-0.045 0.436 0.145 0.545 0.192 0.111 0.436 0.045 0.547-0.145 0.053-0.092 0.067-0.202 0.041-0.303-0.028-0.103-0.095-0.191-0.188-0.244-0.066-0.039-0.142-0.056-0.219-0.053zM11.108 18.2c-0.067 0.002-0.133 0.020-0.191 0.053-0.191 0.111-0.256 0.355-0.147 0.547 0.111 0.191 0.356 0.256 0.547 0.145 0.092-0.052 0.159-0.139 0.188-0.242 0.027-0.103 0.012-0.212-0.041-0.303-0.073-0.127-0.209-0.203-0.356-0.2zM27.106 18.2c-0.066 0.002-0.131 0.020-0.189 0.053-0.191 0.111-0.258 0.355-0.147 0.547 0.053 0.091 0.141 0.158 0.244 0.186 0.102 0.028 0.211 0.014 0.303-0.041 0.092-0.052 0.159-0.139 0.186-0.242 0.028-0.103 0.014-0.212-0.041-0.303-0.072-0.127-0.209-0.203-0.356-0.2zM20.863 18.2c-0.136 0.008-0.259 0.083-0.327 0.2-0.111 0.192-0.045 0.436 0.145 0.547 0.192 0.111 0.436 0.045 0.547-0.147 0.053-0.091 0.067-0.2 0.041-0.303-0.028-0.103-0.095-0.191-0.188-0.242-0.066-0.039-0.142-0.058-0.219-0.055zM16 18.8c1.109 0 2 0.891 2 2s-0.891 2-2 2c-1.109 0-2-0.891-2-2s0.891-2 2-2zM4.4 20c-0.22 0-0.4 0.18-0.4 0.4s0.18 0.4 0.4 0.4c0.22 0 0.4-0.18 0.4-0.4s-0.18-0.4-0.4-0.4zM11.6 20c-0.22 0-0.4 0.18-0.4 0.4s0.18 0.4 0.4 0.4c0.22 0 0.4-0.18 0.4-0.4s-0.18-0.4-0.4-0.4zM20.4 20c-0.22 0-0.4 0.18-0.4 0.4s0.18 0.4 0.4 0.4c0.22 0 0.4-0.18 0.4-0.4s-0.18-0.4-0.4-0.4zM27.6 20c-0.22 0-0.4 0.18-0.4 0.4s0.18 0.4 0.4 0.4c0.22 0 0.4-0.18 0.4-0.4s-0.18-0.4-0.4-0.4zM16 20.4c-0.22 0-0.4 0.18-0.4 0.4s0.18 0.4 0.4 0.4c0.22 0 0.4-0.18 0.4-0.4s-0.18-0.4-0.4-0.4zM4.873 21.8c-0.067 0.002-0.133 0.019-0.192 0.053-0.191 0.111-0.256 0.355-0.145 0.547 0.111 0.191 0.355 0.256 0.545 0.145 0.092-0.052 0.159-0.139 0.188-0.242s0.014-0.212-0.039-0.303c-0.073-0.128-0.211-0.205-0.356-0.2zM20.873 21.8c-0.067 0.002-0.133 0.019-0.192 0.053-0.191 0.111-0.256 0.355-0.145 0.547 0.052 0.091 0.139 0.158 0.242 0.186s0.212 0.014 0.303-0.041c0.092-0.052 0.159-0.139 0.188-0.242 0.027-0.103 0.012-0.212-0.041-0.303-0.073-0.128-0.209-0.205-0.355-0.2zM11.098 21.8c-0.137 0.008-0.261 0.083-0.328 0.2-0.111 0.192-0.044 0.436 0.147 0.547s0.436 0.045 0.545-0.147c0.055-0.091 0.069-0.2 0.041-0.303-0.027-0.103-0.094-0.191-0.186-0.242-0.067-0.039-0.142-0.058-0.219-0.055zM27.098 21.802c-0.136 0.006-0.259 0.081-0.328 0.198-0.111 0.192-0.044 0.436 0.147 0.547s0.436 0.045 0.545-0.147c0.111-0.191 0.045-0.434-0.145-0.545-0.066-0.039-0.142-0.056-0.219-0.053zM9.789 23.117c-0.066 0.002-0.131 0.020-0.189 0.053-0.092 0.053-0.159 0.141-0.188 0.244-0.027 0.102-0.012 0.211 0.041 0.303s0.141 0.159 0.244 0.186c0.102 0.028 0.211 0.014 0.303-0.041 0.191-0.109 0.256-0.355 0.145-0.545-0.072-0.127-0.209-0.203-0.356-0.2zM25.789 23.117c-0.066 0.002-0.131 0.020-0.189 0.053-0.092 0.053-0.159 0.141-0.188 0.244-0.027 0.102-0.012 0.211 0.041 0.303 0.111 0.191 0.355 0.256 0.547 0.145 0.191-0.109 0.256-0.355 0.145-0.545-0.073-0.127-0.209-0.203-0.356-0.2zM6.181 23.119c-0.136 0.006-0.259 0.081-0.328 0.2-0.111 0.191-0.045 0.434 0.147 0.545 0.091 0.053 0.2 0.067 0.303 0.041 0.103-0.028 0.191-0.095 0.242-0.186 0.111-0.192 0.045-0.436-0.145-0.547-0.067-0.039-0.144-0.056-0.219-0.053zM22.181 23.119c-0.136 0.006-0.259 0.081-0.328 0.2-0.111 0.191-0.045 0.434 0.147 0.545 0.091 0.053 0.2 0.067 0.303 0.041 0.103-0.028 0.191-0.095 0.242-0.186 0.111-0.192 0.045-0.436-0.145-0.547-0.067-0.039-0.144-0.056-0.219-0.053zM8 23.6c-0.22 0-0.4 0.18-0.4 0.4s0.18 0.4 0.4 0.4c0.22 0 0.4-0.18 0.4-0.4s-0.18-0.4-0.4-0.4zM24 23.6c-0.22 0-0.4 0.18-0.4 0.4s0.18 0.4 0.4 0.4c0.22 0 0.4-0.18 0.4-0.4s-0.18-0.4-0.4-0.4z"></path>
</svg>
