<!-- Generated by IcoMoon.io -->
<svg version="1.1" xmlns="http://www.w3.org/2000/svg" width="32" height="32" viewBox="0 0 32 32">
<title>bookmark</title>
<path d="M6.4 3.6c-0.658 0-1.2 0.542-1.2 1.2v22.4c0 0.658 0.542 1.2 1.2 1.2h19.2c0.658 0 1.2-0.542 1.2-1.2v-22.4c0-0.658-0.542-1.2-1.2-1.2zM6.4 4.4h2v23.2h-2c-0.227 0-0.4-0.173-0.4-0.4v-22.4c0-0.227 0.173-0.4 0.4-0.4zM9.2 4.4h7.2v14.055l2.8-2.334 2.8 2.334v-14.055h3.6c0.227 0 0.4 0.173 0.4 0.4v22.4c0 0.227-0.173 0.4-0.4 0.4h-16.4zM17.2 4.4h4v12.345l-2-1.666-2 1.666zM10.4 5.2c-0.22 0-0.4 0.18-0.4 0.4s0.18 0.4 0.4 0.4c0.22 0 0.4-0.18 0.4-0.4s-0.18-0.4-0.4-0.4zM12 5.2c-0.22 0-0.4 0.18-0.4 0.4s0.18 0.4 0.4 0.4c0.22 0 0.4-0.18 0.4-0.4s-0.18-0.4-0.4-0.4zM13.6 5.2c-0.22 0-0.4 0.18-0.4 0.4s0.18 0.4 0.4 0.4c0.22 0 0.4-0.18 0.4-0.4s-0.18-0.4-0.4-0.4zM15.2 5.2c-0.22 0-0.4 0.18-0.4 0.4s0.18 0.4 0.4 0.4c0.22 0 0.4-0.18 0.4-0.4s-0.18-0.4-0.4-0.4zM23.2 5.2c-0.22 0-0.4 0.18-0.4 0.4s0.18 0.4 0.4 0.4c0.22 0 0.4-0.18 0.4-0.4s-0.18-0.4-0.4-0.4zM24.8 5.2c-0.22 0-0.4 0.18-0.4 0.4s0.18 0.4 0.4 0.4c0.22 0 0.4-0.18 0.4-0.4s-0.18-0.4-0.4-0.4zM24.8 6.8c-0.22 0-0.4 0.18-0.4 0.4s0.18 0.4 0.4 0.4c0.22 0 0.4-0.18 0.4-0.4s-0.18-0.4-0.4-0.4zM24.8 8.4c-0.22 0-0.4 0.18-0.4 0.4s0.18 0.4 0.4 0.4c0.22 0 0.4-0.18 0.4-0.4s-0.18-0.4-0.4-0.4zM24.8 10c-0.22 0-0.4 0.18-0.4 0.4s0.18 0.4 0.4 0.4c0.22 0 0.4-0.18 0.4-0.4s-0.18-0.4-0.4-0.4zM24.8 11.6c-0.22 0-0.4 0.18-0.4 0.4s0.18 0.4 0.4 0.4c0.22 0 0.4-0.18 0.4-0.4s-0.18-0.4-0.4-0.4zM24.8 13.2c-0.22 0-0.4 0.18-0.4 0.4s0.18 0.4 0.4 0.4c0.22 0 0.4-0.18 0.4-0.4s-0.18-0.4-0.4-0.4zM24.8 14.8c-0.22 0-0.4 0.18-0.4 0.4s0.18 0.4 0.4 0.4c0.22 0 0.4-0.18 0.4-0.4s-0.18-0.4-0.4-0.4zM24.8 16.4c-0.22 0-0.4 0.18-0.4 0.4s0.18 0.4 0.4 0.4c0.22 0 0.4-0.18 0.4-0.4s-0.18-0.4-0.4-0.4zM24.8 18c-0.22 0-0.4 0.18-0.4 0.4s0.18 0.4 0.4 0.4c0.22 0 0.4-0.18 0.4-0.4s-0.18-0.4-0.4-0.4zM24.8 19.6c-0.22 0-0.4 0.18-0.4 0.4s0.18 0.4 0.4 0.4c0.22 0 0.4-0.18 0.4-0.4s-0.18-0.4-0.4-0.4zM24.8 21.2c-0.22 0-0.4 0.18-0.4 0.4s0.18 0.4 0.4 0.4c0.22 0 0.4-0.18 0.4-0.4s-0.18-0.4-0.4-0.4zM24.8 22.8c-0.22 0-0.4 0.18-0.4 0.4s0.18 0.4 0.4 0.4c0.22 0 0.4-0.18 0.4-0.4s-0.18-0.4-0.4-0.4zM24.8 24.4c-0.22 0-0.4 0.18-0.4 0.4s0.18 0.4 0.4 0.4c0.22 0 0.4-0.18 0.4-0.4s-0.18-0.4-0.4-0.4zM10.4 26c-0.22 0-0.4 0.18-0.4 0.4s0.18 0.4 0.4 0.4c0.22 0 0.4-0.18 0.4-0.4s-0.18-0.4-0.4-0.4zM12 26c-0.22 0-0.4 0.18-0.4 0.4s0.18 0.4 0.4 0.4c0.22 0 0.4-0.18 0.4-0.4s-0.18-0.4-0.4-0.4zM13.6 26c-0.22 0-0.4 0.18-0.4 0.4s0.18 0.4 0.4 0.4c0.22 0 0.4-0.18 0.4-0.4s-0.18-0.4-0.4-0.4zM15.2 26c-0.22 0-0.4 0.18-0.4 0.4s0.18 0.4 0.4 0.4c0.22 0 0.4-0.18 0.4-0.4s-0.18-0.4-0.4-0.4zM16.8 26c-0.22 0-0.4 0.18-0.4 0.4s0.18 0.4 0.4 0.4c0.22 0 0.4-0.18 0.4-0.4s-0.18-0.4-0.4-0.4zM18.4 26c-0.22 0-0.4 0.18-0.4 0.4s0.18 0.4 0.4 0.4c0.22 0 0.4-0.18 0.4-0.4s-0.18-0.4-0.4-0.4zM20 26c-0.22 0-0.4 0.18-0.4 0.4s0.18 0.4 0.4 0.4c0.22 0 0.4-0.18 0.4-0.4s-0.18-0.4-0.4-0.4zM21.6 26c-0.22 0-0.4 0.18-0.4 0.4s0.18 0.4 0.4 0.4c0.22 0 0.4-0.18 0.4-0.4s-0.18-0.4-0.4-0.4zM23.2 26c-0.22 0-0.4 0.18-0.4 0.4s0.18 0.4 0.4 0.4c0.22 0 0.4-0.18 0.4-0.4s-0.18-0.4-0.4-0.4zM24.8 26c-0.22 0-0.4 0.18-0.4 0.4s0.18 0.4 0.4 0.4c0.22 0 0.4-0.18 0.4-0.4s-0.18-0.4-0.4-0.4z"></path>
</svg>
