<!-- Generated by IcoMoon.io -->
<svg version="1.1" xmlns="http://www.w3.org/2000/svg" width="33" height="32" viewBox="0 0 33 32">
<title>box</title>
<path d="M0.831 0c-0.152 0-0.295 0.066-0.396 0.18-0.098 0.113-0.143 0.266-0.123 0.416v21.441c0 0.139 0.055 0.273 0.154 0.371l8.918 8.918c0.098 0.098 0.232 0.154 0.371 0.154h21.508c0.289 0 0.525-0.236 0.525-0.525v-21.508c0-0.139-0.055-0.273-0.154-0.371l-8.918-8.918c-0.098-0.098-0.232-0.154-0.371-0.154h-21.447c-0.023-0.004-0.045-0.004-0.068-0.004zM2.103 1.053h20.025l7.869 7.869h-20.025l-7.869-7.869zM1.361 1.795l7.869 7.869v0.307c-0.289 0-0.525 0.236-0.525 0.525s0.236 0.525 0.525 0.525v2.098c-0.289 0-0.525 0.236-0.525 0.525s0.236 0.525 0.525 0.525v2.098c-0.289 0-0.525 0.236-0.525 0.525s0.236 0.525 0.525 0.525v2.098c-0.289 0-0.525 0.236-0.525 0.525s0.236 0.525 0.525 0.525v2.098c-0.289 0-0.525 0.236-0.525 0.525s0.236 0.525 0.525 0.525v2.098c-0.289 0-0.525 0.236-0.525 0.525s0.236 0.525 0.525 0.525v2.93l-1.391-1.389c0.207-0.078 0.342-0.273 0.342-0.492 0-0.289-0.236-0.525-0.525-0.525-0.219 0-0.414 0.135-0.492 0.342l-0.9-0.9c0.207-0.078 0.342-0.273 0.342-0.492 0-0.289-0.236-0.525-0.525-0.525-0.219 0-0.414 0.135-0.492 0.342l-0.9-0.9c0.207-0.078 0.342-0.273 0.342-0.492 0-0.289-0.236-0.525-0.525-0.525-0.219 0-0.414 0.135-0.492 0.342l-0.9-0.9c0.207-0.078 0.342-0.273 0.342-0.492 0-0.289-0.236-0.525-0.525-0.525-0.219 0-0.414 0.135-0.492 0.342l-0.9-0.9c0.207-0.078 0.342-0.273 0.342-0.492 0-0.289-0.236-0.525-0.525-0.525v-2.098c0.289 0 0.525-0.236 0.525-0.525s-0.236-0.525-0.525-0.525v-2.098c0.289 0 0.525-0.236 0.525-0.525s-0.236-0.525-0.525-0.525v-2.098c0.289 0 0.525-0.236 0.525-0.525s-0.236-0.525-0.525-0.525v-2.098c0.289 0 0.525-0.236 0.525-0.525s-0.236-0.525-0.525-0.525v-2.098c0.289 0 0.525-0.236 0.525-0.525s-0.236-0.525-0.525-0.525v-2.098c0.289 0 0.525-0.236 0.525-0.525s-0.236-0.525-0.525-0.525v-0.307zM2.935 3.676c-0.289 0-0.525 0.236-0.525 0.525s0.236 0.525 0.525 0.525c0.289 0 0.525-0.236 0.525-0.525s-0.236-0.525-0.525-0.525zM4.509 5.25c-0.289 0-0.525 0.236-0.525 0.525s0.236 0.525 0.525 0.525c0.289 0 0.525-0.236 0.525-0.525s-0.236-0.525-0.525-0.525zM2.935 6.824c-0.289 0-0.525 0.236-0.525 0.525s0.236 0.525 0.525 0.525c0.289 0 0.525-0.236 0.525-0.525s-0.236-0.525-0.525-0.525zM6.083 6.824c-0.289 0-0.525 0.236-0.525 0.525s0.236 0.525 0.525 0.525c0.289 0 0.525-0.236 0.525-0.525s-0.236-0.525-0.525-0.525zM4.509 8.398c-0.289 0-0.525 0.236-0.525 0.525s0.236 0.525 0.525 0.525c0.289 0 0.525-0.236 0.525-0.525s-0.236-0.525-0.525-0.525zM7.656 8.398c-0.289 0-0.525 0.236-0.525 0.525s0.236 0.525 0.525 0.525c0.289 0 0.525-0.236 0.525-0.525s-0.236-0.525-0.525-0.525zM2.935 9.971c-0.289 0-0.525 0.236-0.525 0.525s0.236 0.525 0.525 0.525c0.289 0 0.525-0.236 0.525-0.525s-0.236-0.525-0.525-0.525zM6.083 9.971c-0.289 0-0.525 0.236-0.525 0.525s0.236 0.525 0.525 0.525c0.289 0 0.525-0.236 0.525-0.525s-0.236-0.525-0.525-0.525zM10.279 9.971h20.459v20.459h-20.459v-20.459zM4.509 11.545c-0.289 0-0.525 0.236-0.525 0.525s0.236 0.525 0.525 0.525c0.289 0 0.525-0.236 0.525-0.525s-0.236-0.525-0.525-0.525zM7.656 11.545c-0.289 0-0.525 0.236-0.525 0.525s0.236 0.525 0.525 0.525c0.289 0 0.525-0.236 0.525-0.525s-0.236-0.525-0.525-0.525zM2.935 13.119c-0.289 0-0.525 0.236-0.525 0.525s0.236 0.525 0.525 0.525c0.289 0 0.525-0.236 0.525-0.525s-0.236-0.525-0.525-0.525zM6.083 13.119c-0.289 0-0.525 0.236-0.525 0.525s0.236 0.525 0.525 0.525c0.289 0 0.525-0.236 0.525-0.525s-0.236-0.525-0.525-0.525zM4.509 14.693c-0.289 0-0.525 0.236-0.525 0.525s0.236 0.525 0.525 0.525c0.289 0 0.525-0.236 0.525-0.525s-0.236-0.525-0.525-0.525zM7.656 14.693c-0.289 0-0.525 0.236-0.525 0.525s0.236 0.525 0.525 0.525c0.289 0 0.525-0.236 0.525-0.525s-0.236-0.525-0.525-0.525zM2.935 16.266c-0.289 0-0.525 0.236-0.525 0.525s0.236 0.525 0.525 0.525c0.289 0 0.525-0.236 0.525-0.525s-0.236-0.525-0.525-0.525zM6.083 16.266c-0.289 0-0.525 0.236-0.525 0.525s0.236 0.525 0.525 0.525c0.289 0 0.525-0.236 0.525-0.525s-0.236-0.525-0.525-0.525zM4.509 17.84c-0.289 0-0.525 0.236-0.525 0.525s0.236 0.525 0.525 0.525c0.289 0 0.525-0.236 0.525-0.525s-0.236-0.525-0.525-0.525zM7.656 17.84c-0.289 0-0.525 0.236-0.525 0.525s0.236 0.525 0.525 0.525c0.289 0 0.525-0.236 0.525-0.525s-0.236-0.525-0.525-0.525zM2.935 19.414c-0.289 0-0.525 0.236-0.525 0.525s0.236 0.525 0.525 0.525c0.289 0 0.525-0.236 0.525-0.525s-0.236-0.525-0.525-0.525zM6.083 19.414c-0.289 0-0.525 0.236-0.525 0.525s0.236 0.525 0.525 0.525c0.289 0 0.525-0.236 0.525-0.525s-0.236-0.525-0.525-0.525zM4.509 20.988c-0.289 0-0.525 0.236-0.525 0.525s0.236 0.525 0.525 0.525c0.289 0 0.525-0.236 0.525-0.525s-0.236-0.525-0.525-0.525zM7.656 20.988c-0.289 0-0.525 0.236-0.525 0.525s0.236 0.525 0.525 0.525c0.289 0 0.525-0.236 0.525-0.525s-0.236-0.525-0.525-0.525zM6.083 22.561c-0.289 0-0.525 0.236-0.525 0.525s0.236 0.525 0.525 0.525c0.289 0 0.525-0.236 0.525-0.525s-0.236-0.525-0.525-0.525zM7.656 24.135c-0.289 0-0.525 0.236-0.525 0.525s0.236 0.525 0.525 0.525c0.289 0 0.525-0.236 0.525-0.525s-0.236-0.525-0.525-0.525z"></path>
</svg>
