<!-- Generated by IcoMoon.io -->
<svg version="1.1" xmlns="http://www.w3.org/2000/svg" width="33" height="32" viewBox="0 0 33 32">
<title>box</title>
<path d="M4.050 3.304c-0.12 0-0.234 0.052-0.314 0.143-0.078 0.090-0.114 0.212-0.098 0.33v17.013c0 0.11 0.044 0.216 0.122 0.294l7.077 7.076c0.078 0.078 0.184 0.122 0.294 0.122h17.067c0.229 0 0.416-0.187 0.416-0.416v-17.067c0-0.111-0.044-0.216-0.122-0.294l-7.076-7.077c-0.078-0.078-0.184-0.122-0.294-0.122h-17.018c-0.018-0.003-0.036-0.003-0.054-0.003zM5.060 4.14h15.89l6.244 6.244h-15.89l-6.244-6.244zM4.471 4.728l6.244 6.244v0.244c-0.229 0-0.416 0.187-0.416 0.416s0.187 0.416 0.416 0.416v1.665c-0.229 0-0.416 0.187-0.416 0.416s0.187 0.416 0.416 0.416v1.665c-0.229 0-0.416 0.187-0.416 0.416s0.187 0.416 0.416 0.416v1.665c-0.229 0-0.416 0.187-0.416 0.416s0.187 0.416 0.416 0.416v1.665c-0.229 0-0.416 0.187-0.416 0.416s0.187 0.416 0.416 0.416v1.665c-0.229 0-0.416 0.187-0.416 0.416s0.187 0.416 0.416 0.416v2.325l-1.104-1.103c0.164-0.062 0.272-0.216 0.272-0.39 0-0.229-0.187-0.416-0.416-0.416-0.174 0-0.329 0.107-0.39 0.272l-0.714-0.714c0.164-0.062 0.272-0.216 0.272-0.39 0-0.229-0.187-0.416-0.416-0.416-0.174 0-0.329 0.107-0.39 0.272l-0.714-0.714c0.164-0.062 0.272-0.216 0.272-0.39 0-0.229-0.187-0.416-0.416-0.416-0.174 0-0.329 0.107-0.39 0.272l-0.714-0.714c0.164-0.062 0.272-0.216 0.272-0.39 0-0.229-0.187-0.416-0.416-0.416-0.174 0-0.329 0.107-0.39 0.272l-0.714-0.714c0.164-0.062 0.272-0.216 0.272-0.39 0-0.229-0.187-0.416-0.416-0.416v-1.665c0.229 0 0.416-0.187 0.416-0.416s-0.187-0.416-0.416-0.416v-1.665c0.229 0 0.416-0.187 0.416-0.416s-0.187-0.416-0.416-0.416v-1.665c0.229 0 0.416-0.187 0.416-0.416s-0.187-0.416-0.416-0.416v-1.665c0.229 0 0.416-0.187 0.416-0.416s-0.187-0.416-0.416-0.416v-1.665c0.229 0 0.416-0.187 0.416-0.416s-0.187-0.416-0.416-0.416v-1.665c0.229 0 0.416-0.187 0.416-0.416s-0.187-0.416-0.416-0.416v-0.244zM5.72 6.221c-0.229 0-0.416 0.187-0.416 0.416s0.187 0.416 0.416 0.416c0.229 0 0.416-0.187 0.416-0.416s-0.187-0.416-0.416-0.416zM6.969 7.47c-0.229 0-0.416 0.187-0.416 0.416s0.187 0.416 0.416 0.416c0.229 0 0.416-0.187 0.416-0.416s-0.187-0.416-0.416-0.416zM5.72 8.719c-0.229 0-0.416 0.187-0.416 0.416s0.187 0.416 0.416 0.416c0.229 0 0.416-0.187 0.416-0.416s-0.187-0.416-0.416-0.416zM8.217 8.719c-0.229 0-0.416 0.187-0.416 0.416s0.187 0.416 0.416 0.416c0.229 0 0.416-0.187 0.416-0.416s-0.187-0.416-0.416-0.416zM6.969 9.967c-0.229 0-0.416 0.187-0.416 0.416s0.187 0.416 0.416 0.416c0.229 0 0.416-0.187 0.416-0.416s-0.187-0.416-0.416-0.416zM9.466 9.967c-0.229 0-0.416 0.187-0.416 0.416s0.187 0.416 0.416 0.416c0.229 0 0.416-0.187 0.416-0.416s-0.187-0.416-0.416-0.416zM5.72 11.216c-0.229 0-0.416 0.187-0.416 0.416s0.187 0.416 0.416 0.416c0.229 0 0.416-0.187 0.416-0.416s-0.187-0.416-0.416-0.416zM8.217 11.216c-0.229 0-0.416 0.187-0.416 0.416s0.187 0.416 0.416 0.416c0.229 0 0.416-0.187 0.416-0.416s-0.187-0.416-0.416-0.416zM11.548 11.216h16.234v16.234h-16.234v-16.234zM6.969 12.465c-0.229 0-0.416 0.187-0.416 0.416s0.187 0.416 0.416 0.416c0.229 0 0.416-0.187 0.416-0.416s-0.187-0.416-0.416-0.416zM9.466 12.465c-0.229 0-0.416 0.187-0.416 0.416s0.187 0.416 0.416 0.416c0.229 0 0.416-0.187 0.416-0.416s-0.187-0.416-0.416-0.416zM5.72 13.714c-0.229 0-0.416 0.187-0.416 0.416s0.187 0.416 0.416 0.416c0.229 0 0.416-0.187 0.416-0.416s-0.187-0.416-0.416-0.416zM8.217 13.714c-0.229 0-0.416 0.187-0.416 0.416s0.187 0.416 0.416 0.416c0.229 0 0.416-0.187 0.416-0.416s-0.187-0.416-0.416-0.416zM6.969 14.963c-0.229 0-0.416 0.187-0.416 0.416s0.187 0.416 0.416 0.416c0.229 0 0.416-0.187 0.416-0.416s-0.187-0.416-0.416-0.416zM9.466 14.963c-0.229 0-0.416 0.187-0.416 0.416s0.187 0.416 0.416 0.416c0.229 0 0.416-0.187 0.416-0.416s-0.187-0.416-0.416-0.416zM5.72 16.212c-0.229 0-0.416 0.187-0.416 0.416s0.187 0.416 0.416 0.416c0.229 0 0.416-0.187 0.416-0.416s-0.187-0.416-0.416-0.416zM8.217 16.212c-0.229 0-0.416 0.187-0.416 0.416s0.187 0.416 0.416 0.416c0.229 0 0.416-0.187 0.416-0.416s-0.187-0.416-0.416-0.416zM6.969 17.46c-0.229 0-0.416 0.187-0.416 0.416s0.187 0.416 0.416 0.416c0.229 0 0.416-0.187 0.416-0.416s-0.187-0.416-0.416-0.416zM9.466 17.46c-0.229 0-0.416 0.187-0.416 0.416s0.187 0.416 0.416 0.416c0.229 0 0.416-0.187 0.416-0.416s-0.187-0.416-0.416-0.416zM5.72 18.709c-0.229 0-0.416 0.187-0.416 0.416s0.187 0.416 0.416 0.416c0.229 0 0.416-0.187 0.416-0.416s-0.187-0.416-0.416-0.416zM8.217 18.709c-0.229 0-0.416 0.187-0.416 0.416s0.187 0.416 0.416 0.416c0.229 0 0.416-0.187 0.416-0.416s-0.187-0.416-0.416-0.416zM6.969 19.958c-0.229 0-0.416 0.187-0.416 0.416s0.187 0.416 0.416 0.416c0.229 0 0.416-0.187 0.416-0.416s-0.187-0.416-0.416-0.416zM9.466 19.958c-0.229 0-0.416 0.187-0.416 0.416s0.187 0.416 0.416 0.416c0.229 0 0.416-0.187 0.416-0.416s-0.187-0.416-0.416-0.416zM8.217 21.207c-0.229 0-0.416 0.187-0.416 0.416s0.187 0.416 0.416 0.416c0.229 0 0.416-0.187 0.416-0.416s-0.187-0.416-0.416-0.416zM9.466 22.455c-0.229 0-0.416 0.187-0.416 0.416s0.187 0.416 0.416 0.416c0.229 0 0.416-0.187 0.416-0.416s-0.187-0.416-0.416-0.416z"></path>
</svg>
