<!-- Generated by IcoMoon.io -->
<svg version="1.1" xmlns="http://www.w3.org/2000/svg" width="33" height="32" viewBox="0 0 33 32">
<title>box</title>
<path d="M4.545 3.812c-0.116 0-0.225 0.050-0.301 0.137-0.075 0.086-0.109 0.203-0.094 0.317v16.332c0 0.106 0.042 0.208 0.117 0.283l6.793 6.793c0.075 0.075 0.176 0.117 0.283 0.117h16.384c0.22 0 0.399-0.179 0.399-0.399v-16.384c0-0.106-0.042-0.208-0.117-0.283l-6.793-6.793c-0.075-0.075-0.176-0.117-0.283-0.117h-16.337c-0.017-0.003-0.034-0.003-0.052-0.003zM5.515 4.614h15.254l5.994 5.994h-15.254l-5.994-5.994zM4.95 5.179l5.994 5.994v0.234c-0.22 0-0.399 0.179-0.399 0.399s0.179 0.399 0.399 0.399v1.598c-0.22 0-0.399 0.179-0.399 0.399s0.179 0.399 0.399 0.399v1.598c-0.22 0-0.399 0.179-0.399 0.399s0.179 0.399 0.399 0.399v1.598c-0.22 0-0.399 0.179-0.399 0.399s0.179 0.399 0.399 0.399v1.598c-0.22 0-0.399 0.179-0.399 0.399s0.179 0.399 0.399 0.399v1.598c-0.22 0-0.399 0.179-0.399 0.399s0.179 0.399 0.399 0.399v2.232l-1.060-1.058c0.158-0.059 0.261-0.208 0.261-0.375 0-0.22-0.179-0.399-0.399-0.399-0.167 0-0.316 0.103-0.375 0.261l-0.685-0.685c0.158-0.059 0.261-0.208 0.261-0.375 0-0.22-0.179-0.399-0.399-0.399-0.167 0-0.316 0.103-0.375 0.261l-0.685-0.685c0.158-0.059 0.261-0.208 0.261-0.375 0-0.22-0.179-0.399-0.399-0.399-0.167 0-0.316 0.103-0.375 0.261l-0.685-0.685c0.158-0.059 0.261-0.208 0.261-0.375 0-0.22-0.179-0.399-0.399-0.399-0.167 0-0.316 0.103-0.375 0.261l-0.685-0.685c0.158-0.059 0.261-0.208 0.261-0.375 0-0.22-0.179-0.399-0.399-0.399v-1.598c0.22 0 0.399-0.179 0.399-0.399s-0.179-0.399-0.399-0.399v-1.598c0.22 0 0.399-0.179 0.399-0.399s-0.179-0.399-0.399-0.399v-1.598c0.22 0 0.399-0.179 0.399-0.399s-0.179-0.399-0.399-0.399v-1.598c0.22 0 0.399-0.179 0.399-0.399s-0.179-0.399-0.399-0.399v-1.598c0.22 0 0.399-0.179 0.399-0.399s-0.179-0.399-0.399-0.399v-1.598c0.22 0 0.399-0.179 0.399-0.399s-0.179-0.399-0.399-0.399v-0.234zM6.148 6.612c-0.22 0-0.399 0.179-0.399 0.399s0.179 0.399 0.399 0.399c0.22 0 0.399-0.179 0.399-0.399s-0.179-0.399-0.399-0.399zM7.347 7.811c-0.22 0-0.399 0.179-0.399 0.399s0.179 0.399 0.399 0.399c0.22 0 0.399-0.179 0.399-0.399s-0.179-0.399-0.399-0.399zM6.148 9.010c-0.22 0-0.399 0.179-0.399 0.399s0.179 0.399 0.399 0.399c0.22 0 0.399-0.179 0.399-0.399s-0.179-0.399-0.399-0.399zM8.546 9.010c-0.22 0-0.399 0.179-0.399 0.399s0.179 0.399 0.399 0.399c0.22 0 0.399-0.179 0.399-0.399s-0.179-0.399-0.399-0.399zM7.347 10.209c-0.22 0-0.399 0.179-0.399 0.399s0.179 0.399 0.399 0.399c0.22 0 0.399-0.179 0.399-0.399s-0.179-0.399-0.399-0.399zM9.745 10.209c-0.22 0-0.399 0.179-0.399 0.399s0.179 0.399 0.399 0.399c0.22 0 0.399-0.179 0.399-0.399s-0.179-0.399-0.399-0.399zM6.148 11.408c-0.22 0-0.399 0.179-0.399 0.399s0.179 0.399 0.399 0.399c0.22 0 0.399-0.179 0.399-0.399s-0.179-0.399-0.399-0.399zM8.546 11.408c-0.22 0-0.399 0.179-0.399 0.399s0.179 0.399 0.399 0.399c0.22 0 0.399-0.179 0.399-0.399s-0.179-0.399-0.399-0.399zM11.743 11.408h15.584v15.585h-15.585v-15.585zM7.347 12.606c-0.22 0-0.399 0.179-0.399 0.399s0.179 0.399 0.399 0.399c0.22 0 0.399-0.179 0.399-0.399s-0.179-0.399-0.399-0.399zM9.745 12.606c-0.22 0-0.399 0.179-0.399 0.399s0.179 0.399 0.399 0.399c0.22 0 0.399-0.179 0.399-0.399s-0.179-0.399-0.399-0.399zM6.148 13.805c-0.22 0-0.399 0.179-0.399 0.399s0.179 0.399 0.399 0.399c0.22 0 0.399-0.179 0.399-0.399s-0.179-0.399-0.399-0.399zM8.546 13.805c-0.22 0-0.399 0.179-0.399 0.399s0.179 0.399 0.399 0.399c0.22 0 0.399-0.179 0.399-0.399s-0.179-0.399-0.399-0.399zM7.347 15.004c-0.22 0-0.399 0.179-0.399 0.399s0.179 0.399 0.399 0.399c0.22 0 0.399-0.179 0.399-0.399s-0.179-0.399-0.399-0.399zM9.745 15.004c-0.22 0-0.399 0.179-0.399 0.399s0.179 0.399 0.399 0.399c0.22 0 0.399-0.179 0.399-0.399s-0.179-0.399-0.399-0.399zM6.148 16.203c-0.22 0-0.399 0.179-0.399 0.399s0.179 0.399 0.399 0.399c0.22 0 0.399-0.179 0.399-0.399s-0.179-0.399-0.399-0.399zM8.546 16.203c-0.22 0-0.399 0.179-0.399 0.399s0.179 0.399 0.399 0.399c0.22 0 0.399-0.179 0.399-0.399s-0.179-0.399-0.399-0.399zM7.347 17.402c-0.22 0-0.399 0.179-0.399 0.399s0.179 0.399 0.399 0.399c0.22 0 0.399-0.179 0.399-0.399s-0.179-0.399-0.399-0.399zM9.745 17.402c-0.22 0-0.399 0.179-0.399 0.399s0.179 0.399 0.399 0.399c0.22 0 0.399-0.179 0.399-0.399s-0.179-0.399-0.399-0.399zM6.148 18.601c-0.22 0-0.399 0.179-0.399 0.399s0.179 0.399 0.399 0.399c0.22 0 0.399-0.179 0.399-0.399s-0.179-0.399-0.399-0.399zM8.546 18.601c-0.22 0-0.399 0.179-0.399 0.399s0.179 0.399 0.399 0.399c0.22 0 0.399-0.179 0.399-0.399s-0.179-0.399-0.399-0.399zM7.347 19.799c-0.22 0-0.399 0.179-0.399 0.399s0.179 0.399 0.399 0.399c0.22 0 0.399-0.179 0.399-0.399s-0.179-0.399-0.399-0.399zM9.745 19.799c-0.22 0-0.399 0.179-0.399 0.399s0.179 0.399 0.399 0.399c0.22 0 0.399-0.179 0.399-0.399s-0.179-0.399-0.399-0.399zM8.546 20.998c-0.22 0-0.399 0.179-0.399 0.399s0.179 0.399 0.399 0.399c0.22 0 0.399-0.179 0.399-0.399s-0.179-0.399-0.399-0.399zM9.745 22.197c-0.22 0-0.399 0.179-0.399 0.399s0.179 0.399 0.399 0.399c0.22 0 0.399-0.179 0.399-0.399s-0.179-0.399-0.399-0.399z"></path>
</svg>
