<!-- Generated by IcoMoon.io -->
<svg version="1.1" xmlns="http://www.w3.org/2000/svg" width="32" height="32" viewBox="0 0 32 32">
<title>compass</title>
<path d="M16 2.8c-7.286 0-13.2 5.914-13.2 13.2s5.914 13.2 13.2 13.2c7.286 0 13.2-5.914 13.2-13.2s-5.914-13.2-13.2-13.2zM16 3.6c6.853 0 12.4 5.547 12.4 12.4s-5.547 12.4-12.4 12.4c-6.853 0-12.4-5.547-12.4-12.4s5.547-12.4 12.4-12.4zM16 4.8c-0.22 0-0.4 0.18-0.4 0.4s0.18 0.4 0.4 0.4c0.22 0 0.4-0.18 0.4-0.4s-0.18-0.4-0.4-0.4zM18.117 5.006c-0.195-0.005-0.364 0.131-0.403 0.323-0.042 0.216 0.098 0.427 0.316 0.47 0.216 0.042 0.427-0.098 0.47-0.314 0.042-0.217-0.098-0.428-0.314-0.472-0.023-0.003-0.045-0.006-0.069-0.008zM13.895 5.008c-0.027 0-0.053 0.002-0.080 0.006-0.217 0.044-0.358 0.255-0.314 0.472 0.020 0.103 0.081 0.195 0.17 0.255 0.088 0.058 0.195 0.080 0.3 0.059 0.217-0.044 0.358-0.253 0.314-0.47-0.037-0.186-0.2-0.32-0.391-0.322zM11.87 5.622c-0.053 0-0.106 0.009-0.156 0.030-0.205 0.086-0.302 0.319-0.216 0.523 0.084 0.205 0.317 0.302 0.522 0.217 0.205-0.086 0.302-0.319 0.217-0.523-0.063-0.148-0.206-0.245-0.367-0.247zM20.142 5.622c-0.166-0.003-0.316 0.094-0.38 0.247-0.084 0.205 0.012 0.438 0.217 0.523 0.205 0.084 0.438-0.013 0.522-0.217 0.086-0.205-0.011-0.438-0.216-0.523-0.045-0.019-0.095-0.028-0.144-0.030zM16 6.4c-0.22 0-0.4 0.18-0.4 0.4s0.18 0.4 0.4 0.4c0.22 0 0.4-0.18 0.4-0.4s-0.18-0.4-0.4-0.4zM10.005 6.619c-0.081 0-0.161 0.023-0.228 0.069-0.183 0.122-0.233 0.37-0.109 0.555 0.122 0.183 0.37 0.233 0.555 0.109 0.184-0.122 0.233-0.37 0.111-0.553-0.073-0.111-0.197-0.178-0.328-0.18zM22.006 6.619c-0.136-0.002-0.264 0.066-0.339 0.18-0.123 0.183-0.073 0.431 0.109 0.553 0.184 0.123 0.433 0.073 0.555-0.109 0.059-0.088 0.081-0.197 0.061-0.3-0.020-0.105-0.081-0.197-0.17-0.255-0.064-0.044-0.137-0.067-0.216-0.069zM8.369 7.963c-0.108 0-0.213 0.042-0.287 0.119-0.156 0.155-0.156 0.409 0 0.564 0.155 0.156 0.409 0.156 0.564 0 0.156-0.155 0.156-0.409 0-0.564-0.073-0.075-0.172-0.117-0.277-0.119zM23.642 7.963c-0.108 0-0.212 0.042-0.288 0.119-0.156 0.155-0.156 0.409 0 0.564 0.155 0.156 0.409 0.156 0.564 0 0.156-0.155 0.156-0.409 0-0.564-0.073-0.075-0.172-0.117-0.277-0.119zM16 8c-0.22 0-0.4 0.18-0.4 0.4s0.18 0.4 0.4 0.4c0.22 0 0.4-0.18 0.4-0.4s-0.18-0.4-0.4-0.4zM9.5 9.094c-0.108-0.002-0.213 0.041-0.287 0.119-0.156 0.155-0.156 0.409 0 0.564 0.155 0.156 0.409 0.156 0.564 0 0.156-0.155 0.156-0.409 0-0.564-0.073-0.075-0.172-0.116-0.277-0.119zM22.511 9.094c-0.108 0-0.212 0.042-0.288 0.119-0.156 0.155-0.156 0.409 0 0.564 0.155 0.156 0.409 0.156 0.564 0 0.156-0.155 0.156-0.409 0-0.564-0.073-0.075-0.172-0.117-0.277-0.119zM24.984 9.6c-0.081-0.002-0.159 0.022-0.227 0.067-0.183 0.122-0.233 0.37-0.109 0.553 0.122 0.184 0.37 0.234 0.553 0.111 0.184-0.123 0.234-0.37 0.111-0.555-0.073-0.109-0.197-0.177-0.328-0.177zM7.027 9.6c-0.136-0.003-0.264 0.064-0.339 0.177-0.122 0.184-0.073 0.433 0.111 0.555 0.184 0.123 0.431 0.073 0.555-0.109 0.122-0.184 0.073-0.433-0.111-0.555-0.064-0.042-0.138-0.066-0.216-0.067zM21.217 10.783l-7.142 3.292-0.063 0.133-3.23 7.009 7.142-3.292zM25.981 11.467c-0.053-0.002-0.106 0.009-0.156 0.030-0.205 0.084-0.302 0.319-0.217 0.522 0.086 0.205 0.319 0.302 0.523 0.217s0.302-0.319 0.217-0.523c-0.063-0.147-0.206-0.245-0.367-0.245zM6.031 11.467c-0.166-0.003-0.316 0.094-0.378 0.247-0.084 0.205 0.013 0.438 0.216 0.523 0.205 0.084 0.439-0.012 0.523-0.217s-0.013-0.438-0.217-0.522c-0.045-0.020-0.094-0.030-0.144-0.031zM19.583 12.417l-2.259 4.906-4.906 2.259 2.259-4.906zM26.594 13.494c-0.027-0.002-0.053 0.002-0.080 0.006-0.216 0.044-0.356 0.255-0.314 0.47 0.044 0.217 0.255 0.358 0.47 0.316 0.217-0.044 0.358-0.255 0.316-0.472-0.038-0.186-0.202-0.32-0.392-0.32zM5.419 13.494c-0.195-0.005-0.364 0.13-0.403 0.32-0.020 0.105 0 0.214 0.059 0.302 0.059 0.089 0.152 0.15 0.256 0.17 0.103 0.020 0.211-0.002 0.3-0.059 0.088-0.059 0.148-0.152 0.169-0.256 0.044-0.216-0.097-0.427-0.313-0.47-0.023-0.003-0.045-0.006-0.069-0.006zM16 15.2c-0.442 0-0.8 0.358-0.8 0.8s0.358 0.8 0.8 0.8c0.442 0 0.8-0.358 0.8-0.8s-0.358-0.8-0.8-0.8zM5.2 15.6c-0.22 0-0.4 0.18-0.4 0.4s0.18 0.4 0.4 0.4c0.22 0 0.4-0.18 0.4-0.4s-0.18-0.4-0.4-0.4zM6.8 15.6c-0.22 0-0.4 0.18-0.4 0.4s0.18 0.4 0.4 0.4c0.22 0 0.4-0.18 0.4-0.4s-0.18-0.4-0.4-0.4zM8.4 15.6c-0.22 0-0.4 0.18-0.4 0.4s0.18 0.4 0.4 0.4c0.22 0 0.4-0.18 0.4-0.4s-0.18-0.4-0.4-0.4zM23.6 15.6c-0.22 0-0.4 0.18-0.4 0.4s0.18 0.4 0.4 0.4c0.22 0 0.4-0.18 0.4-0.4s-0.18-0.4-0.4-0.4zM25.2 15.6c-0.22 0-0.4 0.18-0.4 0.4s0.18 0.4 0.4 0.4c0.22 0 0.4-0.18 0.4-0.4s-0.18-0.4-0.4-0.4zM26.8 15.6c-0.22 0-0.4 0.18-0.4 0.4s0.18 0.4 0.4 0.4c0.22 0 0.4-0.18 0.4-0.4s-0.18-0.4-0.4-0.4zM5.409 17.706c-0.027 0-0.053 0.003-0.080 0.008-0.217 0.044-0.358 0.255-0.314 0.472 0.044 0.216 0.253 0.356 0.47 0.314 0.217-0.044 0.358-0.255 0.314-0.47-0.037-0.188-0.2-0.322-0.391-0.323zM26.603 17.706c-0.195-0.005-0.364 0.131-0.403 0.323-0.042 0.216 0.098 0.427 0.314 0.47 0.217 0.042 0.428-0.098 0.472-0.314 0.042-0.217-0.098-0.428-0.316-0.472-0.022-0.003-0.044-0.006-0.067-0.008zM25.988 19.731c-0.166-0.003-0.316 0.095-0.38 0.248-0.084 0.203 0.012 0.438 0.217 0.522s0.438-0.012 0.523-0.216c0.084-0.205-0.012-0.439-0.217-0.523-0.045-0.019-0.095-0.030-0.144-0.031zM6.025 19.733c-0.053 0-0.106 0.009-0.156 0.030-0.097 0.041-0.175 0.119-0.216 0.217s-0.041 0.208-0.002 0.306c0.086 0.205 0.319 0.302 0.523 0.216 0.098-0.039 0.177-0.117 0.217-0.216s0.041-0.208 0-0.306c-0.061-0.148-0.206-0.245-0.367-0.247zM24.988 21.6c-0.136-0.003-0.264 0.064-0.339 0.177-0.123 0.184-0.073 0.431 0.109 0.555 0.087 0.059 0.197 0.081 0.3 0.059 0.105-0.020 0.197-0.081 0.255-0.17 0.123-0.183 0.073-0.431-0.111-0.553-0.063-0.044-0.137-0.067-0.214-0.067zM7.025 21.6c-0.081-0.002-0.159 0.022-0.227 0.067-0.183 0.123-0.233 0.37-0.111 0.555 0.123 0.183 0.372 0.233 0.556 0.109 0.183-0.122 0.233-0.37 0.109-0.555-0.073-0.109-0.197-0.175-0.328-0.177zM9.5 22.105c-0.108-0.002-0.213 0.041-0.287 0.117-0.156 0.156-0.156 0.409 0 0.566 0.155 0.156 0.409 0.156 0.564 0 0.156-0.156 0.156-0.409 0-0.566-0.073-0.073-0.172-0.116-0.277-0.117zM22.511 22.106c-0.108-0.003-0.212 0.039-0.289 0.117-0.156 0.155-0.156 0.409 0 0.564 0.156 0.156 0.409 0.156 0.566 0 0.156-0.155 0.156-0.409 0-0.564-0.073-0.075-0.172-0.116-0.277-0.117zM16 23.2c-0.22 0-0.4 0.18-0.4 0.4s0.18 0.4 0.4 0.4c0.22 0 0.4-0.18 0.4-0.4s-0.18-0.4-0.4-0.4zM8.369 23.238c-0.108-0.002-0.213 0.041-0.287 0.117-0.156 0.155-0.156 0.409 0 0.564 0.155 0.156 0.409 0.156 0.564 0 0.156-0.155 0.156-0.409 0-0.564-0.073-0.075-0.172-0.117-0.277-0.117zM23.642 23.238c-0.108-0.002-0.212 0.041-0.288 0.117-0.156 0.155-0.156 0.409 0 0.564 0.155 0.156 0.409 0.156 0.564 0 0.156-0.155 0.156-0.409 0-0.564-0.073-0.075-0.172-0.117-0.277-0.117zM10.008 24.58c-0.136-0.003-0.264 0.064-0.339 0.177-0.123 0.184-0.073 0.433 0.111 0.556 0.183 0.122 0.431 0.072 0.553-0.111 0.123-0.184 0.073-0.431-0.109-0.555-0.064-0.042-0.139-0.067-0.216-0.067zM22.005 24.58c-0.081-0.002-0.159 0.022-0.227 0.066-0.089 0.059-0.15 0.152-0.17 0.256-0.020 0.103 0.002 0.212 0.061 0.3 0.122 0.183 0.37 0.233 0.555 0.111 0.183-0.123 0.233-0.372 0.109-0.556-0.072-0.109-0.195-0.177-0.328-0.177zM16 24.8c-0.22 0-0.4 0.18-0.4 0.4s0.18 0.4 0.4 0.4c0.22 0 0.4-0.18 0.4-0.4s-0.18-0.4-0.4-0.4zM11.877 25.577c-0.166-0.003-0.316 0.095-0.378 0.248-0.084 0.203 0.012 0.438 0.216 0.522 0.205 0.084 0.439-0.012 0.523-0.216 0.084-0.205-0.012-0.439-0.217-0.523-0.045-0.019-0.094-0.030-0.144-0.031zM20.136 25.577c-0.053 0-0.106 0.011-0.155 0.031-0.098 0.041-0.177 0.119-0.217 0.216-0.041 0.098-0.041 0.209-0.002 0.308 0.086 0.203 0.319 0.3 0.523 0.216 0.098-0.041 0.177-0.119 0.217-0.216 0.041-0.098 0.041-0.209 0-0.306-0.061-0.15-0.206-0.247-0.367-0.248zM13.905 26.192c-0.195-0.005-0.366 0.131-0.403 0.322-0.044 0.217 0.097 0.427 0.314 0.47s0.427-0.097 0.47-0.314c0.044-0.217-0.097-0.427-0.314-0.47-0.022-0.005-0.045-0.008-0.067-0.008zM18.108 26.194c-0.027-0.002-0.053 0.002-0.078 0.006-0.217 0.044-0.358 0.253-0.316 0.47 0.022 0.105 0.083 0.195 0.17 0.255 0.089 0.059 0.197 0.081 0.302 0.061 0.103-0.022 0.195-0.083 0.255-0.17 0.058-0.089 0.080-0.197 0.059-0.302-0.038-0.186-0.202-0.32-0.392-0.32zM16 26.4c-0.22 0-0.4 0.18-0.4 0.4s0.18 0.4 0.4 0.4c0.22 0 0.4-0.18 0.4-0.4s-0.18-0.4-0.4-0.4z"></path>
</svg>
