<!-- Generated by IcoMoon.io -->
<svg version="1.1" xmlns="http://www.w3.org/2000/svg" width="32" height="32" viewBox="0 0 32 32">
<title>cookie</title>
<path d="M16 0.94c-0.624 0-1.133 0.42-1.581 0.79-0.296 0.244-0.603 0.497-0.84 0.538-0.254 0.043-0.636-0.091-1.008-0.223-0.54-0.191-1.152-0.409-1.723-0.201-0.581 0.212-0.914 0.777-1.207 1.277-0.197 0.334-0.4 0.681-0.612 0.804-0.218 0.126-0.623 0.129-1.014 0.133-0.576 0.006-1.228 0.012-1.696 0.405-0.47 0.394-0.588 1.037-0.693 1.604-0.071 0.383-0.144 0.779-0.305 0.971-0.16 0.19-0.537 0.331-0.901 0.467-0.542 0.202-1.156 0.43-1.464 0.962-0.305 0.527-0.198 1.17-0.104 1.737 0.065 0.387 0.131 0.787 0.045 1.025-0.083 0.229-0.387 0.488-0.681 0.738-0.442 0.377-0.944 0.805-1.051 1.416-0.104 0.594 0.216 1.156 0.497 1.653 0.195 0.345 0.396 0.702 0.396 0.962s-0.201 0.616-0.396 0.962c-0.281 0.497-0.601 1.060-0.497 1.653 0.107 0.612 0.608 1.040 1.051 1.417 0.293 0.25 0.597 0.509 0.681 0.737 0.087 0.238 0.020 0.639-0.045 1.026-0.095 0.567-0.201 1.209 0.104 1.736 0.308 0.532 0.922 0.761 1.464 0.963 0.364 0.136 0.742 0.276 0.901 0.466 0.16 0.191 0.234 0.588 0.305 0.972 0.105 0.567 0.224 1.21 0.693 1.604s1.12 0.4 1.696 0.405c0.391 0.003 0.795 0.007 1.013 0.133 0.213 0.123 0.416 0.47 0.612 0.804 0.293 0.5 0.627 1.066 1.207 1.277 0.57 0.206 1.183-0.010 1.723-0.201 0.372-0.132 0.757-0.267 1.008-0.224 0.236 0.041 0.544 0.294 0.84 0.538 0.449 0.371 0.958 0.791 1.582 0.791s1.133-0.42 1.581-0.79c0.297-0.244 0.603-0.497 0.84-0.538 0.253-0.044 0.636 0.091 1.008 0.223 0.54 0.192 1.152 0.409 1.723 0.201 0.581-0.212 0.914-0.777 1.207-1.277 0.197-0.334 0.4-0.681 0.612-0.804 0.218-0.126 0.623-0.129 1.014-0.133 0.576-0.006 1.228-0.012 1.696-0.405 0.47-0.394 0.588-1.037 0.693-1.605 0.070-0.384 0.144-0.779 0.305-0.971 0.16-0.19 0.537-0.331 0.901-0.467 0.542-0.202 1.156-0.43 1.464-0.962 0.305-0.527 0.198-1.17 0.104-1.737-0.064-0.387-0.131-0.787-0.045-1.025 0.083-0.229 0.387-0.488 0.681-0.738 0.442-0.377 0.944-0.805 1.051-1.416 0.104-0.593-0.216-1.156-0.497-1.653-0.195-0.345-0.396-0.702-0.396-0.962s0.201-0.616 0.396-0.962c0.282-0.496 0.601-1.060 0.497-1.653-0.107-0.612-0.608-1.040-1.051-1.417-0.294-0.251-0.597-0.509-0.681-0.737-0.087-0.238-0.020-0.639 0.045-1.026 0.095-0.567 0.201-1.209-0.104-1.736-0.308-0.532-0.922-0.761-1.464-0.963-0.364-0.136-0.742-0.276-0.901-0.466s-0.234-0.588-0.305-0.972c-0.105-0.567-0.224-1.21-0.693-1.604-0.468-0.393-1.12-0.4-1.696-0.405-0.391-0.003-0.795-0.007-1.013-0.133-0.213-0.123-0.416-0.47-0.612-0.804-0.294-0.5-0.627-1.066-1.207-1.277-0.571-0.207-1.183 0.010-1.723 0.201-0.372 0.132-0.757 0.267-1.008 0.224-0.236-0.042-0.544-0.294-0.84-0.538-0.449-0.371-0.958-0.791-1.582-0.791zM16 1.94c0.265 0 0.611 0.286 0.946 0.562 0.396 0.327 0.806 0.665 1.303 0.752 0.512 0.090 1.023-0.092 1.516-0.267 0.4-0.142 0.814-0.288 1.046-0.204 0.242 0.088 0.468 0.473 0.687 0.845 0.262 0.446 0.533 0.907 0.974 1.162 0.446 0.258 0.984 0.263 1.505 0.268 0.427 0.003 0.869 0.008 1.063 0.17 0.195 0.163 0.275 0.599 0.353 1.021 0.095 0.511 0.192 1.041 0.522 1.434 0.329 0.392 0.832 0.58 1.318 0.761 0.402 0.15 0.819 0.305 0.947 0.526 0.125 0.216 0.052 0.651-0.018 1.071-0.085 0.514-0.175 1.047 0.002 1.532 0.173 0.476 0.579 0.822 0.971 1.156 0.329 0.281 0.67 0.572 0.715 0.829 0.042 0.24-0.173 0.621-0.382 0.988-0.259 0.457-0.526 0.931-0.526 1.454s0.267 0.997 0.526 1.453c0.208 0.368 0.424 0.748 0.382 0.988-0.045 0.257-0.386 0.547-0.715 0.828-0.392 0.334-0.797 0.681-0.971 1.157-0.177 0.485-0.087 1.018-0.002 1.532 0.070 0.421 0.143 0.855 0.018 1.071-0.128 0.221-0.545 0.376-0.947 0.526-0.486 0.181-0.989 0.369-1.318 0.761s-0.428 0.922-0.522 1.433c-0.078 0.422-0.158 0.857-0.353 1.020-0.193 0.162-0.636 0.167-1.063 0.171-0.52 0.005-1.058 0.010-1.504 0.268-0.441 0.255-0.712 0.716-0.974 1.162-0.218 0.372-0.445 0.757-0.687 0.845-0.233 0.084-0.647-0.062-1.047-0.204-0.494-0.175-1.003-0.356-1.515-0.267-0.497 0.087-0.906 0.425-1.303 0.752-0.335 0.276-0.682 0.563-0.946 0.563s-0.611-0.286-0.946-0.563c-0.396-0.327-0.806-0.665-1.303-0.752-0.094-0.017-0.187-0.023-0.28-0.023-0.417 0-0.832 0.147-1.235 0.291-0.4 0.142-0.814 0.289-1.046 0.204-0.242-0.088-0.468-0.473-0.687-0.845-0.262-0.446-0.533-0.907-0.974-1.162-0.446-0.258-0.984-0.263-1.505-0.268-0.427-0.003-0.87-0.008-1.063-0.17-0.194-0.163-0.275-0.599-0.353-1.020-0.095-0.512-0.192-1.041-0.522-1.434-0.329-0.392-0.832-0.58-1.318-0.761-0.402-0.15-0.819-0.305-0.947-0.526-0.125-0.216-0.052-0.651 0.018-1.071 0.086-0.514 0.175-1.047-0.002-1.532-0.173-0.477-0.579-0.822-0.971-1.156-0.329-0.281-0.67-0.572-0.715-0.829-0.042-0.24 0.173-0.621 0.382-0.988 0.259-0.457 0.526-0.931 0.526-1.454s-0.267-0.997-0.526-1.453c-0.208-0.368-0.424-0.748-0.382-0.988 0.045-0.257 0.386-0.547 0.715-0.828 0.392-0.335 0.797-0.681 0.971-1.157 0.177-0.486 0.087-1.018 0.002-1.532-0.070-0.421-0.143-0.855-0.018-1.071 0.128-0.222 0.545-0.376 0.947-0.526 0.486-0.181 0.989-0.369 1.318-0.761 0.33-0.393 0.428-0.922 0.522-1.433 0.078-0.421 0.158-0.857 0.353-1.021 0.193-0.162 0.636-0.167 1.063-0.171 0.521-0.005 1.058-0.010 1.504-0.268 0.441-0.255 0.712-0.716 0.974-1.162 0.219-0.372 0.445-0.757 0.687-0.845 0.232-0.086 0.646 0.062 1.047 0.204 0.493 0.175 1.003 0.357 1.515 0.267 0.497-0.087 0.906-0.425 1.303-0.752 0.335-0.276 0.682-0.563 0.946-0.563zM10.188 5.544c-0.064 0.008-0.128 0.029-0.188 0.063-0.239 0.138-0.321 0.444-0.183 0.683l0.5 0.866c0.092 0.16 0.261 0.25 0.434 0.25 0.085 0 0.171-0.020 0.249-0.066 0.239-0.138 0.321-0.445 0.183-0.684l-0.5-0.866c-0.104-0.179-0.302-0.27-0.495-0.246zM16 7c-0.552 0-1 0.448-1 1v0c0 0.552 0.448 1 1 1v0c0.552 0 1-0.448 1-1v0c0-0.552-0.448-1-1-1v0zM7.868 7.368c-0.128 0-0.256 0.049-0.354 0.146-0.196 0.196-0.196 0.512 0 0.707l0.707 0.707c0.098 0.098 0.226 0.146 0.354 0.146s0.256-0.049 0.354-0.146c0.196-0.196 0.196-0.512 0-0.707l-0.707-0.707c-0.098-0.098-0.226-0.146-0.354-0.146zM6.103 9.754c-0.193-0.024-0.391 0.066-0.494 0.246-0.138 0.239-0.057 0.545 0.183 0.683l0.866 0.5c0.079 0.046 0.165 0.067 0.249 0.067 0.173 0 0.341-0.089 0.434-0.25 0.138-0.239 0.057-0.545-0.183-0.683l-0.866-0.5c-0.060-0.035-0.124-0.055-0.188-0.063zM12 11c-0.552 0-1 0.448-1 1v0c0 0.552 0.448 1 1 1v0c0.552 0 1-0.448 1-1v0c0-0.552-0.448-1-1-1v0zM20 11c-0.552 0-1 0.448-1 1v0c0 0.552 0.448 1 1 1v0c0.552 0 1-0.448 1-1v0c0-0.552-0.448-1-1-1v0zM8 15c-0.552 0-1 0.448-1 1v0c0 0.552 0.448 1 1 1v0c0.552 0 1-0.448 1-1v0c0-0.552-0.448-1-1-1v0zM16 15c-0.552 0-1 0.448-1 1v0c0 0.552 0.448 1 1 1v0c0.552 0 1-0.448 1-1v0c0-0.552-0.448-1-1-1v0zM24 15c-0.552 0-1 0.448-1 1v0c0 0.552 0.448 1 1 1v0c0.552 0 1-0.448 1-1v0c0-0.552-0.448-1-1-1v0zM12 19c-0.552 0-1 0.448-1 1v0c0 0.552 0.448 1 1 1v0c0.552 0 1-0.448 1-1v0c0-0.552-0.448-1-1-1v0zM20 19c-0.552 0-1 0.448-1 1v0c0 0.552 0.448 1 1 1v0c0.552 0 1-0.448 1-1v0c0-0.552-0.448-1-1-1v0zM16 23c-0.552 0-1 0.448-1 1v0c0 0.552 0.448 1 1 1v0c0.552 0 1-0.448 1-1v0c0-0.552-0.448-1-1-1v0z"></path>
</svg>
