<!-- Generated by IcoMoon.io -->
<svg version="1.1" xmlns="http://www.w3.org/2000/svg" width="32" height="32" viewBox="0 0 32 32">
<title>cutlery</title>
<path d="M8.394 3.994c-0.019 0.002-0.039 0.003-0.058 0.006h-1.897l-0.784 7.461c-0.034 0.173-0.055 0.353-0.055 0.539 0 1.4 1.055 2.516 2.4 2.719v10.881c0 1.32 1.080 2.4 2.4 2.4s2.4-1.080 2.4-2.4v-10.881c1.345-0.203 2.4-1.319 2.4-2.719 0-0.186-0.020-0.366-0.055-0.539l-0.002-0.005-0.783-7.456h-1.898c-0.023-0.003-0.045-0.006-0.069-0.006-0.019 0.002-0.039 0.003-0.058 0.006h-1.873c-0.023-0.003-0.045-0.006-0.069-0.006-0.019 0.002-0.039 0.003-0.058 0.006h-1.873c-0.023-0.003-0.045-0.006-0.069-0.006zM19.6 4v21.6c0 1.32 1.080 2.4 2.4 2.4s2.4-1.080 2.4-2.4v-7.408l2.033-1.627-0.039-0.231-1.342-8.055c-0.411-2.467-2.55-4.28-5.052-4.28zM7.161 4.8h0.839v4.4c-0.002 0.144 0.073 0.278 0.198 0.352 0.125 0.072 0.278 0.072 0.403 0 0.125-0.073 0.2-0.208 0.198-0.352v-4.4h1.2v4.4c-0.002 0.144 0.073 0.278 0.198 0.352 0.125 0.072 0.278 0.072 0.403 0 0.125-0.073 0.2-0.208 0.198-0.352v-4.4h1.2v4.4c-0.002 0.144 0.073 0.278 0.198 0.352 0.125 0.072 0.278 0.072 0.403 0 0.125-0.073 0.2-0.208 0.198-0.352v-4.4h0.839l0.713 6.764 0.005 0.020c0.028 0.134 0.044 0.273 0.044 0.416 0 1.109-0.891 2-2 2v0.8l-0.4-0.4v11.2c0 0.887-0.713 1.6-1.6 1.6s-1.6-0.712-1.6-1.6v-11.2l-0.4 0.4v-0.8c-1.109 0-2-0.891-2-2 0-0.142 0.016-0.281 0.044-0.416l0.005-0.020zM20.4 4.872c1.931 0.184 3.539 1.592 3.863 3.541l1.305 7.822-2.708 2.166h0.741v7.2c0 0.887-0.712 1.6-1.6 1.6s-1.6-0.712-1.6-1.6zM8.4 10.4c-0.22 0-0.4 0.18-0.4 0.4s0.18 0.4 0.4 0.4c0.22 0 0.4-0.18 0.4-0.4s-0.18-0.4-0.4-0.4zM10.4 10.4c-0.22 0-0.4 0.18-0.4 0.4s0.18 0.4 0.4 0.4c0.22 0 0.4-0.18 0.4-0.4s-0.18-0.4-0.4-0.4zM12.4 10.4c-0.22 0-0.4 0.18-0.4 0.4s0.18 0.4 0.4 0.4c0.22 0 0.4-0.18 0.4-0.4s-0.18-0.4-0.4-0.4zM10.4 14c-0.22 0-0.4 0.18-0.4 0.4s0.18 0.4 0.4 0.4c0.22 0 0.4-0.18 0.4-0.4s-0.18-0.4-0.4-0.4zM10.4 15.6c-0.22 0-0.4 0.18-0.4 0.4s0.18 0.4 0.4 0.4c0.22 0 0.4-0.18 0.4-0.4s-0.18-0.4-0.4-0.4zM10.4 17.2c-0.22 0-0.4 0.18-0.4 0.4s0.18 0.4 0.4 0.4c0.22 0 0.4-0.18 0.4-0.4s-0.18-0.4-0.4-0.4zM22 17.2c-0.22 0-0.4 0.18-0.4 0.4s0.18 0.4 0.4 0.4c0.22 0 0.4-0.18 0.4-0.4s-0.18-0.4-0.4-0.4zM10.4 18.8c-0.22 0-0.4 0.18-0.4 0.4s0.18 0.4 0.4 0.4c0.22 0 0.4-0.18 0.4-0.4s-0.18-0.4-0.4-0.4zM22 18.8c-0.22 0-0.4 0.18-0.4 0.4s0.18 0.4 0.4 0.4c0.22 0 0.4-0.18 0.4-0.4s-0.18-0.4-0.4-0.4zM10.4 20.4c-0.22 0-0.4 0.18-0.4 0.4s0.18 0.4 0.4 0.4c0.22 0 0.4-0.18 0.4-0.4s-0.18-0.4-0.4-0.4zM22 20.4c-0.22 0-0.4 0.18-0.4 0.4s0.18 0.4 0.4 0.4c0.22 0 0.4-0.18 0.4-0.4s-0.18-0.4-0.4-0.4zM10.4 22c-0.22 0-0.4 0.18-0.4 0.4s0.18 0.4 0.4 0.4c0.22 0 0.4-0.18 0.4-0.4s-0.18-0.4-0.4-0.4zM22 22c-0.22 0-0.4 0.18-0.4 0.4s0.18 0.4 0.4 0.4c0.22 0 0.4-0.18 0.4-0.4s-0.18-0.4-0.4-0.4zM10.4 23.6c-0.22 0-0.4 0.18-0.4 0.4s0.18 0.4 0.4 0.4c0.22 0 0.4-0.18 0.4-0.4s-0.18-0.4-0.4-0.4zM22 23.6c-0.22 0-0.4 0.18-0.4 0.4s0.18 0.4 0.4 0.4c0.22 0 0.4-0.18 0.4-0.4s-0.18-0.4-0.4-0.4zM10.4 25.2c-0.22 0-0.4 0.18-0.4 0.4s0.18 0.4 0.4 0.4c0.22 0 0.4-0.18 0.4-0.4s-0.18-0.4-0.4-0.4zM22 25.2c-0.22 0-0.4 0.18-0.4 0.4s0.18 0.4 0.4 0.4c0.22 0 0.4-0.18 0.4-0.4s-0.18-0.4-0.4-0.4z"></path>
</svg>
