<!-- Generated by IcoMoon.io -->
<svg version="1.1" xmlns="http://www.w3.org/2000/svg" width="32" height="32" viewBox="0 0 32 32">
<title>database-administrator</title>
<path d="M7.6 3.6c-0.88 0-1.6 0.72-1.6 1.6v3.6c0 0.484 0.231 0.906 0.575 1.2-0.344 0.294-0.575 0.716-0.575 1.2v3.6c0 0.484 0.231 0.906 0.575 1.2-0.344 0.294-0.575 0.716-0.575 1.2v3.6c0 0.484 0.231 0.906 0.575 1.2-0.344 0.294-0.575 0.716-0.575 1.2v3.6c0 0.88 0.72 1.6 1.6 1.6h10.8v-0.8h-10.8c-0.447 0-0.8-0.353-0.8-0.8v-3.6c0-0.447 0.353-0.8 0.8-0.8v-0.8c-0.447 0-0.8-0.353-0.8-0.8v-3.6c0-0.447 0.353-0.8 0.8-0.8v-0.8c-0.447 0-0.8-0.353-0.8-0.8v-3.6c0-0.447 0.353-0.8 0.8-0.8v-0.8c-0.447 0-0.8-0.353-0.8-0.8v-3.6c0-0.447 0.353-0.8 0.8-0.8h16.8c0.447 0 0.8 0.353 0.8 0.8v3.6c0 0.447-0.353 0.8-0.8 0.8v0.8c0.447 0 0.8 0.353 0.8 0.8v3.6c0 0.447-0.353 0.8-0.8 0.8v0.8c0.447 0 0.8 0.353 0.8 0.8v0.4h0.8v-0.4c0-0.484-0.231-0.906-0.575-1.2 0.344-0.294 0.575-0.716 0.575-1.2v-3.6c0-0.484-0.231-0.906-0.575-1.2 0.344-0.294 0.575-0.716 0.575-1.2v-3.6c0-0.88-0.72-1.6-1.6-1.6zM18 6.4v0.8h2.4v-0.8zM8.8 9.6c-0.22 0-0.4 0.18-0.4 0.4s0.18 0.4 0.4 0.4c0.22 0 0.4-0.18 0.4-0.4s-0.18-0.4-0.4-0.4zM10.4 9.6c-0.22 0-0.4 0.18-0.4 0.4s0.18 0.4 0.4 0.4c0.22 0 0.4-0.18 0.4-0.4s-0.18-0.4-0.4-0.4zM12 9.6c-0.22 0-0.4 0.18-0.4 0.4s0.18 0.4 0.4 0.4c0.22 0 0.4-0.18 0.4-0.4s-0.18-0.4-0.4-0.4zM13.6 9.6c-0.22 0-0.4 0.18-0.4 0.4s0.18 0.4 0.4 0.4c0.22 0 0.4-0.18 0.4-0.4s-0.18-0.4-0.4-0.4zM15.2 9.6c-0.22 0-0.4 0.18-0.4 0.4s0.18 0.4 0.4 0.4c0.22 0 0.4-0.18 0.4-0.4s-0.18-0.4-0.4-0.4zM16.8 9.6c-0.22 0-0.4 0.18-0.4 0.4s0.18 0.4 0.4 0.4c0.22 0 0.4-0.18 0.4-0.4s-0.18-0.4-0.4-0.4zM18.4 9.6c-0.22 0-0.4 0.18-0.4 0.4s0.18 0.4 0.4 0.4c0.22 0 0.4-0.18 0.4-0.4s-0.18-0.4-0.4-0.4zM20 9.6c-0.22 0-0.4 0.18-0.4 0.4s0.18 0.4 0.4 0.4c0.22 0 0.4-0.18 0.4-0.4s-0.18-0.4-0.4-0.4zM21.6 9.6c-0.22 0-0.4 0.18-0.4 0.4s0.18 0.4 0.4 0.4c0.22 0 0.4-0.18 0.4-0.4s-0.18-0.4-0.4-0.4zM23.2 9.6c-0.22 0-0.4 0.18-0.4 0.4s0.18 0.4 0.4 0.4c0.22 0 0.4-0.18 0.4-0.4s-0.18-0.4-0.4-0.4zM18 12.4v0.8h2.4v-0.8zM8.8 15.6c-0.22 0-0.4 0.18-0.4 0.4s0.18 0.4 0.4 0.4c0.22 0 0.4-0.18 0.4-0.4s-0.18-0.4-0.4-0.4zM10.4 15.6c-0.22 0-0.4 0.18-0.4 0.4s0.18 0.4 0.4 0.4c0.22 0 0.4-0.18 0.4-0.4s-0.18-0.4-0.4-0.4zM12 15.6c-0.22 0-0.4 0.18-0.4 0.4s0.18 0.4 0.4 0.4c0.22 0 0.4-0.18 0.4-0.4s-0.18-0.4-0.4-0.4zM13.6 15.6c-0.22 0-0.4 0.18-0.4 0.4s0.18 0.4 0.4 0.4c0.22 0 0.4-0.18 0.4-0.4s-0.18-0.4-0.4-0.4zM15.2 15.6c-0.22 0-0.4 0.18-0.4 0.4s0.18 0.4 0.4 0.4c0.22 0 0.4-0.18 0.4-0.4s-0.18-0.4-0.4-0.4zM16.8 15.6c-0.22 0-0.4 0.18-0.4 0.4s0.18 0.4 0.4 0.4c0.22 0 0.4-0.18 0.4-0.4s-0.18-0.4-0.4-0.4zM18.4 15.6c-0.22 0-0.4 0.18-0.4 0.4s0.18 0.4 0.4 0.4c0.22 0 0.4-0.18 0.4-0.4s-0.18-0.4-0.4-0.4zM20 15.6c-0.22 0-0.4 0.18-0.4 0.4s0.18 0.4 0.4 0.4c0.22 0 0.4-0.18 0.4-0.4s-0.18-0.4-0.4-0.4zM21.6 15.6c-0.22 0-0.4 0.18-0.4 0.4s0.18 0.4 0.4 0.4c0.22 0 0.4-0.18 0.4-0.4s-0.18-0.4-0.4-0.4zM23.2 15.6c-0.22 0-0.4 0.18-0.4 0.4s0.18 0.4 0.4 0.4c0.22 0 0.4-0.18 0.4-0.4s-0.18-0.4-0.4-0.4zM18 18.4v0.8h2.4v-0.8zM24.609 18.4l-0.584 1.461c-0.861 0.253-1.63 0.702-2.264 1.305l-1.555-0.223-0.991 1.716 0.97 1.233c-0.103 0.422-0.186 0.853-0.186 1.309s0.083 0.887 0.186 1.309l-0.97 1.233 0.991 1.716 1.555-0.223c0.634 0.603 1.403 1.052 2.264 1.305l0.584 1.461h1.981l0.584-1.461c0.861-0.253 1.63-0.702 2.264-1.305l1.555 0.223 0.991-1.716-0.97-1.233c0.103-0.422 0.186-0.853 0.186-1.309s-0.083-0.887-0.186-1.309l0.97-1.233-0.991-1.716-1.555 0.223c-0.634-0.603-1.403-1.052-2.264-1.305l-0.584-1.461zM25.15 19.2h0.9l0.519 1.3 0.198 0.050c0.881 0.22 1.667 0.681 2.278 1.313l0.142 0.148 1.383-0.2 0.45 0.778-0.864 1.098 0.056 0.195c0.12 0.422 0.188 0.861 0.188 1.317s-0.067 0.895-0.188 1.317l-0.056 0.195 0.864 1.098-0.45 0.778-1.383-0.2-0.142 0.148c-0.611 0.631-1.395 1.092-2.278 1.313l-0.198 0.050-0.519 1.3h-0.9l-0.519-1.3-0.198-0.050c-0.881-0.22-1.667-0.681-2.278-1.313l-0.142-0.148-1.383 0.2-0.45-0.778 0.864-1.098-0.056-0.195c-0.12-0.422-0.188-0.861-0.188-1.317s0.067-0.895 0.188-1.317l0.056-0.195-0.864-1.098 0.45-0.778 1.383 0.2 0.142-0.148c0.611-0.631 1.395-1.092 2.278-1.313l0.198-0.050zM8.8 21.6c-0.22 0-0.4 0.18-0.4 0.4s0.18 0.4 0.4 0.4c0.22 0 0.4-0.18 0.4-0.4s-0.18-0.4-0.4-0.4zM10.4 21.6c-0.22 0-0.4 0.18-0.4 0.4s0.18 0.4 0.4 0.4c0.22 0 0.4-0.18 0.4-0.4s-0.18-0.4-0.4-0.4zM12 21.6c-0.22 0-0.4 0.18-0.4 0.4s0.18 0.4 0.4 0.4c0.22 0 0.4-0.18 0.4-0.4s-0.18-0.4-0.4-0.4zM13.6 21.6c-0.22 0-0.4 0.18-0.4 0.4s0.18 0.4 0.4 0.4c0.22 0 0.4-0.18 0.4-0.4s-0.18-0.4-0.4-0.4zM15.2 21.6c-0.22 0-0.4 0.18-0.4 0.4s0.18 0.4 0.4 0.4c0.22 0 0.4-0.18 0.4-0.4s-0.18-0.4-0.4-0.4zM16.8 21.6c-0.22 0-0.4 0.18-0.4 0.4s0.18 0.4 0.4 0.4c0.22 0 0.4-0.18 0.4-0.4s-0.18-0.4-0.4-0.4zM25.6 22c-1.762 0-3.2 1.438-3.2 3.2s1.438 3.2 3.2 3.2c1.762 0 3.2-1.438 3.2-3.2s-1.438-3.2-3.2-3.2zM25.6 22.8c1.33 0 2.4 1.070 2.4 2.4s-1.070 2.4-2.4 2.4c-1.33 0-2.4-1.070-2.4-2.4s1.070-2.4 2.4-2.4z"></path>
</svg>
