<!-- Generated by IcoMoon.io -->
<svg version="1.1" xmlns="http://www.w3.org/2000/svg" width="32" height="32" viewBox="0 0 32 32">
<title>delete_subnode</title>
<path d="M8.4 4.4v4h1.6c0 0.221 0.179 0.4 0.4 0.4v0c0.221 0 0.4-0.179 0.4-0.4v0h1.6v-4h-4zM9.2 5.2h2.4v2.4h-2.4v-2.4zM21.6 8.8c-2.425 0-4.4 1.975-4.4 4.4s1.975 4.4 4.4 4.4c2.425 0 4.4-1.975 4.4-4.4s-1.975-4.4-4.4-4.4zM17.2 13.2c0-0.221-0.179-0.4-0.4-0.4v0c-0.221 0-0.4 0.179-0.4 0.4v0c0 0.221 0.179 0.4 0.4 0.4v0c0.221 0 0.4-0.179 0.4-0.4v0zM10.4 9.6c-0.221 0-0.4 0.179-0.4 0.4v0c0 0.221 0.179 0.4 0.4 0.4v0c0.221 0 0.4-0.179 0.4-0.4v0c0-0.221-0.179-0.4-0.4-0.4v0zM21.6 9.6c1.993 0 3.6 1.607 3.6 3.6s-1.607 3.6-3.6 3.6c-1.993 0-3.6-1.607-3.6-3.6s1.607-3.6 3.6-3.6zM10.4 11.2c-0.221 0-0.4 0.179-0.4 0.4v0c0 0.221 0.179 0.4 0.4 0.4v0c0.221 0 0.4-0.179 0.4-0.4v0c0-0.221-0.179-0.4-0.4-0.4v0zM20.469 11.503l-0.566 0.566 1.131 1.131-1.131 1.131 0.566 0.566 1.131-1.131 1.131 1.131 0.566-0.566-1.131-1.131 1.131-1.131-0.566-0.566-1.131 1.131-1.131-1.131zM10.4 12.8c-0.221 0-0.4 0.179-0.4 0.4v0c0 0.221 0.179 0.4 0.4 0.4v0c0.221 0 0.4-0.179 0.4-0.4v0c0-0.221-0.179-0.4-0.4-0.4v0zM12 12.8c-0.221 0-0.4 0.179-0.4 0.4v0c0 0.221 0.179 0.4 0.4 0.4v0c0.221 0 0.4-0.179 0.4-0.4v0c0-0.221-0.179-0.4-0.4-0.4v0zM13.6 12.8c-0.221 0-0.4 0.179-0.4 0.4v0c0 0.221 0.179 0.4 0.4 0.4v0c0.221 0 0.4-0.179 0.4-0.4v0c0-0.221-0.179-0.4-0.4-0.4v0zM15.2 12.8c-0.221 0-0.4 0.179-0.4 0.4v0c0 0.221 0.179 0.4 0.4 0.4v0c0.221 0 0.4-0.179 0.4-0.4v0c0-0.221-0.179-0.4-0.4-0.4v0zM10.4 14.4c-0.221 0-0.4 0.179-0.4 0.4v0c0 0.221 0.179 0.4 0.4 0.4v0c0.221 0 0.4-0.179 0.4-0.4v0c0-0.221-0.179-0.4-0.4-0.4v0zM10.4 16c-0.221 0-0.4 0.179-0.4 0.4v0c0 0.221 0.179 0.4 0.4 0.4v0c0.221 0 0.4-0.179 0.4-0.4v0c0-0.221-0.179-0.4-0.4-0.4v0zM10.4 17.6c-0.221 0-0.4 0.179-0.4 0.4v0c0 0.221 0.179 0.4 0.4 0.4v0c0.221 0 0.4-0.179 0.4-0.4v0c0-0.221-0.179-0.4-0.4-0.4v0zM10.4 19.2c-0.221 0-0.4 0.179-0.4 0.4v0c0 0.221 0.179 0.4 0.4 0.4v0c0.221 0 0.4-0.179 0.4-0.4v0c0-0.221-0.179-0.4-0.4-0.4v0zM19.6 19.2v4h4v-4h-4zM20.4 20h2.4v2.4h-2.4v-2.4zM10.4 20.8c-0.221 0-0.4 0.179-0.4 0.4v0c0 0.221 0.179 0.4 0.4 0.4v0c0.221 0 0.4-0.179 0.4-0.4v0c0-0.221-0.179-0.4-0.4-0.4v0zM12 20.8c-0.221 0-0.4 0.179-0.4 0.4v0c0 0.221 0.179 0.4 0.4 0.4v0c0.221 0 0.4-0.179 0.4-0.4v0c0-0.221-0.179-0.4-0.4-0.4v0zM13.6 20.8c-0.221 0-0.4 0.179-0.4 0.4v0c0 0.221 0.179 0.4 0.4 0.4v0c0.221 0 0.4-0.179 0.4-0.4v0c0-0.221-0.179-0.4-0.4-0.4v0zM15.2 20.8c-0.221 0-0.4 0.179-0.4 0.4v0c0 0.221 0.179 0.4 0.4 0.4v0c0.221 0 0.4-0.179 0.4-0.4v0c0-0.221-0.179-0.4-0.4-0.4v0zM16.8 20.8c-0.221 0-0.4 0.179-0.4 0.4v0c0 0.221 0.179 0.4 0.4 0.4v0c0.221 0 0.4-0.179 0.4-0.4v0c0-0.221-0.179-0.4-0.4-0.4v0zM18.4 20.8c-0.221 0-0.4 0.179-0.4 0.4v0c0 0.221 0.179 0.4 0.4 0.4v0c0.221 0 0.4-0.179 0.4-0.4v0c0-0.221-0.179-0.4-0.4-0.4v0zM10.4 22.4c-0.221 0-0.4 0.179-0.4 0.4v0c0 0.221 0.179 0.4 0.4 0.4v0c0.221 0 0.4-0.179 0.4-0.4v0c0-0.221-0.179-0.4-0.4-0.4v0zM10.4 24c-0.221 0-0.4 0.179-0.4 0.4v0c0 0.221 0.179 0.4 0.4 0.4v0c0.221 0 0.4-0.179 0.4-0.4v0c0-0.221-0.179-0.4-0.4-0.4v0zM19.6 24v4h4v-4h-4zM20.4 24.8h2.4v2.4h-2.4v-2.4zM10.4 25.6c-0.221 0-0.4 0.179-0.4 0.4v0c0 0.221 0.179 0.4 0.4 0.4v0c0.221 0 0.4-0.179 0.4-0.4v0c0-0.221-0.179-0.4-0.4-0.4v0zM12 25.6c-0.221 0-0.4 0.179-0.4 0.4v0c0 0.221 0.179 0.4 0.4 0.4v0c0.221 0 0.4-0.179 0.4-0.4v0c0-0.221-0.179-0.4-0.4-0.4v0zM13.6 25.6c-0.221 0-0.4 0.179-0.4 0.4v0c0 0.221 0.179 0.4 0.4 0.4v0c0.221 0 0.4-0.179 0.4-0.4v0c0-0.221-0.179-0.4-0.4-0.4v0zM15.2 25.6c-0.221 0-0.4 0.179-0.4 0.4v0c0 0.221 0.179 0.4 0.4 0.4v0c0.221 0 0.4-0.179 0.4-0.4v0c0-0.221-0.179-0.4-0.4-0.4v0zM16.8 25.6c-0.221 0-0.4 0.179-0.4 0.4v0c0 0.221 0.179 0.4 0.4 0.4v0c0.221 0 0.4-0.179 0.4-0.4v0c0-0.221-0.179-0.4-0.4-0.4v0zM18.4 25.6c-0.221 0-0.4 0.179-0.4 0.4v0c0 0.221 0.179 0.4 0.4 0.4v0c0.221 0 0.4-0.179 0.4-0.4v0c0-0.221-0.179-0.4-0.4-0.4v0z"></path>
</svg>
