<!-- Generated by IcoMoon.io -->
<svg version="1.1" xmlns="http://www.w3.org/2000/svg" width="32" height="32" viewBox="0 0 32 32">
<title>design</title>
<path d="M8.8 3.834l-4.966 4.966 7.083 7.083 0.566-0.566-6.517-6.517 3.834-3.834 6.517 6.517 0.566-0.566zM25.823 4.002c-0.559 0-1.117 0.213-1.542 0.636l-0.337 0.339-0.344-0.342-17.544 17.542-2.353 6.119 6.12-2.352 0.059-0.061 17.483-17.483-0.342-0.344 0.339-0.338c0.645-0.647 0.791-1.603 0.452-2.398h0.23l-0.681-0.683c-0.423-0.422-0.981-0.634-1.539-0.636zM25.822 4.798c0.352 0 0.703 0.134 0.973 0.406 0.542 0.541 0.542 1.406 0 1.947l-0.339 0.341-1.948-1.948 0.341-0.339c0.27-0.272 0.622-0.408 0.973-0.406zM23.6 5.766l2.634 2.634-1.806 1.806-2.634-2.634zM9.2 6.8c-0.22 0-0.4 0.18-0.4 0.4s0.18 0.4 0.4 0.4c0.22 0 0.4-0.18 0.4-0.4s-0.18-0.4-0.4-0.4zM8 8c-0.22 0-0.4 0.18-0.4 0.4s0.18 0.4 0.4 0.4c0.22 0 0.4-0.18 0.4-0.4s-0.18-0.4-0.4-0.4zM10.4 8c-0.22 0-0.4 0.18-0.4 0.4s0.18 0.4 0.4 0.4c0.22 0 0.4-0.18 0.4-0.4s-0.18-0.4-0.4-0.4zM21.2 8.166l2.634 2.634-13.972 13.972c-0.070-0.22-0.18-0.455-0.38-0.655-0.294-0.294-0.664-0.402-0.955-0.459-0.092-0.019-0.092-0.009-0.167-0.019-0.009-0.075 0-0.075-0.019-0.167-0.058-0.291-0.166-0.661-0.459-0.955-0.2-0.2-0.434-0.309-0.655-0.38zM11.6 9.2c-0.22 0-0.4 0.18-0.4 0.4s0.18 0.4 0.4 0.4c0.22 0 0.4-0.18 0.4-0.4s-0.18-0.4-0.4-0.4zM21.2 9.2c-0.22 0-0.4 0.18-0.4 0.4s0.18 0.4 0.4 0.4c0.22 0 0.4-0.18 0.4-0.4s-0.18-0.4-0.4-0.4zM10.4 10.4c-0.22 0-0.4 0.18-0.4 0.4s0.18 0.4 0.4 0.4c0.22 0 0.4-0.18 0.4-0.4s-0.18-0.4-0.4-0.4zM12.8 10.4c-0.22 0-0.4 0.18-0.4 0.4s0.18 0.4 0.4 0.4c0.22 0 0.4-0.18 0.4-0.4s-0.18-0.4-0.4-0.4zM20 10.4c-0.22 0-0.4 0.18-0.4 0.4s0.18 0.4 0.4 0.4c0.22 0 0.4-0.18 0.4-0.4s-0.18-0.4-0.4-0.4zM14 11.6c-0.22 0-0.4 0.18-0.4 0.4s0.18 0.4 0.4 0.4c0.22 0 0.4-0.18 0.4-0.4s-0.18-0.4-0.4-0.4zM18.8 11.6c-0.22 0-0.4 0.18-0.4 0.4s0.18 0.4 0.4 0.4c0.22 0 0.4-0.18 0.4-0.4s-0.18-0.4-0.4-0.4zM12.8 12.8c-0.22 0-0.4 0.18-0.4 0.4s0.18 0.4 0.4 0.4c0.22 0 0.4-0.18 0.4-0.4s-0.18-0.4-0.4-0.4zM17.6 12.8c-0.22 0-0.4 0.18-0.4 0.4s0.18 0.4 0.4 0.4c0.22 0 0.4-0.18 0.4-0.4s-0.18-0.4-0.4-0.4zM16.4 14c-0.22 0-0.4 0.18-0.4 0.4s0.18 0.4 0.4 0.4c0.22 0 0.4-0.18 0.4-0.4s-0.18-0.4-0.4-0.4zM15.2 15.2c-0.22 0-0.4 0.18-0.4 0.4s0.18 0.4 0.4 0.4c0.22 0 0.4-0.18 0.4-0.4s-0.18-0.4-0.4-0.4zM21.083 16.117l-0.566 0.566 6.517 6.517-3.834 3.834-6.517-6.517-0.566 0.566 7.083 7.083 4.966-4.966zM14 16.4c-0.22 0-0.4 0.18-0.4 0.4s0.18 0.4 0.4 0.4c0.22 0 0.4-0.18 0.4-0.4s-0.18-0.4-0.4-0.4zM12.8 17.6c-0.22 0-0.4 0.18-0.4 0.4s0.18 0.4 0.4 0.4c0.22 0 0.4-0.18 0.4-0.4s-0.18-0.4-0.4-0.4zM20 17.73c-0.22 0-0.4 0.178-0.4 0.4 0 0.22 0.18 0.4 0.4 0.4s0.4-0.18 0.4-0.4c0-0.222-0.18-0.4-0.4-0.4zM11.6 18.8c-0.22 0-0.4 0.18-0.4 0.4s0.18 0.4 0.4 0.4c0.22 0 0.4-0.18 0.4-0.4s-0.18-0.4-0.4-0.4zM21.2 18.8c-0.22 0-0.4 0.18-0.4 0.4s0.18 0.4 0.4 0.4c0.22 0 0.4-0.18 0.4-0.4s-0.18-0.4-0.4-0.4zM18.8 18.93c-0.22 0-0.4 0.178-0.4 0.4 0 0.22 0.18 0.4 0.4 0.4s0.4-0.18 0.4-0.4c0-0.222-0.18-0.4-0.4-0.4zM10.4 20c-0.22 0-0.4 0.18-0.4 0.4s0.18 0.4 0.4 0.4c0.22 0 0.4-0.18 0.4-0.4s-0.18-0.4-0.4-0.4zM22.4 20.13c-0.22 0-0.4 0.178-0.4 0.4 0 0.22 0.18 0.4 0.4 0.4s0.4-0.18 0.4-0.4c0-0.222-0.18-0.4-0.4-0.4zM9.2 21.2c-0.22 0-0.4 0.18-0.4 0.4s0.18 0.4 0.4 0.4c0.22 0 0.4-0.18 0.4-0.4s-0.18-0.4-0.4-0.4zM23.6 21.2c-0.22 0-0.4 0.18-0.4 0.4s0.18 0.4 0.4 0.4c0.22 0 0.4-0.18 0.4-0.4s-0.18-0.4-0.4-0.4zM21.2 21.33c-0.22 0-0.4 0.178-0.4 0.4 0 0.22 0.18 0.4 0.4 0.4s0.4-0.18 0.4-0.4c0-0.222-0.18-0.4-0.4-0.4zM24.8 22.53c-0.22 0-0.4 0.178-0.4 0.4 0 0.22 0.18 0.4 0.4 0.4s0.4-0.18 0.4-0.4c0-0.222-0.18-0.4-0.4-0.4zM6.664 22.827c0.037 0.006 0.066 0.008 0.108 0.016 0.209 0.042 0.439 0.134 0.545 0.241s0.198 0.336 0.241 0.545c0.042 0.209 0.042 0.372 0.042 0.372v0.4h0.4c0 0 0.163 0 0.372 0.042s0.439 0.134 0.545 0.241c0.106 0.106 0.198 0.336 0.241 0.545 0.008 0.042 0.009 0.070 0.016 0.108l-2.772 1.066-0.803-0.803zM23.6 23.73c-0.22 0-0.4 0.178-0.4 0.4 0 0.22 0.18 0.4 0.4 0.4s0.4-0.18 0.4-0.4c0-0.222-0.18-0.4-0.4-0.4z"></path>
</svg>
