<!-- Generated by IcoMoon.io -->
<svg version="1.1" xmlns="http://www.w3.org/2000/svg" width="33" height="32" viewBox="0 0 33 32">
<title>discovery</title>
<path d="M21.164 0c-6.153 0-11.152 4.998-11.152 11.152 0 2.47 0.807 4.752 2.169 6.6l-2.059 2.059c-0.165-0.061-0.337-0.097-0.511-0.097-0.373 0-0.746 0.142-1.028 0.424l-7.841 7.841c-0.564 0.564-0.564 1.492 0 2.057l1.538 1.538c0.564 0.564 1.492 0.564 2.057 0l7.841-7.841c0.413-0.413 0.521-1.021 0.328-1.54l2.059-2.059c1.849 1.362 4.131 2.169 6.6 2.169 6.153 0 11.151-4.998 11.151-11.152s-4.998-11.152-11.151-11.152zM21.164 0.97c5.629 0 10.182 4.553 10.182 10.182s-4.553 10.182-10.182 10.182c-5.629 0-10.182-4.553-10.182-10.182s4.553-10.182 10.182-10.182zM21.164 1.939c-0.267 0-0.485 0.218-0.485 0.485s0.218 0.485 0.485 0.485c0.267 0 0.485-0.218 0.485-0.485s-0.218-0.485-0.485-0.485zM18.908 2.237c-0.011 0-0.023 0-0.032 0-0.034 0.004-0.064 0.008-0.097 0.017-0.259 0.070-0.413 0.335-0.343 0.595 0.070 0.258 0.335 0.411 0.593 0.341 0.259-0.068 0.413-0.333 0.345-0.593-0.057-0.21-0.246-0.358-0.466-0.36zM23.42 2.237c-0.218 0.002-0.409 0.15-0.466 0.36-0.068 0.259 0.085 0.525 0.345 0.593 0.258 0.070 0.523-0.083 0.593-0.341 0.070-0.259-0.083-0.525-0.343-0.595-0.042-0.011-0.085-0.017-0.129-0.017zM16.789 3.108c-0.081 0.002-0.161 0.025-0.231 0.066-0.112 0.063-0.193 0.169-0.227 0.294-0.032 0.125-0.015 0.258 0.049 0.367 0.064 0.112 0.17 0.193 0.295 0.227 0.123 0.032 0.256 0.015 0.367-0.049 0.231-0.134 0.311-0.43 0.176-0.663-0.087-0.153-0.252-0.246-0.43-0.242zM25.505 3.11c-0.165 0.008-0.314 0.099-0.398 0.242-0.134 0.231-0.053 0.528 0.178 0.663 0.231 0.133 0.528 0.053 0.661-0.178 0.066-0.112 0.083-0.244 0.049-0.367-0.032-0.125-0.114-0.231-0.225-0.295-0.080-0.047-0.172-0.068-0.265-0.064zM14.999 4.494c-0.131 0-0.258 0.051-0.35 0.142-0.188 0.189-0.188 0.498 0 0.688 0.189 0.188 0.498 0.188 0.688 0 0.188-0.189 0.188-0.498 0-0.688-0.091-0.089-0.21-0.14-0.337-0.142zM27.342 4.494c-0.131-0.002-0.258 0.049-0.35 0.142-0.189 0.189-0.189 0.498 0 0.688 0.189 0.188 0.496 0.188 0.686 0 0.189-0.189 0.189-0.498 0-0.688-0.089-0.089-0.208-0.138-0.335-0.142zM28.71 6.303c-0.081 0.002-0.161 0.025-0.231 0.066-0.231 0.133-0.311 0.43-0.178 0.661 0.134 0.231 0.432 0.311 0.663 0.176 0.231-0.133 0.313-0.43 0.178-0.661-0.089-0.153-0.254-0.246-0.432-0.242zM13.583 6.303c-0.163 0.009-0.313 0.1-0.396 0.242-0.134 0.231-0.055 0.528 0.176 0.661 0.233 0.134 0.528 0.055 0.663-0.176s0.055-0.528-0.178-0.661c-0.080-0.047-0.172-0.070-0.265-0.066zM12.73 8.409c-0.22 0.002-0.409 0.148-0.466 0.358-0.068 0.259 0.085 0.525 0.345 0.595 0.258 0.070 0.523-0.083 0.593-0.343s-0.083-0.525-0.343-0.595c-0.042-0.011-0.085-0.017-0.129-0.015zM29.598 8.409c-0.011-0.002-0.023 0-0.034 0-0.032 0.002-0.064 0.008-0.097 0.015-0.258 0.070-0.411 0.335-0.341 0.595 0.068 0.259 0.333 0.413 0.593 0.343 0.125-0.032 0.231-0.114 0.295-0.225s0.081-0.244 0.049-0.369c-0.057-0.21-0.246-0.356-0.466-0.358zM12.437 10.667c-0.267 0-0.485 0.218-0.485 0.485s0.218 0.485 0.485 0.485c0.267 0 0.485-0.218 0.485-0.485s-0.218-0.485-0.485-0.485zM29.891 10.667c-0.267 0-0.485 0.218-0.485 0.485s0.218 0.485 0.485 0.485c0.267 0 0.485-0.218 0.485-0.485s-0.218-0.485-0.485-0.485zM12.753 12.926c-0.049-0.002-0.098 0.004-0.144 0.015-0.259 0.070-0.413 0.335-0.345 0.595 0.070 0.259 0.335 0.413 0.595 0.343s0.413-0.335 0.343-0.593c-0.055-0.206-0.237-0.352-0.449-0.36zM29.588 12.926c-0.218 0.002-0.407 0.15-0.462 0.36-0.034 0.125-0.017 0.258 0.047 0.367 0.064 0.112 0.17 0.193 0.295 0.225 0.259 0.070 0.525-0.083 0.595-0.341 0.068-0.259-0.085-0.525-0.345-0.595-0.042-0.011-0.085-0.017-0.131-0.017zM13.594 15.030c-0.081 0.002-0.159 0.025-0.231 0.064-0.11 0.064-0.191 0.17-0.225 0.295-0.034 0.123-0.017 0.256 0.049 0.367 0.063 0.112 0.169 0.193 0.294 0.225 0.125 0.034 0.258 0.017 0.367-0.049 0.233-0.133 0.313-0.43 0.178-0.661-0.089-0.153-0.254-0.246-0.432-0.242zM28.7 15.032c-0.167 0.008-0.316 0.098-0.4 0.241-0.064 0.112-0.081 0.244-0.047 0.369s0.116 0.231 0.227 0.295c0.231 0.133 0.526 0.053 0.661-0.18 0.134-0.231 0.055-0.527-0.176-0.661-0.081-0.047-0.174-0.068-0.265-0.064zM14.999 16.839c-0.131-0.002-0.258 0.049-0.35 0.14-0.188 0.189-0.188 0.498 0 0.688 0.189 0.188 0.498 0.188 0.688 0 0.188-0.189 0.188-0.498 0-0.688-0.091-0.089-0.21-0.14-0.337-0.14zM27.342 16.839c-0.131-0.004-0.258 0.047-0.35 0.14-0.189 0.189-0.189 0.498 0 0.688 0.189 0.188 0.496 0.188 0.686 0 0.189-0.189 0.189-0.498 0-0.688-0.089-0.089-0.208-0.138-0.335-0.14zM25.514 18.225c-0.080 0-0.159 0.023-0.229 0.063-0.233 0.134-0.313 0.432-0.178 0.663s0.43 0.313 0.663 0.178c0.11-0.064 0.191-0.17 0.225-0.295 0.034-0.123 0.017-0.256-0.049-0.367-0.087-0.153-0.254-0.246-0.432-0.241zM16.778 18.225c-0.167 0.008-0.316 0.099-0.398 0.242-0.134 0.231-0.055 0.528 0.178 0.661 0.11 0.066 0.242 0.083 0.367 0.049 0.125-0.032 0.231-0.114 0.294-0.225 0.066-0.112 0.083-0.244 0.049-0.367-0.034-0.125-0.116-0.231-0.225-0.295-0.081-0.047-0.174-0.068-0.265-0.064zM12.793 18.511c0.316 0.358 0.653 0.695 1.011 1.011l-1.89 1.89-1.011-1.011 1.89-1.89zM18.901 19.099c-0.218 0.002-0.407 0.148-0.464 0.358-0.070 0.259 0.083 0.525 0.343 0.595s0.525-0.083 0.595-0.343c0.032-0.125 0.015-0.258-0.049-0.369-0.064-0.11-0.17-0.191-0.295-0.225-0.042-0.011-0.085-0.017-0.129-0.015zM23.442 19.099c-0.049-0.002-0.099 0.002-0.144 0.015-0.259 0.070-0.413 0.335-0.345 0.593 0.070 0.259 0.335 0.413 0.595 0.345 0.259-0.070 0.413-0.335 0.343-0.595-0.055-0.205-0.237-0.35-0.449-0.358zM21.164 19.394c-0.267 0-0.485 0.218-0.485 0.485s0.218 0.485 0.485 0.485c0.267 0 0.485-0.218 0.485-0.485s-0.218-0.485-0.485-0.485zM9.611 20.68c0.123 0 0.244 0.047 0.341 0.144l1.54 1.538c0.193 0.193 0.193 0.492 0 0.686l-7.841 7.841c-0.193 0.193-0.492 0.193-0.686 0l-1.538-1.538c-0.193-0.193-0.193-0.492 0-0.686l0.828-0.828 1.112 1.112 0.686-0.686-1.112-1.112 0.769-0.769 1.112 1.112 0.686-0.686-1.112-1.112 0.769-0.769 1.112 1.112 0.686-0.686-1.112-1.112 0.769-0.769 1.112 1.112 0.686-0.686-1.112-1.112 0.769-0.769 1.112 1.112 0.686-0.686-1.112-1.112 0.509-0.509c0.097-0.097 0.22-0.144 0.343-0.144z"></path>
</svg>
