<!-- Generated by IcoMoon.io -->
<svg version="1.1" xmlns="http://www.w3.org/2000/svg" width="33" height="32" viewBox="0 0 33 32">
<title>discovery</title>
<path d="M20.426 2.499c-5.192 0-9.41 4.218-9.41 9.41 0 2.084 0.681 4.010 1.83 5.57l-1.737 1.737c-0.139-0.051-0.284-0.082-0.431-0.082-0.315 0-0.63 0.12-0.868 0.358l-6.616 6.616c-0.476 0.476-0.476 1.259 0 1.736l1.298 1.298c0.476 0.476 1.259 0.476 1.736 0l6.616-6.616c0.348-0.348 0.44-0.861 0.276-1.299l1.737-1.737c1.56 1.149 3.486 1.83 5.57 1.83 5.192 0 9.41-4.218 9.41-9.41s-4.218-9.41-9.41-9.41zM20.426 3.317c4.75 0 8.592 3.842 8.592 8.592s-3.842 8.592-8.592 8.592c-4.75 0-8.592-3.842-8.592-8.592s3.842-8.592 8.592-8.592zM20.426 4.135c-0.225 0-0.409 0.184-0.409 0.409s0.184 0.409 0.409 0.409c0.225 0 0.409-0.184 0.409-0.409s-0.184-0.409-0.409-0.409zM18.522 4.386c-0.009 0-0.019 0-0.027 0-0.029 0.003-0.054 0.006-0.082 0.014-0.219 0.059-0.348 0.283-0.289 0.502 0.059 0.217 0.283 0.347 0.5 0.288 0.219-0.058 0.348-0.281 0.291-0.5-0.048-0.177-0.208-0.302-0.393-0.304zM22.329 4.386c-0.184 0.002-0.345 0.126-0.393 0.304-0.058 0.219 0.072 0.443 0.291 0.5 0.217 0.059 0.441-0.070 0.5-0.288 0.059-0.219-0.070-0.443-0.289-0.502-0.035-0.009-0.072-0.014-0.109-0.014zM16.734 5.122c-0.069 0.002-0.136 0.021-0.195 0.056-0.094 0.053-0.163 0.142-0.192 0.248-0.027 0.105-0.013 0.217 0.041 0.31 0.054 0.094 0.144 0.163 0.249 0.192 0.104 0.027 0.216 0.013 0.31-0.041 0.195-0.114 0.262-0.363 0.149-0.559-0.073-0.129-0.213-0.208-0.363-0.205zM24.089 5.123c-0.139 0.006-0.265 0.083-0.336 0.205-0.114 0.195-0.045 0.446 0.15 0.559 0.195 0.112 0.446 0.045 0.558-0.15 0.056-0.094 0.070-0.206 0.041-0.31-0.027-0.105-0.096-0.195-0.19-0.249-0.067-0.040-0.145-0.058-0.224-0.054zM15.224 6.291c-0.11 0-0.217 0.043-0.296 0.12-0.158 0.16-0.158 0.42 0 0.58 0.16 0.158 0.42 0.158 0.58 0 0.158-0.16 0.158-0.42 0-0.58-0.077-0.075-0.177-0.118-0.284-0.12zM25.639 6.291c-0.11-0.002-0.217 0.041-0.296 0.12-0.16 0.16-0.16 0.42 0 0.58 0.16 0.158 0.419 0.158 0.578 0 0.16-0.16 0.16-0.42 0-0.58-0.075-0.075-0.176-0.117-0.283-0.12zM26.793 7.818c-0.069 0.002-0.136 0.021-0.195 0.056-0.195 0.112-0.262 0.363-0.15 0.558 0.114 0.195 0.364 0.262 0.559 0.149 0.195-0.112 0.264-0.363 0.15-0.558-0.075-0.129-0.214-0.208-0.364-0.205zM14.029 7.818c-0.138 0.008-0.264 0.085-0.334 0.205-0.114 0.195-0.046 0.446 0.149 0.558 0.197 0.114 0.446 0.046 0.559-0.149s0.046-0.446-0.15-0.558c-0.067-0.040-0.146-0.059-0.224-0.056zM13.309 9.595c-0.185 0.002-0.345 0.125-0.393 0.302-0.058 0.219 0.072 0.443 0.291 0.502 0.217 0.059 0.441-0.070 0.5-0.289s-0.070-0.443-0.289-0.502c-0.035-0.009-0.072-0.014-0.109-0.013zM27.542 9.595c-0.009-0.002-0.019 0-0.029 0-0.027 0.002-0.054 0.006-0.082 0.013-0.217 0.059-0.347 0.283-0.288 0.502 0.058 0.219 0.281 0.348 0.5 0.289 0.105-0.027 0.195-0.096 0.249-0.19s0.069-0.206 0.041-0.312c-0.048-0.177-0.208-0.3-0.393-0.302zM13.062 11.5c-0.225 0-0.409 0.184-0.409 0.409s0.184 0.409 0.409 0.409c0.225 0 0.409-0.184 0.409-0.409s-0.184-0.409-0.409-0.409zM27.79 11.5c-0.225 0-0.409 0.184-0.409 0.409s0.184 0.409 0.409 0.409c0.225 0 0.409-0.184 0.409-0.409s-0.184-0.409-0.409-0.409zM13.328 13.406c-0.041-0.002-0.083 0.003-0.121 0.013-0.219 0.059-0.348 0.283-0.291 0.502 0.059 0.219 0.283 0.348 0.502 0.289s0.348-0.283 0.289-0.5c-0.046-0.174-0.2-0.297-0.379-0.304zM27.534 13.406c-0.184 0.002-0.343 0.126-0.39 0.304-0.029 0.105-0.014 0.217 0.040 0.31 0.054 0.094 0.144 0.163 0.249 0.19 0.219 0.059 0.443-0.070 0.502-0.288 0.058-0.219-0.072-0.443-0.291-0.502-0.035-0.009-0.072-0.014-0.11-0.014zM14.038 15.182c-0.069 0.002-0.134 0.021-0.195 0.054-0.093 0.054-0.161 0.144-0.19 0.249-0.029 0.104-0.014 0.216 0.041 0.31 0.053 0.094 0.142 0.163 0.248 0.19 0.105 0.029 0.217 0.014 0.31-0.041 0.197-0.112 0.264-0.363 0.15-0.558-0.075-0.129-0.214-0.208-0.364-0.205zM26.785 15.183c-0.141 0.006-0.267 0.083-0.337 0.203-0.054 0.094-0.069 0.206-0.040 0.312s0.097 0.195 0.192 0.249c0.195 0.112 0.444 0.045 0.558-0.152 0.114-0.195 0.046-0.444-0.149-0.558-0.069-0.040-0.147-0.058-0.224-0.054zM15.224 16.708c-0.11-0.002-0.217 0.041-0.296 0.118-0.158 0.16-0.158 0.42 0 0.58 0.16 0.158 0.42 0.158 0.58 0 0.158-0.16 0.158-0.42 0-0.58-0.077-0.075-0.177-0.118-0.284-0.118zM25.639 16.708c-0.11-0.003-0.217 0.040-0.296 0.118-0.16 0.16-0.16 0.42 0 0.58 0.16 0.158 0.419 0.158 0.578 0 0.16-0.16 0.16-0.42 0-0.58-0.075-0.075-0.176-0.117-0.283-0.118zM24.097 17.878c-0.067 0-0.134 0.019-0.193 0.053-0.197 0.114-0.264 0.364-0.15 0.559s0.363 0.264 0.559 0.15c0.093-0.054 0.161-0.144 0.19-0.249 0.029-0.104 0.014-0.216-0.041-0.31-0.073-0.129-0.214-0.208-0.364-0.203zM16.725 17.878c-0.141 0.006-0.267 0.083-0.336 0.205-0.114 0.195-0.046 0.446 0.15 0.558 0.093 0.056 0.205 0.070 0.31 0.041 0.105-0.027 0.195-0.096 0.248-0.19 0.056-0.094 0.070-0.206 0.041-0.31-0.029-0.105-0.097-0.195-0.19-0.249-0.069-0.040-0.147-0.058-0.224-0.054zM13.362 18.119c0.267 0.302 0.551 0.586 0.853 0.853l-1.595 1.595-0.853-0.853 1.595-1.595zM18.516 18.615c-0.184 0.002-0.343 0.125-0.392 0.302-0.059 0.219 0.070 0.443 0.289 0.502s0.443-0.070 0.502-0.289c0.027-0.105 0.013-0.217-0.041-0.311-0.054-0.093-0.144-0.161-0.249-0.19-0.035-0.009-0.072-0.014-0.109-0.013zM22.348 18.615c-0.041-0.002-0.083 0.002-0.121 0.013-0.219 0.059-0.348 0.283-0.291 0.5 0.059 0.219 0.283 0.348 0.502 0.291 0.219-0.059 0.348-0.283 0.289-0.502-0.046-0.173-0.2-0.296-0.379-0.302zM20.426 18.864c-0.225 0-0.409 0.184-0.409 0.409s0.184 0.409 0.409 0.409c0.225 0 0.409-0.184 0.409-0.409s-0.184-0.409-0.409-0.409zM10.677 19.949c0.104 0 0.206 0.040 0.288 0.121l1.299 1.298c0.163 0.163 0.163 0.416 0 0.578l-6.616 6.616c-0.163 0.163-0.416 0.163-0.578 0l-1.298-1.298c-0.163-0.163-0.163-0.416 0-0.578l0.698-0.698 0.938 0.938 0.578-0.578-0.938-0.938 0.649-0.649 0.938 0.938 0.578-0.578-0.938-0.938 0.649-0.649 0.938 0.938 0.578-0.578-0.938-0.938 0.649-0.649 0.938 0.938 0.578-0.578-0.938-0.938 0.649-0.649 0.938 0.938 0.578-0.578-0.938-0.938 0.43-0.43c0.082-0.082 0.185-0.121 0.289-0.121z"></path>
</svg>
