<!-- Generated by IcoMoon.io -->
<svg version="1.1" xmlns="http://www.w3.org/2000/svg" width="32" height="32" viewBox="0 0 32 32">
<title>e-commerce</title>
<path d="M15.943 2.466c-4.9 0-8.881 3.981-8.881 8.881 0 1.707 0.492 3.298 1.328 4.652h-1.328c-0.468 0-0.846 0.378-0.846 0.846s0.378 0.846 0.846 0.846h17.763c0.468 0 0.846-0.378 0.846-0.846s-0.378-0.846-0.846-0.846h-1.328c0.836-1.355 1.328-2.946 1.328-4.652 0-4.9-3.981-8.881-8.881-8.881zM15.943 3.312c4.442 0 8.036 3.593 8.036 8.036 0 2.133-0.836 4.059-2.189 5.498h-11.693c-1.353-1.439-2.189-3.365-2.189-5.498 0-4.442 3.593-8.036 8.036-8.036zM15.943 4.581c-0.233 0-0.423 0.19-0.423 0.423s0.19 0.423 0.423 0.423c0.233 0 0.423-0.19 0.423-0.423s-0.19-0.423-0.423-0.423zM13.518 5.063c-0.056 0-0.112 0.010-0.165 0.033-0.215 0.089-0.317 0.335-0.228 0.552s0.337 0.319 0.552 0.228c0.216-0.089 0.319-0.335 0.23-0.552-0.064-0.157-0.218-0.259-0.388-0.261zM18.381 5.063c-0.175-0.003-0.334 0.101-0.401 0.261-0.089 0.216 0.013 0.463 0.23 0.552 0.215 0.091 0.463-0.012 0.552-0.228s-0.013-0.463-0.228-0.552c-0.050-0.020-0.101-0.031-0.152-0.033zM11.462 6.438c-0.114 0-0.225 0.045-0.304 0.126-0.165 0.163-0.165 0.433 0 0.596 0.163 0.165 0.433 0.165 0.596 0 0.165-0.163 0.165-0.433 0-0.596-0.078-0.079-0.182-0.124-0.292-0.126zM20.435 6.438c-0.114-0.002-0.225 0.043-0.306 0.126-0.165 0.163-0.165 0.433 0 0.596 0.165 0.165 0.433 0.165 0.598 0 0.165-0.163 0.165-0.433 0-0.596-0.078-0.079-0.182-0.122-0.292-0.126zM3.255 6.696c-0.699 0-1.269 0.57-1.269 1.269v16.071c0 0.699 0.57 1.269 1.269 1.269h9.26l-0.339 3.383h-1.731c-0.152-0.002-0.294 0.078-0.372 0.21-0.076 0.132-0.076 0.294 0 0.426 0.078 0.132 0.22 0.211 0.372 0.21h10.996c0.152 0.002 0.294-0.078 0.372-0.21 0.076-0.132 0.076-0.294 0-0.426-0.078-0.132-0.22-0.211-0.372-0.21h-1.731l-0.339-3.383h9.26c0.699 0 1.269-0.57 1.269-1.269v-16.071c0-0.699-0.57-1.269-1.269-1.269h-3.806l0.423 0.846h3.383c0.233 0 0.423 0.19 0.423 0.423v16.071c0 0.233-0.19 0.423-0.423 0.423h-25.375c-0.233 0-0.423-0.19-0.423-0.423v-16.071c0-0.233 0.19-0.423 0.423-0.423h3.383l0.423-0.846h-3.806zM15.703 7.791v0.56c-1.252 0.099-1.987 0.757-1.987 1.789 0 0.876 0.542 1.454 1.541 1.685l0.446 0.102v1.451c-0.496-0.050-0.838-0.347-0.864-0.74h-1.238c0.003 1.026 0.788 1.677 2.101 1.751v0.514h0.581v-0.522c1.305-0.111 2.049-0.767 2.049-1.829 0-0.905-0.529-1.459-1.594-1.68l-0.454-0.088v-1.396c0.413 0.061 0.71 0.358 0.722 0.715h1.208c-0.018-0.963-0.765-1.64-1.93-1.748v-0.565h-0.581zM10.091 8.498c-0.175-0.005-0.334 0.099-0.4 0.259-0.091 0.216 0.012 0.464 0.228 0.553s0.463-0.013 0.552-0.23c0.091-0.215-0.012-0.463-0.228-0.552-0.048-0.020-0.099-0.031-0.152-0.031zM21.806 8.498c-0.056-0.002-0.112 0.010-0.165 0.031-0.215 0.089-0.317 0.337-0.228 0.552 0.089 0.216 0.337 0.319 0.552 0.23 0.216-0.089 0.319-0.337 0.23-0.553-0.064-0.155-0.218-0.259-0.388-0.259zM15.703 9.385v1.28c-0.479-0.096-0.732-0.324-0.732-0.649 0-0.347 0.302-0.606 0.732-0.631zM9.599 10.925c-0.233 0-0.423 0.19-0.423 0.423s0.19 0.423 0.423 0.423c0.233 0 0.423-0.19 0.423-0.423s-0.19-0.423-0.423-0.423zM22.287 10.925c-0.233 0-0.423 0.19-0.423 0.423s0.19 0.423 0.423 0.423c0.233 0 0.423-0.19 0.423-0.423s-0.19-0.423-0.423-0.423zM16.287 12.032c0.552 0.099 0.816 0.317 0.818 0.672 0 0.388-0.306 0.641-0.818 0.679v-1.351zM10.086 13.352c-0.058 0-0.114 0.010-0.165 0.031-0.216 0.091-0.319 0.337-0.23 0.553s0.337 0.319 0.553 0.228c0.215-0.089 0.317-0.335 0.228-0.55-0.064-0.159-0.218-0.261-0.387-0.263zM21.813 13.352c-0.173-0.003-0.332 0.101-0.4 0.261-0.089 0.216 0.013 0.463 0.228 0.552 0.216 0.091 0.464-0.012 0.553-0.228s-0.013-0.463-0.23-0.553c-0.048-0.020-0.099-0.030-0.152-0.031zM20.435 15.41c-0.114-0.002-0.225 0.043-0.304 0.124-0.165 0.165-0.165 0.433 0 0.598 0.163 0.165 0.433 0.165 0.596 0 0.165-0.165 0.165-0.433 0-0.598-0.078-0.078-0.182-0.122-0.292-0.124zM11.462 15.412c-0.114-0.003-0.225 0.041-0.304 0.124-0.165 0.163-0.165 0.433 0 0.596 0.163 0.165 0.433 0.165 0.596 0 0.165-0.163 0.165-0.433 0-0.596-0.078-0.079-0.182-0.122-0.292-0.124zM4.101 21.921c-0.233 0-0.423 0.19-0.423 0.423s0.19 0.423 0.423 0.423c0.233 0 0.423-0.19 0.423-0.423s-0.19-0.423-0.423-0.423zM5.793 21.921c-0.233 0-0.423 0.19-0.423 0.423s0.19 0.423 0.423 0.423c0.233 0 0.423-0.19 0.423-0.423s-0.19-0.423-0.423-0.423zM7.484 21.921c-0.233 0-0.423 0.19-0.423 0.423s0.19 0.423 0.423 0.423c0.233 0 0.423-0.19 0.423-0.423s-0.19-0.423-0.423-0.423zM9.176 21.921c-0.233 0-0.423 0.19-0.423 0.423s0.19 0.423 0.423 0.423c0.233 0 0.423-0.19 0.423-0.423s-0.19-0.423-0.423-0.423zM10.868 21.921c-0.233 0-0.423 0.19-0.423 0.423s0.19 0.423 0.423 0.423c0.233 0 0.423-0.19 0.423-0.423s-0.19-0.423-0.423-0.423zM12.56 21.921c-0.233 0-0.423 0.19-0.423 0.423s0.19 0.423 0.423 0.423c0.233 0 0.423-0.19 0.423-0.423s-0.19-0.423-0.423-0.423zM14.251 21.921c-0.233 0-0.423 0.19-0.423 0.423s0.19 0.423 0.423 0.423c0.233 0 0.423-0.19 0.423-0.423s-0.19-0.423-0.423-0.423zM15.943 21.921c-0.233 0-0.423 0.19-0.423 0.423s0.19 0.423 0.423 0.423c0.233 0 0.423-0.19 0.423-0.423s-0.19-0.423-0.423-0.423zM17.635 21.921c-0.233 0-0.423 0.19-0.423 0.423s0.19 0.423 0.423 0.423c0.233 0 0.423-0.19 0.423-0.423s-0.19-0.423-0.423-0.423zM19.326 21.921c-0.233 0-0.423 0.19-0.423 0.423s0.19 0.423 0.423 0.423c0.233 0 0.423-0.19 0.423-0.423s-0.19-0.423-0.423-0.423zM21.018 21.921c-0.233 0-0.423 0.19-0.423 0.423s0.19 0.423 0.423 0.423c0.233 0 0.423-0.19 0.423-0.423s-0.19-0.423-0.423-0.423zM22.71 21.921c-0.233 0-0.423 0.19-0.423 0.423s0.19 0.423 0.423 0.423c0.233 0 0.423-0.19 0.423-0.423s-0.19-0.423-0.423-0.423zM24.401 21.921c-0.233 0-0.423 0.19-0.423 0.423s0.19 0.423 0.423 0.423c0.233 0 0.423-0.19 0.423-0.423s-0.19-0.423-0.423-0.423zM26.093 21.921c-0.233 0-0.423 0.19-0.423 0.423s0.19 0.423 0.423 0.423c0.233 0 0.423-0.19 0.423-0.423s-0.19-0.423-0.423-0.423zM27.785 21.921c-0.233 0-0.423 0.19-0.423 0.423s0.19 0.423 0.423 0.423c0.233 0 0.423-0.19 0.423-0.423s-0.19-0.423-0.423-0.423zM13.366 25.304h5.154l0.339 3.383h-5.832l0.339-3.383z"></path>
</svg>
