<!-- Generated by IcoMoon.io -->
<svg version="1.1" xmlns="http://www.w3.org/2000/svg" width="32" height="32" viewBox="0 0 32 32">
<title>environment</title>
<path d="M15.395 2.397c-0.162 0-0.308 0.098-0.37 0.248-0.061 0.152-0.025 0.323 0.092 0.438l1.317 1.317h-8.434c-1.983 0-3.6 1.617-3.6 3.6-0.002 0.144 0.073 0.278 0.198 0.352 0.125 0.072 0.278 0.072 0.403 0 0.125-0.073 0.2-0.208 0.198-0.352 0-1.552 1.248-2.8 2.8-2.8h8.434l-1.317 1.317c-0.105 0.1-0.147 0.25-0.109 0.389 0.036 0.141 0.145 0.25 0.286 0.286 0.139 0.037 0.289-0.005 0.389-0.109l2.283-2.283-2.283-2.283c-0.075-0.078-0.178-0.12-0.287-0.12zM20.4 4.4c-0.22 0-0.4 0.18-0.4 0.4s0.18 0.4 0.4 0.4c0.22 0 0.4-0.18 0.4-0.4s-0.18-0.4-0.4-0.4zM22 4.4c-0.22 0-0.4 0.18-0.4 0.4s0.18 0.4 0.4 0.4c0.22 0 0.4-0.18 0.4-0.4s-0.18-0.4-0.4-0.4zM24 4.4c-0.144-0.002-0.278 0.073-0.352 0.198-0.072 0.125-0.072 0.278 0 0.403 0.073 0.125 0.208 0.2 0.352 0.198 1.552 0 2.8 1.248 2.8 2.8v8.434l-1.317-1.317c-0.075-0.078-0.178-0.12-0.288-0.122-0.163 0.002-0.308 0.1-0.37 0.25-0.061 0.152-0.025 0.323 0.092 0.438l2.283 2.283 2.283-2.283c0.105-0.1 0.147-0.25 0.109-0.389-0.036-0.141-0.145-0.25-0.286-0.286-0.139-0.037-0.289 0.005-0.389 0.109l-1.317 1.317v-8.434c0-1.983-1.617-3.6-3.6-3.6zM4.8 9.6c-0.22 0-0.4 0.18-0.4 0.4s0.18 0.4 0.4 0.4c0.22 0 0.4-0.18 0.4-0.4s-0.18-0.4-0.4-0.4zM4.8 11.2c-0.22 0-0.4 0.18-0.4 0.4s0.18 0.4 0.4 0.4c0.22 0 0.4-0.18 0.4-0.4s-0.18-0.4-0.4-0.4zM4.8 14.034l-2.283 2.283c-0.105 0.1-0.147 0.25-0.109 0.389 0.036 0.141 0.145 0.25 0.286 0.286 0.139 0.038 0.289-0.005 0.389-0.109l1.317-1.317v8.434c0 1.983 1.617 3.6 3.6 3.6 0.144 0.002 0.278-0.073 0.352-0.198 0.072-0.125 0.072-0.278 0-0.403-0.073-0.125-0.208-0.2-0.352-0.198-1.552 0-2.8-1.248-2.8-2.8v-8.434l1.317 1.317c0.1 0.105 0.25 0.147 0.389 0.109 0.141-0.036 0.25-0.145 0.286-0.286 0.037-0.139-0.005-0.289-0.109-0.389zM27.2 20c-0.22 0-0.4 0.18-0.4 0.4s0.18 0.4 0.4 0.4c0.22 0 0.4-0.18 0.4-0.4s-0.18-0.4-0.4-0.4zM27.2 21.6c-0.22 0-0.4 0.18-0.4 0.4s0.18 0.4 0.4 0.4c0.22 0 0.4-0.18 0.4-0.4s-0.18-0.4-0.4-0.4zM27.194 23.594c-0.22 0.005-0.397 0.186-0.394 0.406 0 1.552-1.248 2.8-2.8 2.8h-8.434l1.317-1.317c0.119-0.116 0.153-0.291 0.089-0.442-0.064-0.153-0.214-0.25-0.38-0.245-0.105 0.003-0.203 0.047-0.275 0.122l-2.283 2.283 2.283 2.283c0.1 0.105 0.25 0.147 0.389 0.109 0.141-0.036 0.25-0.145 0.286-0.286 0.038-0.139-0.005-0.289-0.109-0.389l-1.317-1.317h8.434c1.983 0 3.6-1.617 3.6-3.6 0.002-0.108-0.041-0.212-0.117-0.289s-0.181-0.119-0.289-0.117zM10 26.8c-0.22 0-0.4 0.18-0.4 0.4s0.18 0.4 0.4 0.4c0.22 0 0.4-0.18 0.4-0.4s-0.18-0.4-0.4-0.4zM11.6 26.8c-0.22 0-0.4 0.18-0.4 0.4s0.18 0.4 0.4 0.4c0.22 0 0.4-0.18 0.4-0.4s-0.18-0.4-0.4-0.4z"></path>
</svg>
