<!-- Generated by IcoMoon.io -->
<svg version="1.1" xmlns="http://www.w3.org/2000/svg" width="32" height="32" viewBox="0 0 32 32">
<title>facebook</title>
<path d="M18.806 3.2c-1.764 0-3.283 0.545-4.349 1.616s-1.657 2.645-1.657 4.611v2.973h-4v5.2h4v11.2h5.2v-11.2h3.934l0.945-5.2h-4.879v-2.536c0-0.692 0.111-1.146 0.349-1.415s0.667-0.448 1.524-0.448l2.527-0.002v-4.577l-0.348-0.046c-0.427-0.057-1.614-0.177-3.246-0.177zM18.806 4c1.416 0 2.304 0.095 2.794 0.152v3.048l-1.727 0.002c-0.973 0-1.681 0.22-2.122 0.716s-0.551 1.174-0.551 1.946v3.336h4.72l-0.654 3.6h-4.066v11.2h-3.6v-11.2h-4v-3.6h4v-3.773c0-1.807 0.529-3.147 1.424-4.046s2.18-1.381 3.782-1.381zM18.8 4.8c-0.002-0-0.004-0-0.006-0-0.221 0-0.4 0.179-0.4 0.4s0.179 0.4 0.4 0.4c0.002 0 0.004 0 0.006-0h-0c0.002 0 0.004 0 0.006 0 0.221 0 0.4-0.179 0.4-0.4s-0.179-0.4-0.4-0.4c-0.002 0-0.004 0-0.006 0h0zM17.133 4.984l-0.32 0.161-0.063 0.353 0.245 0.262 0.139 0.024 0.32-0.16 0.063-0.353-0.245-0.262-0.138-0.025zM15.728 5.887l-0.321 0.161-0.063 0.352 0.245 0.263 0.139 0.024 0.32-0.16 0.063-0.353-0.245-0.262-0.138-0.025zM14.919 7.348l-0.321 0.161-0.063 0.352 0.245 0.262 0.139 0.025 0.32-0.16 0.063-0.353-0.245-0.262-0.138-0.025zM14.8 9.025l-0.32 0.16-0.063 0.353 0.245 0.262 0.139 0.025 0.32-0.161 0.063-0.352-0.245-0.262-0.139-0.025zM14.8 10.713l-0.32 0.16-0.063 0.353 0.245 0.262 0.139 0.025 0.32-0.161 0.063-0.352-0.245-0.262-0.139-0.025zM14.8 12.4c-0.002-0-0.004-0-0.006-0-0.221 0-0.4 0.179-0.4 0.4s0.179 0.4 0.4 0.4c0.002 0 0.004 0 0.006-0h-0c0.002 0 0.004 0 0.006 0 0.221 0 0.4-0.179 0.4-0.4s-0.179-0.4-0.4-0.4c-0.002 0-0.004 0-0.006 0h0zM14.8 16.8c-0.002-0-0.004-0-0.006-0-0.221 0-0.4 0.179-0.4 0.4s0.179 0.4 0.4 0.4c0.002 0 0.004 0 0.006-0h-0c0.002 0 0.004 0 0.006 0 0.221 0 0.4-0.179 0.4-0.4s-0.179-0.4-0.4-0.4c-0.002 0-0.004 0-0.006 0h0zM14.8 18.4l-0.32 0.161-0.063 0.352 0.245 0.262 0.139 0.025 0.32-0.161 0.063-0.352-0.245-0.262-0.139-0.025zM14.8 20l-0.32 0.161-0.063 0.352 0.245 0.262 0.139 0.025 0.32-0.161 0.063-0.352-0.245-0.262-0.139-0.025zM14.8 21.6l-0.32 0.161-0.063 0.352 0.245 0.262 0.139 0.025 0.32-0.161 0.063-0.352-0.245-0.262-0.139-0.025zM14.8 23.2l-0.32 0.161-0.063 0.352 0.245 0.262 0.139 0.025 0.32-0.161 0.063-0.352-0.245-0.262-0.139-0.025zM14.8 24.8l-0.32 0.161-0.063 0.352 0.245 0.262 0.139 0.025 0.32-0.161 0.063-0.352-0.245-0.262-0.139-0.025zM14.8 26.4c-0.002-0-0.004-0-0.006-0-0.221 0-0.4 0.179-0.4 0.4s0.179 0.4 0.4 0.4c0.002 0 0.004 0 0.006-0h-0c0.002 0 0.004 0 0.006 0 0.221 0 0.4-0.179 0.4-0.4s-0.179-0.4-0.4-0.4c-0.002 0-0.004 0-0.006 0h0z"></path>
</svg>
