<!-- Generated by IcoMoon.io -->
<svg version="1.1" xmlns="http://www.w3.org/2000/svg" width="32" height="32" viewBox="0 0 32 32">
<title>flow</title>
<path d="M5.2 4.8c-0.658 0-1.2 0.542-1.2 1.2v4c0 0.658 0.542 1.2 1.2 1.2h4.8c0.658 0 1.2-0.542 1.2-1.2v-1.6c0.22 0 0.4-0.18 0.4-0.4s-0.18-0.4-0.4-0.4v-1.6c0-0.658-0.542-1.2-1.2-1.2zM15.6 4.8c-0.658 0-1.2 0.542-1.2 1.2v1.6c-0.22 0-0.4 0.18-0.4 0.4s0.18 0.4 0.4 0.4v1.6c0 0.658 0.542 1.2 1.2 1.2h4.8c0.658 0 1.2-0.542 1.2-1.2v-1.6c0.22 0 0.4-0.18 0.4-0.4s-0.18-0.4-0.4-0.4v-1.6c0-0.658-0.542-1.2-1.2-1.2zM5.2 5.6h4.8c0.227 0 0.4 0.173 0.4 0.4v4c0 0.227-0.173 0.4-0.4 0.4h-4.8c-0.227 0-0.4-0.173-0.4-0.4v-4c0-0.227 0.173-0.4 0.4-0.4zM15.6 5.6h4.8c0.227 0 0.4 0.173 0.4 0.4v4c0 0.227-0.173 0.4-0.4 0.4h-4.8c-0.227 0-0.4-0.173-0.4-0.4v-4c0-0.227 0.173-0.4 0.4-0.4zM6 6.4c-0.22 0-0.4 0.18-0.4 0.4s0.18 0.4 0.4 0.4c0.22 0 0.4-0.18 0.4-0.4s-0.18-0.4-0.4-0.4zM7.6 6.4c-0.22 0-0.4 0.18-0.4 0.4s0.18 0.4 0.4 0.4c0.22 0 0.4-0.18 0.4-0.4s-0.18-0.4-0.4-0.4zM9.2 6.4c-0.22 0-0.4 0.18-0.4 0.4s0.18 0.4 0.4 0.4c0.22 0 0.4-0.18 0.4-0.4s-0.18-0.4-0.4-0.4zM16.4 6.4c-0.22 0-0.4 0.18-0.4 0.4s0.18 0.4 0.4 0.4c0.22 0 0.4-0.18 0.4-0.4s-0.18-0.4-0.4-0.4zM18 6.4c-0.22 0-0.4 0.18-0.4 0.4s0.18 0.4 0.4 0.4c0.22 0 0.4-0.18 0.4-0.4s-0.18-0.4-0.4-0.4zM19.6 6.4c-0.22 0-0.4 0.18-0.4 0.4s0.18 0.4 0.4 0.4c0.22 0 0.4-0.18 0.4-0.4s-0.18-0.4-0.4-0.4zM12.8 7.6c-0.22 0-0.4 0.18-0.4 0.4s0.18 0.4 0.4 0.4c0.22 0 0.4-0.18 0.4-0.4s-0.18-0.4-0.4-0.4zM23.2 7.6c-0.22 0-0.4 0.18-0.4 0.4s0.18 0.4 0.4 0.4c0.22 0 0.4-0.18 0.4-0.4s-0.18-0.4-0.4-0.4zM24.8 7.6c-0.22 0-0.4 0.18-0.4 0.4s0.18 0.4 0.4 0.4c0.22 0 0.4-0.18 0.4-0.4s-0.18-0.4-0.4-0.4zM24.8 9.2c-0.22 0-0.4 0.18-0.4 0.4s0.18 0.4 0.4 0.4c0.22 0 0.4-0.18 0.4-0.4s-0.18-0.4-0.4-0.4zM24.8 10.8c-0.22 0-0.4 0.18-0.4 0.4s0.18 0.4 0.4 0.4c0.22 0 0.4-0.18 0.4-0.4s-0.18-0.4-0.4-0.4zM24.8 12.4c-0.22 0-0.4 0.18-0.4 0.4h-2.4c-0.658 0-1.2 0.542-1.2 1.2v4c0 0.658 0.542 1.2 1.2 1.2h2.4c0 0.22 0.18 0.4 0.4 0.4s0.4-0.18 0.4-0.4h1.6c0.658 0 1.2-0.542 1.2-1.2v-4c0-0.658-0.542-1.2-1.2-1.2h-1.6c0-0.22-0.18-0.4-0.4-0.4zM22 13.6h4.8c0.227 0 0.4 0.173 0.4 0.4v4c0 0.227-0.173 0.4-0.4 0.4h-4.8c-0.227 0-0.4-0.173-0.4-0.4v-4c0-0.227 0.173-0.4 0.4-0.4zM22.8 14.4c-0.22 0-0.4 0.18-0.4 0.4s0.18 0.4 0.4 0.4c0.22 0 0.4-0.18 0.4-0.4s-0.18-0.4-0.4-0.4zM24.4 14.4c-0.22 0-0.4 0.18-0.4 0.4s0.18 0.4 0.4 0.4c0.22 0 0.4-0.18 0.4-0.4s-0.18-0.4-0.4-0.4zM26 14.4c-0.22 0-0.4 0.18-0.4 0.4s0.18 0.4 0.4 0.4c0.22 0 0.4-0.18 0.4-0.4s-0.18-0.4-0.4-0.4zM24.8 20.4c-0.22 0-0.4 0.18-0.4 0.4s0.18 0.4 0.4 0.4c0.22 0 0.4-0.18 0.4-0.4s-0.18-0.4-0.4-0.4zM5.2 20.8c-0.658 0-1.2 0.542-1.2 1.2v4c0 0.658 0.542 1.2 1.2 1.2h4.8c0.658 0 1.2-0.542 1.2-1.2v-1.6c0.22 0 0.4-0.18 0.4-0.4s-0.18-0.4-0.4-0.4v-1.6c0-0.658-0.542-1.2-1.2-1.2zM15.6 20.8c-0.658 0-1.2 0.542-1.2 1.2v1.6c-0.22 0-0.4 0.18-0.4 0.4s0.18 0.4 0.4 0.4v1.6c0 0.658 0.542 1.2 1.2 1.2h4.8c0.658 0 1.2-0.542 1.2-1.2v-1.6c0.22 0 0.4-0.18 0.4-0.4s-0.18-0.4-0.4-0.4v-1.6c0-0.658-0.542-1.2-1.2-1.2zM5.2 21.6h4.8c0.227 0 0.4 0.173 0.4 0.4v4c0 0.227-0.173 0.4-0.4 0.4h-4.8c-0.227 0-0.4-0.173-0.4-0.4v-4c0-0.227 0.173-0.4 0.4-0.4zM15.6 21.6h4.8c0.227 0 0.4 0.173 0.4 0.4v4c0 0.227-0.173 0.4-0.4 0.4h-4.8c-0.227 0-0.4-0.173-0.4-0.4v-4c0-0.227 0.173-0.4 0.4-0.4zM24.8 22c-0.22 0-0.4 0.18-0.4 0.4s0.18 0.4 0.4 0.4c0.22 0 0.4-0.18 0.4-0.4s-0.18-0.4-0.4-0.4zM6 22.4c-0.22 0-0.4 0.18-0.4 0.4s0.18 0.4 0.4 0.4c0.22 0 0.4-0.18 0.4-0.4s-0.18-0.4-0.4-0.4zM7.6 22.4c-0.22 0-0.4 0.18-0.4 0.4s0.18 0.4 0.4 0.4c0.22 0 0.4-0.18 0.4-0.4s-0.18-0.4-0.4-0.4zM9.2 22.4c-0.22 0-0.4 0.18-0.4 0.4s0.18 0.4 0.4 0.4c0.22 0 0.4-0.18 0.4-0.4s-0.18-0.4-0.4-0.4zM16.4 22.4c-0.22 0-0.4 0.18-0.4 0.4s0.18 0.4 0.4 0.4c0.22 0 0.4-0.18 0.4-0.4s-0.18-0.4-0.4-0.4zM18 22.4c-0.22 0-0.4 0.18-0.4 0.4s0.18 0.4 0.4 0.4c0.22 0 0.4-0.18 0.4-0.4s-0.18-0.4-0.4-0.4zM19.6 22.4c-0.22 0-0.4 0.18-0.4 0.4s0.18 0.4 0.4 0.4c0.22 0 0.4-0.18 0.4-0.4s-0.18-0.4-0.4-0.4zM12.8 23.6c-0.22 0-0.4 0.18-0.4 0.4s0.18 0.4 0.4 0.4c0.22 0 0.4-0.18 0.4-0.4s-0.18-0.4-0.4-0.4zM23.2 23.6c-0.22 0-0.4 0.18-0.4 0.4s0.18 0.4 0.4 0.4c0.22 0 0.4-0.18 0.4-0.4s-0.18-0.4-0.4-0.4zM24.8 23.6c-0.22 0-0.4 0.18-0.4 0.4s0.18 0.4 0.4 0.4c0.22 0 0.4-0.18 0.4-0.4s-0.18-0.4-0.4-0.4z"></path>
</svg>
