<!-- Generated by IcoMoon.io -->
<svg version="1.1" xmlns="http://www.w3.org/2000/svg" width="32" height="32" viewBox="0 0 32 32">
<title>game-controller</title>
<path d="M15.6 4.8v2.406c-1.698 0.017-3.327 0.145-4.808 0.319-0.041-0.623-0.559-1.125-1.192-1.125h-2c-0.658 0-1.2 0.542-1.2 1.2v0.631c-1.542 0.316-2.509 0.584-2.509 0.584l-0.247 0.070-0.039 0.253c0 0-0.4 2.603-0.802 5.556-0.4 2.955-0.803 6.228-0.803 7.705 0 2.647 2.153 4.8 4.8 4.8 2.039 0 3.744-1.294 4.423-3.095 0.209 0.181 0.48 0.295 0.777 0.295h1.2c0.658 0 1.2-0.542 1.2-1.2v-0.4h3.2v0.4c0 0.658 0.542 1.2 1.2 1.2h1.2c0.297 0 0.567-0.114 0.777-0.295 0.68 1.802 2.384 3.095 4.423 3.095 2.647 0 4.8-2.153 4.8-4.8 0-1.477-0.403-4.75-0.805-7.705-0.4-2.953-0.8-5.556-0.8-5.556l-0.039-0.253-0.245-0.070c0 0-0.969-0.269-2.511-0.584v-0.631c0-0.658-0.542-1.2-1.2-1.2h-2c-0.633 0-1.152 0.502-1.192 1.125-1.481-0.173-3.109-0.302-4.808-0.319v-2.406zM7.6 7.2h2c0.227 0 0.4 0.173 0.4 0.4v0.020c-1.041 0.139-1.975 0.297-2.8 0.452v-0.472c0-0.227 0.173-0.4 0.4-0.4zM22.4 7.2h2c0.227 0 0.4 0.173 0.4 0.4v0.472c-0.825-0.155-1.759-0.313-2.8-0.452v-0.020c0-0.227 0.173-0.4 0.4-0.4zM16 8c6.116 0 11.28 1.428 11.644 1.53 0.036 0.234 0.38 2.472 0.761 5.275 0.398 2.945 0.795 6.272 0.795 7.595 0 2.214-1.786 4-4 4s-4-1.786-4-4v-0.4h-10.4v0.4c0 2.214-1.786 4-4 4s-4-1.786-4-4c0-1.323 0.397-4.65 0.797-7.595 0.38-2.803 0.723-5.041 0.759-5.275 0.364-0.102 5.528-1.53 11.644-1.53zM8.8 11.2c-0.438 0-0.8 0.363-0.8 0.8v1.6h-1.6c-0.438 0-0.8 0.363-0.8 0.8v0.8c0 0.438 0.362 0.8 0.8 0.8h1.6v1.6c0 0.438 0.363 0.8 0.8 0.8h0.8c0.438 0 0.8-0.363 0.8-0.8v-1.6h1.6c0.438 0 0.8-0.363 0.8-0.8v-0.8c0-0.438-0.363-0.8-0.8-0.8h-1.6v-1.6c0-0.438-0.363-0.8-0.8-0.8zM23.2 11.2c-0.88 0-1.6 0.72-1.6 1.6 0 0.156 0.064 0.284 0.106 0.425-0.028 0.027-0.055 0.053-0.081 0.081-0.141-0.042-0.269-0.106-0.425-0.106-0.88 0-1.6 0.72-1.6 1.6s0.72 1.6 1.6 1.6c0.156 0 0.284-0.064 0.425-0.106 0.027 0.028 0.053 0.055 0.081 0.081-0.042 0.141-0.106 0.269-0.106 0.425 0 0.88 0.72 1.6 1.6 1.6s1.6-0.72 1.6-1.6c0-0.156-0.064-0.284-0.106-0.425 0.028-0.027 0.055-0.053 0.081-0.081 0.141 0.042 0.269 0.106 0.425 0.106 0.88 0 1.6-0.72 1.6-1.6s-0.72-1.6-1.6-1.6c-0.156 0-0.284 0.064-0.425 0.106-0.027-0.028-0.053-0.055-0.081-0.081 0.042-0.141 0.106-0.269 0.106-0.425 0-0.88-0.72-1.6-1.6-1.6zM8.8 12h0.8v2.4h2.4v0.8h-2.4v2.4h-0.8v-2.4h-2.4v-0.8h2.4zM23.2 12c0.447 0 0.8 0.353 0.8 0.8 0 0.128-0.033 0.25-0.094 0.367l-0.159 0.303 0.277 0.205c0.116 0.084 0.217 0.186 0.302 0.302l0.205 0.277 0.303-0.159c0.117-0.061 0.239-0.094 0.367-0.094 0.447 0 0.8 0.353 0.8 0.8s-0.353 0.8-0.8 0.8c-0.128 0-0.25-0.033-0.367-0.094l-0.303-0.159-0.205 0.277c-0.084 0.116-0.186 0.217-0.302 0.302l-0.277 0.205 0.159 0.303c0.061 0.117 0.094 0.239 0.094 0.367 0 0.447-0.353 0.8-0.8 0.8s-0.8-0.353-0.8-0.8c0-0.128 0.033-0.25 0.094-0.367l0.159-0.303-0.277-0.205c-0.116-0.084-0.217-0.186-0.302-0.302l-0.205-0.277-0.303 0.159c-0.117 0.061-0.239 0.094-0.367 0.094-0.447 0-0.8-0.353-0.8-0.8s0.353-0.8 0.8-0.8c0.128 0 0.25 0.033 0.367 0.094l0.303 0.159 0.205-0.277c0.084-0.116 0.186-0.217 0.302-0.302l0.277-0.205-0.159-0.303c-0.061-0.117-0.094-0.239-0.094-0.367 0-0.447 0.353-0.8 0.8-0.8zM9.6 20.4c-0.22 0-0.4 0.18-0.4 0.4s0.18 0.4 0.4 0.4c0.22 0 0.4-0.18 0.4-0.4s-0.18-0.4-0.4-0.4zM11.2 20.4c-0.22 0-0.4 0.18-0.4 0.4s0.18 0.4 0.4 0.4c0.22 0 0.4-0.18 0.4-0.4s-0.18-0.4-0.4-0.4zM12.8 20.4c-0.22 0-0.4 0.18-0.4 0.4s0.18 0.4 0.4 0.4c0.22 0 0.4-0.18 0.4-0.4s-0.18-0.4-0.4-0.4zM14.4 20.4c-0.22 0-0.4 0.18-0.4 0.4s0.18 0.4 0.4 0.4c0.22 0 0.4-0.18 0.4-0.4s-0.18-0.4-0.4-0.4zM16 20.4c-0.22 0-0.4 0.18-0.4 0.4s0.18 0.4 0.4 0.4c0.22 0 0.4-0.18 0.4-0.4s-0.18-0.4-0.4-0.4zM17.6 20.4c-0.22 0-0.4 0.18-0.4 0.4s0.18 0.4 0.4 0.4c0.22 0 0.4-0.18 0.4-0.4s-0.18-0.4-0.4-0.4zM19.2 20.4c-0.22 0-0.4 0.18-0.4 0.4s0.18 0.4 0.4 0.4c0.22 0 0.4-0.18 0.4-0.4s-0.18-0.4-0.4-0.4zM20.8 20.4c-0.22 0-0.4 0.18-0.4 0.4s0.18 0.4 0.4 0.4c0.22 0 0.4-0.18 0.4-0.4s-0.18-0.4-0.4-0.4zM22.4 20.4c-0.22 0-0.4 0.18-0.4 0.4s0.18 0.4 0.4 0.4c0.22 0 0.4-0.18 0.4-0.4s-0.18-0.4-0.4-0.4zM4 22c-0.22 0-0.4 0.18-0.4 0.4s0.18 0.4 0.4 0.4c0.22 0 0.4-0.18 0.4-0.4s-0.18-0.4-0.4-0.4zM9.6 22c-0.22 0-0.4 0.18-0.4 0.4s0.18 0.4 0.4 0.4c0.22 0 0.4-0.18 0.4-0.4s-0.18-0.4-0.4-0.4zM22.4 22c-0.22 0-0.4 0.18-0.4 0.4s0.18 0.4 0.4 0.4c0.22 0 0.4-0.18 0.4-0.4s-0.18-0.4-0.4-0.4zM28 22c-0.22 0-0.4 0.18-0.4 0.4s0.18 0.4 0.4 0.4c0.22 0 0.4-0.18 0.4-0.4s-0.18-0.4-0.4-0.4zM11.6 22.8h2v0.4c0 0.227-0.173 0.4-0.4 0.4h-1.2c-0.227 0-0.4-0.173-0.4-0.4zM18.4 22.8h2v0.4c0 0.227-0.173 0.4-0.4 0.4h-1.2c-0.227 0-0.4-0.173-0.4-0.4zM4.366 23.4c-0.067 0.002-0.133 0.019-0.191 0.053-0.191 0.111-0.256 0.355-0.145 0.547 0.109 0.191 0.355 0.256 0.545 0.145 0.092-0.052 0.159-0.139 0.186-0.242 0.028-0.103 0.014-0.212-0.041-0.303-0.072-0.128-0.208-0.205-0.355-0.2zM22.764 23.4c-0.066 0.002-0.131 0.019-0.189 0.053-0.192 0.111-0.258 0.355-0.147 0.547 0.111 0.191 0.355 0.256 0.547 0.145 0.091-0.052 0.158-0.139 0.186-0.242s0.014-0.212-0.041-0.303c-0.072-0.128-0.209-0.205-0.356-0.2zM9.206 23.4c-0.137 0.008-0.261 0.083-0.33 0.2-0.109 0.192-0.044 0.436 0.148 0.547 0.191 0.111 0.434 0.045 0.545-0.147 0.053-0.091 0.067-0.2 0.041-0.303-0.028-0.103-0.095-0.191-0.186-0.242-0.067-0.039-0.144-0.058-0.219-0.055zM27.606 23.402c-0.136 0.006-0.259 0.081-0.328 0.198-0.111 0.192-0.045 0.436 0.147 0.547 0.091 0.053 0.2 0.067 0.303 0.041 0.103-0.028 0.191-0.095 0.242-0.188 0.111-0.191 0.045-0.434-0.145-0.545-0.067-0.039-0.144-0.056-0.219-0.053zM8.191 24.425c-0.067 0.002-0.133 0.019-0.191 0.053-0.191 0.111-0.258 0.355-0.147 0.547 0.053 0.091 0.141 0.158 0.244 0.186 0.102 0.027 0.211 0.012 0.303-0.041 0.191-0.111 0.256-0.355 0.145-0.545-0.072-0.128-0.208-0.205-0.355-0.2zM26.589 24.425c-0.066 0.002-0.131 0.019-0.189 0.053-0.192 0.111-0.258 0.355-0.147 0.547 0.111 0.191 0.355 0.256 0.547 0.145 0.191-0.111 0.256-0.355 0.145-0.545-0.073-0.128-0.209-0.205-0.356-0.2zM5.381 24.425c-0.136 0.008-0.259 0.083-0.328 0.2-0.053 0.092-0.067 0.202-0.041 0.303 0.028 0.103 0.095 0.191 0.188 0.244 0.091 0.053 0.2 0.067 0.303 0.041 0.103-0.028 0.191-0.095 0.242-0.188 0.111-0.191 0.045-0.436-0.145-0.545-0.067-0.039-0.144-0.058-0.219-0.055zM23.781 24.425c-0.136 0.008-0.259 0.083-0.328 0.2-0.053 0.092-0.067 0.202-0.041 0.303 0.028 0.103 0.095 0.191 0.188 0.244 0.091 0.053 0.2 0.067 0.303 0.041 0.103-0.028 0.191-0.095 0.242-0.188 0.111-0.191 0.045-0.436-0.145-0.545-0.067-0.039-0.144-0.058-0.219-0.055zM6.8 24.8c-0.22 0-0.4 0.18-0.4 0.4s0.18 0.4 0.4 0.4c0.22 0 0.4-0.18 0.4-0.4s-0.18-0.4-0.4-0.4zM25.2 24.8c-0.22 0-0.4 0.18-0.4 0.4s0.18 0.4 0.4 0.4c0.22 0 0.4-0.18 0.4-0.4s-0.18-0.4-0.4-0.4z"></path>
</svg>
