<!-- Generated by IcoMoon.io -->
<svg version="1.1" xmlns="http://www.w3.org/2000/svg" width="32" height="32" viewBox="0 0 32 32">
<title>gear</title>
<path d="M14.53 2.4l-0.909 2.27c-1.433 0.3-2.766 0.861-3.952 1.636l-2.245-0.963-2.080 2.080 0.963 2.245c-0.777 1.186-1.336 2.519-1.636 3.952l-2.27 0.909v2.941l2.27 0.909c0.3 1.433 0.861 2.766 1.636 3.952l-0.963 2.245 2.080 2.080 2.245-0.962c1.186 0.777 2.519 1.336 3.952 1.636l0.909 2.27h2.941l0.909-2.27c1.433-0.3 2.766-0.861 3.952-1.636l2.245 0.962 2.080-2.080-0.962-2.245c0.777-1.186 1.336-2.519 1.636-3.952l2.27-0.909v-2.941l-2.27-0.909c-0.3-1.433-0.861-2.766-1.636-3.952l0.962-2.245-2.080-2.080-2.245 0.963c-1.186-0.777-2.519-1.336-3.952-1.636l-0.909-2.27zM15.070 3.2h1.859l0.858 2.148 0.217 0.039c1.491 0.281 2.875 0.866 4.083 1.692l0.181 0.122 2.125-0.909 1.314 1.314-0.911 2.125 0.123 0.181c0.827 1.208 1.411 2.591 1.691 4.083l0.041 0.217 2.148 0.858v1.859l-2.148 0.858-0.039 0.217c-0.281 1.491-0.866 2.875-1.692 4.083l-0.122 0.181 0.909 2.125-1.314 1.314-2.125-0.911-0.181 0.123c-1.208 0.827-2.591 1.411-4.083 1.691l-0.217 0.041-0.858 2.148h-1.859l-0.858-2.148-0.217-0.039c-1.491-0.281-2.875-0.866-4.083-1.692l-0.181-0.122-2.125 0.909-1.314-1.314 0.911-2.125-0.123-0.181c-0.827-1.208-1.411-2.591-1.691-4.083l-0.041-0.217-2.148-0.858v-1.859l2.148-0.858 0.039-0.217c0.281-1.491 0.866-2.875 1.692-4.083l0.122-0.181-0.909-2.125 1.314-1.314 2.125 0.911 0.181-0.123c1.208-0.827 2.591-1.411 4.083-1.691l0.217-0.041zM16 8.4c-0.22 0-0.4 0.18-0.4 0.4s0.18 0.4 0.4 0.4c0.22 0 0.4-0.18 0.4-0.4s-0.18-0.4-0.4-0.4zM14.139 8.645c-0.009 0-0.019 0-0.027 0-0.028 0.003-0.053 0.006-0.080 0.014-0.214 0.058-0.341 0.277-0.283 0.491 0.058 0.213 0.277 0.339 0.489 0.281 0.214-0.056 0.341-0.275 0.284-0.489-0.047-0.173-0.203-0.295-0.384-0.297zM17.861 8.645c-0.18 0.002-0.337 0.123-0.384 0.297-0.056 0.214 0.070 0.433 0.284 0.489 0.212 0.058 0.431-0.069 0.489-0.281 0.058-0.214-0.069-0.433-0.283-0.491-0.034-0.009-0.070-0.014-0.106-0.014zM12.391 9.364c-0.067 0.002-0.133 0.020-0.191 0.055-0.092 0.052-0.159 0.139-0.188 0.242-0.027 0.103-0.012 0.213 0.041 0.303 0.053 0.092 0.141 0.159 0.244 0.188 0.102 0.027 0.211 0.012 0.303-0.041 0.191-0.111 0.256-0.355 0.145-0.547-0.072-0.127-0.208-0.203-0.355-0.2zM19.581 9.366c-0.136 0.006-0.259 0.081-0.328 0.198-0.053 0.092-0.067 0.202-0.041 0.305 0.028 0.103 0.095 0.191 0.188 0.244 0.191 0.109 0.436 0.044 0.545-0.148 0.111-0.191 0.045-0.434-0.145-0.545-0.067-0.039-0.142-0.056-0.219-0.053zM10.914 10.508c-0.108 0-0.213 0.042-0.289 0.117-0.155 0.156-0.155 0.411 0 0.567 0.156 0.155 0.411 0.155 0.567 0 0.155-0.156 0.155-0.411 0-0.567-0.075-0.073-0.173-0.116-0.278-0.117zM21.097 10.508c-0.108-0.002-0.212 0.041-0.289 0.117-0.156 0.156-0.156 0.411 0 0.567 0.156 0.155 0.409 0.155 0.566 0 0.156-0.156 0.156-0.411 0-0.567-0.073-0.073-0.172-0.114-0.277-0.117zM22.225 12c-0.067 0.002-0.133 0.020-0.191 0.053-0.092 0.053-0.159 0.141-0.186 0.244-0.028 0.102-0.014 0.211 0.039 0.303 0.111 0.191 0.356 0.256 0.547 0.145 0.191-0.109 0.258-0.355 0.147-0.545-0.073-0.127-0.209-0.203-0.356-0.2zM9.745 12c-0.136 0.008-0.259 0.083-0.327 0.2-0.055 0.092-0.069 0.202-0.041 0.303 0.028 0.103 0.095 0.191 0.186 0.244 0.192 0.111 0.436 0.044 0.547-0.147s0.045-0.436-0.147-0.545c-0.066-0.039-0.142-0.058-0.219-0.055zM16 12.8c-1.762 0-3.2 1.438-3.2 3.2s1.438 3.2 3.2 3.2c1.762 0 3.2-1.438 3.2-3.2s-1.438-3.2-3.2-3.2zM16 13.6c1.33 0 2.4 1.070 2.4 2.4s-1.070 2.4-2.4 2.4c-1.33 0-2.4-1.070-2.4-2.4s1.070-2.4 2.4-2.4zM9.042 13.738c-0.181 0.002-0.338 0.122-0.384 0.295-0.056 0.214 0.070 0.433 0.284 0.491 0.213 0.058 0.431-0.069 0.489-0.283s-0.069-0.433-0.283-0.491c-0.034-0.009-0.070-0.014-0.106-0.012zM22.958 13.738c-0.009-0.002-0.019 0-0.028 0-0.027 0.002-0.053 0.006-0.080 0.012-0.212 0.058-0.339 0.277-0.281 0.491 0.056 0.214 0.275 0.341 0.489 0.283s0.341-0.277 0.283-0.491c-0.047-0.173-0.203-0.294-0.383-0.295zM8.8 15.6c-0.22 0-0.4 0.18-0.4 0.4s0.18 0.4 0.4 0.4c0.22 0 0.4-0.18 0.4-0.4s-0.18-0.4-0.4-0.4zM23.2 15.6c-0.22 0-0.4 0.18-0.4 0.4s0.18 0.4 0.4 0.4c0.22 0 0.4-0.18 0.4-0.4s-0.18-0.4-0.4-0.4zM9.061 17.464c-0.041-0.002-0.081 0.003-0.119 0.012-0.214 0.058-0.341 0.277-0.284 0.491 0.058 0.214 0.277 0.341 0.491 0.283s0.341-0.277 0.283-0.489c-0.045-0.17-0.195-0.291-0.37-0.297zM22.95 17.464c-0.18 0.002-0.336 0.123-0.381 0.297-0.028 0.103-0.014 0.212 0.039 0.303 0.053 0.092 0.141 0.159 0.244 0.186 0.214 0.058 0.433-0.069 0.491-0.281 0.056-0.214-0.070-0.433-0.284-0.491-0.034-0.009-0.070-0.014-0.108-0.014zM9.756 19.2c-0.067 0.002-0.133 0.019-0.192 0.053-0.191 0.111-0.256 0.355-0.145 0.547 0.052 0.091 0.139 0.158 0.242 0.186s0.213 0.014 0.303-0.041c0.092-0.052 0.159-0.139 0.188-0.242 0.027-0.103 0.012-0.212-0.041-0.303-0.073-0.128-0.209-0.205-0.355-0.2zM22.217 19.202c-0.137 0.006-0.261 0.081-0.33 0.198-0.053 0.092-0.067 0.202-0.039 0.305s0.095 0.191 0.188 0.244c0.191 0.109 0.434 0.044 0.545-0.148 0.111-0.191 0.045-0.434-0.145-0.545-0.067-0.039-0.144-0.056-0.219-0.053zM10.914 20.692c-0.108-0.002-0.213 0.041-0.289 0.116-0.155 0.156-0.155 0.411 0 0.567 0.156 0.155 0.411 0.155 0.567 0 0.155-0.156 0.155-0.411 0-0.567-0.075-0.073-0.173-0.116-0.278-0.116zM21.097 20.692c-0.108-0.003-0.212 0.039-0.289 0.116-0.156 0.156-0.156 0.411 0 0.567 0.156 0.155 0.409 0.155 0.566 0 0.156-0.156 0.156-0.411 0-0.567-0.073-0.073-0.172-0.114-0.277-0.116zM19.589 21.836c-0.066 0-0.131 0.019-0.189 0.052-0.192 0.111-0.258 0.356-0.147 0.547s0.355 0.258 0.547 0.147c0.091-0.053 0.158-0.141 0.186-0.244 0.028-0.102 0.014-0.211-0.041-0.303-0.072-0.127-0.209-0.203-0.356-0.198zM12.381 21.836c-0.137 0.006-0.261 0.081-0.328 0.2-0.111 0.191-0.045 0.436 0.147 0.545 0.091 0.055 0.2 0.069 0.303 0.041 0.103-0.027 0.191-0.094 0.242-0.186 0.055-0.092 0.069-0.202 0.041-0.303-0.028-0.103-0.095-0.191-0.186-0.244-0.067-0.039-0.144-0.056-0.219-0.053zM14.133 22.556c-0.18 0.002-0.336 0.122-0.383 0.295-0.058 0.214 0.069 0.433 0.283 0.491s0.433-0.069 0.491-0.283c0.027-0.103 0.012-0.212-0.041-0.305-0.053-0.091-0.141-0.158-0.244-0.186-0.034-0.009-0.070-0.014-0.106-0.012zM17.88 22.556c-0.041-0.002-0.081 0.002-0.119 0.012-0.214 0.058-0.341 0.277-0.284 0.489 0.058 0.214 0.277 0.341 0.491 0.284 0.214-0.058 0.341-0.277 0.283-0.491-0.045-0.169-0.195-0.289-0.37-0.295zM16 22.8c-0.22 0-0.4 0.18-0.4 0.4s0.18 0.4 0.4 0.4c0.22 0 0.4-0.18 0.4-0.4s-0.18-0.4-0.4-0.4z"></path>
</svg>
