<!-- Generated by IcoMoon.io -->
<svg version="1.1" xmlns="http://www.w3.org/2000/svg" width="32" height="32" viewBox="0 0 32 32">
<title>github</title>
<path d="M16 2.8c-7.285 0-13.2 5.915-13.2 13.2 0 0.015 0.001 0.031 0.001 0.046-0.012 0.036-0.019 0.078-0.019 0.121 0 0.051 0.009 0.099 0.027 0.144l-0.001-0.003c0.165 7.143 6.010 12.891 13.192 12.891s13.027-5.748 13.192-12.891c0.016-0.042 0.025-0.090 0.025-0.14 0-0.044-0.007-0.086-0.020-0.125l0.001 0.003c0-0.016 0.002-0.031 0.002-0.047 0-7.285-5.915-13.2-13.2-13.2zM16 3.6c6.76 0 12.245 5.398 12.393 12.123-0.4-0.041-0.878-0.081-1.516-0.104-0.791-0.028-1.769-0.026-2.905 0.033 0.008-0.128 0.020-0.255 0.020-0.386 0.059-1.096-0.306-2.125-0.921-3.032 0.296-1.037 0.544-2.708-0.179-4.026l-0.114-0.208h-0.237c-1.613 0-2.731 0.891-3.324 1.41-0.942-0.38-2.014-0.61-3.199-0.61-1.188 0-2.268 0.231-3.252 0.609-0.574-0.511-1.644-1.409-3.257-1.409h-0.228l-0.116 0.197c-0.782 1.324-0.48 2.978-0.186 4.040-0.619 0.918-0.98 1.977-0.98 3.012 0 0.136 0.011 0.269 0.020 0.402-1.132-0.058-2.107-0.061-2.895-0.033-0.638 0.023-1.116 0.063-1.516 0.104 0.148-6.724 5.633-12.123 12.393-12.123zM9.77 8.838c1.263 0.103 2.156 0.866 2.65 1.309l0.188 0.168 0.233-0.097c0.946-0.394 2.002-0.619 3.178-0.619s2.231 0.227 3.11 0.616l0.237 0.105 0.192-0.173c0.48-0.431 1.445-1.201 2.716-1.307 0.421 1.029 0.254 2.528 0.004 3.339l-0.059 0.191 0.118 0.162c0.599 0.825 0.912 1.734 0.859 2.695l-0.001 0.011v0.011c0 1.523-0.554 2.77-1.716 3.678s-2.97 1.473-5.481 1.473c-2.512 0-4.319-0.565-5.481-1.473s-1.716-2.155-1.716-3.678c0-0.911 0.323-1.899 0.917-2.717l0.115-0.159-0.055-0.188c-0.26-0.893-0.46-2.331-0.006-3.347zM15.128 10.844c-0.22 0.020-0.38 0.216-0.356 0.441 0.020 0.204 0.192 0.355 0.397 0.355h0.040c0.22-0.024 0.38-0.22 0.36-0.44-0.024-0.22-0.22-0.38-0.441-0.356zM16.86 10.844c-0.22-0.024-0.416 0.136-0.436 0.356-0.024 0.22 0.135 0.416 0.355 0.44 0.016 0 0.029 0 0.041 0 0.204 0 0.376-0.152 0.4-0.36 0.020-0.22-0.14-0.416-0.36-0.436zM18.402 11.177c-0.155 0.013-0.296 0.116-0.347 0.275-0.068 0.212 0.044 0.436 0.256 0.504 0.040 0.016 0.084 0.019 0.124 0.020 0.168 0 0.323-0.104 0.38-0.272 0.072-0.212-0.044-0.436-0.256-0.508-0.052-0.017-0.105-0.023-0.157-0.019zM13.585 11.182c-0.052-0.005-0.105 0.001-0.157 0.018-0.212 0.072-0.324 0.296-0.256 0.508 0.056 0.168 0.212 0.272 0.38 0.273 0.040 0 0.083-0.004 0.123-0.020 0.212-0.068 0.324-0.296 0.256-0.504-0.051-0.156-0.192-0.261-0.347-0.274zM21.031 13.041c-0.051 0.010-0.101 0.029-0.147 0.059-0.184 0.124-0.236 0.372-0.113 0.556 0.076 0.116 0.204 0.18 0.332 0.18 0.076 0 0.155-0.024 0.223-0.068 0.18-0.124 0.233-0.372 0.109-0.556-0.090-0.138-0.252-0.2-0.405-0.171zM10.961 13.051c-0.153-0.029-0.315 0.035-0.405 0.173-0.124 0.184-0.072 0.432 0.112 0.556 0.068 0.044 0.144 0.064 0.22 0.064 0.128 0 0.256-0.064 0.336-0.18 0.12-0.184 0.068-0.432-0.116-0.552-0.046-0.031-0.096-0.051-0.147-0.061zM21.62 14.6c-0.033-0.002-0.066 0.001-0.099 0.008-0.024 0.004-0.049 0.012-0.073 0.024-0.024 0.008-0.047 0.020-0.072 0.036-0.020 0.016-0.040 0.032-0.060 0.048-0.036 0.040-0.064 0.084-0.084 0.132s-0.032 0.1-0.032 0.152c0 0.052 0.012 0.104 0.032 0.152s0.048 0.092 0.084 0.132c0.040 0.036 0.084 0.064 0.132 0.084 0.048 0.024 0.1 0.032 0.152 0.032s0.104-0.008 0.152-0.032c0.048-0.020 0.092-0.048 0.132-0.084 0.036-0.040 0.064-0.084 0.084-0.132s0.032-0.1 0.032-0.152c0-0.104-0.044-0.209-0.116-0.284-0.069-0.069-0.165-0.111-0.265-0.116zM10.42 14.602c-0.033-0.002-0.066 0-0.099 0.006-0.024 0.004-0.049 0.012-0.073 0.024-0.024 0.008-0.047 0.020-0.072 0.036-0.020 0.012-0.040 0.032-0.060 0.048-0.036 0.040-0.064 0.080-0.084 0.132-0.024 0.048-0.032 0.1-0.032 0.152 0 0.108 0.040 0.208 0.116 0.284 0.040 0.036 0.084 0.064 0.132 0.084s0.1 0.032 0.152 0.032c0.108 0 0.208-0.040 0.284-0.116s0.116-0.176 0.116-0.284c0-0.052-0.012-0.104-0.032-0.152-0.020-0.052-0.048-0.092-0.084-0.132-0.069-0.069-0.165-0.109-0.265-0.114zM21.185 16.163c-0.153-0.029-0.316 0.035-0.409 0.173-0.12 0.184-0.072 0.432 0.116 0.552 0.068 0.048 0.144 0.068 0.22 0.068 0.128 0 0.256-0.064 0.332-0.18 0.12-0.184 0.072-0.432-0.112-0.552-0.046-0.031-0.096-0.051-0.147-0.061zM10.819 16.171c-0.051 0.010-0.101 0.030-0.147 0.061-0.184 0.124-0.232 0.372-0.108 0.556 0.076 0.116 0.204 0.176 0.332 0.176 0.076 0 0.152-0.020 0.22-0.068 0.184-0.12 0.236-0.368 0.112-0.552-0.093-0.138-0.256-0.202-0.409-0.173zM6.609 16.403c0.461 0.006 0.97 0.024 1.509 0.054 0.052 0.258 0.124 0.508 0.21 0.751-2.325 0.038-3.872 0.336-4.606 0.515-0.055-0.394-0.092-0.793-0.109-1.198 0.647-0.069 1.627-0.139 2.996-0.122zM25.391 16.403c1.369-0.018 2.349 0.053 2.996 0.122-0.017 0.404-0.054 0.804-0.109 1.198-0.735-0.179-2.285-0.477-4.615-0.515 0.086-0.243 0.157-0.493 0.209-0.75 0.543-0.030 1.054-0.049 1.519-0.055zM19.859 17.311c-0.051 0.010-0.101 0.030-0.147 0.061-0.184 0.12-0.233 0.372-0.109 0.552 0.076 0.116 0.2 0.18 0.333 0.18 0.076 0 0.152-0.024 0.22-0.068 0.184-0.124 0.233-0.372 0.113-0.556-0.093-0.138-0.256-0.2-0.409-0.17zM12.149 17.316c-0.153-0.029-0.316 0.033-0.409 0.171-0.12 0.184-0.072 0.432 0.113 0.556 0.068 0.044 0.144 0.064 0.22 0.064 0.132 0 0.256-0.060 0.336-0.176 0.12-0.184 0.072-0.432-0.112-0.556-0.046-0.030-0.096-0.050-0.147-0.059zM8.69 18.002c0.328 0.587 0.768 1.115 1.333 1.556 0.914 0.714 2.13 1.208 3.631 1.456-0.198 0.164-0.382 0.351-0.547 0.555-0.102 0.085-0.441 0.236-0.868 0.314-0.458 0.083-0.998 0.116-1.439 0.116-0.748 0-1.278-0.481-1.773-1.073-0.258-0.343-0.579-0.64-0.89-0.869-0.317-0.233-0.59-0.402-0.905-0.453l-0.032-0.005h-0.033c-0.238 0-0.451 0.024-0.637 0.232-0.093 0.104-0.156 0.295-0.115 0.457s0.146 0.263 0.245 0.327h0.001c0.854 0.557 1.003 1.69 1.475 2.554 0.428 0.834 1.344 1.23 2.311 1.23h1.559c-0.001 0.038-0.005 0.077-0.005 0.114v3.224c-4.115-1.4-7.256-4.899-8.145-9.226 0.691-0.172 2.322-0.501 4.835-0.511zM23.302 18.002c2.519 0.009 4.152 0.339 4.844 0.511-0.889 4.327-4.030 7.825-8.145 9.226v-3.224c0-0.87-0.305-1.85-0.83-2.654-0.21-0.322-0.463-0.618-0.75-0.859 1.464-0.253 2.651-0.741 3.549-1.443 0.565-0.441 1.004-0.969 1.332-1.556zM8.144 21.172c0.084 0.089 0.187 0.157 0.256 0.25l0.006 0.009 0.008 0.009c0.541 0.647 1.292 1.36 2.386 1.36 0.48 0 1.054-0.033 1.582-0.129 0.020-0.004 0.038-0.008 0.058-0.012-0.141 0.307-0.251 0.624-0.326 0.941h-1.667c-0.759 0-1.336-0.28-1.6-0.796l-0.006-0.011c-0.193-0.351-0.365-0.99-0.697-1.621zM15.22 21.2h1.68c0.594 0 1.165 0.429 1.6 1.097s0.7 1.544 0.7 2.217v3.468c-1.021 0.272-2.093 0.418-3.2 0.418s-2.179-0.146-3.2-0.418v-3.468c0-0.663 0.29-1.538 0.754-2.208 0.046-0.066 0.094-0.128 0.143-0.19 0.011-0.012 0.024-0.021 0.034-0.034l-0.005-0.005c0.437-0.539 0.971-0.878 1.495-0.878zM14.4 24c-0.221 0-0.4 0.179-0.4 0.4v0c0 0.221 0.179 0.4 0.4 0.4v0c0.221 0 0.4-0.179 0.4-0.4v0c0-0.221-0.179-0.4-0.4-0.4v0zM16 24c-0.221 0-0.4 0.179-0.4 0.4v0c0 0.221 0.179 0.4 0.4 0.4v0c0.221 0 0.4-0.179 0.4-0.4v0c0-0.221-0.179-0.4-0.4-0.4v0zM17.6 24c-0.221 0-0.4 0.179-0.4 0.4v0c0 0.221 0.179 0.4 0.4 0.4v0c0.221 0 0.4-0.179 0.4-0.4v0c0-0.221-0.179-0.4-0.4-0.4v0zM14.4 25.6c-0.221 0-0.4 0.179-0.4 0.4v0c0 0.221 0.179 0.4 0.4 0.4v0c0.221 0 0.4-0.179 0.4-0.4v0c0-0.221-0.179-0.4-0.4-0.4v0zM16 25.6c-0.221 0-0.4 0.179-0.4 0.4v0c0 0.221 0.179 0.4 0.4 0.4v0c0.221 0 0.4-0.179 0.4-0.4v0c0-0.221-0.179-0.4-0.4-0.4v0zM17.6 25.6c-0.221 0-0.4 0.179-0.4 0.4v0c0 0.221 0.179 0.4 0.4 0.4v0c0.221 0 0.4-0.179 0.4-0.4v0c0-0.221-0.179-0.4-0.4-0.4v0zM14.4 27.2c-0.221 0-0.4 0.179-0.4 0.4v0c0 0.221 0.179 0.4 0.4 0.4v0c0.221 0 0.4-0.179 0.4-0.4v0c0-0.221-0.179-0.4-0.4-0.4v0zM16 27.2c-0.221 0-0.4 0.179-0.4 0.4v0c0 0.221 0.179 0.4 0.4 0.4v0c0.221 0 0.4-0.179 0.4-0.4v0c0-0.221-0.179-0.4-0.4-0.4v0zM17.6 27.2c-0.221 0-0.4 0.179-0.4 0.4v0c0 0.221 0.179 0.4 0.4 0.4v0c0.221 0 0.4-0.179 0.4-0.4v0c0-0.221-0.179-0.4-0.4-0.4v0z"></path>
</svg>
