<!-- Generated by IcoMoon.io -->
<svg version="1.1" xmlns="http://www.w3.org/2000/svg" width="32" height="32" viewBox="0 0 32 32">
<title>goal</title>
<path d="M16 2.8c-7.278 0-13.2 5.922-13.2 13.2s5.922 13.2 13.2 13.2c7.278 0 13.2-5.922 13.2-13.2 0-2.722-0.828-5.252-2.244-7.356l-0.58 0.58c1.278 1.948 2.023 4.277 2.023 6.777 0 6.837-5.563 12.4-12.4 12.4s-12.4-5.563-12.4-12.4c0-6.838 5.563-12.4 12.4-12.4 2.395 0 4.633 0.688 6.531 1.869l0.578-0.578c-2.053-1.32-4.492-2.091-7.109-2.091zM26 3.6l-2.8 2.8v1.834l-2.948 2.947c-0.003 0.003-0.006 0.006-0.009 0.011-0.002 0.002-0.005 0.003-0.006 0.006l-4.030 4.028c-0.067-0.017-0.136-0.027-0.206-0.027-0.442 0-0.8 0.358-0.8 0.8s0.358 0.8 0.8 0.8c0.442 0 0.8-0.358 0.8-0.8 0-0.070-0.009-0.139-0.028-0.206l6.994-6.994h1.834l2.8-2.8h-2.4zM16 6c-0.22 0-0.4 0.18-0.4 0.4s0.18 0.4 0.4 0.4c0.22 0 0.4-0.18 0.4-0.4s-0.18-0.4-0.4-0.4zM14.050 6.192c-0.217 0.044-0.358 0.253-0.314 0.47 0.042 0.217 0.253 0.358 0.47 0.314 0.216-0.044 0.356-0.253 0.313-0.47-0.042-0.217-0.253-0.356-0.469-0.314zM17.792 6.192c-0.153 0.031-0.28 0.152-0.311 0.314-0.044 0.217 0.097 0.427 0.313 0.47 0.217 0.044 0.428-0.097 0.47-0.314 0.044-0.216-0.097-0.427-0.314-0.47-0.053-0.011-0.106-0.011-0.158 0zM12.33 6.731c-0.053-0.002-0.105 0.008-0.156 0.030-0.205 0.084-0.302 0.319-0.217 0.523 0.086 0.205 0.319 0.302 0.523 0.216 0.205-0.084 0.302-0.319 0.216-0.523-0.063-0.152-0.211-0.245-0.366-0.245zM19.67 6.731c-0.155 0-0.303 0.094-0.366 0.245-0.086 0.205 0.011 0.439 0.216 0.523 0.205 0.086 0.438-0.011 0.523-0.216 0.084-0.205-0.012-0.439-0.217-0.523-0.052-0.022-0.103-0.031-0.156-0.030zM10.592 7.625c-0.052 0.009-0.102 0.030-0.148 0.061-0.183 0.122-0.233 0.37-0.109 0.553 0.123 0.184 0.37 0.234 0.555 0.111 0.184-0.122 0.233-0.37 0.111-0.555-0.092-0.138-0.256-0.2-0.408-0.17zM21.408 7.625c-0.152-0.030-0.316 0.033-0.408 0.17-0.122 0.184-0.073 0.433 0.111 0.555 0.184 0.123 0.431 0.073 0.555-0.111 0.123-0.183 0.073-0.431-0.109-0.553-0.047-0.031-0.097-0.052-0.148-0.061zM9.213 8.813c-0.103 0-0.205 0.039-0.283 0.117-0.158 0.156-0.158 0.409 0 0.564 0.156 0.158 0.409 0.158 0.564 0 0.158-0.156 0.158-0.409 0-0.564-0.077-0.078-0.18-0.117-0.281-0.117zM16 9.2c-0.22 0-0.4 0.18-0.4 0.4s0.18 0.4 0.4 0.4c0.22 0 0.4-0.18 0.4-0.4s-0.18-0.4-0.4-0.4zM14.347 9.419c-0.009-0.002-0.019 0-0.028 0-0.027 0.002-0.053 0.006-0.080 0.012-0.213 0.058-0.339 0.277-0.283 0.491 0.058 0.214 0.277 0.341 0.491 0.283s0.341-0.277 0.283-0.491c-0.047-0.173-0.203-0.294-0.383-0.295zM17.652 9.419c-0.178 0.002-0.334 0.123-0.381 0.295-0.058 0.214 0.069 0.433 0.283 0.491s0.433-0.069 0.491-0.283c0.056-0.214-0.070-0.433-0.283-0.491-0.036-0.008-0.072-0.012-0.109-0.012zM12.791 10.056c-0.067 0.003-0.133 0.020-0.191 0.055-0.191 0.111-0.258 0.355-0.147 0.545 0.053 0.092 0.141 0.159 0.244 0.188 0.102 0.028 0.211 0.014 0.303-0.039s0.159-0.141 0.186-0.244c0.028-0.103 0.014-0.213-0.041-0.305-0.072-0.127-0.208-0.203-0.355-0.2zM19.181 10.058c-0.136 0.008-0.259 0.083-0.328 0.2-0.111 0.191-0.044 0.436 0.147 0.547 0.191 0.109 0.436 0.044 0.545-0.147 0.111-0.191 0.045-0.436-0.145-0.545-0.067-0.039-0.142-0.058-0.219-0.055zM8.094 10.273c-0.153-0.030-0.317 0.033-0.408 0.17-0.123 0.184-0.075 0.433 0.109 0.556 0.184 0.122 0.433 0.073 0.555-0.111 0.123-0.184 0.073-0.431-0.111-0.555-0.045-0.031-0.095-0.052-0.145-0.061zM23.906 10.273c-0.050 0.009-0.1 0.030-0.145 0.061-0.184 0.123-0.234 0.37-0.111 0.555 0.122 0.184 0.37 0.233 0.555 0.111 0.184-0.123 0.233-0.372 0.109-0.556-0.091-0.137-0.255-0.2-0.408-0.17zM11.48 11.075c-0.108-0.002-0.213 0.041-0.287 0.117-0.156 0.155-0.156 0.409 0 0.564 0.155 0.156 0.409 0.156 0.564 0 0.156-0.155 0.156-0.409 0-0.564-0.073-0.075-0.172-0.117-0.277-0.117zM24.872 11.925c-0.052 0-0.105 0.009-0.156 0.031-0.205 0.084-0.302 0.319-0.216 0.523 0.084 0.203 0.319 0.3 0.523 0.216 0.203-0.084 0.3-0.319 0.216-0.522-0.064-0.153-0.211-0.247-0.367-0.248zM7.128 11.927c-0.156 0.002-0.303 0.094-0.367 0.247-0.084 0.205 0.013 0.438 0.216 0.522 0.205 0.086 0.439-0.011 0.523-0.216 0.086-0.205-0.011-0.438-0.216-0.523-0.052-0.020-0.105-0.030-0.156-0.030zM16 12.4c-0.22 0-0.4 0.18-0.4 0.4s0.18 0.4 0.4 0.4c0.22 0 0.4-0.18 0.4-0.4s-0.18-0.4-0.4-0.4zM21.533 12.4c-0.067 0.002-0.133 0.020-0.191 0.053-0.092 0.053-0.159 0.141-0.188 0.244-0.027 0.102-0.012 0.211 0.041 0.303s0.141 0.159 0.244 0.186c0.102 0.028 0.211 0.014 0.303-0.041 0.191-0.109 0.256-0.355 0.145-0.545-0.072-0.127-0.208-0.203-0.355-0.2zM10.438 12.4c-0.134 0.008-0.258 0.083-0.327 0.2-0.053 0.092-0.067 0.202-0.041 0.303 0.028 0.103 0.095 0.191 0.186 0.244 0.092 0.053 0.202 0.067 0.305 0.041 0.103-0.028 0.191-0.095 0.244-0.188 0.109-0.191 0.044-0.436-0.148-0.545-0.066-0.039-0.142-0.058-0.219-0.055zM14.391 12.83c-0.067 0-0.133 0.019-0.191 0.052-0.191 0.111-0.258 0.356-0.147 0.547 0.053 0.092 0.141 0.159 0.244 0.188 0.102 0.027 0.211 0.012 0.303-0.041s0.159-0.141 0.186-0.244c0.028-0.102 0.014-0.211-0.041-0.303-0.072-0.127-0.209-0.203-0.355-0.198zM6.503 13.736c-0.153 0.031-0.278 0.15-0.311 0.314-0.044 0.216 0.097 0.427 0.314 0.469 0.217 0.044 0.427-0.097 0.47-0.313 0.044-0.217-0.097-0.428-0.314-0.47-0.055-0.011-0.108-0.011-0.159 0zM25.337 13.736c-0.217 0.042-0.356 0.253-0.314 0.47 0.044 0.216 0.253 0.356 0.47 0.313 0.217-0.042 0.356-0.253 0.314-0.469-0.044-0.217-0.255-0.358-0.47-0.314zM22.186 13.944c-0.011 0-0.020 0-0.030 0-0.027 0.003-0.052 0.006-0.078 0.014-0.214 0.058-0.341 0.277-0.283 0.491 0.058 0.213 0.277 0.339 0.491 0.283 0.212-0.058 0.339-0.277 0.283-0.491-0.047-0.173-0.203-0.295-0.383-0.297zM9.814 13.944c-0.18 0.002-0.336 0.123-0.383 0.297-0.058 0.214 0.069 0.433 0.283 0.491 0.214 0.056 0.433-0.070 0.491-0.283 0.056-0.214-0.070-0.433-0.284-0.491-0.034-0.009-0.070-0.014-0.106-0.014zM13.209 14c-0.136 0.008-0.259 0.083-0.328 0.2-0.053 0.092-0.067 0.202-0.039 0.303 0.027 0.103 0.094 0.191 0.186 0.244s0.202 0.067 0.303 0.041c0.103-0.028 0.191-0.095 0.244-0.188 0.111-0.191 0.044-0.436-0.147-0.545-0.066-0.039-0.142-0.058-0.219-0.055zM6.4 15.6c-0.22 0-0.4 0.18-0.4 0.4s0.18 0.4 0.4 0.4c0.22 0 0.4-0.18 0.4-0.4s-0.18-0.4-0.4-0.4zM9.6 15.6c-0.22 0-0.4 0.18-0.4 0.4s0.18 0.4 0.4 0.4c0.22 0 0.4-0.18 0.4-0.4s-0.18-0.4-0.4-0.4zM12.8 15.6c-0.22 0-0.4 0.18-0.4 0.4s0.18 0.4 0.4 0.4c0.22 0 0.4-0.18 0.4-0.4s-0.18-0.4-0.4-0.4zM19.2 15.6c-0.22 0-0.4 0.18-0.4 0.4s0.18 0.4 0.4 0.4c0.22 0 0.4-0.18 0.4-0.4s-0.18-0.4-0.4-0.4zM22.4 15.6c-0.22 0-0.4 0.18-0.4 0.4s0.18 0.4 0.4 0.4c0.22 0 0.4-0.18 0.4-0.4s-0.18-0.4-0.4-0.4zM25.6 15.6c-0.22 0-0.4 0.18-0.4 0.4s0.18 0.4 0.4 0.4c0.22 0 0.4-0.18 0.4-0.4s-0.18-0.4-0.4-0.4zM13.219 17.2c-0.067 0.002-0.133 0.020-0.191 0.053-0.092 0.053-0.159 0.141-0.186 0.244-0.028 0.102-0.014 0.211 0.039 0.303 0.111 0.191 0.356 0.256 0.547 0.145 0.191-0.109 0.258-0.355 0.147-0.545-0.073-0.127-0.209-0.203-0.356-0.2zM18.752 17.202c-0.136 0.006-0.259 0.081-0.327 0.198-0.111 0.192-0.045 0.436 0.145 0.547 0.192 0.111 0.436 0.045 0.547-0.147 0.111-0.191 0.045-0.434-0.147-0.545-0.066-0.039-0.142-0.056-0.219-0.053zM9.82 17.256c-0.009 0-0.019 0-0.027 0-0.028 0.003-0.053 0.006-0.080 0.014-0.214 0.058-0.341 0.277-0.283 0.491 0.058 0.212 0.277 0.339 0.489 0.283 0.214-0.058 0.341-0.277 0.284-0.491-0.047-0.173-0.203-0.295-0.384-0.297zM22.178 17.256c-0.18 0.003-0.336 0.123-0.383 0.298-0.058 0.212 0.069 0.431 0.283 0.489s0.433-0.069 0.491-0.283c0.056-0.214-0.070-0.433-0.283-0.491-0.036-0.009-0.072-0.014-0.108-0.014zM6.506 17.481c-0.217 0.042-0.356 0.253-0.314 0.469 0.044 0.217 0.253 0.358 0.47 0.314 0.217-0.042 0.356-0.253 0.314-0.47-0.044-0.216-0.253-0.356-0.47-0.313zM25.334 17.481c-0.153 0.031-0.278 0.15-0.311 0.313-0.044 0.217 0.097 0.428 0.314 0.47 0.217 0.044 0.427-0.097 0.47-0.314 0.044-0.216-0.097-0.427-0.314-0.469-0.055-0.011-0.108-0.011-0.159 0zM17.589 18.37c-0.066 0.002-0.131 0.020-0.189 0.055-0.092 0.052-0.159 0.139-0.188 0.242-0.027 0.103-0.012 0.212 0.041 0.303 0.111 0.192 0.355 0.258 0.547 0.147 0.191-0.111 0.256-0.355 0.145-0.547-0.072-0.127-0.209-0.203-0.356-0.2zM14.381 18.372c-0.137 0.006-0.261 0.081-0.328 0.2-0.111 0.191-0.045 0.436 0.147 0.547 0.091 0.053 0.2 0.067 0.303 0.039 0.103-0.027 0.191-0.094 0.242-0.186 0.055-0.092 0.069-0.202 0.041-0.303-0.028-0.103-0.095-0.191-0.186-0.244-0.067-0.039-0.144-0.056-0.219-0.053zM10.448 18.8c-0.067 0.002-0.133 0.020-0.191 0.053-0.191 0.111-0.258 0.355-0.147 0.547 0.053 0.091 0.141 0.158 0.244 0.186 0.102 0.028 0.211 0.014 0.303-0.041 0.092-0.052 0.159-0.139 0.186-0.242 0.028-0.103 0.014-0.212-0.039-0.303-0.073-0.128-0.211-0.205-0.356-0.2zM16 18.8c-0.22 0-0.4 0.18-0.4 0.4s0.18 0.4 0.4 0.4c0.22 0 0.4-0.18 0.4-0.4s-0.18-0.4-0.4-0.4zM21.523 18.802c-0.136 0.006-0.259 0.081-0.328 0.198-0.111 0.192-0.044 0.436 0.147 0.547s0.436 0.045 0.545-0.147c0.111-0.191 0.045-0.434-0.145-0.545-0.067-0.039-0.142-0.056-0.219-0.053zM7.133 19.273c-0.052 0-0.105 0.009-0.156 0.031-0.203 0.084-0.3 0.317-0.216 0.522s0.319 0.302 0.523 0.217c0.205-0.086 0.302-0.319 0.216-0.523-0.063-0.153-0.211-0.245-0.367-0.247zM24.867 19.273c-0.156 0.002-0.305 0.094-0.367 0.247-0.086 0.205 0.011 0.438 0.216 0.523 0.205 0.084 0.439-0.012 0.523-0.217s-0.012-0.438-0.216-0.522c-0.052-0.022-0.105-0.031-0.156-0.031zM11.481 20.125c-0.109-0.002-0.214 0.041-0.289 0.119-0.156 0.155-0.156 0.409 0 0.564 0.155 0.156 0.409 0.156 0.564 0 0.156-0.155 0.156-0.409 0-0.564-0.073-0.075-0.172-0.116-0.275-0.119zM20.531 20.125c-0.108-0.002-0.212 0.041-0.289 0.119-0.156 0.155-0.156 0.409 0 0.564 0.156 0.156 0.409 0.156 0.566 0 0.156-0.155 0.156-0.409 0-0.564-0.073-0.075-0.172-0.116-0.277-0.119zM7.942 20.941c-0.052 0.009-0.102 0.030-0.147 0.059-0.184 0.123-0.233 0.372-0.109 0.556 0.122 0.183 0.37 0.233 0.553 0.109 0.184-0.123 0.234-0.37 0.111-0.555-0.091-0.137-0.255-0.2-0.408-0.17zM24.058 20.941c-0.153-0.030-0.317 0.033-0.408 0.17-0.123 0.184-0.073 0.431 0.111 0.555 0.183 0.123 0.431 0.073 0.553-0.109 0.123-0.184 0.075-0.433-0.109-0.556-0.045-0.030-0.095-0.050-0.147-0.059zM19.189 21.142c-0.066 0.002-0.131 0.020-0.189 0.053-0.092 0.053-0.159 0.141-0.188 0.244-0.027 0.102-0.012 0.211 0.041 0.303 0.111 0.191 0.355 0.256 0.547 0.145 0.191-0.109 0.256-0.355 0.145-0.545-0.072-0.127-0.209-0.203-0.356-0.2zM12.781 21.144c-0.137 0.006-0.261 0.081-0.328 0.2-0.111 0.191-0.045 0.434 0.147 0.545 0.091 0.053 0.2 0.067 0.303 0.041 0.103-0.028 0.191-0.095 0.242-0.186 0.055-0.092 0.069-0.202 0.041-0.305s-0.095-0.191-0.186-0.244c-0.067-0.038-0.144-0.056-0.219-0.052zM14.339 21.783c-0.178 0.002-0.336 0.122-0.383 0.297-0.056 0.212 0.070 0.431 0.283 0.489 0.214 0.058 0.433-0.069 0.491-0.283s-0.069-0.433-0.283-0.491c-0.034-0.008-0.070-0.012-0.108-0.012zM17.67 21.783c-0.039-0.002-0.080 0.003-0.119 0.012-0.212 0.058-0.339 0.277-0.283 0.491 0.058 0.214 0.277 0.341 0.491 0.283s0.341-0.277 0.283-0.489c-0.045-0.17-0.195-0.291-0.372-0.297zM16 22c-0.22 0-0.4 0.18-0.4 0.4s0.18 0.4 0.4 0.4c0.22 0 0.4-0.18 0.4-0.4s-0.18-0.4-0.4-0.4zM9.213 22.387c-0.103 0-0.205 0.041-0.283 0.119-0.158 0.156-0.158 0.409 0 0.564 0.156 0.158 0.409 0.158 0.564 0 0.158-0.156 0.158-0.409 0-0.564-0.077-0.078-0.18-0.119-0.281-0.119zM22.788 22.387c-0.102 0-0.203 0.041-0.281 0.119-0.158 0.156-0.158 0.409 0 0.564 0.156 0.158 0.409 0.158 0.564 0 0.158-0.156 0.158-0.409 0-0.564-0.077-0.078-0.18-0.119-0.283-0.119zM10.742 23.589c-0.153-0.030-0.316 0.033-0.408 0.172-0.123 0.183-0.073 0.431 0.109 0.553 0.184 0.123 0.433 0.075 0.556-0.109 0.122-0.184 0.073-0.433-0.111-0.555-0.045-0.031-0.095-0.052-0.147-0.061zM21.258 23.589c-0.052 0.009-0.102 0.030-0.147 0.061-0.184 0.122-0.233 0.37-0.111 0.555 0.123 0.184 0.372 0.233 0.556 0.109 0.183-0.122 0.233-0.37 0.109-0.553-0.092-0.139-0.255-0.202-0.408-0.172zM12.323 24.469c-0.156 0.002-0.303 0.094-0.367 0.247-0.084 0.205 0.012 0.439 0.217 0.523 0.203 0.084 0.438-0.012 0.522-0.216 0.084-0.205-0.012-0.439-0.216-0.523-0.052-0.022-0.105-0.031-0.156-0.031zM19.677 24.469c-0.052 0-0.105 0.009-0.156 0.031-0.203 0.084-0.3 0.319-0.216 0.523 0.084 0.203 0.319 0.3 0.522 0.216 0.205-0.084 0.302-0.319 0.217-0.523-0.064-0.153-0.211-0.245-0.367-0.247zM14.045 25.023c-0.152 0.031-0.278 0.152-0.309 0.314-0.044 0.217 0.097 0.427 0.314 0.47 0.216 0.044 0.427-0.097 0.469-0.314 0.044-0.217-0.097-0.427-0.313-0.47-0.055-0.011-0.109-0.011-0.161 0zM17.794 25.023c-0.216 0.044-0.356 0.253-0.313 0.47 0.042 0.217 0.253 0.356 0.469 0.314 0.217-0.042 0.358-0.253 0.314-0.47-0.042-0.217-0.253-0.358-0.47-0.314zM16 25.2c-0.22 0-0.4 0.18-0.4 0.4s0.18 0.4 0.4 0.4c0.22 0 0.4-0.18 0.4-0.4s-0.18-0.4-0.4-0.4z"></path>
</svg>
