<!-- Generated by IcoMoon.io -->
<svg version="1.1" xmlns="http://www.w3.org/2000/svg" width="32" height="32" viewBox="0 0 32 32">
<title>hamburger</title>
<path d="M12.8 4.8c-4.855 0-8.8 3.945-8.8 8.8v0.4h0.166c0.014 0.035 0.036 0.065 0.052 0.098-0.64 0.128-1.183 0.372-1.604 0.678-0.622 0.453-1.015 1.023-1.015 1.623 0 0.467 0.119 0.824 0.247 1.064 0.124 0.234 0.274 0.373 0.281 0.38 0.203 0.198 0.44 0.339 0.691 0.43-0.012 0.037-0.020 0.079-0.020 0.123 0 0.001 0 0.002 0 0.002v-0c0 0.655 0.324 1.235 0.815 1.6-0.491 0.365-0.815 0.945-0.815 1.6v0.4h0.081c0.134 0.631 0.553 1.156 1.119 1.418v0.982c0 1.542 1.258 2.8 2.8 2.8h18.4c1.542 0 2.8-1.258 2.8-2.8v-0.982c0.565-0.262 0.985-0.787 1.119-1.418h0.081v-0.4c0-0.655-0.324-1.235-0.815-1.6 0.491-0.365 0.815-0.945 0.815-1.6 0-0.001 0-0.003 0-0.005 0-0.043-0.007-0.085-0.020-0.124l0.001 0.003c0.251-0.092 0.487-0.233 0.69-0.43 0.008-0.007 0.158-0.145 0.282-0.38 0.128-0.24 0.246-0.597 0.246-1.064 0-0.6-0.384-1.16-0.95-1.613-0.435-0.348-0.998-0.624-1.644-0.734 0.008-0.018 0.021-0.034 0.028-0.053h0.166v-0.4c0-4.855-3.945-8.8-8.8-8.8h-6.4zM12.8 5.6h6.4c4.423 0 8 3.577 8 8 0 0.226-0.174 0.4-0.4 0.4h-21.6c-0.226 0-0.4-0.174-0.4-0.4 0-4.423 3.577-8 8-8zM12.678 7.2c-0.002-0-0.004-0-0.006-0-0.221 0-0.4 0.179-0.4 0.4s0.179 0.4 0.4 0.4c0.002 0 0.004 0 0.006-0h0.020c0.002 0 0.004 0 0.006 0 0.221 0 0.4-0.179 0.4-0.4s-0.179-0.4-0.4-0.4c-0.002 0-0.004 0-0.006 0h-0.020zM14.378 7.2l-0.32 0.161-0.063 0.352 0.245 0.262 0.138 0.025h0.042l0.32-0.161 0.063-0.352-0.245-0.262-0.139-0.025h-0.042zM16.097 7.2l-0.32 0.161-0.063 0.352 0.245 0.262 0.139 0.025h0.042l0.32-0.161 0.063-0.352-0.245-0.262-0.138-0.025h-0.042zM17.816 7.2l-0.32 0.161-0.063 0.352 0.245 0.262 0.139 0.025h0.042l0.32-0.161 0.063-0.352-0.245-0.262-0.138-0.025h-0.042zM19.547 7.207l-0.326 0.15-0.074 0.351 0.237 0.27 0.137 0.029 0.042 0.002 0.325-0.15 0.075-0.351-0.237-0.27-0.137-0.029-0.042-0.002zM21.349 7.562l-0.356 0.042-0.18 0.309 0.141 0.33 0.123 0.071 0.039 0.014 0.356-0.041 0.18-0.31-0.141-0.33-0.122-0.070-0.040-0.015zM22.598 8.388l-0.265 0.241 0.035 0.356 0.095 0.105 0.034 0.025 0.352 0.068 0.265-0.241-0.034-0.357-0.095-0.104-0.033-0.026-0.352-0.067zM23.882 9.627l-0.325 0.152-0.073 0.351 0.060 0.128 0.024 0.034 0.316 0.169 0.325-0.152 0.073-0.351-0.060-0.128-0.024-0.034-0.316-0.169zM24.591 11.175c-0.221 0.001-0.399 0.179-0.399 0.4 0 0.042 0.006 0.083 0.019 0.121l-0.001-0.003c-0.001-0.003 0.001 0.006 0.007 0.027 0.052 0.164 0.204 0.281 0.382 0.281 0.221 0 0.4-0.179 0.4-0.4 0-0.043-0.007-0.084-0.019-0.122l0.001 0.003c0.003 0.008 0.001 0.003-0.004-0.013-0.049-0.17-0.203-0.292-0.385-0.292-0 0-0 0-0.001 0h0zM27.038 14.768c0.046 0.020 0.1 0.032 0.157 0.032 0.002 0 0.003 0 0.005-0h-0c0.7 0 1.317 0.265 1.751 0.613s0.649 0.788 0.649 0.988c0 0.333-0.081 0.553-0.153 0.689s-0.111 0.164-0.111 0.164l-0.009 0.007-0.008 0.008c-0.45 0.445-1.163 0.445-1.613 0v0.001l-0.327-0.323c-0.755-0.747-1.982-0.747-2.738 0l-0.327 0.323v-0.001c-0.45 0.445-1.162 0.445-1.613 0v0.001l-0.327-0.323c-0.444-0.439-1.050-0.623-1.627-0.546-0.406 0.054-0.799 0.238-1.111 0.546h-0.001l-0.327 0.323v-0.001c-0.45 0.445-1.163 0.445-1.613 0v0.001l-0.327-0.323c-0.755-0.747-1.983-0.747-2.738 0l-0.327 0.323v-0.001c-0.45 0.445-1.163 0.445-1.613 0v0.001l-0.327-0.323c-0.755-0.747-1.983-0.747-2.738 0l-0.327 0.323v-0.001c-0.45 0.445-1.163 0.445-1.613 0v0.001l-0.327-0.323c-0.755-0.747-1.983-0.747-2.738 0l-0.327 0.323v-0.001c-0.45 0.445-1.163 0.445-1.613 0l-0.008-0.008-0.009-0.007c0 0-0.039-0.028-0.112-0.164s-0.153-0.356-0.153-0.689c0-0.2 0.207-0.629 0.685-0.977s1.195-0.623 2.115-0.623h21.6c0.084 0 0.162-0.013 0.238-0.032zM5.991 17.18c0.291 0 0.581 0.111 0.806 0.334l0.327 0.323c0.755 0.747 1.983 0.747 2.738 0l0.327-0.323c0.45-0.445 1.163-0.445 1.613 0l0.327 0.323c0.755 0.747 1.983 0.747 2.738 0l0.327-0.323c0.45-0.445 1.163-0.445 1.613 0l0.327 0.323c0.755 0.747 1.983 0.747 2.738 0l0.327-0.323c0.186-0.184 0.416-0.29 0.655-0.322 0.34-0.045 0.694 0.060 0.959 0.322l0.327 0.323c0.755 0.747 1.982 0.747 2.738 0l0.327-0.323c0.45-0.445 1.162-0.445 1.613 0l0.327 0.323c0.349 0.345 0.8 0.524 1.257 0.549-0 0.002-0 0.004-0 0.007s0 0.005 0 0.007v-0c0 0.667-0.533 1.2-1.2 1.2h-5.6c-0.002-0-0.004-0-0.006-0-0.221 0-0.4 0.179-0.4 0.4s0.179 0.4 0.4 0.4c0.002 0 0.004 0 0.006-0h1.418c-3.344 1.215-7.52 2.907-9.727 4.294-0.464-0.603-0.847-0.989-1.286-1.495-0.001-0.199-0.146-0.363-0.337-0.393l-0.002-0c-0.434-0.487-0.942-1.148-1.308-1.52h-0.001c-1.061-1.080-2.51-1.684-4.023-1.684h-1.534c-0.667 0-1.2-0.533-1.2-1.2-0-0.005-0.001-0.010-0.001-0.015l0 0.001c0.458-0.025 0.908-0.204 1.258-0.549l0.327-0.323c0.225-0.223 0.516-0.334 0.807-0.334zM10.42 19.6c-0.221 0-0.4 0.179-0.4 0.4s0.179 0.4 0.4 0.4h0.039c0.221 0 0.38-0.179 0.38-0.4s-0.198-0.4-0.42-0.4zM12.020 19.6c-0.221 0-0.4 0.179-0.4 0.4s0.179 0.4 0.4 0.4h0.039c0.221 0 0.38-0.179 0.38-0.4s-0.198-0.4-0.42-0.4zM13.62 19.6c-0.221 0-0.4 0.179-0.4 0.4s0.179 0.4 0.4 0.4h0.039c0.221 0 0.38-0.179 0.38-0.4s-0.198-0.4-0.42-0.4zM15.22 19.6c-0.221 0-0.4 0.179-0.4 0.4s0.179 0.4 0.4 0.4h0.039c0.221 0 0.38-0.179 0.38-0.4s-0.198-0.4-0.42-0.4zM16.78 19.6c-0.221 0-0.4 0.179-0.4 0.4s0.179 0.4 0.4 0.4h0.039c0.221 0 0.38-0.179 0.38-0.4s-0.198-0.4-0.42-0.4zM18.38 19.6c-0.221 0-0.4 0.179-0.4 0.4s0.179 0.4 0.4 0.4h0.039c0.221 0 0.38-0.179 0.38-0.4s-0.198-0.4-0.42-0.4zM20 19.6c-0.221 0-0.4 0.179-0.4 0.4s0.179 0.4 0.4 0.4h0.039c0.221 0 0.38-0.179 0.38-0.4s-0.198-0.4-0.42-0.4zM4.8 20.4h1.534c1.3 0 2.543 0.518 3.453 1.445 0.23 0.234 0.561 0.674 0.821 0.955h-5.809c-0.667 0-1.2-0.533-1.2-1.2s0.533-1.2 1.2-1.2zM25.268 20.4h1.932c0.667 0 1.2 0.533 1.2 1.2s-0.533 1.2-1.2 1.2h-8.219c2.24-0.945 4.606-1.838 6.287-2.4zM17.155 23.598c0.013 0.002 0.028 0.002 0.043 0.002 0.001 0 0.001 0 0.002 0h10v0.8c0 1.109-0.891 2-2 2h-18.4c-1.109 0-2-0.891-2-2v-0.8h6.497c0.537 0.613 1.012 1.079 1.583 1.84l0.227 0.303 0.315-0.21c0.832-0.554 2.189-1.237 3.733-1.935z"></path>
</svg>
