<!-- Generated by IcoMoon.io -->
<svg version="1.1" xmlns="http://www.w3.org/2000/svg" width="32" height="32" viewBox="0 0 32 32">
<title>idea</title>
<path d="M16 2.8c-5.077 0-9.2 4.123-9.2 9.2 0 2.914 1.278 4.741 2.5 6.116 0.613 0.688 1.208 1.273 1.631 1.833 0.423 0.558 0.669 1.066 0.669 1.652v4c0 1.1 0.9 2 2 2h0.441c0.188 0.909 0.997 1.6 1.959 1.6s1.772-0.691 1.959-1.6h0.441c1.1 0 2-0.9 2-2v-4c0-0.586 0.245-1.094 0.669-1.652 0.423-0.559 1.019-1.145 1.631-1.833 1.222-1.375 2.5-3.202 2.5-6.116 0-5.077-4.123-9.2-9.2-9.2zM16 3.6c4.644 0 8.4 3.756 8.4 8.4 0 2.686-1.122 4.259-2.3 5.584-0.587 0.663-1.192 1.252-1.669 1.88-0.477 0.63-0.831 1.322-0.831 2.136v0.4h-2v-8.081c0.683-0.183 1.2-0.781 1.2-1.519 0-0.88-0.72-1.6-1.6-1.6-0.484 0-0.906 0.231-1.2 0.575-0.294-0.344-0.716-0.575-1.2-0.575-0.88 0-1.6 0.72-1.6 1.6 0 0.738 0.517 1.336 1.2 1.519v8.081h-2v-0.4c0-0.814-0.355-1.506-0.831-2.136-0.477-0.628-1.081-1.217-1.669-1.88-1.178-1.325-2.3-2.898-2.3-5.584 0-4.644 3.756-8.4 8.4-8.4zM16 4.8c-0.22 0-0.4 0.18-0.4 0.4s0.18 0.4 0.4 0.4c0.22 0 0.4-0.18 0.4-0.4s-0.18-0.4-0.4-0.4zM14.256 5.031c-0.041 0-0.081 0.003-0.119 0.014-0.214 0.058-0.341 0.277-0.283 0.491 0.056 0.213 0.275 0.339 0.489 0.283 0.214-0.058 0.341-0.277 0.283-0.491-0.045-0.169-0.195-0.289-0.37-0.297zM17.756 5.031c-0.18 0.002-0.336 0.123-0.383 0.297-0.058 0.214 0.069 0.433 0.283 0.491 0.214 0.056 0.433-0.070 0.489-0.283 0.058-0.214-0.069-0.433-0.283-0.491-0.034-0.009-0.070-0.014-0.106-0.014zM12.591 5.711c-0.067 0.002-0.133 0.020-0.191 0.053-0.191 0.111-0.258 0.356-0.147 0.547 0.053 0.092 0.141 0.159 0.244 0.188 0.102 0.027 0.211 0.013 0.303-0.041s0.159-0.141 0.186-0.244c0.028-0.102 0.014-0.211-0.041-0.303-0.072-0.127-0.208-0.203-0.355-0.2zM19.381 5.713c-0.137 0.006-0.261 0.081-0.328 0.2-0.111 0.191-0.044 0.434 0.147 0.545s0.436 0.045 0.545-0.145c0.055-0.092 0.069-0.202 0.041-0.305-0.027-0.103-0.094-0.191-0.186-0.244-0.067-0.037-0.142-0.056-0.219-0.052zM20.814 6.792c-0.108-0.003-0.212 0.039-0.289 0.116-0.156 0.156-0.156 0.411 0 0.567 0.156 0.155 0.409 0.155 0.566 0 0.156-0.156 0.156-0.411 0-0.567-0.073-0.073-0.172-0.114-0.277-0.116zM11.198 6.792c-0.109-0.002-0.214 0.041-0.291 0.117-0.155 0.156-0.155 0.409 0 0.566 0.156 0.156 0.411 0.156 0.567 0 0.155-0.156 0.155-0.409 0-0.566-0.075-0.073-0.173-0.116-0.277-0.117zM21.88 8.2c-0.067 0.002-0.133 0.020-0.192 0.053-0.091 0.053-0.158 0.141-0.186 0.244-0.027 0.102-0.012 0.211 0.041 0.303 0.111 0.191 0.355 0.256 0.545 0.145 0.192-0.109 0.258-0.355 0.147-0.545-0.073-0.127-0.209-0.203-0.355-0.2zM10.092 8.2c-0.136 0.008-0.259 0.083-0.328 0.2-0.109 0.191-0.044 0.436 0.147 0.545 0.092 0.055 0.202 0.069 0.303 0.041 0.103-0.027 0.191-0.094 0.244-0.186 0.111-0.191 0.044-0.436-0.147-0.545-0.066-0.039-0.142-0.058-0.219-0.055zM9.428 9.841c-0.18 0.002-0.336 0.122-0.383 0.297-0.058 0.213 0.069 0.431 0.283 0.489s0.433-0.069 0.491-0.283c0.056-0.214-0.070-0.433-0.283-0.489-0.036-0.009-0.072-0.014-0.108-0.014zM22.583 9.841c-0.039-0.002-0.080 0.003-0.119 0.014-0.212 0.056-0.339 0.275-0.283 0.489 0.058 0.214 0.277 0.341 0.491 0.283s0.341-0.277 0.283-0.489c-0.045-0.17-0.195-0.291-0.372-0.297zM9.2 11.6c-0.22 0-0.4 0.18-0.4 0.4s0.18 0.4 0.4 0.4c0.22 0 0.4-0.18 0.4-0.4s-0.18-0.4-0.4-0.4zM14.8 11.6c0.447 0 0.8 0.353 0.8 0.8h0.8c0-0.447 0.353-0.8 0.8-0.8s0.8 0.353 0.8 0.8c0 0.447-0.353 0.8-0.8 0.8h-0.4v8.8h-1.6v-8.8h-0.4c-0.447 0-0.8-0.353-0.8-0.8s0.353-0.8 0.8-0.8zM22.8 11.6c-0.22 0-0.4 0.18-0.4 0.4s0.18 0.4 0.4 0.4c0.22 0 0.4-0.18 0.4-0.4s-0.18-0.4-0.4-0.4zM9.447 13.361c-0.041-0.002-0.080 0.003-0.119 0.014-0.214 0.056-0.341 0.275-0.283 0.489s0.277 0.341 0.491 0.283c0.213-0.058 0.339-0.277 0.283-0.491-0.045-0.169-0.197-0.289-0.372-0.295zM22.564 13.361c-0.178 0.002-0.336 0.122-0.383 0.295-0.056 0.214 0.070 0.433 0.283 0.491 0.214 0.058 0.433-0.069 0.491-0.283s-0.069-0.433-0.283-0.489c-0.034-0.009-0.070-0.014-0.108-0.014zM10.102 15c-0.067 0.002-0.133 0.019-0.191 0.053-0.191 0.111-0.256 0.355-0.147 0.547 0.111 0.191 0.356 0.256 0.547 0.145 0.092-0.052 0.159-0.139 0.188-0.242 0.027-0.103 0.012-0.213-0.041-0.303-0.073-0.128-0.209-0.205-0.356-0.2zM21.869 15.002c-0.134 0.006-0.258 0.081-0.327 0.198-0.111 0.192-0.045 0.436 0.145 0.547 0.192 0.111 0.436 0.045 0.547-0.147 0.111-0.191 0.045-0.434-0.147-0.545-0.066-0.039-0.142-0.056-0.219-0.053zM11.198 16.408c-0.109-0.002-0.214 0.041-0.291 0.117-0.155 0.156-0.155 0.411 0 0.567 0.156 0.155 0.411 0.155 0.567 0 0.155-0.156 0.155-0.411 0-0.567-0.075-0.073-0.173-0.114-0.277-0.117zM20.814 16.408c-0.108-0.002-0.212 0.041-0.289 0.117-0.156 0.156-0.156 0.411 0 0.567 0.156 0.155 0.409 0.155 0.566 0 0.075-0.077 0.117-0.178 0.117-0.284s-0.042-0.208-0.117-0.283c-0.073-0.073-0.173-0.116-0.277-0.117zM12.4 22.8h7.2v0.8h-4.8v0.8h4.8v0.8h-4.8v0.8h4.727c-0.163 0.467-0.6 0.8-1.127 0.8h-4.8c-0.527 0-0.964-0.333-1.127-0.8h1.527v-0.8h-1.6v-0.8h1.6v-0.8h-1.6zM14.873 27.6h2.253c-0.163 0.467-0.6 0.8-1.127 0.8s-0.964-0.333-1.127-0.8z"></path>
</svg>
