<!-- Generated by IcoMoon.io -->
<svg version="1.1" xmlns="http://www.w3.org/2000/svg" width="32" height="32" viewBox="0 0 32 32">
<title>ios-photos</title>
<path d="M16 2.8c-1.988 0-3.614 1.348-4.158 3.163-1.667-0.898-3.77-0.702-5.175 0.703-0.033 0.033-0.059 0.072-0.080 0.114-1.317 1.403-1.502 3.436-0.625 5.063-1.814 0.544-3.163 2.17-3.163 4.158s1.348 3.614 3.163 4.158c-0.898 1.667-0.702 3.77 0.703 5.175 0.033 0.033 0.072 0.059 0.114 0.080 1.403 1.317 3.436 1.502 5.063 0.625 0.544 1.814 2.17 3.163 4.158 3.163s3.614-1.348 4.158-3.163c1.627 0.877 3.658 0.692 5.063-0.625 0.042-0.019 0.080-0.045 0.113-0.078 1.406-1.405 1.603-3.509 0.705-5.177 1.814-0.544 3.163-2.17 3.163-4.158s-1.348-3.614-3.163-4.158c0.877-1.625 0.692-3.655-0.623-5.059 0-0.002 0-0.002 0-0.002-0.020-0.044-0.047-0.081-0.080-0.114-1.405-1.406-3.509-1.603-5.177-0.705-0.544-1.814-2.17-3.163-4.158-3.163zM16 3.6c1.777 0 3.244 1.283 3.542 2.97 0.023 0.134 0.114 0.247 0.241 0.3 0.127 0.052 0.27 0.036 0.381-0.042 1.405-0.983 3.347-0.853 4.605 0.403 1.256 1.258 1.384 3.202 0.403 4.605-0.078 0.113-0.094 0.256-0.042 0.383 0.053 0.127 0.166 0.217 0.302 0.241 1.686 0.298 2.969 1.764 2.969 3.541s-1.283 3.244-2.97 3.542c-0.134 0.023-0.247 0.114-0.3 0.241-0.052 0.127-0.036 0.27 0.042 0.381 0.983 1.405 0.853 3.347-0.403 4.605-1.258 1.256-3.202 1.384-4.605 0.403-0.113-0.078-0.256-0.094-0.383-0.042-0.127 0.053-0.217 0.166-0.241 0.302-0.298 1.686-1.764 2.969-3.541 2.969s-3.244-1.283-3.542-2.97c-0.023-0.134-0.114-0.247-0.241-0.3-0.127-0.052-0.27-0.036-0.381 0.042-1.405 0.983-3.347 0.853-4.605-0.403-1.256-1.258-1.384-3.202-0.403-4.605 0.078-0.113 0.094-0.256 0.042-0.383-0.053-0.127-0.166-0.217-0.302-0.241-1.686-0.298-2.969-1.764-2.969-3.541s1.283-3.244 2.97-3.542c0.134-0.023 0.247-0.114 0.3-0.241 0.052-0.127 0.036-0.27-0.042-0.381-0.983-1.405-0.853-3.347 0.403-4.605 1.258-1.256 3.202-1.384 4.605-0.403 0.113 0.078 0.256 0.094 0.383 0.042 0.127-0.053 0.217-0.166 0.241-0.302 0.298-1.686 1.764-2.969 3.541-2.969zM13.6 7.2c-0.22 0-0.4 0.18-0.4 0.4s0.18 0.4 0.4 0.4c0.22 0 0.4-0.18 0.4-0.4s-0.18-0.4-0.4-0.4zM18.4 7.2c-0.22 0-0.4 0.18-0.4 0.4s0.18 0.4 0.4 0.4c0.22 0 0.4-0.18 0.4-0.4s-0.18-0.4-0.4-0.4zM11.762 7.963c-0.108-0.002-0.213 0.041-0.287 0.119-0.156 0.155-0.156 0.409 0 0.564 0.155 0.156 0.409 0.156 0.564 0 0.156-0.155 0.156-0.409 0-0.564-0.073-0.075-0.172-0.116-0.277-0.119zM20.248 7.963c-0.108-0.002-0.212 0.041-0.289 0.119-0.156 0.155-0.156 0.409 0 0.564 0.156 0.156 0.409 0.156 0.566 0 0.156-0.155 0.156-0.409 0-0.564-0.073-0.075-0.172-0.116-0.277-0.119zM14.8 8.4c-0.22 0-0.4 0.18-0.4 0.4s0.18 0.4 0.4 0.4c0.22 0 0.4-0.18 0.4-0.4s-0.18-0.4-0.4-0.4zM17.2 8.4c-0.22 0-0.4 0.18-0.4 0.4s0.18 0.4 0.4 0.4c0.22 0 0.4-0.18 0.4-0.4s-0.18-0.4-0.4-0.4zM16 9.6c-0.22 0-0.4 0.18-0.4 0.4s0.18 0.4 0.4 0.4c0.22 0 0.4-0.18 0.4-0.4s-0.18-0.4-0.4-0.4zM11.762 9.661c-0.108-0.003-0.213 0.039-0.287 0.116-0.156 0.156-0.156 0.411 0 0.567 0.155 0.155 0.409 0.155 0.564 0 0.156-0.156 0.156-0.411 0-0.567-0.073-0.073-0.172-0.114-0.277-0.116zM20.248 9.661c-0.108-0.002-0.212 0.041-0.288 0.116-0.156 0.156-0.156 0.411 0 0.567 0.155 0.155 0.409 0.155 0.564 0 0.156-0.156 0.156-0.411 0-0.567-0.073-0.073-0.172-0.116-0.277-0.116zM16 11.2c-0.22 0-0.4 0.18-0.4 0.4s0.18 0.4 0.4 0.4c0.22 0 0.4-0.18 0.4-0.4s-0.18-0.4-0.4-0.4zM8.369 11.356c-0.108-0.002-0.213 0.041-0.289 0.119-0.156 0.156-0.156 0.409 0.002 0.564 0.155 0.156 0.409 0.156 0.564 0 0.156-0.155 0.156-0.409 0-0.564-0.073-0.075-0.172-0.117-0.277-0.119zM10.066 11.356c-0.108 0-0.213 0.042-0.289 0.119-0.155 0.155-0.155 0.409 0 0.564 0.156 0.156 0.411 0.156 0.567 0 0.155-0.155 0.155-0.409 0-0.564-0.075-0.075-0.173-0.117-0.278-0.119zM11.762 11.356c-0.108 0-0.213 0.042-0.287 0.119-0.156 0.155-0.156 0.409 0 0.564 0.155 0.156 0.409 0.156 0.564 0 0.156-0.155 0.156-0.409 0-0.564-0.073-0.075-0.172-0.117-0.277-0.119zM20.248 11.356c-0.108-0.002-0.212 0.041-0.289 0.119-0.156 0.155-0.156 0.409 0 0.564 0.156 0.156 0.409 0.156 0.566 0 0.156-0.155 0.156-0.409 0-0.564-0.073-0.075-0.172-0.116-0.277-0.119zM23.642 11.356c-0.108 0-0.212 0.042-0.288 0.119-0.156 0.155-0.156 0.409 0 0.564 0.155 0.156 0.409 0.156 0.564 0 0.156-0.155 0.156-0.409 0-0.564-0.073-0.075-0.172-0.117-0.277-0.119zM21.945 11.358c-0.108-0.002-0.212 0.041-0.289 0.117-0.156 0.156-0.156 0.409 0 0.566 0.075 0.075 0.177 0.117 0.283 0.117s0.208-0.042 0.284-0.117c0.155-0.156 0.155-0.409 0-0.566-0.075-0.073-0.173-0.116-0.278-0.117zM12.894 12.489c-0.108-0.002-0.211 0.041-0.287 0.117-0.156 0.156-0.156 0.409 0 0.566s0.409 0.156 0.566 0c0.156-0.156 0.156-0.409 0-0.566-0.073-0.073-0.173-0.116-0.278-0.117zM19.117 12.489c-0.109-0.002-0.212 0.041-0.289 0.117-0.156 0.156-0.156 0.409 0 0.566s0.409 0.156 0.566 0c0.156-0.156 0.156-0.409 0-0.566-0.073-0.073-0.173-0.116-0.277-0.117zM16 12.8c-0.22 0-0.4 0.18-0.4 0.4s0.18 0.4 0.4 0.4c0.22 0 0.4-0.18 0.4-0.4s-0.18-0.4-0.4-0.4zM7.6 13.2c-0.22 0-0.4 0.18-0.4 0.4s0.18 0.4 0.4 0.4c0.22 0 0.4-0.18 0.4-0.4s-0.18-0.4-0.4-0.4zM24.4 13.2c-0.22 0-0.4 0.18-0.4 0.4s0.18 0.4 0.4 0.4c0.22 0 0.4-0.18 0.4-0.4s-0.18-0.4-0.4-0.4zM14.025 13.62c-0.108-0.002-0.211 0.041-0.287 0.117-0.156 0.156-0.156 0.409 0 0.566s0.409 0.156 0.566 0c0.156-0.156 0.156-0.409 0-0.566-0.073-0.073-0.173-0.116-0.278-0.117zM17.986 13.62c-0.108-0.002-0.212 0.041-0.289 0.117-0.156 0.156-0.156 0.409 0 0.566s0.409 0.156 0.566 0c0.156-0.156 0.156-0.409 0-0.566-0.073-0.073-0.172-0.116-0.277-0.117zM8.8 14.4c-0.22 0-0.4 0.18-0.4 0.4s0.18 0.4 0.4 0.4c0.22 0 0.4-0.18 0.4-0.4s-0.18-0.4-0.4-0.4zM16 14.4c-0.22 0-0.4 0.18-0.4 0.4s0.18 0.4 0.4 0.4c0.22 0 0.4-0.18 0.4-0.4s-0.18-0.4-0.4-0.4zM23.2 14.4c-0.22 0-0.4 0.18-0.4 0.4s0.18 0.4 0.4 0.4c0.22 0 0.4-0.18 0.4-0.4s-0.18-0.4-0.4-0.4zM15.156 14.752c-0.108-0.002-0.213 0.041-0.287 0.117-0.156 0.156-0.156 0.409 0 0.566s0.409 0.156 0.566 0c0.156-0.156 0.156-0.409 0-0.566-0.073-0.073-0.173-0.116-0.278-0.117zM16.855 14.752c-0.109-0.002-0.212 0.041-0.289 0.117-0.156 0.156-0.156 0.409 0 0.566s0.409 0.156 0.566 0c0.156-0.156 0.156-0.409 0-0.566-0.073-0.073-0.173-0.116-0.277-0.117zM10 15.6c-0.22 0-0.4 0.18-0.4 0.4s0.18 0.4 0.4 0.4c0.22 0 0.4-0.18 0.4-0.4s-0.18-0.4-0.4-0.4zM11.6 15.6c-0.22 0-0.4 0.18-0.4 0.4s0.18 0.4 0.4 0.4c0.22 0 0.4-0.18 0.4-0.4s-0.18-0.4-0.4-0.4zM13.2 15.6c-0.22 0-0.4 0.18-0.4 0.4s0.18 0.4 0.4 0.4c0.22 0 0.4-0.18 0.4-0.4s-0.18-0.4-0.4-0.4zM14.8 15.6c-0.22 0-0.4 0.18-0.4 0.4s0.18 0.4 0.4 0.4c0.22 0 0.4-0.18 0.4-0.4s-0.18-0.4-0.4-0.4zM17.2 15.6c-0.22 0-0.4 0.18-0.4 0.4s0.18 0.4 0.4 0.4c0.22 0 0.4-0.18 0.4-0.4s-0.18-0.4-0.4-0.4zM18.8 15.6c-0.22 0-0.4 0.18-0.4 0.4s0.18 0.4 0.4 0.4c0.22 0 0.4-0.18 0.4-0.4s-0.18-0.4-0.4-0.4zM20.4 15.6c-0.22 0-0.4 0.18-0.4 0.4s0.18 0.4 0.4 0.4c0.22 0 0.4-0.18 0.4-0.4s-0.18-0.4-0.4-0.4zM22 15.6c-0.22 0-0.4 0.18-0.4 0.4s0.18 0.4 0.4 0.4c0.22 0 0.4-0.18 0.4-0.4s-0.18-0.4-0.4-0.4zM15.156 16.448c-0.108-0.002-0.213 0.041-0.287 0.117-0.156 0.156-0.156 0.409 0 0.566s0.409 0.156 0.566 0c0.156-0.156 0.156-0.409 0-0.566-0.073-0.073-0.173-0.116-0.278-0.117zM16.855 16.448c-0.109-0.002-0.212 0.041-0.289 0.117-0.156 0.156-0.156 0.409 0 0.566s0.409 0.156 0.566 0c0.156-0.156 0.156-0.409 0-0.566-0.073-0.073-0.173-0.116-0.277-0.117zM8.8 16.8c-0.22 0-0.4 0.18-0.4 0.4s0.18 0.4 0.4 0.4c0.22 0 0.4-0.18 0.4-0.4s-0.18-0.4-0.4-0.4zM16 16.8c-0.22 0-0.4 0.18-0.4 0.4s0.18 0.4 0.4 0.4c0.22 0 0.4-0.18 0.4-0.4s-0.18-0.4-0.4-0.4zM23.2 16.8c-0.22 0-0.4 0.18-0.4 0.4s0.18 0.4 0.4 0.4c0.22 0 0.4-0.18 0.4-0.4s-0.18-0.4-0.4-0.4zM14.025 17.58c-0.108-0.002-0.211 0.041-0.287 0.117-0.156 0.156-0.156 0.409 0 0.566s0.409 0.156 0.566 0c0.156-0.156 0.156-0.409 0-0.566-0.073-0.073-0.173-0.116-0.278-0.117zM17.986 17.58c-0.108-0.002-0.212 0.041-0.289 0.117-0.156 0.156-0.156 0.409 0 0.566s0.409 0.156 0.566 0c0.156-0.156 0.156-0.409 0-0.566-0.073-0.073-0.172-0.116-0.277-0.117zM7.6 18c-0.22 0-0.4 0.18-0.4 0.4s0.18 0.4 0.4 0.4c0.22 0 0.4-0.18 0.4-0.4s-0.18-0.4-0.4-0.4zM24.4 18c-0.22 0-0.4 0.18-0.4 0.4s0.18 0.4 0.4 0.4c0.22 0 0.4-0.18 0.4-0.4s-0.18-0.4-0.4-0.4zM16 18.4c-0.22 0-0.4 0.18-0.4 0.4s0.18 0.4 0.4 0.4c0.22 0 0.4-0.18 0.4-0.4s-0.18-0.4-0.4-0.4zM12.894 18.711c-0.108-0.002-0.213 0.041-0.287 0.117-0.156 0.156-0.156 0.409 0 0.566 0.155 0.156 0.409 0.156 0.564 0 0.156-0.156 0.156-0.409 0-0.566-0.073-0.073-0.172-0.116-0.277-0.117zM19.117 18.712c-0.109-0.003-0.212 0.039-0.289 0.116-0.075 0.075-0.117 0.177-0.117 0.283s0.042 0.208 0.117 0.283c0.156 0.156 0.409 0.156 0.566 0 0.075-0.075 0.117-0.177 0.117-0.283s-0.042-0.208-0.117-0.283c-0.073-0.073-0.173-0.116-0.277-0.116zM10.067 19.842c-0.109-0.002-0.214 0.041-0.291 0.117-0.155 0.156-0.155 0.409 0 0.566 0.156 0.156 0.411 0.156 0.567 0 0.155-0.156 0.155-0.409 0-0.566-0.075-0.073-0.173-0.116-0.277-0.117zM20.248 19.842c-0.108-0.002-0.212 0.041-0.288 0.117-0.156 0.156-0.156 0.409 0 0.566 0.155 0.156 0.409 0.156 0.564 0 0.156-0.156 0.156-0.409 0-0.566-0.073-0.073-0.172-0.116-0.277-0.117zM8.369 19.844c-0.108-0.002-0.213 0.041-0.287 0.117-0.156 0.155-0.156 0.409 0 0.564 0.155 0.156 0.409 0.156 0.564 0 0.156-0.155 0.156-0.409 0-0.564-0.073-0.075-0.172-0.117-0.277-0.117zM11.762 19.844c-0.108-0.003-0.213 0.039-0.287 0.117-0.156 0.155-0.156 0.409 0 0.564 0.155 0.156 0.409 0.156 0.564 0 0.156-0.155 0.156-0.409 0-0.564-0.073-0.075-0.172-0.116-0.277-0.117zM21.945 19.844c-0.108-0.002-0.212 0.041-0.289 0.117-0.155 0.155-0.155 0.409 0 0.564 0.156 0.156 0.411 0.156 0.567 0 0.155-0.155 0.155-0.409 0-0.564-0.075-0.075-0.173-0.117-0.278-0.117zM23.642 19.844c-0.108-0.002-0.212 0.041-0.288 0.117-0.156 0.155-0.156 0.409 0 0.564 0.155 0.156 0.409 0.156 0.564 0 0.156-0.155 0.156-0.409 0-0.564-0.073-0.075-0.172-0.117-0.277-0.117zM16 20c-0.22 0-0.4 0.18-0.4 0.4s0.18 0.4 0.4 0.4c0.22 0 0.4-0.18 0.4-0.4s-0.18-0.4-0.4-0.4zM11.762 21.539c-0.108 0-0.213 0.042-0.287 0.117-0.156 0.156-0.156 0.411 0 0.567 0.155 0.155 0.409 0.155 0.564 0 0.156-0.156 0.156-0.411 0-0.567-0.073-0.073-0.172-0.116-0.277-0.117zM20.248 21.539c-0.108-0.002-0.212 0.041-0.289 0.117-0.075 0.075-0.117 0.177-0.117 0.283s0.042 0.208 0.117 0.284c0.156 0.155 0.409 0.155 0.566 0 0.075-0.077 0.117-0.178 0.117-0.284s-0.042-0.208-0.117-0.283c-0.073-0.073-0.173-0.116-0.277-0.117zM16 21.6c-0.22 0-0.4 0.18-0.4 0.4s0.18 0.4 0.4 0.4c0.22 0 0.4-0.18 0.4-0.4s-0.18-0.4-0.4-0.4zM14.8 22.8c-0.22 0-0.4 0.18-0.4 0.4s0.18 0.4 0.4 0.4c0.22 0 0.4-0.18 0.4-0.4s-0.18-0.4-0.4-0.4zM17.2 22.8c-0.22 0-0.4 0.18-0.4 0.4s0.18 0.4 0.4 0.4c0.22 0 0.4-0.18 0.4-0.4s-0.18-0.4-0.4-0.4zM11.762 23.238c-0.108-0.003-0.213 0.039-0.287 0.117-0.156 0.155-0.156 0.409 0 0.564 0.155 0.156 0.409 0.156 0.564 0 0.156-0.155 0.156-0.409 0-0.564-0.073-0.075-0.172-0.116-0.277-0.117zM20.248 23.238c-0.108-0.003-0.212 0.039-0.289 0.117-0.156 0.155-0.156 0.409 0 0.564 0.156 0.156 0.409 0.156 0.566 0 0.156-0.155 0.156-0.409 0-0.564-0.073-0.075-0.172-0.116-0.277-0.117zM13.6 24c-0.22 0-0.4 0.18-0.4 0.4s0.18 0.4 0.4 0.4c0.22 0 0.4-0.18 0.4-0.4s-0.18-0.4-0.4-0.4zM18.4 24c-0.22 0-0.4 0.18-0.4 0.4s0.18 0.4 0.4 0.4c0.22 0 0.4-0.18 0.4-0.4s-0.18-0.4-0.4-0.4z"></path>
</svg>
