<!-- Generated by IcoMoon.io -->
<svg version="1.1" xmlns="http://www.w3.org/2000/svg" width="32" height="32" viewBox="0 0 32 32">
<title>iot-soft</title>
<path d="M8.74 3.25c-0.876 0-1.594 0.718-1.594 1.594v6.91l0.797-0.797v-6.114c0-0.445 0.352-0.797 0.797-0.797h14.344c0.445 0 0.797 0.352 0.797 0.797v6.114l0.797 0.797v-6.91c0-0.876-0.718-1.594-1.594-1.594h-14.344zM9.537 5.641c-0.22 0-0.398 0.178-0.398 0.398s0.178 0.398 0.398 0.398c0.22 0 0.398-0.178 0.398-0.398s-0.178-0.398-0.398-0.398zM11.131 5.641c-0.22 0-0.398 0.178-0.398 0.398s0.178 0.398 0.398 0.398c0.22 0 0.398-0.178 0.398-0.398s-0.178-0.398-0.398-0.398zM12.724 5.641c-0.22 0-0.398 0.178-0.398 0.398s0.178 0.398 0.398 0.398c0.22 0 0.398-0.178 0.398-0.398s-0.178-0.398-0.398-0.398zM14.318 5.641c-0.22 0-0.398 0.178-0.398 0.398s0.178 0.398 0.398 0.398c0.22 0 0.398-0.178 0.398-0.398s-0.178-0.398-0.398-0.398zM15.912 5.641c-0.22 0-0.398 0.178-0.398 0.398s0.178 0.398 0.398 0.398c0.22 0 0.398-0.178 0.398-0.398s-0.178-0.398-0.398-0.398zM17.506 5.641c-0.22 0-0.398 0.178-0.398 0.398s0.178 0.398 0.398 0.398c0.22 0 0.398-0.178 0.398-0.398s-0.178-0.398-0.398-0.398zM19.099 5.641c-0.22 0-0.398 0.178-0.398 0.398s0.178 0.398 0.398 0.398c0.22 0 0.398-0.178 0.398-0.398s-0.178-0.398-0.398-0.398zM20.693 5.641c-0.22 0-0.398 0.178-0.398 0.398s0.178 0.398 0.398 0.398c0.22 0 0.398-0.178 0.398-0.398s-0.178-0.398-0.398-0.398zM22.287 5.641c-0.22 0-0.398 0.178-0.398 0.398s0.178 0.398 0.398 0.398c0.22 0 0.398-0.178 0.398-0.398s-0.178-0.398-0.398-0.398zM9.537 7.234c-0.22 0-0.398 0.178-0.398 0.398s0.178 0.398 0.398 0.398c0.22 0 0.398-0.178 0.398-0.398s-0.178-0.398-0.398-0.398zM22.287 7.234c-0.22 0-0.398 0.178-0.398 0.398s0.178 0.398 0.398 0.398c0.22 0 0.398-0.178 0.398-0.398s-0.178-0.398-0.398-0.398zM9.537 8.828c-0.22 0-0.398 0.178-0.398 0.398s0.178 0.398 0.398 0.398c0.22 0 0.398-0.178 0.398-0.398s-0.178-0.398-0.398-0.398zM22.287 8.828c-0.22 0-0.398 0.178-0.398 0.398s0.178 0.398 0.398 0.398c0.22 0 0.398-0.178 0.398-0.398s-0.178-0.398-0.398-0.398zM10.849 9.742l-5.86 5.86 5.86 5.86 0.563-0.563-5.297-5.297 5.297-5.297-0.563-0.563zM20.975 9.742l-0.563 0.563 5.297 5.297-5.297 5.297 0.563 0.563 5.86-5.86-5.86-5.86zM7.146 19.449v7.707c0 0.876 0.718 1.594 1.594 1.594h14.344c0.876 0 1.594-0.718 1.594-1.594v-7.707l-0.797 0.797v6.91c0 0.445-0.352 0.797-0.797 0.797h-14.344c-0.445 0-0.797-0.352-0.797-0.797v-6.91l-0.797-0.797zM9.537 21.578c-0.22 0-0.398 0.178-0.398 0.398s0.178 0.398 0.398 0.398c0.22 0 0.398-0.178 0.398-0.398s-0.178-0.398-0.398-0.398zM22.287 21.578c-0.22 0-0.398 0.178-0.398 0.398s0.178 0.398 0.398 0.398c0.22 0 0.398-0.178 0.398-0.398s-0.178-0.398-0.398-0.398zM9.537 23.172c-0.22 0-0.398 0.178-0.398 0.398s0.178 0.398 0.398 0.398c0.22 0 0.398-0.178 0.398-0.398s-0.178-0.398-0.398-0.398zM22.287 23.172c-0.22 0-0.398 0.178-0.398 0.398s0.178 0.398 0.398 0.398c0.22 0 0.398-0.178 0.398-0.398s-0.178-0.398-0.398-0.398zM9.537 24.766c-0.22 0-0.398 0.178-0.398 0.398s0.178 0.398 0.398 0.398c0.22 0 0.398-0.178 0.398-0.398s-0.178-0.398-0.398-0.398zM11.131 24.766c-0.22 0-0.398 0.178-0.398 0.398s0.178 0.398 0.398 0.398c0.22 0 0.398-0.178 0.398-0.398s-0.178-0.398-0.398-0.398zM12.724 24.766c-0.22 0-0.398 0.178-0.398 0.398s0.178 0.398 0.398 0.398c0.22 0 0.398-0.178 0.398-0.398s-0.178-0.398-0.398-0.398zM14.318 24.766c-0.22 0-0.398 0.178-0.398 0.398s0.178 0.398 0.398 0.398c0.22 0 0.398-0.178 0.398-0.398s-0.178-0.398-0.398-0.398zM15.912 24.766c-0.22 0-0.398 0.178-0.398 0.398s0.178 0.398 0.398 0.398c0.22 0 0.398-0.178 0.398-0.398s-0.178-0.398-0.398-0.398zM17.506 24.766c-0.22 0-0.398 0.178-0.398 0.398s0.178 0.398 0.398 0.398c0.22 0 0.398-0.178 0.398-0.398s-0.178-0.398-0.398-0.398zM19.099 24.766c-0.22 0-0.398 0.178-0.398 0.398s0.178 0.398 0.398 0.398c0.22 0 0.398-0.178 0.398-0.398s-0.178-0.398-0.398-0.398zM20.693 24.766c-0.22 0-0.398 0.178-0.398 0.398s0.178 0.398 0.398 0.398c0.22 0 0.398-0.178 0.398-0.398s-0.178-0.398-0.398-0.398zM22.287 24.766c-0.22 0-0.398 0.178-0.398 0.398s0.178 0.398 0.398 0.398c0.22 0 0.398-0.178 0.398-0.398s-0.178-0.398-0.398-0.398z"></path>
</svg>
