<!-- Generated by IcoMoon.io -->
<svg version="1.1" xmlns="http://www.w3.org/2000/svg" width="32" height="32" viewBox="0 0 32 32">
<title>iphonex</title>
<path d="M21.435 2.798c-0.010 0-0.019 0.001-0.028 0.002l0.002-0h-11.809c-1.1 0-2 0.9-2 2v21.6c0 1.1 0.9 2 2 2h12c1.1 0 2-0.9 2-2v-21.6c0-1.1-0.9-2-2-2h-0.123c-0.011-0.001-0.023-0.002-0.036-0.002-0.002 0-0.004 0-0.007 0h0zM9.6 3.6h0.111c-0.002-0.001-0.001-0-0-0l0.003 0.001c0.449 0.139 0.791 0.507 0.87 0.97l0.17 0.989c0.123 0.719 0.762 1.24 1.495 1.24h6.701c0.734 0 1.373-0.521 1.496-1.24l0.17-0.989c0.080-0.467 0.427-0.835 0.88-0.971h0.105c0.667 0 1.2 0.533 1.2 1.2v21.6c0 0.667-0.533 1.2-1.2 1.2h-12c-0.667 0-1.2-0.533-1.2-1.2v-21.6c0-0.667 0.533-1.2 1.2-1.2zM11.016 3.6h9.166c-0.176 0.243-0.301 0.526-0.355 0.836-0 0-0 0-0 0s-0 0-0 0h0l-0.17 0.989c-0.056 0.328-0.349 0.575-0.707 0.575h-6.701c-0.358 0-0.651-0.247-0.707-0.575l-0.17-0.989c-0.053-0.311-0.18-0.593-0.356-0.836zM13.179 4.4c-0.002-0-0.004-0-0.006-0-0.221 0-0.4 0.179-0.4 0.4s0.179 0.4 0.4 0.4c0.002 0 0.004 0 0.006-0h3.2c0.002 0 0.004 0 0.006 0 0.221 0 0.4-0.179 0.4-0.4s-0.179-0.4-0.4-0.4c-0.002 0-0.004 0-0.006 0h-3.2zM18 4.4c-0.221 0-0.4 0.179-0.4 0.4v0c0 0.221 0.179 0.4 0.4 0.4v0c0.221 0 0.4-0.179 0.4-0.4v0c0-0.221-0.179-0.4-0.4-0.4v0zM10 6.8c-0.221 0-0.4 0.179-0.4 0.4v0c0 0.221 0.179 0.4 0.4 0.4v0c0.221 0 0.4-0.179 0.4-0.4v0c0-0.221-0.179-0.4-0.4-0.4v0zM10 8.4c-0.221 0-0.4 0.179-0.4 0.4v0c0 0.221 0.179 0.4 0.4 0.4v0c0.221 0 0.4-0.179 0.4-0.4v0c0-0.221-0.179-0.4-0.4-0.4v0zM10 10c-0.221 0-0.4 0.179-0.4 0.4v0c0 0.221 0.179 0.4 0.4 0.4v0c0.221 0 0.4-0.179 0.4-0.4v0c0-0.221-0.179-0.4-0.4-0.4v0zM10 11.6c-0.221 0-0.4 0.179-0.4 0.4v0c0 0.221 0.179 0.4 0.4 0.4v0c0.221 0 0.4-0.179 0.4-0.4v0c0-0.221-0.179-0.4-0.4-0.4v0zM10 13.2c-0.221 0-0.4 0.179-0.4 0.4v0c0 0.221 0.179 0.4 0.4 0.4v0c0.221 0 0.4-0.179 0.4-0.4v0c0-0.221-0.179-0.4-0.4-0.4v0zM10 14.8c-0.221 0-0.4 0.179-0.4 0.4v0c0 0.221 0.179 0.4 0.4 0.4v0c0.221 0 0.4-0.179 0.4-0.4v0c0-0.221-0.179-0.4-0.4-0.4v0zM10 16.4c-0.221 0-0.4 0.179-0.4 0.4v0c0 0.221 0.179 0.4 0.4 0.4v0c0.221 0 0.4-0.179 0.4-0.4v0c0-0.221-0.179-0.4-0.4-0.4v0zM10 18c-0.221 0-0.4 0.179-0.4 0.4v0c0 0.221 0.179 0.4 0.4 0.4v0c0.221 0 0.4-0.179 0.4-0.4v0c0-0.221-0.179-0.4-0.4-0.4v0zM10 19.6c-0.221 0-0.4 0.179-0.4 0.4v0c0 0.221 0.179 0.4 0.4 0.4v0c0.221 0 0.4-0.179 0.4-0.4v0c0-0.221-0.179-0.4-0.4-0.4v0zM10 21.2c-0.221 0-0.4 0.179-0.4 0.4v0c0 0.221 0.179 0.4 0.4 0.4v0c0.221 0 0.4-0.179 0.4-0.4v0c0-0.221-0.179-0.4-0.4-0.4v0zM10 22.8c-0.221 0-0.4 0.179-0.4 0.4v0c0 0.221 0.179 0.4 0.4 0.4v0c0.221 0 0.4-0.179 0.4-0.4v0c0-0.221-0.179-0.4-0.4-0.4v0zM10 24.4c-0.221 0-0.4 0.179-0.4 0.4v0c0 0.221 0.179 0.4 0.4 0.4v0c0.221 0 0.4-0.179 0.4-0.4v0c0-0.221-0.179-0.4-0.4-0.4v0zM10 26c-0.221 0-0.4 0.179-0.4 0.4v0c0 0.221 0.179 0.4 0.4 0.4v0c0.221 0 0.4-0.179 0.4-0.4v0c0-0.221-0.179-0.4-0.4-0.4v0z"></path>
</svg>
