<!-- Generated by IcoMoon.io -->
<svg version="1.1" xmlns="http://www.w3.org/2000/svg" width="32" height="32" viewBox="0 0 32 32">
<title>knowledge-source</title>
<path d="M6 5.6c-1.983 0-3.6 1.617-3.6 3.6v0.4h0.081c0.209 1.787 1.677 3.2 3.519 3.2h0.8v5.6h-0.8c-1.983 0-3.6 1.617-3.6 3.6v0.4h0.081c0.209 1.788 1.677 3.2 3.519 3.2h19.2v-0.8h-0.8v-5.6h1.6c1.842 0 3.309-1.413 3.519-3.2h0.081v-0.4c0-1.983-1.617-3.6-3.6-3.6h-1.6v-5.6h0.8v-0.8zM6 6.4h5.744c-0.819 0.661-1.344 1.67-1.344 2.8v0.4h0.081c0.113 0.964 0.594 1.817 1.3 2.4h-5.781c-1.552 0-2.8-1.248-2.8-2.8s1.248-2.8 2.8-2.8zM14 6.4h9.6v5.6h-9.6c-1.552 0-2.8-1.248-2.8-2.8s1.248-2.8 2.8-2.8zM5.2 8.8c-0.22 0-0.4 0.18-0.4 0.4s0.18 0.4 0.4 0.4c0.22 0 0.4-0.18 0.4-0.4s-0.18-0.4-0.4-0.4zM6.8 8.8c-0.22 0-0.4 0.18-0.4 0.4s0.18 0.4 0.4 0.4c0.22 0 0.4-0.18 0.4-0.4s-0.18-0.4-0.4-0.4zM8.4 8.8c-0.22 0-0.4 0.18-0.4 0.4s0.18 0.4 0.4 0.4c0.22 0 0.4-0.18 0.4-0.4s-0.18-0.4-0.4-0.4zM7.6 12.8h10.4c1.552 0 2.8 1.248 2.8 2.8s-1.248 2.8-2.8 2.8h-10.4zM20.256 12.8h5.744c1.552 0 2.8 1.248 2.8 2.8s-1.248 2.8-2.8 2.8h-5.781c0.706-0.583 1.188-1.436 1.3-2.4h0.081v-0.4c0-1.13-0.525-2.139-1.344-2.8zM23.6 15.2c-0.22 0-0.4 0.18-0.4 0.4s0.18 0.4 0.4 0.4c0.22 0 0.4-0.18 0.4-0.4s-0.18-0.4-0.4-0.4zM25.2 15.2c-0.22 0-0.4 0.18-0.4 0.4s0.18 0.4 0.4 0.4c0.22 0 0.4-0.18 0.4-0.4s-0.18-0.4-0.4-0.4zM26.8 15.2c-0.22 0-0.4 0.18-0.4 0.4s0.18 0.4 0.4 0.4c0.22 0 0.4-0.18 0.4-0.4s-0.18-0.4-0.4-0.4zM6 19.2h5.744c-0.819 0.661-1.344 1.67-1.344 2.8v0.4h0.081c0.113 0.964 0.594 1.817 1.3 2.4h-5.781c-1.552 0-2.8-1.248-2.8-2.8s1.248-2.8 2.8-2.8zM14 19.2h9.6v5.6h-9.6c-1.552 0-2.8-1.248-2.8-2.8s1.248-2.8 2.8-2.8zM5.2 21.6c-0.22 0-0.4 0.18-0.4 0.4s0.18 0.4 0.4 0.4c0.22 0 0.4-0.18 0.4-0.4s-0.18-0.4-0.4-0.4zM6.8 21.6c-0.22 0-0.4 0.18-0.4 0.4s0.18 0.4 0.4 0.4c0.22 0 0.4-0.18 0.4-0.4s-0.18-0.4-0.4-0.4zM8.4 21.6c-0.22 0-0.4 0.18-0.4 0.4s0.18 0.4 0.4 0.4c0.22 0 0.4-0.18 0.4-0.4s-0.18-0.4-0.4-0.4z"></path>
</svg>
