<!-- Generated by IcoMoon.io -->
<svg version="1.1" xmlns="http://www.w3.org/2000/svg" width="32" height="32" viewBox="0 0 32 32">
<title>leaf</title>
<path d="M24.408 3.6c-0.094-0.002-0.184 0.030-0.258 0.087-0.902 0.72-2.461 1.228-4.288 1.694-1.825 0.466-3.911 0.905-5.894 1.591-1.981 0.686-3.869 1.622-5.273 3.109-1.403 1.489-2.295 3.534-2.295 6.319 0 3.536 1.831 5.616 3.636 6.744 1.080 0.673 2.066 1.003 2.703 1.164-2.475 2.006-5.188 3.292-7.939 3.292-0.144-0.002-0.278 0.073-0.352 0.198-0.072 0.125-0.072 0.278 0 0.403 0.073 0.125 0.208 0.2 0.352 0.198 3.092 0 6.053-1.472 8.686-3.667 0.122 0.33 0.35 0.806 0.814 1.348 0.795 0.934 2.219 1.858 4.542 1.858 1.705 0 3.966-0.928 5.834-2.902 1.87-1.975 3.323-5.009 3.323-9.197 0-6.769-3.259-12.050-3.259-12.050-0.072-0.116-0.197-0.188-0.333-0.191zM24.236 4.533c0.467 0.811 2.964 5.381 2.964 11.308 0 4.005-1.372 6.819-3.105 8.647-1.731 1.827-3.85 2.652-5.253 2.652-2.119 0-3.269-0.794-3.934-1.577-0.666-0.781-0.82-1.536-0.82-1.536 0-0.002 0-0.002 0-0.002l0.017-0.044-0.194-0.302-0.358-0.025-0.027 0.016c-0.467-0.086-1.745-0.381-3.066-1.206-1.645-1.027-3.261-2.8-3.261-6.064 0-2.616 0.808-4.42 2.080-5.769 1.27-1.35 3.033-2.239 4.952-2.903 1.917-0.664 3.981-1.1 5.831-1.572 1.659-0.423 3.091-0.902 4.173-1.623zM23.536 6.942l-0.305 0.188-0.052 0.131-0.008 0.039 0.095 0.345 0.333 0.131 0.305-0.189 0.052-0.131 0.008-0.037-0.095-0.345zM23.189 8.537l-0.314 0.17-0.059 0.128-0.009 0.039 0.073 0.35 0.327 0.15 0.314-0.17 0.059-0.128 0.009-0.039-0.073-0.35zM16.75 9.603l-0.298 0.2-0.045 0.133-0.008 0.039 0.108 0.344 0.337 0.117 0.298-0.198 0.045-0.134 0.006-0.039-0.106-0.342zM22.727 10.098l-0.33 0.141-0.072 0.122-0.012 0.037 0.041 0.356 0.309 0.18 0.331-0.141 0.070-0.122 0.012-0.037-0.041-0.356zM16.575 11.255l-0.255 0.252-0.020 0.141 0.002 0.041 0.17 0.314 0.355 0.053 0.255-0.253 0.019-0.139v-0.041l-0.17-0.316zM11.5 11.613l-0.27 0.236-0.030 0.139v0.039l0.148 0.325 0.352 0.075 0.269-0.234 0.030-0.139 0.002-0.041-0.15-0.325zM22.147 11.627l-0.334 0.128-0.077 0.119-0.016 0.037 0.028 0.358 0.302 0.192 0.336-0.128 0.075-0.119 0.016-0.037-0.027-0.356zM17.047 12.905l-0.359 0.003-0.211 0.289v0.141l0.009 0.039 0.216 0.286 0.359-0.005 0.212-0.289-0.003-0.139-0.006-0.041zM21.502 13.127l-0.344 0.102-0.083 0.114-0.019 0.034v0.359l0.288 0.214 0.344-0.102 0.084-0.113 0.017-0.036v-0.359zM11.531 13.27l-0.227 0.278-0.006 0.141 0.006 0.041 0.202 0.295 0.358 0.014 0.227-0.278 0.006-0.141-0.005-0.039-0.205-0.295zM17.42 14.469l-0.356 0.048-0.172 0.314 0.019 0.139 0.012 0.037 0.252 0.255 0.355-0.048 0.173-0.313-0.020-0.139-0.011-0.039zM20.767 14.588l-0.347 0.089-0.089 0.111-0.019 0.036-0.012 0.358 0.28 0.223 0.347-0.089 0.087-0.109 0.020-0.036 0.012-0.358zM25.475 14.819l-0.123 0.069-0.031 0.023-0.152 0.325 0.169 0.316 0.356 0.053 0.123-0.067 0.031-0.025 0.152-0.323-0.169-0.316zM12.167 14.863l-0.356 0.042-0.18 0.309 0.017 0.142 0.012 0.037 0.245 0.259 0.356-0.042 0.18-0.311-0.017-0.139-0.012-0.039zM24.189 15.78l-0.13 0.056-0.034 0.020-0.18 0.311 0.141 0.328 0.348 0.086 0.13-0.056 0.034-0.020 0.178-0.311-0.139-0.33zM18.011 15.939l-0.336 0.128-0.1 0.344 0.050 0.133 0.020 0.033 0.303 0.194 0.334-0.127 0.1-0.344-0.050-0.131-0.020-0.036zM19.97 16.017l-0.35 0.077-0.091 0.106-0.022 0.036-0.025 0.358 0.272 0.233 0.35-0.077 0.092-0.108 0.020-0.034 0.025-0.358zM12.664 16.394l-0.347 0.087-0.139 0.33 0.034 0.137 0.016 0.036 0.278 0.227 0.348-0.087 0.137-0.33-0.034-0.137-0.016-0.038zM22.823 16.608l-0.136 0.042-0.036 0.017-0.212 0.289 0.103 0.344 0.337 0.122 0.134-0.041 0.036-0.019 0.212-0.288-0.103-0.344zM21.378 17.256l-0.141 0.022-0.038 0.012-0.252 0.253 0.052 0.356 0.316 0.169 0.139-0.019 0.039-0.012 0.252-0.256-0.052-0.355zM19.114 17.411l-0.352 0.064-0.095 0.105-0.022 0.033-0.038 0.356 0.262 0.244 0.353-0.064 0.095-0.105 0.022-0.033 0.038-0.356zM13.339 17.852l-0.331 0.134-0.089 0.347 0.052 0.131 0.022 0.034 0.308 0.184 0.331-0.134 0.091-0.348-0.053-0.13-0.022-0.034zM18.212 18.769l-0.356 0.039-0.105 0.097-0.023 0.033-0.064 0.352 0.244 0.262 0.356-0.039 0.105-0.095 0.023-0.033 0.064-0.353zM14.214 19.212l-0.316 0.164-0.059 0.355 0.067 0.125 0.023 0.031 0.322 0.156 0.319-0.167 0.058-0.353-0.066-0.125-0.025-0.031zM17.231 20.078l-0.358 0.023-0.108 0.092-0.025 0.031-0.078 0.35 0.233 0.272 0.359-0.023 0.106-0.092 0.025-0.031 0.078-0.35zM15.236 20.459l-0.297 0.202-0.016 0.358 0.080 0.117 0.028 0.028 0.338 0.117 0.298-0.202 0.014-0.359-0.080-0.116-0.027-0.030zM24.002 20.8l-0.137 0.025-0.039 0.012-0.245 0.261 0.061 0.352 0.32 0.163 0.137-0.023 0.038-0.014 0.247-0.259-0.061-0.353zM22.48 21.275l-0.142 0.006-0.038 0.011-0.275 0.23 0.020 0.358 0.298 0.197 0.141-0.008 0.039-0.008 0.275-0.231-0.022-0.358zM16.188 21.337l-0.358 0.009-0.111 0.086-0.027 0.031-0.092 0.347 0.22 0.281 0.359-0.011 0.111-0.086 0.027-0.030 0.094-0.347zM20.769 21.563l-0.039 0.005-0.298 0.197-0.020 0.359 0.275 0.23 0.141 0.008 0.041-0.005 0.297-0.2 0.020-0.356-0.275-0.231zM17.536 21.625l-0.333 0.136-0.091 0.345 0.225 0.281 0.136 0.036 0.039 0.002 0.331-0.136 0.092-0.345-0.225-0.281-0.136-0.034zM19.18 21.675l-0.041 0.002-0.32 0.163-0.059 0.355 0.247 0.258 0.139 0.023h0.041l0.319-0.163 0.059-0.353-0.245-0.259zM14.725 22.533l-0.116 0.083-0.028 0.028-0.108 0.342 0.208 0.291 0.358 0.009 0.116-0.083 0.027-0.028 0.109-0.342-0.208-0.291z"></path>
</svg>
