<!-- Generated by IcoMoon.io -->
<svg version="1.1" xmlns="http://www.w3.org/2000/svg" width="32" height="32" viewBox="0 0 32 32">
<title>light-on</title>
<path d="M6.95 2.548c-0.103 0-0.206 0.039-0.283 0.117-0.156 0.156-0.158 0.409 0 0.566 0.156 0.156 0.409 0.156 0.564 0 0.156-0.156 0.156-0.409 0-0.566-0.078-0.078-0.18-0.117-0.281-0.117zM25.052 2.55c-0.103-0.002-0.205 0.038-0.283 0.116-0.156 0.158-0.156 0.411 0 0.566 0.156 0.156 0.409 0.156 0.566 0s0.156-0.409 0-0.566c-0.078-0.077-0.18-0.116-0.283-0.116zM16 2.8c-5.077 0-9.2 4.123-9.2 9.2 0 2.914 1.278 4.741 2.5 6.116 0.613 0.688 1.208 1.273 1.631 1.833 0.423 0.558 0.669 1.066 0.669 1.652v4c0 1.1 0.9 2 2 2h0.441c0.188 0.909 0.997 1.6 1.959 1.6s1.772-0.691 1.959-1.6h0.441c1.1 0 2-0.9 2-2v-4c0-0.586 0.245-1.094 0.669-1.652 0.423-0.559 1.019-1.145 1.631-1.833 1.222-1.375 2.5-3.202 2.5-6.116 0-5.077-4.123-9.2-9.2-9.2zM16 3.6c4.644 0 8.4 3.756 8.4 8.4 0 2.686-1.122 4.259-2.3 5.584-0.587 0.663-1.192 1.252-1.669 1.88-0.477 0.63-0.831 1.322-0.831 2.136v0.4h-2v-8.081c0.683-0.183 1.2-0.781 1.2-1.519 0-0.88-0.72-1.6-1.6-1.6-0.484 0-0.906 0.231-1.2 0.575-0.294-0.344-0.716-0.575-1.2-0.575-0.88 0-1.6 0.72-1.6 1.6 0 0.738 0.517 1.336 1.2 1.519v8.081h-2v-0.4c0-0.814-0.355-1.506-0.831-2.136-0.477-0.628-1.081-1.217-1.669-1.88-1.178-1.325-2.3-2.898-2.3-5.584 0-4.644 3.756-8.4 8.4-8.4zM8.363 3.962c-0.102 0-0.203 0.039-0.281 0.119-0.156 0.155-0.158 0.408 0 0.564 0.155 0.158 0.409 0.156 0.564 0 0.158-0.155 0.158-0.408 0-0.564-0.077-0.080-0.18-0.119-0.283-0.119zM23.637 3.962c-0.103 0-0.206 0.039-0.283 0.119-0.156 0.155-0.158 0.409 0 0.564 0.156 0.156 0.409 0.156 0.564 0 0.158-0.155 0.158-0.408 0-0.564-0.078-0.080-0.18-0.119-0.281-0.119zM7.095 5.606c-0.153-0.028-0.316 0.033-0.408 0.17-0.123 0.184-0.073 0.433 0.111 0.555 0.183 0.123 0.431 0.075 0.555-0.109s0.073-0.431-0.111-0.555c-0.045-0.031-0.095-0.050-0.147-0.061zM24.905 5.606c-0.052 0.011-0.102 0.030-0.147 0.061-0.184 0.123-0.234 0.37-0.111 0.555s0.372 0.233 0.555 0.109c0.184-0.122 0.234-0.37 0.111-0.555-0.092-0.138-0.255-0.198-0.408-0.17zM4.172 6.702c-0.156 0.002-0.303 0.094-0.367 0.247-0.084 0.205 0.013 0.438 0.216 0.522 0.205 0.086 0.439-0.011 0.523-0.216s-0.013-0.438-0.217-0.523c-0.050-0.020-0.103-0.030-0.155-0.030zM27.828 6.702c-0.052 0-0.105 0.009-0.155 0.030-0.205 0.086-0.302 0.319-0.217 0.523s0.319 0.302 0.523 0.216c0.203-0.084 0.3-0.317 0.216-0.522-0.064-0.153-0.211-0.245-0.367-0.247zM6.019 7.467c-0.155 0-0.303 0.094-0.367 0.245-0.084 0.205 0.013 0.439 0.217 0.525 0.205 0.084 0.438-0.012 0.523-0.217 0.084-0.205-0.013-0.439-0.217-0.523-0.052-0.022-0.103-0.031-0.156-0.030zM25.981 7.467c-0.053 0-0.105 0.009-0.156 0.031-0.205 0.084-0.302 0.317-0.217 0.522 0.086 0.205 0.319 0.302 0.523 0.217 0.205-0.086 0.302-0.319 0.217-0.523-0.064-0.153-0.212-0.245-0.367-0.247zM5.486 9.5c-0.217-0.042-0.428 0.098-0.472 0.314-0.042 0.217 0.098 0.428 0.316 0.472 0.217 0.042 0.427-0.098 0.47-0.316 0.042-0.216-0.097-0.427-0.314-0.47zM26.514 9.5c-0.217 0.044-0.356 0.255-0.314 0.47 0.044 0.217 0.253 0.358 0.47 0.316s0.358-0.255 0.316-0.472c-0.044-0.216-0.255-0.356-0.472-0.314zM3.2 11.6c-0.22 0-0.4 0.18-0.4 0.4s0.18 0.4 0.4 0.4c0.22 0 0.4-0.18 0.4-0.4s-0.18-0.4-0.4-0.4zM5.2 11.6c-0.22 0-0.4 0.18-0.4 0.4s0.18 0.4 0.4 0.4c0.22 0 0.4-0.18 0.4-0.4s-0.18-0.4-0.4-0.4zM14.8 11.6c0.447 0 0.8 0.353 0.8 0.8h0.8c0-0.447 0.353-0.8 0.8-0.8s0.8 0.353 0.8 0.8c0 0.447-0.353 0.8-0.8 0.8h-0.4v8.8h-1.6v-8.8h-0.4c-0.447 0-0.8-0.353-0.8-0.8s0.353-0.8 0.8-0.8zM26.8 11.6c-0.22 0-0.4 0.18-0.4 0.4s0.18 0.4 0.4 0.4c0.22 0 0.4-0.18 0.4-0.4s-0.18-0.4-0.4-0.4zM28.8 11.6c-0.22 0-0.4 0.18-0.4 0.4s0.18 0.4 0.4 0.4c0.22 0 0.4-0.18 0.4-0.4s-0.18-0.4-0.4-0.4zM5.33 13.714c-0.217 0.044-0.358 0.255-0.316 0.472 0.044 0.216 0.255 0.356 0.472 0.314 0.217-0.044 0.358-0.255 0.314-0.47-0.044-0.217-0.255-0.358-0.47-0.316zM26.512 13.714c-0.153 0.033-0.28 0.152-0.313 0.316-0.044 0.216 0.097 0.427 0.314 0.47 0.217 0.042 0.428-0.098 0.472-0.314 0.042-0.217-0.098-0.428-0.316-0.472-0.055-0.009-0.108-0.009-0.158 0zM6.025 15.733c-0.052 0-0.105 0.009-0.156 0.030-0.205 0.086-0.302 0.32-0.217 0.525 0.086 0.203 0.319 0.3 0.523 0.216s0.302-0.319 0.217-0.523c-0.064-0.153-0.211-0.245-0.367-0.247zM25.975 15.733c-0.156 0.002-0.303 0.094-0.367 0.247-0.084 0.205 0.012 0.439 0.217 0.523 0.203 0.084 0.438-0.012 0.522-0.216 0.084-0.205-0.012-0.439-0.216-0.525-0.052-0.020-0.105-0.030-0.156-0.030zM4.177 16.498c-0.052 0-0.105 0.009-0.156 0.031-0.203 0.084-0.3 0.317-0.216 0.522s0.319 0.302 0.522 0.217c0.205-0.086 0.302-0.319 0.217-0.523-0.064-0.153-0.211-0.245-0.367-0.247zM27.823 16.498c-0.156 0.002-0.303 0.094-0.367 0.247-0.084 0.205 0.012 0.438 0.217 0.523 0.203 0.084 0.438-0.012 0.522-0.217s-0.012-0.438-0.216-0.522c-0.052-0.022-0.105-0.031-0.156-0.031zM6.944 17.606c-0.050 0.011-0.1 0.031-0.145 0.063-0.184 0.122-0.234 0.37-0.111 0.555 0.123 0.183 0.37 0.233 0.555 0.109s0.234-0.37 0.111-0.555c-0.092-0.137-0.256-0.2-0.409-0.172zM25.056 17.606c-0.153-0.028-0.317 0.034-0.409 0.172-0.123 0.184-0.073 0.431 0.111 0.555s0.431 0.073 0.555-0.109c0.123-0.184 0.073-0.433-0.111-0.555-0.045-0.031-0.095-0.052-0.145-0.063zM8.363 19.238c-0.102 0-0.205 0.038-0.281 0.117-0.156 0.155-0.158 0.409 0 0.564 0.156 0.158 0.409 0.156 0.564 0 0.158-0.156 0.158-0.409 0-0.564-0.078-0.080-0.18-0.117-0.283-0.117zM23.637 19.238c-0.103 0-0.206 0.038-0.283 0.117-0.156 0.155-0.158 0.409 0 0.564 0.156 0.158 0.409 0.156 0.564 0 0.158-0.156 0.158-0.409 0-0.564-0.078-0.080-0.18-0.117-0.281-0.117zM25.052 20.65c-0.103 0-0.205 0.041-0.283 0.119-0.156 0.156-0.156 0.409 0 0.566s0.409 0.156 0.566 0c0.156-0.156 0.156-0.409 0-0.566-0.078-0.078-0.18-0.119-0.283-0.119zM6.95 20.652c-0.103 0-0.206 0.039-0.284 0.117-0.156 0.156-0.156 0.409 0 0.566s0.409 0.156 0.566 0c0.156-0.156 0.156-0.409 0-0.566-0.078-0.078-0.18-0.117-0.281-0.117zM12.4 22.8h7.2v0.8h-4.8v0.8h4.8v0.8h-4.8v0.8h4.727c-0.163 0.467-0.6 0.8-1.127 0.8h-4.8c-0.527 0-0.964-0.333-1.127-0.8h1.527v-0.8h-1.6v-0.8h1.6v-0.8h-1.6zM14.873 27.6h2.253c-0.163 0.467-0.6 0.8-1.127 0.8s-0.964-0.333-1.127-0.8z"></path>
</svg>
