<!-- Generated by IcoMoon.io -->
<svg version="1.1" xmlns="http://www.w3.org/2000/svg" width="32" height="32" viewBox="0 0 32 32">
<title>linkedin</title>
<path d="M6 3.6c-1.1 0-2 0.9-2 2v20c0 1.1 0.9 2 2 2h20c1.1 0 2-0.9 2-2v-20c0-1.1-0.9-2-2-2zM6 4.4h20c0.667 0 1.2 0.533 1.2 1.2v20c0 0.667-0.533 1.2-1.2 1.2h-20c-0.667 0-1.2-0.533-1.2-1.2v-20c0-0.667 0.533-1.2 1.2-1.2zM9.561 6.794c-1.32 0-2.398 1.078-2.398 2.395 0 1.319 1.078 2.397 2.398 2.397 1.317 0 2.394-1.078 2.394-2.397 0-1.317-1.077-2.395-2.394-2.395zM14.4 6.8c-0.22 0-0.4 0.18-0.4 0.4s0.18 0.4 0.4 0.4c0.22 0 0.4-0.18 0.4-0.4s-0.18-0.4-0.4-0.4zM16 6.8c-0.22 0-0.4 0.18-0.4 0.4s0.18 0.4 0.4 0.4c0.22 0 0.4-0.18 0.4-0.4s-0.18-0.4-0.4-0.4zM17.6 6.8c-0.22 0-0.4 0.18-0.4 0.4s0.18 0.4 0.4 0.4c0.22 0 0.4-0.18 0.4-0.4s-0.18-0.4-0.4-0.4zM19.2 6.8c-0.22 0-0.4 0.18-0.4 0.4s0.18 0.4 0.4 0.4c0.22 0 0.4-0.18 0.4-0.4s-0.18-0.4-0.4-0.4zM20.8 6.8c-0.22 0-0.4 0.18-0.4 0.4s0.18 0.4 0.4 0.4c0.22 0 0.4-0.18 0.4-0.4s-0.18-0.4-0.4-0.4zM22.4 6.8c-0.22 0-0.4 0.18-0.4 0.4s0.18 0.4 0.4 0.4c0.22 0 0.4-0.18 0.4-0.4s-0.18-0.4-0.4-0.4zM24 6.8c-0.22 0-0.4 0.18-0.4 0.4s0.18 0.4 0.4 0.4c0.22 0 0.4-0.18 0.4-0.4s-0.18-0.4-0.4-0.4zM9.561 7.594c0.883 0 1.594 0.711 1.594 1.595 0 0.886-0.711 1.597-1.594 1.597-0.889 0-1.598-0.711-1.598-1.597 0-0.884 0.709-1.595 1.598-1.595zM20.041 12.023c-1.266 0-2.238 0.492-2.903 1.123v-0.848h-4.098v11.87h4.238v-5.875c0-0.697 0.080-1.35 0.311-1.77 0.233-0.422 0.563-0.673 1.353-0.673 0.758 0 1 0.266 1.184 0.731 0.184 0.467 0.205 1.164 0.205 1.803v5.784h3.839v-0.8l0.4 0.4v-6.072c0-1.52-0.15-2.908-0.819-3.967-0.669-1.061-1.88-1.706-3.709-1.706zM7.438 12.298v11.87h4.244v-11.87zM20.041 12.823c1.655 0 2.508 0.5 3.033 1.333 0.525 0.831 0.695 2.078 0.695 3.541v5.672h-2.639v-4.984c0-0.644 0.008-1.417-0.261-2.097-0.267-0.678-0.92-1.238-1.928-1.238-1 0-1.702 0.447-2.053 1.087-0.352 0.639-0.411 1.408-0.411 2.156v5.075h-2.637v-10.27h2.498v1.512h0.689l0.113-0.213c0.389-0.736 1.373-1.575 2.902-1.575zM8.238 13.098h2.644v10.27h-2.644z"></path>
</svg>
