<!-- Generated by IcoMoon.io -->
<svg version="1.1" xmlns="http://www.w3.org/2000/svg" width="32" height="32" viewBox="0 0 32 32">
<title>listening</title>
<path d="M15.491 3.6c-1.936 0-3.677 1.059-4.939 2.089-1.262 1.031-2.067 2.066-2.067 2.066l-0.361 0.462 0.564 0.166c0 0 0.219 0.061 0.481 0.33 0.261 0.267 0.541 0.723 0.541 1.588 0 1.12 0.172 2.025 0.258 2.408-0.223 0.203-0.367 0.491-0.367 0.813 0 0.259 0.078 0.481 0.142 0.698 0.031 0.109 0.063 0.211 0.083 0.287s0.025 0.152 0.025 0.094c0 0.544 0.456 0.969 0.994 0.988 0.073 1.55 0.82 2.919 1.956 3.82v1.492c-0.577 0.175-1.961 0.622-3.37 1.288-0.92 0.434-1.845 0.958-2.566 1.578s-1.264 1.363-1.264 2.234v2.4h20.8v-2.4c0-0.872-0.544-1.614-1.264-2.234s-1.645-1.144-2.566-1.578c-1.409-0.666-2.794-1.113-3.37-1.288v-1.491c1.136-0.902 1.883-2.27 1.956-3.822 0.538-0.019 0.994-0.444 0.994-0.988 0 0.058 0.005-0.017 0.025-0.094s0.052-0.178 0.083-0.287c0.064-0.217 0.142-0.439 0.142-0.698 0-0.328-0.148-0.617-0.377-0.822 0.073-0.422 0.377-2.228 0.377-3.498 0-1.438-0.538-2.467-1.262-3.106-0.652-0.572-1.417-0.802-2.095-0.85-0.109-0.173-0.303-0.445-0.705-0.759-0.577-0.448-1.502-0.884-2.847-0.884zM15.491 4.4c1.175 0 1.905 0.364 2.353 0.716 0.45 0.352 0.598 0.661 0.598 0.661l0.109 0.223h0.248c0.533 0 1.25 0.203 1.808 0.695 0.559 0.492 0.992 1.261 0.992 2.505 0 1.116-0.266 2.744-0.344 3.2-0.002 0-0.003 0-0.006 0-0.034 0-0.028 0.008-0.050 0.011v-1.211c0-1.369-0.559-2.289-1.122-2.834s-1.152-0.745-1.152-0.745l-0.228-0.077-0.175 0.167c0 0-0.252 0.247-0.859 0.525s-1.548 0.564-2.864 0.564c-0.72 0-1.669 0.255-2.492 0.83-0.82 0.573-1.503 1.511-1.506 2.783-0.022-0.003-0.017-0.012-0.052-0.012-0.009 0-0.019 0.003-0.028 0.003-0.081-0.386-0.213-1.139-0.213-2.103 0-1.047-0.375-1.742-0.767-2.145-0.167-0.172-0.205-0.142-0.35-0.228 0.277-0.325 0.791-0.902 1.666-1.616 1.189-0.97 2.795-1.911 4.433-1.911zM18.8 8.463c0.097 0.037 0.35 0.117 0.722 0.477 0.438 0.425 0.878 1.103 0.878 2.261v2.522l0.602-0.353c0.103-0.059 0.198-0.113 0.266-0.147 0.008-0.005 0.011-0.005 0.019-0.009 0.183 0.019 0.314 0.147 0.314 0.306v0.002c0 0.030-0.048 0.264-0.109 0.473-0.031 0.103-0.063 0.208-0.089 0.303-0.025 0.095-0.052 0.162-0.052 0.303 0 0.106-0.087 0.2-0.225 0.2h-0.725v0.547c0 2.169-1.564 3.961-3.623 4.328l-0.114 0.019-0.086 0.080c-0.156 0.142-0.353 0.227-0.577 0.227s-0.42-0.084-0.577-0.227l-0.086-0.080-0.114-0.019c-2.059-0.367-3.623-2.159-3.623-4.328v-0.547h-0.725c-0.137 0-0.225-0.094-0.225-0.2 0-0.141-0.027-0.208-0.053-0.303s-0.058-0.2-0.089-0.303c-0.061-0.209-0.108-0.444-0.108-0.473 0-0.161 0.131-0.289 0.314-0.308 0.008 0.005 0.011 0.005 0.019 0.009 0.067 0.034 0.162 0.088 0.266 0.147l0.602 0.353v-1.302c0-0.997 0.497-1.667 1.166-2.134s1.519-0.686 2.034-0.686c1.433 0 2.492-0.314 3.197-0.636 0.523-0.239 0.661-0.386 0.803-0.502zM26.455 11.356c-0.077 0.003-0.152 0.028-0.214 0.072-1.594 1.078-2.641 2.906-2.641 4.972s1.047 3.894 2.641 4.972c0.119 0.083 0.272 0.095 0.402 0.033s0.217-0.191 0.227-0.334c0.009-0.144-0.059-0.281-0.18-0.361-1.381-0.934-2.289-2.512-2.289-4.309s0.908-3.375 2.289-4.309c0.15-0.098 0.216-0.286 0.161-0.456s-0.217-0.284-0.395-0.278zM27.573 13.014c-0.077 0.003-0.15 0.028-0.212 0.072-1.063 0.719-1.761 1.938-1.761 3.314s0.698 2.595 1.761 3.314c0.117 0.087 0.273 0.103 0.406 0.041 0.134-0.063 0.222-0.192 0.231-0.339 0.008-0.147-0.064-0.286-0.191-0.364-0.848-0.575-1.408-1.545-1.408-2.652s0.559-2.077 1.408-2.652c0.15-0.1 0.216-0.286 0.161-0.456-0.055-0.172-0.216-0.284-0.395-0.278zM13.8 13.2c-0.331 0-0.6 0.269-0.6 0.6s0.269 0.6 0.6 0.6c0.331 0 0.6-0.269 0.6-0.6s-0.269-0.6-0.6-0.6zM18.2 13.2c-0.331 0-0.6 0.269-0.6 0.6s0.269 0.6 0.6 0.6c0.331 0 0.6-0.269 0.6-0.6s-0.269-0.6-0.6-0.6zM28.694 14.672c-0.077 0.003-0.15 0.028-0.212 0.072-0.533 0.358-0.881 0.97-0.881 1.656s0.348 1.298 0.881 1.656c0.117 0.087 0.273 0.102 0.406 0.039 0.131-0.063 0.219-0.192 0.228-0.337 0.008-0.147-0.064-0.286-0.188-0.364-0.319-0.216-0.528-0.577-0.528-0.994s0.209-0.778 0.528-0.994c0.15-0.1 0.216-0.286 0.161-0.456s-0.216-0.284-0.395-0.278zM13.6 19.93c0.427 0.223 0.887 0.395 1.377 0.494 0.283 0.225 0.633 0.377 1.023 0.377 0.389 0 0.738-0.152 1.019-0.375 0.491-0.097 0.953-0.269 1.381-0.494v2.344c-0.048 0.097-0.681 1.325-2.4 1.325s-2.352-1.228-2.4-1.325zM12.8 21.742v0.752l0.042 0.086c0 0 0.944 1.82 3.158 1.82s3.158-1.82 3.158-1.82l0.042-0.086v-0.752c0.642 0.202 1.819 0.598 3.030 1.17 0.88 0.416 1.755 0.917 2.384 1.459s0.986 1.1 0.986 1.628v1.6h-19.2v-1.6c0-0.528 0.356-1.086 0.986-1.628s1.505-1.044 2.384-1.459c1.211-0.572 2.387-0.969 3.030-1.17zM8 26c-0.22 0-0.4 0.18-0.4 0.4s0.18 0.4 0.4 0.4c0.22 0 0.4-0.18 0.4-0.4s-0.18-0.4-0.4-0.4zM9.6 26c-0.22 0-0.4 0.18-0.4 0.4s0.18 0.4 0.4 0.4c0.22 0 0.4-0.18 0.4-0.4s-0.18-0.4-0.4-0.4zM11.2 26c-0.22 0-0.4 0.18-0.4 0.4s0.18 0.4 0.4 0.4c0.22 0 0.4-0.18 0.4-0.4s-0.18-0.4-0.4-0.4zM12.8 26c-0.22 0-0.4 0.18-0.4 0.4s0.18 0.4 0.4 0.4c0.22 0 0.4-0.18 0.4-0.4s-0.18-0.4-0.4-0.4zM14.4 26c-0.22 0-0.4 0.18-0.4 0.4s0.18 0.4 0.4 0.4c0.22 0 0.4-0.18 0.4-0.4s-0.18-0.4-0.4-0.4zM16 26c-0.22 0-0.4 0.18-0.4 0.4s0.18 0.4 0.4 0.4c0.22 0 0.4-0.18 0.4-0.4s-0.18-0.4-0.4-0.4zM17.6 26c-0.22 0-0.4 0.18-0.4 0.4s0.18 0.4 0.4 0.4c0.22 0 0.4-0.18 0.4-0.4s-0.18-0.4-0.4-0.4zM19.2 26c-0.22 0-0.4 0.18-0.4 0.4s0.18 0.4 0.4 0.4c0.22 0 0.4-0.18 0.4-0.4s-0.18-0.4-0.4-0.4zM20.8 26c-0.22 0-0.4 0.18-0.4 0.4s0.18 0.4 0.4 0.4c0.22 0 0.4-0.18 0.4-0.4s-0.18-0.4-0.4-0.4zM22.4 26c-0.22 0-0.4 0.18-0.4 0.4s0.18 0.4 0.4 0.4c0.22 0 0.4-0.18 0.4-0.4s-0.18-0.4-0.4-0.4zM24 26c-0.22 0-0.4 0.18-0.4 0.4s0.18 0.4 0.4 0.4c0.22 0 0.4-0.18 0.4-0.4s-0.18-0.4-0.4-0.4z"></path>
</svg>
