<!-- Generated by IcoMoon.io -->
<svg version="1.1" xmlns="http://www.w3.org/2000/svg" width="32" height="32" viewBox="0 0 32 32">
<title>literature</title>
<path d="M3.6 5.6v2h-1.2c-0.438 0-0.8 0.362-0.8 0.8v17.6c0 0.438 0.363 0.8 0.8 0.8h11.605c0.42 0.692 1.128 1.2 1.995 1.2s1.575-0.508 1.995-1.2h11.605c0.438 0 0.8-0.363 0.8-0.8v-17.6c0-0.438-0.363-0.8-0.8-0.8h-1.2v-2h-10.8c-0.67 0-1.236 0.355-1.6 0.864-0.364-0.509-0.93-0.864-1.6-0.864zM4.4 6.4h10c0.667 0 1.2 0.533 1.2 1.2h0.8c0-0.667 0.533-1.2 1.2-1.2h10v17.6h-10c-0.67 0-1.236 0.355-1.6 0.864-0.364-0.509-0.93-0.864-1.6-0.864h-10zM2.4 8.4h1.2v16.4h10.8c0.667 0 1.2 0.533 1.2 1.2h0.8c0-0.667 0.533-1.2 1.2-1.2h10.8v-16.4h1.2v17.6h-12.031l-0.105 0.239c-0.247 0.566-0.805 0.961-1.464 0.961s-1.217-0.395-1.464-0.961l-0.105-0.239h-12.031zM16 8.4c-0.22 0-0.4 0.18-0.4 0.4s0.18 0.4 0.4 0.4c0.22 0 0.4-0.18 0.4-0.4s-0.18-0.4-0.4-0.4zM6.4 10v0.8h6.8v-0.8zM16 10c-0.22 0-0.4 0.18-0.4 0.4s0.18 0.4 0.4 0.4c0.22 0 0.4-0.18 0.4-0.4s-0.18-0.4-0.4-0.4zM18.8 10v0.8h6.8v-0.8zM16 11.6c-0.22 0-0.4 0.18-0.4 0.4s0.18 0.4 0.4 0.4c0.22 0 0.4-0.18 0.4-0.4s-0.18-0.4-0.4-0.4zM6.4 12.4v0.8h5.6v-0.8zM18.8 12.4v0.8h5.6v-0.8zM16 13.2c-0.22 0-0.4 0.18-0.4 0.4s0.18 0.4 0.4 0.4c0.22 0 0.4-0.18 0.4-0.4s-0.18-0.4-0.4-0.4zM6.4 14.8v0.8h6.8v-0.8zM16 14.8c-0.22 0-0.4 0.18-0.4 0.4s0.18 0.4 0.4 0.4c0.22 0 0.4-0.18 0.4-0.4s-0.18-0.4-0.4-0.4zM18.8 14.8v0.8h6.8v-0.8zM16 16.4c-0.22 0-0.4 0.18-0.4 0.4s0.18 0.4 0.4 0.4c0.22 0 0.4-0.18 0.4-0.4s-0.18-0.4-0.4-0.4zM6.4 17.2v0.8h5.6v-0.8zM18.8 17.2v0.8h5.6v-0.8zM16 18c-0.22 0-0.4 0.18-0.4 0.4s0.18 0.4 0.4 0.4c0.22 0 0.4-0.18 0.4-0.4s-0.18-0.4-0.4-0.4zM6.4 19.6v0.8h6.8v-0.8zM16 19.6c-0.22 0-0.4 0.18-0.4 0.4s0.18 0.4 0.4 0.4c0.22 0 0.4-0.18 0.4-0.4s-0.18-0.4-0.4-0.4zM18.8 19.6v0.8h6.8v-0.8zM16 21.2c-0.22 0-0.4 0.18-0.4 0.4s0.18 0.4 0.4 0.4c0.22 0 0.4-0.18 0.4-0.4s-0.18-0.4-0.4-0.4zM16 22.8c-0.22 0-0.4 0.18-0.4 0.4s0.18 0.4 0.4 0.4c0.22 0 0.4-0.18 0.4-0.4s-0.18-0.4-0.4-0.4z"></path>
</svg>
