<!-- Generated by IcoMoon.io -->
<svg version="1.1" xmlns="http://www.w3.org/2000/svg" width="42" height="32" viewBox="0 0 42 32">
<title>loading</title>
<path d="M3.527 5.485c-1.79 0-3.263 1.452-3.263 3.24v14.519c0 1.788 1.473 3.241 3.263 3.241h35.334c0.762 0 1.433-0.417 1.881-1.011 0.372-0.494 0.602-1.121 0.673-1.806 0.019-0.139 0.031-0.28 0.031-0.424v-14.519c0-0.144-0.013-0.284-0.031-0.424-0.070-0.685-0.3-1.312-0.673-1.806-0.448-0.595-1.119-1.010-1.881-1.010h-35.334zM3.527 6.687h21.805v18.597h-21.805c-1.155 0-2.069-0.912-2.069-2.040v-14.519c0-1.127 0.914-2.038 2.069-2.038zM26.525 6.687h11.658c1.154 0 2.069 0.911 2.069 2.038v14.519c0 1.128-0.914 2.040-2.069 2.040h-11.658v-18.597zM2.652 7.288c-0.33 0-0.597 0.269-0.597 0.601s0.267 0.601 0.597 0.601c0.33 0 0.597-0.269 0.597-0.601s-0.267-0.601-0.597-0.601zM6.232 7.288c-0.33 0-0.597 0.269-0.597 0.601s0.267 0.601 0.597 0.601c0.33 0 0.597-0.269 0.597-0.601s-0.267-0.601-0.597-0.601zM9.814 7.288c-0.33 0-0.597 0.269-0.597 0.601s0.267 0.601 0.597 0.601c0.33 0 0.597-0.269 0.597-0.601s-0.267-0.601-0.597-0.601zM13.395 7.288c-0.33 0-0.597 0.269-0.597 0.601s0.267 0.601 0.597 0.601c0.33 0 0.597-0.269 0.597-0.601s-0.267-0.601-0.597-0.601zM16.976 7.288c-0.33 0-0.597 0.269-0.597 0.601s0.267 0.601 0.597 0.601c0.33 0 0.597-0.269 0.597-0.601s-0.267-0.601-0.597-0.601zM20.557 7.288c-0.33 0-0.597 0.269-0.597 0.601s0.267 0.601 0.597 0.601c0.33 0 0.597-0.269 0.597-0.601s-0.267-0.601-0.597-0.601zM24.138 7.288c-0.33 0-0.597 0.269-0.597 0.601s0.267 0.601 0.597 0.601c0.33 0 0.597-0.269 0.597-0.601s-0.267-0.601-0.597-0.601zM4.442 9.090c-0.33 0-0.597 0.269-0.597 0.601s0.267 0.601 0.597 0.601c0.33 0 0.597-0.269 0.597-0.601s-0.267-0.601-0.597-0.601zM8.023 9.090c-0.33 0-0.597 0.269-0.597 0.601s0.267 0.601 0.597 0.601c0.33 0 0.597-0.269 0.597-0.601s-0.267-0.601-0.597-0.601zM11.604 9.090c-0.33 0-0.597 0.269-0.597 0.601s0.267 0.601 0.597 0.601c0.33 0 0.597-0.269 0.597-0.601s-0.267-0.601-0.597-0.601zM15.185 9.090c-0.33 0-0.597 0.269-0.597 0.601s0.267 0.601 0.597 0.601c0.33 0 0.597-0.269 0.597-0.601s-0.267-0.601-0.597-0.601zM18.767 9.090c-0.33 0-0.597 0.269-0.597 0.601s0.267 0.601 0.597 0.601c0.33 0 0.597-0.269 0.597-0.601s-0.267-0.601-0.597-0.601zM22.347 9.090c-0.33 0-0.597 0.269-0.597 0.601s0.267 0.601 0.597 0.601c0.33 0 0.597-0.269 0.597-0.601s-0.267-0.601-0.597-0.601zM2.652 10.893c-0.33 0-0.597 0.269-0.597 0.601s0.267 0.601 0.597 0.601c0.33 0 0.597-0.269 0.597-0.601s-0.267-0.601-0.597-0.601zM6.232 10.893c-0.33 0-0.597 0.269-0.597 0.601s0.267 0.601 0.597 0.601c0.33 0 0.597-0.269 0.597-0.601s-0.267-0.601-0.597-0.601zM9.814 10.893c-0.33 0-0.597 0.269-0.597 0.601s0.267 0.601 0.597 0.601c0.33 0 0.597-0.269 0.597-0.601s-0.267-0.601-0.597-0.601zM13.395 10.893c-0.33 0-0.597 0.269-0.597 0.601s0.267 0.601 0.597 0.601c0.33 0 0.597-0.269 0.597-0.601s-0.267-0.601-0.597-0.601zM16.976 10.893c-0.33 0-0.597 0.269-0.597 0.601s0.267 0.601 0.597 0.601c0.33 0 0.597-0.269 0.597-0.601s-0.267-0.601-0.597-0.601zM20.557 10.893c-0.33 0-0.597 0.269-0.597 0.601s0.267 0.601 0.597 0.601c0.33 0 0.597-0.269 0.597-0.601s-0.267-0.601-0.597-0.601zM24.138 10.893c-0.33 0-0.597 0.269-0.597 0.601s0.267 0.601 0.597 0.601c0.33 0 0.597-0.269 0.597-0.601s-0.267-0.601-0.597-0.601zM4.442 12.696c-0.33 0-0.597 0.269-0.597 0.601s0.267 0.601 0.597 0.601c0.33 0 0.597-0.269 0.597-0.601s-0.267-0.601-0.597-0.601zM8.023 12.696c-0.33 0-0.597 0.269-0.597 0.601s0.267 0.601 0.597 0.601c0.33 0 0.597-0.269 0.597-0.601s-0.267-0.601-0.597-0.601zM11.604 12.696c-0.33 0-0.597 0.269-0.597 0.601s0.267 0.601 0.597 0.601c0.33 0 0.597-0.269 0.597-0.601s-0.267-0.601-0.597-0.601zM15.185 12.696c-0.33 0-0.597 0.269-0.597 0.601s0.267 0.601 0.597 0.601c0.33 0 0.597-0.269 0.597-0.601s-0.267-0.601-0.597-0.601zM18.767 12.696c-0.33 0-0.597 0.269-0.597 0.601s0.267 0.601 0.597 0.601c0.33 0 0.597-0.269 0.597-0.601s-0.267-0.601-0.597-0.601zM22.347 12.696c-0.33 0-0.597 0.269-0.597 0.601s0.267 0.601 0.597 0.601c0.33 0 0.597-0.269 0.597-0.601s-0.267-0.601-0.597-0.601zM2.652 14.498c-0.33 0-0.597 0.269-0.597 0.601s0.267 0.601 0.597 0.601c0.33 0 0.597-0.269 0.597-0.601s-0.267-0.601-0.597-0.601zM6.232 14.498c-0.33 0-0.597 0.269-0.597 0.601s0.267 0.601 0.597 0.601c0.33 0 0.597-0.269 0.597-0.601s-0.267-0.601-0.597-0.601zM9.814 14.498c-0.33 0-0.597 0.269-0.597 0.601s0.267 0.601 0.597 0.601c0.33 0 0.597-0.269 0.597-0.601s-0.267-0.601-0.597-0.601zM13.395 14.498c-0.33 0-0.597 0.269-0.597 0.601s0.267 0.601 0.597 0.601c0.33 0 0.597-0.269 0.597-0.601s-0.267-0.601-0.597-0.601zM16.976 14.498c-0.33 0-0.597 0.269-0.597 0.601s0.267 0.601 0.597 0.601c0.33 0 0.597-0.269 0.597-0.601s-0.267-0.601-0.597-0.601zM20.557 14.498c-0.33 0-0.597 0.269-0.597 0.601s0.267 0.601 0.597 0.601c0.33 0 0.597-0.269 0.597-0.601s-0.267-0.601-0.597-0.601zM24.138 14.498c-0.33 0-0.597 0.269-0.597 0.601s0.267 0.601 0.597 0.601c0.33 0 0.597-0.269 0.597-0.601s-0.267-0.601-0.597-0.601zM4.442 16.3c-0.33 0-0.597 0.269-0.597 0.601s0.267 0.601 0.597 0.601c0.33 0 0.597-0.269 0.597-0.601s-0.267-0.601-0.597-0.601zM8.023 16.3c-0.33 0-0.597 0.269-0.597 0.601s0.267 0.601 0.597 0.601c0.33 0 0.597-0.269 0.597-0.601s-0.267-0.601-0.597-0.601zM11.604 16.3c-0.33 0-0.597 0.269-0.597 0.601s0.267 0.601 0.597 0.601c0.33 0 0.597-0.269 0.597-0.601s-0.267-0.601-0.597-0.601zM15.185 16.3c-0.33 0-0.597 0.269-0.597 0.601s0.267 0.601 0.597 0.601c0.33 0 0.597-0.269 0.597-0.601s-0.267-0.601-0.597-0.601zM18.767 16.3c-0.33 0-0.597 0.269-0.597 0.601s0.267 0.601 0.597 0.601c0.33 0 0.597-0.269 0.597-0.601s-0.267-0.601-0.597-0.601zM22.347 16.3c-0.33 0-0.597 0.269-0.597 0.601s0.267 0.601 0.597 0.601c0.33 0 0.597-0.269 0.597-0.601s-0.267-0.601-0.597-0.601zM2.652 18.103c-0.33 0-0.597 0.269-0.597 0.601s0.267 0.601 0.597 0.601c0.33 0 0.597-0.269 0.597-0.601s-0.267-0.601-0.597-0.601zM6.232 18.103c-0.33 0-0.597 0.269-0.597 0.601s0.267 0.601 0.597 0.601c0.33 0 0.597-0.269 0.597-0.601s-0.267-0.601-0.597-0.601zM9.814 18.103c-0.33 0-0.597 0.269-0.597 0.601s0.267 0.601 0.597 0.601c0.33 0 0.597-0.269 0.597-0.601s-0.267-0.601-0.597-0.601zM13.395 18.103c-0.33 0-0.597 0.269-0.597 0.601s0.267 0.601 0.597 0.601c0.33 0 0.597-0.269 0.597-0.601s-0.267-0.601-0.597-0.601zM16.976 18.103c-0.33 0-0.597 0.269-0.597 0.601s0.267 0.601 0.597 0.601c0.33 0 0.597-0.269 0.597-0.601s-0.267-0.601-0.597-0.601zM20.557 18.103c-0.33 0-0.597 0.269-0.597 0.601s0.267 0.601 0.597 0.601c0.33 0 0.597-0.269 0.597-0.601s-0.267-0.601-0.597-0.601zM24.138 18.103c-0.33 0-0.597 0.269-0.597 0.601s0.267 0.601 0.597 0.601c0.33 0 0.597-0.269 0.597-0.601s-0.267-0.601-0.597-0.601zM4.442 19.905c-0.33 0-0.597 0.269-0.597 0.601s0.267 0.601 0.597 0.601c0.33 0 0.597-0.269 0.597-0.601s-0.267-0.601-0.597-0.601zM8.023 19.905c-0.33 0-0.597 0.269-0.597 0.601s0.267 0.601 0.597 0.601c0.33 0 0.597-0.269 0.597-0.601s-0.267-0.601-0.597-0.601zM11.604 19.905c-0.33 0-0.597 0.269-0.597 0.601s0.267 0.601 0.597 0.601c0.33 0 0.597-0.269 0.597-0.601s-0.267-0.601-0.597-0.601zM15.185 19.905c-0.33 0-0.597 0.269-0.597 0.601s0.267 0.601 0.597 0.601c0.33 0 0.597-0.269 0.597-0.601s-0.267-0.601-0.597-0.601zM18.767 19.905c-0.33 0-0.597 0.269-0.597 0.601s0.267 0.601 0.597 0.601c0.33 0 0.597-0.269 0.597-0.601s-0.267-0.601-0.597-0.601zM22.347 19.905c-0.33 0-0.597 0.269-0.597 0.601s0.267 0.601 0.597 0.601c0.33 0 0.597-0.269 0.597-0.601s-0.267-0.601-0.597-0.601zM2.652 21.708c-0.33 0-0.597 0.269-0.597 0.601s0.267 0.601 0.597 0.601c0.33 0 0.597-0.269 0.597-0.601s-0.267-0.601-0.597-0.601zM6.232 21.708c-0.33 0-0.597 0.269-0.597 0.601s0.267 0.601 0.597 0.601c0.33 0 0.597-0.269 0.597-0.601s-0.267-0.601-0.597-0.601zM9.814 21.708c-0.33 0-0.597 0.269-0.597 0.601s0.267 0.601 0.597 0.601c0.33 0 0.597-0.269 0.597-0.601s-0.267-0.601-0.597-0.601zM13.395 21.708c-0.33 0-0.597 0.269-0.597 0.601s0.267 0.601 0.597 0.601c0.33 0 0.597-0.269 0.597-0.601s-0.267-0.601-0.597-0.601zM16.976 21.708c-0.33 0-0.597 0.269-0.597 0.601s0.267 0.601 0.597 0.601c0.33 0 0.597-0.269 0.597-0.601s-0.267-0.601-0.597-0.601zM20.557 21.708c-0.33 0-0.597 0.269-0.597 0.601s0.267 0.601 0.597 0.601c0.33 0 0.597-0.269 0.597-0.601s-0.267-0.601-0.597-0.601zM24.138 21.708c-0.33 0-0.597 0.269-0.597 0.601s0.267 0.601 0.597 0.601c0.33 0 0.597-0.269 0.597-0.601s-0.267-0.601-0.597-0.601zM4.442 23.511c-0.33 0-0.597 0.269-0.597 0.601s0.267 0.601 0.597 0.601c0.33 0 0.597-0.269 0.597-0.601s-0.267-0.601-0.597-0.601zM8.023 23.511c-0.33 0-0.597 0.269-0.597 0.601s0.267 0.601 0.597 0.601c0.33 0 0.597-0.269 0.597-0.601s-0.267-0.601-0.597-0.601zM11.604 23.511c-0.33 0-0.597 0.269-0.597 0.601s0.267 0.601 0.597 0.601c0.33 0 0.597-0.269 0.597-0.601s-0.267-0.601-0.597-0.601zM15.185 23.511c-0.33 0-0.597 0.269-0.597 0.601s0.267 0.601 0.597 0.601c0.33 0 0.597-0.269 0.597-0.601s-0.267-0.601-0.597-0.601zM18.767 23.511c-0.33 0-0.597 0.269-0.597 0.601s0.267 0.601 0.597 0.601c0.33 0 0.597-0.269 0.597-0.601s-0.267-0.601-0.597-0.601zM22.347 23.511c-0.33 0-0.597 0.269-0.597 0.601s0.267 0.601 0.597 0.601c0.33 0 0.597-0.269 0.597-0.601s-0.267-0.601-0.597-0.601z"></path>
</svg>
