<!-- Generated by IcoMoon.io -->
<svg version="1.1" xmlns="http://www.w3.org/2000/svg" width="32" height="32" viewBox="0 0 32 32">
<title>macbook</title>
<path d="M3.6 5.6c-0.879 0-1.6 0.721-1.6 1.6v15.2c0 0.292 0.085 0.563 0.224 0.8h-1.824v1.2c0 1.1 0.9 2 2 2h27.2c1.1 0 2-0.9 2-2v-1.2h-1.824c0.139-0.237 0.224-0.508 0.224-0.8v-15.2c0-0.879-0.721-1.6-1.6-1.6h-24.8zM3.6 6.4h24.8c0.447 0 0.8 0.353 0.8 0.8v15.2c0 0.447-0.353 0.8-0.8 0.8h-9.6v0.8l-0.4-0.4c0 0.226-0.174 0.4-0.4 0.4h-4c-0.226 0-0.4-0.174-0.4-0.4l-0.4 0.4v-0.8h-9.6c-0.447 0-0.8-0.353-0.8-0.8v-15.2c0-0.447 0.353-0.8 0.8-0.8zM4.8 8c-0.221 0-0.4 0.179-0.4 0.4v0c0 0.221 0.179 0.4 0.4 0.4v0c0.221 0 0.4-0.179 0.4-0.4v0c0-0.221-0.179-0.4-0.4-0.4v0zM6.4 8c-0.221 0-0.4 0.179-0.4 0.4v0c0 0.221 0.179 0.4 0.4 0.4v0c0.221 0 0.4-0.179 0.4-0.4v0c0-0.221-0.179-0.4-0.4-0.4v0zM8 8c-0.221 0-0.4 0.179-0.4 0.4v0c0 0.221 0.179 0.4 0.4 0.4v0c0.221 0 0.4-0.179 0.4-0.4v0c0-0.221-0.179-0.4-0.4-0.4v0zM9.6 8c-0.221 0-0.4 0.179-0.4 0.4v0c0 0.221 0.179 0.4 0.4 0.4v0c0.221 0 0.4-0.179 0.4-0.4v0c0-0.221-0.179-0.4-0.4-0.4v0zM11.2 8c-0.221 0-0.4 0.179-0.4 0.4v0c0 0.221 0.179 0.4 0.4 0.4v0c0.221 0 0.4-0.179 0.4-0.4v0c0-0.221-0.179-0.4-0.4-0.4v0zM12.8 8c-0.221 0-0.4 0.179-0.4 0.4v0c0 0.221 0.179 0.4 0.4 0.4v0c0.221 0 0.4-0.179 0.4-0.4v0c0-0.221-0.179-0.4-0.4-0.4v0zM14.4 8c-0.221 0-0.4 0.179-0.4 0.4v0c0 0.221 0.179 0.4 0.4 0.4v0c0.221 0 0.4-0.179 0.4-0.4v0c0-0.221-0.179-0.4-0.4-0.4v0zM16 8c-0.221 0-0.4 0.179-0.4 0.4v0c0 0.221 0.179 0.4 0.4 0.4v0c0.221 0 0.4-0.179 0.4-0.4v0c0-0.221-0.179-0.4-0.4-0.4v0zM17.6 8c-0.221 0-0.4 0.179-0.4 0.4v0c0 0.221 0.179 0.4 0.4 0.4v0c0.221 0 0.4-0.179 0.4-0.4v0c0-0.221-0.179-0.4-0.4-0.4v0zM19.2 8c-0.221 0-0.4 0.179-0.4 0.4v0c0 0.221 0.179 0.4 0.4 0.4v0c0.221 0 0.4-0.179 0.4-0.4v0c0-0.221-0.179-0.4-0.4-0.4v0zM20.8 8c-0.221 0-0.4 0.179-0.4 0.4v0c0 0.221 0.179 0.4 0.4 0.4v0c0.221 0 0.4-0.179 0.4-0.4v0c0-0.221-0.179-0.4-0.4-0.4v0zM22.4 8c-0.221 0-0.4 0.179-0.4 0.4v0c0 0.221 0.179 0.4 0.4 0.4v0c0.221 0 0.4-0.179 0.4-0.4v0c0-0.221-0.179-0.4-0.4-0.4v0zM24 8c-0.221 0-0.4 0.179-0.4 0.4v0c0 0.221 0.179 0.4 0.4 0.4v0c0.221 0 0.4-0.179 0.4-0.4v0c0-0.221-0.179-0.4-0.4-0.4v0zM25.6 8c-0.221 0-0.4 0.179-0.4 0.4v0c0 0.221 0.179 0.4 0.4 0.4v0c0.221 0 0.4-0.179 0.4-0.4v0c0-0.221-0.179-0.4-0.4-0.4v0zM27.2 8c-0.221 0-0.4 0.179-0.4 0.4v0c0 0.221 0.179 0.4 0.4 0.4v0c0.221 0 0.4-0.179 0.4-0.4v0c0-0.221-0.179-0.4-0.4-0.4v0zM4.8 9.6c-0.221 0-0.4 0.179-0.4 0.4v0c0 0.221 0.179 0.4 0.4 0.4v0c0.221 0 0.4-0.179 0.4-0.4v0c0-0.221-0.179-0.4-0.4-0.4v0zM27.2 9.6c-0.221 0-0.4 0.179-0.4 0.4v0c0 0.221 0.179 0.4 0.4 0.4v0c0.221 0 0.4-0.179 0.4-0.4v0c0-0.221-0.179-0.4-0.4-0.4v0zM4.8 11.2c-0.221 0-0.4 0.179-0.4 0.4v0c0 0.221 0.179 0.4 0.4 0.4v0c0.221 0 0.4-0.179 0.4-0.4v0c0-0.221-0.179-0.4-0.4-0.4v0zM27.2 11.2c-0.221 0-0.4 0.179-0.4 0.4v0c0 0.221 0.179 0.4 0.4 0.4v0c0.221 0 0.4-0.179 0.4-0.4v0c0-0.221-0.179-0.4-0.4-0.4v0zM17.191 12.4c-0.313 0.052-0.672 0.258-0.895 0.568s-0.358 0.671-0.268 1.032c0.358 0 0.671-0.206 0.895-0.516 0.179-0.258 0.314-0.672 0.269-1.084zM4.8 12.8c-0.221 0-0.4 0.179-0.4 0.4v0c0 0.221 0.179 0.4 0.4 0.4v0c0.221 0 0.4-0.179 0.4-0.4v0c0-0.221-0.179-0.4-0.4-0.4v0zM27.2 12.8c-0.221 0-0.4 0.179-0.4 0.4v0c0 0.221 0.179 0.4 0.4 0.4v0c0.221 0 0.4-0.179 0.4-0.4v0c0-0.221-0.179-0.4-0.4-0.4v0zM14.82 14c-0.488 0-0.976 0.288-1.318 0.767-0.488 0.719-0.391 2.061 0.341 3.164 0.244 0.432 0.586 0.863 1.074 0.863 0.44 0.048 0.537-0.24 1.123-0.24 0.537-0.048 0.634 0.24 1.073 0.24s0.831-0.527 1.123-0.911c0.146-0.288 0.243-0.432 0.439-0.767-1.074-0.432-1.269-1.918-0.195-2.493-0.342-0.384-0.781-0.623-1.22-0.623-0.586 0-0.83 0.287-1.22 0.287s-0.732-0.287-1.22-0.287zM4.8 14.4c-0.221 0-0.4 0.179-0.4 0.4v0c0 0.221 0.179 0.4 0.4 0.4v0c0.221 0 0.4-0.179 0.4-0.4v0c0-0.221-0.179-0.4-0.4-0.4v0zM27.2 14.4c-0.221 0-0.4 0.179-0.4 0.4v0c0 0.221 0.179 0.4 0.4 0.4v0c0.221 0 0.4-0.179 0.4-0.4v0c0-0.221-0.179-0.4-0.4-0.4v0zM4.8 16c-0.221 0-0.4 0.179-0.4 0.4v0c0 0.221 0.179 0.4 0.4 0.4v0c0.221 0 0.4-0.179 0.4-0.4v0c0-0.221-0.179-0.4-0.4-0.4v0zM27.2 16c-0.221 0-0.4 0.179-0.4 0.4v0c0 0.221 0.179 0.4 0.4 0.4v0c0.221 0 0.4-0.179 0.4-0.4v0c0-0.221-0.179-0.4-0.4-0.4v0zM4.8 17.6c-0.221 0-0.4 0.179-0.4 0.4v0c0 0.221 0.179 0.4 0.4 0.4v0c0.221 0 0.4-0.179 0.4-0.4v0c0-0.221-0.179-0.4-0.4-0.4v0zM27.2 17.6c-0.221 0-0.4 0.179-0.4 0.4v0c0 0.221 0.179 0.4 0.4 0.4v0c0.221 0 0.4-0.179 0.4-0.4v0c0-0.221-0.179-0.4-0.4-0.4v0zM4.8 19.2c-0.221 0-0.4 0.179-0.4 0.4v0c0 0.221 0.179 0.4 0.4 0.4v0c0.221 0 0.4-0.179 0.4-0.4v0c0-0.221-0.179-0.4-0.4-0.4v0zM27.2 19.2c-0.221 0-0.4 0.179-0.4 0.4v0c0 0.221 0.179 0.4 0.4 0.4v0c0.221 0 0.4-0.179 0.4-0.4v0c0-0.221-0.179-0.4-0.4-0.4v0zM4.8 20.8c-0.221 0-0.4 0.179-0.4 0.4v0c0 0.221 0.179 0.4 0.4 0.4v0c0.221 0 0.4-0.179 0.4-0.4v0c0-0.221-0.179-0.4-0.4-0.4v0zM27.2 20.8c-0.221 0-0.4 0.179-0.4 0.4v0c0 0.221 0.179 0.4 0.4 0.4v0c0.221 0 0.4-0.179 0.4-0.4v0c0-0.221-0.179-0.4-0.4-0.4v0zM1.2 24h11.766c0.177 0.443 0.531 0.8 1.034 0.8h4c0.503 0 0.856-0.357 1.034-0.8h11.766v0.4c0 0.667-0.533 1.2-1.2 1.2h-27.2c-0.667 0-1.2-0.533-1.2-1.2v-0.4z"></path>
</svg>
