<!-- Generated by IcoMoon.io -->
<svg version="1.1" xmlns="http://www.w3.org/2000/svg" width="32" height="32" viewBox="0 0 32 32">
<title>machine</title>
<path d="M15.582 19.749h0.836v-0.838h-0.836v0.838zM15.582 21.425h0.836v-0.838h-0.836v0.838zM15.582 23.101h0.836v-0.838h-0.836v0.838zM25.619 13.044h0.836v-0.838h-0.836v0.838zM25.619 11.368h0.836v-0.838h-0.836v0.838zM25.619 9.691h0.836v-0.838h-0.836v0.838zM27.71 25.197c-0.23 0-0.418-0.188-0.418-0.419s0.188-0.419 0.418-0.419c0.231 0 0.418 0.188 0.418 0.419s-0.188 0.419-0.418 0.419v0zM22.273 8.015c-0.23 0-0.418-0.188-0.418-0.419s0.188-0.419 0.418-0.419 0.418 0.188 0.418 0.419c0 0.231-0.188 0.419-0.418 0.419v0zM28.128 23.598v-15.163c0-0.693-0.563-1.257-1.255-1.257h-3.423c-0.173-0.487-0.633-0.838-1.178-0.838-0.692 0-1.255 0.564-1.255 1.257s0.563 1.257 1.255 1.257c0.544 0 1.004-0.351 1.178-0.838h3.423c0.23 0 0.418 0.188 0.418 0.419v15.163c-0.486 0.173-0.836 0.635-0.836 1.18 0 0.693 0.563 1.257 1.255 1.257s1.255-0.564 1.255-1.257c0-0.546-0.351-1.006-0.837-1.18v0zM5.545 13.044h0.836v-0.838h-0.836v0.838zM5.545 11.368h0.836v-0.838h-0.836v0.838zM5.545 9.692h0.836v-0.838h-0.836v0.838zM4.29 25.197c-0.23 0-0.418-0.188-0.418-0.419s0.188-0.419 0.418-0.419c0.231 0 0.418 0.188 0.418 0.419s-0.188 0.419-0.418 0.419v0zM9.727 7.177c0.23 0 0.418 0.188 0.418 0.419s-0.188 0.419-0.418 0.419-0.418-0.188-0.418-0.419c0-0.231 0.188-0.419 0.418-0.419v0zM4.708 23.598v-15.163c0-0.231 0.188-0.419 0.418-0.419h3.423c0.173 0.487 0.633 0.838 1.178 0.838 0.692 0 1.255-0.564 1.255-1.257s-0.563-1.257-1.255-1.257c-0.544 0-1.004 0.352-1.178 0.838h-3.423c-0.692 0-1.255 0.564-1.255 1.257v15.163c-0.486 0.173-0.836 0.635-0.836 1.18 0 0.693 0.563 1.257 1.255 1.257s1.255-0.564 1.255-1.257c0-0.546-0.351-1.006-0.836-1.18v0zM13.909 16.118v7.255c-1.248-0.726-2.091-2.076-2.091-3.624 0-1.525 0.803-2.891 2.091-3.631v0zM24.364 21.006h-1.79l-0.077 0.32c-0.163 0.674-0.428 1.317-0.79 1.909l-0.172 0.281 1.267 1.269-1.774 1.778-1.266-1.269-0.281 0.172c-0.591 0.362-1.232 0.628-1.905 0.792l-0.32 0.078v1.794h-2.509v-1.794l-0.32-0.077c-0.673-0.163-1.314-0.429-1.905-0.792l-0.281-0.172-1.266 1.269-1.774-1.778 1.267-1.269-0.172-0.281c-0.362-0.593-0.627-1.235-0.79-1.909l-0.078-0.321h-1.79v-2.514h1.79l0.077-0.321c0.163-0.674 0.428-1.317 0.79-1.909l0.172-0.281-1.267-1.269 1.774-1.778 1.266 1.269 0.281-0.172c0.438-0.269 0.903-0.484 1.389-0.643v1.792c-1.787 0.818-2.927 2.58-2.927 4.57 0 2.773 2.251 5.029 5.018 5.029s5.018-2.256 5.018-5.029c0-1.99-1.14-3.752-2.927-4.57v-1.792c0.485 0.16 0.951 0.375 1.389 0.643l0.281 0.172 1.266-1.269 1.774 1.778-1.267 1.269 0.172 0.281c0.362 0.593 0.627 1.235 0.79 1.909l0.078 0.321h1.79v2.514zM12.655 7.177c0-1.207 0.653-2.308 1.673-2.899v2.783l1.673 0.558 1.673-0.558v-2.783c1.020 0.591 1.673 1.692 1.673 2.899 0 1.229-0.64 2.183-1.852 2.757l-0.239 0.114v6.768h0.837v-0.698c1.288 0.74 2.091 2.106 2.091 3.632 0 1.547-0.843 2.898-2.091 3.624v-5.719h-0.837v6.093c-0.396 0.125-0.818 0.193-1.255 0.193s-0.858-0.068-1.255-0.193v-13.699l-0.239-0.114c-1.212-0.575-1.852-1.528-1.852-2.757v0zM22.587 16.112l1.397-1.4-2.957-2.963-1.398 1.4c-0.488-0.27-1.004-0.481-1.539-0.635v-1.943c1.351-0.728 2.091-1.924 2.091-3.393 0-1.77-1.12-3.356-2.788-3.948l-0.557-0.198v3.424l-0.836 0.28-0.837-0.28v-3.424l-0.558 0.198c-1.667 0.592-2.788 2.178-2.788 3.948 0 1.469 0.74 2.665 2.091 3.393v1.943c-0.535 0.155-1.051 0.366-1.539 0.635l-1.398-1.4-2.957 2.963 1.397 1.4c-0.27 0.489-0.484 1.006-0.638 1.542h-1.975v4.191h1.975c0.155 0.536 0.368 1.053 0.638 1.542l-1.397 1.4 2.957 2.963 1.398-1.4c0.488 0.27 1.003 0.484 1.539 0.639v1.98h4.182v-1.98c0.535-0.155 1.050-0.369 1.539-0.639l1.398 1.4 2.957-2.963-1.397-1.4c0.27-0.489 0.484-1.005 0.638-1.542h1.976v-4.191h-1.976c-0.155-0.536-0.368-1.053-0.638-1.542v0z"></path>
</svg>
