<!-- Generated by IcoMoon.io -->
<svg version="1.1" xmlns="http://www.w3.org/2000/svg" width="32" height="32" viewBox="0 0 32 32">
<title>marker</title>
<path d="M16 2.8c-5.077 0-9.2 4.123-9.2 9.2 0 1.336 0.575 3.016 1.411 4.842 0.836 1.825 1.942 3.784 3.047 5.589 2.211 3.609 4.42 6.606 4.42 6.606l0.322 0.438 0.322-0.438c0 0 2.209-2.997 4.42-6.606 1.105-1.805 2.211-3.764 3.047-5.589 0.836-1.827 1.411-3.506 1.411-4.842 0-5.077-4.123-9.2-9.2-9.2zM16 3.6c4.644 0 8.4 3.756 8.4 8.4 0 1.094-0.525 2.73-1.339 4.508-0.814 1.78-1.908 3.717-3.003 5.505-1.931 3.156-3.63 5.508-4.058 6.095-0.428-0.587-2.127-2.939-4.058-6.095-1.095-1.788-2.189-3.725-3.003-5.505-0.814-1.778-1.339-3.414-1.339-4.508 0-4.644 3.756-8.4 8.4-8.4zM16 4.4c-0.22 0-0.4 0.18-0.4 0.4s0.18 0.4 0.4 0.4c0.22 0 0.4-0.18 0.4-0.4s-0.18-0.4-0.4-0.4zM14.139 4.645c-0.009 0-0.019 0-0.027 0-0.028 0.003-0.053 0.006-0.080 0.014-0.214 0.058-0.341 0.277-0.283 0.491 0.058 0.213 0.277 0.339 0.489 0.281 0.214-0.056 0.341-0.275 0.284-0.489-0.047-0.173-0.203-0.295-0.384-0.297zM17.861 4.645c-0.18 0.002-0.337 0.123-0.384 0.297-0.056 0.214 0.070 0.433 0.284 0.489 0.212 0.058 0.431-0.069 0.489-0.281 0.058-0.214-0.069-0.433-0.283-0.491-0.034-0.009-0.070-0.014-0.106-0.014zM12.391 5.364c-0.067 0.002-0.133 0.020-0.191 0.055-0.092 0.052-0.159 0.139-0.188 0.242-0.027 0.103-0.012 0.213 0.041 0.303 0.053 0.092 0.141 0.159 0.244 0.188 0.102 0.027 0.211 0.013 0.303-0.041 0.191-0.111 0.256-0.355 0.145-0.547-0.072-0.127-0.208-0.203-0.355-0.2zM19.581 5.366c-0.136 0.006-0.259 0.081-0.328 0.198-0.053 0.092-0.067 0.202-0.041 0.305 0.028 0.103 0.095 0.191 0.188 0.244 0.191 0.109 0.436 0.044 0.545-0.148 0.111-0.191 0.045-0.434-0.145-0.545-0.067-0.039-0.142-0.056-0.219-0.053zM10.914 6.508c-0.108-0.002-0.213 0.041-0.289 0.117-0.155 0.156-0.155 0.411 0 0.567 0.156 0.155 0.411 0.155 0.567 0 0.155-0.156 0.155-0.411 0-0.567-0.075-0.073-0.173-0.114-0.278-0.117zM21.097 6.508c-0.108-0.002-0.212 0.041-0.289 0.117-0.156 0.156-0.156 0.411 0 0.567 0.156 0.155 0.409 0.155 0.566 0 0.156-0.156 0.156-0.411 0-0.567-0.073-0.073-0.172-0.114-0.277-0.117zM22.225 8c-0.067 0.002-0.133 0.020-0.191 0.053-0.092 0.053-0.159 0.141-0.186 0.244-0.028 0.102-0.014 0.211 0.039 0.303 0.111 0.191 0.356 0.256 0.547 0.145 0.191-0.109 0.258-0.355 0.147-0.545-0.073-0.127-0.209-0.203-0.356-0.2zM9.745 8c-0.134 0.008-0.258 0.083-0.327 0.2-0.111 0.191-0.045 0.436 0.145 0.545 0.192 0.111 0.436 0.045 0.547-0.145s0.045-0.436-0.147-0.545c-0.066-0.039-0.142-0.058-0.219-0.055zM16 9.2c-1.542 0-2.8 1.258-2.8 2.8s1.258 2.8 2.8 2.8c1.542 0 2.8-1.258 2.8-2.8s-1.258-2.8-2.8-2.8zM9.042 9.738c-0.181 0.002-0.338 0.122-0.384 0.295-0.056 0.214 0.070 0.433 0.284 0.491 0.213 0.058 0.431-0.069 0.489-0.283s-0.069-0.433-0.283-0.491c-0.034-0.009-0.070-0.014-0.106-0.012zM22.969 9.738c-0.039-0.002-0.080 0.002-0.119 0.012-0.102 0.028-0.189 0.095-0.242 0.186-0.053 0.092-0.067 0.202-0.039 0.305 0.056 0.214 0.275 0.341 0.489 0.283s0.341-0.277 0.283-0.491c-0.045-0.169-0.195-0.289-0.372-0.295zM16 10c1.109 0 2 0.891 2 2s-0.891 2-2 2c-1.109 0-2-0.891-2-2s0.891-2 2-2zM8.8 11.6c-0.22 0-0.4 0.18-0.4 0.4s0.18 0.4 0.4 0.4c0.22 0 0.4-0.18 0.4-0.4s-0.18-0.4-0.4-0.4zM23.2 11.6c-0.22 0-0.4 0.18-0.4 0.4s0.18 0.4 0.4 0.4c0.22 0 0.4-0.18 0.4-0.4s-0.18-0.4-0.4-0.4zM9.061 13.464c-0.041-0.002-0.081 0.003-0.119 0.012-0.214 0.058-0.341 0.277-0.284 0.491 0.058 0.214 0.277 0.341 0.491 0.283s0.341-0.277 0.283-0.489c-0.045-0.17-0.195-0.291-0.37-0.297zM22.95 13.464c-0.18 0.002-0.336 0.123-0.381 0.297-0.028 0.103-0.014 0.213 0.039 0.303 0.053 0.092 0.141 0.159 0.244 0.186 0.214 0.058 0.433-0.069 0.491-0.281 0.056-0.214-0.070-0.433-0.284-0.491-0.034-0.009-0.070-0.014-0.108-0.014z"></path>
</svg>
