<!-- Generated by IcoMoon.io -->
<svg version="1.1" xmlns="http://www.w3.org/2000/svg" width="32" height="32" viewBox="0 0 32 32">
<title>marketplace</title>
<path d="M14.129 2.516c-0.778 0-1.374 0.584-1.374 1.344 0 0.226 0.046 0.452 0.184 0.628l-3.571 4.308h-6.225c-0.778 0-1.374 0.584-1.374 1.344v2.693c0 0.629 0.412 1.122 0.962 1.303v0.045l2.106 11.442c0.138 0.67 0.687 1.118 1.373 1.118h6.439v1.197c0 0.85 0.694 1.545 1.553 1.545h12.794c0.855 0 1.554-0.695 1.554-1.545v-7.249c0-0.192-0.037-0.37-0.101-0.539s-0.16-0.322-0.276-0.456l0.971-5.511v-0.046c0.549-0.181 0.962-0.675 0.962-1.303v-2.693c0.046-0.761-0.549-1.344-1.327-1.344h-6.226l-3.571-4.308c0.137-0.176 0.184-0.402 0.184-0.628 0-0.761-0.596-1.344-1.374-1.344s-1.373 0.584-1.373 1.344c0 0.765 0.595 1.349 1.373 1.349 0.183 0 0.366-0.046 0.503-0.091l3.067 3.68h-10.804l3.067-3.68c0.137 0.045 0.32 0.091 0.503 0.091 0.778 0 1.374-0.584 1.374-1.349 0-0.761-0.596-1.344-1.374-1.344zM14.129 3.235c0.366 0 0.641 0.267 0.641 0.624 0 0.362-0.275 0.629-0.641 0.629s-0.641-0.267-0.641-0.629c0-0.357 0.275-0.624 0.641-0.624zM17.791 3.235c0.366 0 0.641 0.267 0.641 0.625 0 0.362-0.274 0.628-0.641 0.628s-0.641-0.266-0.641-0.628c0-0.357 0.275-0.625 0.641-0.625zM3.142 9.694h5.493l-1.236 1.526c-0.137 0.181-0.136 0.494 0.046 0.629 0.091 0.090 0.183 0.090 0.274 0.090 0.137 0 0.275-0.045 0.366-0.181l1.74-2.064h12.315l1.739 2.064c0.091 0.090 0.23 0.181 0.367 0.181 0.091 0 0.183-0.045 0.274-0.090 0.183-0.136 0.23-0.448 0.046-0.629l-1.282-1.526h5.493c0.275 0 0.458 0.181 0.458 0.448v2.693c0 0.272-0.183 0.448-0.458 0.448-0.229 0-0.412 0.136-0.458 0.362l-0.091 0.538-0.903 4.951 0.016 0.055c-0.112-0.026-0.228-0.039-0.347-0.039h-12.794c-0.859 0-1.553 0.69-1.553 1.54v3.332l-5.843-0.001c-0.275 0-0.458 0.176-0.458 0.446 0 0.266 0.183 0.447 0.458 0.447h5.843v0.931h-6.439c-0.229 0-0.412-0.135-0.458-0.357l-2.061-11.305h20.051c0.275 0 0.458-0.181 0.458-0.453 0-0.267-0.183-0.448-0.458-0.448h-20.599c-0.275 0-0.458-0.177-0.458-0.448v-2.693c0-0.267 0.183-0.448 0.458-0.448zM25.572 13.283c-0.275 0-0.458 0.18-0.458 0.449s0.183 0.449 0.458 0.449h1.831c0.275 0 0.458-0.18 0.458-0.449s-0.184-0.449-0.458-0.449h-1.831zM5.431 15.314c-0.275 0-0.458 0.185-0.458 0.457v0.914c0 0.277 0.183 0.457 0.458 0.457s0.458-0.18 0.458-0.457v-0.914c0-0.272-0.183-0.457-0.458-0.457zM7.72 15.314c-0.275 0-0.458 0.185-0.458 0.457v0.914c0 0.277 0.183 0.457 0.458 0.457s0.458-0.18 0.458-0.457v-0.914c-0.001-0.272-0.183-0.457-0.458-0.457zM10.009 15.314c-0.275 0-0.458 0.185-0.458 0.457v0.914c0 0.277 0.183 0.457 0.458 0.457s0.458-0.18 0.458-0.457v-0.914c0-0.272-0.183-0.457-0.458-0.457zM12.298 15.314c-0.275 0-0.458 0.185-0.458 0.457v0.914c0 0.277 0.183 0.457 0.458 0.457s0.458-0.18 0.458-0.457v-0.914c0-0.272-0.183-0.457-0.458-0.457zM14.587 15.314c-0.275 0-0.458 0.185-0.458 0.457v0.914c0 0.277 0.183 0.457 0.458 0.457s0.458-0.18 0.458-0.457v-0.914c-0.001-0.272-0.183-0.457-0.458-0.457zM17.334 15.314c-0.275 0-0.458 0.185-0.458 0.457v0.914c0 0.277 0.183 0.457 0.458 0.457s0.458-0.18 0.458-0.457v-0.914c-0-0.272-0.183-0.457-0.458-0.457zM19.623 15.314c-0.275 0-0.458 0.185-0.458 0.457v0.914c0 0.277 0.183 0.457 0.458 0.457s0.458-0.18 0.458-0.457v-0.914c-0-0.272-0.183-0.457-0.458-0.457zM21.911 15.314c-0.275 0-0.458 0.185-0.458 0.457v0.914c0 0.277 0.183 0.457 0.458 0.457s0.458-0.18 0.458-0.457v-0.914c0-0.272-0.183-0.457-0.458-0.457zM24.2 15.314c-0.275 0-0.458 0.185-0.458 0.457v0.914c0 0.277 0.183 0.457 0.458 0.457s0.458-0.18 0.458-0.457v-0.914c-0-0.272-0.183-0.457-0.458-0.457zM26.489 15.314c-0.275 0-0.458 0.185-0.458 0.457v0.914c0 0.277 0.183 0.457 0.458 0.457s0.458-0.18 0.458-0.457v-0.914c0-0.272-0.183-0.457-0.458-0.457zM14.201 20.064h12.794c0.192 0 0.366 0.082 0.48 0.214 0.101 0.11 0.16 0.252 0.16 0.412v0.723h-14.073v-0.723c0-0.347 0.287-0.626 0.639-0.626zM13.562 22.327h14.073v1.261h-14.073v-1.261zM13.671 24.502h13.964v3.437c0 0.347-0.288 0.631-0.64 0.631h-12.794c-0.352 0-0.639-0.284-0.639-0.631v-1.197h0.109v-0.896h-0.109v-0.931h0.109v-0.412zM14.932 25.949c-0.275 0-0.457 0.18-0.457 0.453s0.182 0.453 0.457 0.453h6.399c0.275 0 0.457-0.18 0.457-0.453s-0.182-0.453-0.457-0.453h-6.399zM24.074 25.949c-0.275 0-0.457 0.18-0.457 0.453s0.182 0.453 0.457 0.453h1.828c0.275 0 0.457-0.18 0.457-0.453s-0.182-0.453-0.457-0.453h-1.828z"></path>
</svg>
