<!-- Generated by IcoMoon.io -->
<svg version="1.1" xmlns="http://www.w3.org/2000/svg" width="32" height="32" viewBox="0 0 32 32">
<title>multiple-smartphones</title>
<path d="M10 4c-0.88 0-1.6 0.72-1.6 1.6v20.8c0 0.88 0.72 1.6 1.6 1.6h12c0.88 0 1.6-0.72 1.6-1.6v-20.8c0-0.88-0.72-1.6-1.6-1.6zM10 4.8h12c0.447 0 0.8 0.353 0.8 0.8v1.6h-13.6v-1.6c0-0.447 0.353-0.8 0.8-0.8zM14.4 5.6c-0.144-0.002-0.278 0.073-0.352 0.198-0.072 0.125-0.072 0.278 0 0.403 0.073 0.125 0.208 0.2 0.352 0.198h3.2c0.144 0.002 0.278-0.073 0.352-0.198 0.072-0.125 0.072-0.278 0-0.403-0.073-0.125-0.208-0.2-0.352-0.198zM12.78 5.6c-0.22 0-0.4 0.18-0.4 0.4-0.002 0.22 0.178 0.4 0.398 0.4 0.106 0.002 0.208-0.041 0.283-0.116s0.119-0.178 0.119-0.284c0-0.22-0.18-0.398-0.4-0.4zM5.6 6c-0.88 0-1.6 0.72-1.6 1.6v17.2c0 0.88 0.72 1.6 1.6 1.6h2v-0.8h-2c-0.447 0-0.8-0.353-0.8-0.8v-17.2c0-0.447 0.353-0.8 0.8-0.8h2v-0.8zM24.4 6v0.8h2c0.447 0 0.8 0.353 0.8 0.8v17.2c0 0.447-0.353 0.8-0.8 0.8h-2v0.8h2c0.88 0 1.6-0.72 1.6-1.6v-17.2c0-0.88-0.72-1.6-1.6-1.6zM9.2 8h13.6v15.2h-13.6zM10.8 8.8c-0.22 0-0.4 0.18-0.4 0.4s0.18 0.4 0.4 0.4c0.22 0 0.4-0.18 0.4-0.4s-0.18-0.4-0.4-0.4zM6.4 9.2c-0.22 0-0.4 0.18-0.4 0.4s0.18 0.4 0.4 0.4c0.22 0 0.4-0.18 0.4-0.4s-0.18-0.4-0.4-0.4zM10.8 10.4c-0.22 0-0.4 0.18-0.4 0.4s0.18 0.4 0.4 0.4c0.22 0 0.4-0.18 0.4-0.4s-0.18-0.4-0.4-0.4zM6.4 10.8c-0.22 0-0.4 0.18-0.4 0.4s0.18 0.4 0.4 0.4c0.22 0 0.4-0.18 0.4-0.4s-0.18-0.4-0.4-0.4zM10.8 12c-0.22 0-0.4 0.18-0.4 0.4s0.18 0.4 0.4 0.4c0.22 0 0.4-0.18 0.4-0.4s-0.18-0.4-0.4-0.4zM6.4 12.4c-0.22 0-0.4 0.18-0.4 0.4s0.18 0.4 0.4 0.4c0.22 0 0.4-0.18 0.4-0.4s-0.18-0.4-0.4-0.4zM10.8 13.6c-0.22 0-0.4 0.18-0.4 0.4s0.18 0.4 0.4 0.4c0.22 0 0.4-0.18 0.4-0.4s-0.18-0.4-0.4-0.4zM6.4 14c-0.22 0-0.4 0.18-0.4 0.4s0.18 0.4 0.4 0.4c0.22 0 0.4-0.18 0.4-0.4s-0.18-0.4-0.4-0.4zM10.8 15.2c-0.22 0-0.4 0.18-0.4 0.4s0.18 0.4 0.4 0.4c0.22 0 0.4-0.18 0.4-0.4s-0.18-0.4-0.4-0.4zM6.4 15.6c-0.22 0-0.4 0.18-0.4 0.4s0.18 0.4 0.4 0.4c0.22 0 0.4-0.18 0.4-0.4s-0.18-0.4-0.4-0.4zM10.8 16.8c-0.22 0-0.4 0.18-0.4 0.4s0.18 0.4 0.4 0.4c0.22 0 0.4-0.18 0.4-0.4s-0.18-0.4-0.4-0.4zM6.4 17.2c-0.22 0-0.4 0.18-0.4 0.4s0.18 0.4 0.4 0.4c0.22 0 0.4-0.18 0.4-0.4s-0.18-0.4-0.4-0.4zM10.8 18.4c-0.22 0-0.4 0.18-0.4 0.4s0.18 0.4 0.4 0.4c0.22 0 0.4-0.18 0.4-0.4s-0.18-0.4-0.4-0.4zM6.4 18.8c-0.22 0-0.4 0.18-0.4 0.4s0.18 0.4 0.4 0.4c0.22 0 0.4-0.18 0.4-0.4s-0.18-0.4-0.4-0.4zM10.8 20c-0.22 0-0.4 0.18-0.4 0.4s0.18 0.4 0.4 0.4c0.22 0 0.4-0.18 0.4-0.4s-0.18-0.4-0.4-0.4zM6.4 20.4c-0.22 0-0.4 0.18-0.4 0.4s0.18 0.4 0.4 0.4c0.22 0 0.4-0.18 0.4-0.4s-0.18-0.4-0.4-0.4zM10.8 21.6c-0.22 0-0.4 0.18-0.4 0.4s0.18 0.4 0.4 0.4c0.22 0 0.4-0.18 0.4-0.4s-0.18-0.4-0.4-0.4zM6.4 22c-0.22 0-0.4 0.18-0.4 0.4s0.18 0.4 0.4 0.4c0.22 0 0.4-0.18 0.4-0.4s-0.18-0.4-0.4-0.4zM9.2 24h13.6v2.4c0 0.447-0.353 0.8-0.8 0.8h-12c-0.447 0-0.8-0.353-0.8-0.8zM16 24.8c-0.442 0-0.8 0.358-0.8 0.8s0.358 0.8 0.8 0.8c0.442 0 0.8-0.358 0.8-0.8s-0.358-0.8-0.8-0.8z"></path>
</svg>
