<!-- Generated by IcoMoon.io -->
<svg version="1.1" xmlns="http://www.w3.org/2000/svg" width="32" height="32" viewBox="0 0 32 32">
<title>natural-food</title>
<path d="M4.213 3.19c-0.398-0.005-0.641 0.011-0.641 0.011-0.209 0.015-0.372 0.188-0.372 0.399 0 0.016 0.001 0.031 0.003 0.047l-0-0.002c0.387 3.484-0.808 7.012-0.802 10.356 0.002 1.315 0.104 2.514 0.528 3.584s1.186 1.992 2.42 2.698c0.713 0.408 1.671 0.527 2.258 0.518 1.534-0.023 2.63-0.799 3.271-1.42-0.022 0.721-0.231 1.399-0.488 2.33-0.361 1.304-0.789 3.050-0.789 5.89 0 0.001-0 0.003-0 0.004 0 0.039 0.006 0.078 0.016 0.114l-0.001-0.003c-0.007 0.095-0.016 0.192-0.016 0.285-0 0.002-0 0.004-0 0.006 0 0.221 0.179 0.4 0.4 0.4s0.4-0.179 0.4-0.4c0-0.002 0-0.004-0-0.006v0c0-0.904 0.467-2.171 1.152-3.434 0.527-0.973 1.176-1.945 1.805-2.792 0.098 0.393 0.27 0.887 0.602 1.434 0.725 1.196 2.194 2.393 4.841 2.393 2.098 0 3.718-0.701 4.949-1.8s2.080-2.577 2.741-4.14c1.322-3.126 1.954-6.652 3.039-8.234 0.044-0.063 0.070-0.142 0.070-0.226 0-0.156-0.090-0.291-0.22-0.357l-0.002-0.001c0 0-4.908-2.441-9.983-2.441-1.706 0-3.146 0.318-4.343 0.838-1.018-1.824-2.442-3.233-4.453-4.384-2.519-1.442-5.192-1.647-6.385-1.663zM4.202 3.99c1.115 0.015 3.665 0.221 5.999 1.557 1.897 1.085 3.184 2.36 4.13 4.042-1.836 1.006-2.983 2.516-3.535 4.002l-0.016-0.116-0.012-0.037-0.252-0.255-0.355 0.049-0.173 0.314 0.019 0.14 0.012 0.038 0.252 0.255 0.355-0.049 0.134-0.244c-0.238 0.672-0.361 1.337-0.361 1.945 0 1.014 0.185 1.856 0.457 2.556-0.002 0.004-0.006 0.010-0.009 0.017l-0.001 0.002c-0.044 0.067-1.176 1.762-3.253 1.794-0.431 0.006-1.377-0.143-1.848-0.413-1.101-0.63-1.711-1.381-2.075-2.298s-0.469-2.017-0.471-3.29c-0.005-3.020 1.082-6.448 0.805-10.006 0.086-0.002 0.069-0.005 0.197-0.003zM6.411 6.062l-0.295 0.203-0.013 0.359 0.080 0.116 0.028 0.029 0.34 0.114 0.295-0.203 0.014-0.359-0.080-0.116-0.028-0.029-0.34-0.114zM7.545 7.282l-0.316 0.169-0.054 0.355 0.066 0.124 0.025 0.031 0.324 0.152 0.316-0.17 0.054-0.354-0.067-0.124-0.024-0.031-0.325-0.152zM11.254 7.851l-0.32 0.16-0.063 0.353 0.245 0.262 0.138 0.025 0.32-0.161 0.063-0.352-0.245-0.262-0.139-0.025zM8.507 8.645l-0.334 0.129-0.097 0.345 0.051 0.131 0.020 0.034 0.304 0.191 0.334-0.129 0.097-0.345-0.051-0.131-0.021-0.034-0.303-0.191zM10.4 9.2l-0.32 0.161-0.063 0.352 0.245 0.262 0.139 0.025 0.32-0.161 0.063-0.352-0.245-0.262-0.139-0.025zM19.395 9.2c4.516 0 8.708 1.953 9.253 2.212-1.129 1.955-1.705 5.127-2.894 7.937-0.636 1.502-1.437 2.872-2.538 3.855s-2.493 1.597-4.416 1.597c-2.416 0-3.548-1.003-4.157-2.007-0.58-0.957-0.636-1.886-0.64-1.973 0-0.007 0.001-0.015 0.001-0.023 0-0.177-0.115-0.327-0.274-0.38l-0.003-0.001c-0.227-0.109-2.527-1.295-2.527-4.784 0-2.456 2.275-6.431 8.195-6.431zM9.312 10.107l-0.348 0.088-0.138 0.331 0.035 0.137 0.016 0.036 0.278 0.226 0.348-0.088 0.137-0.33-0.034-0.137-0.016-0.037-0.278-0.226zM6.004 10.297l-0.32 0.161-0.063 0.353 0.245 0.262 0.138 0.024 0.32-0.16 0.063-0.353-0.245-0.262-0.139-0.025zM7.6 10.4l-0.32 0.161-0.063 0.352 0.245 0.262 0.139 0.025 0.32-0.161 0.063-0.352-0.245-0.262-0.139-0.025zM17.6 10.8c-0.002-0-0.004-0-0.006-0-0.221 0-0.4 0.179-0.4 0.4s0.179 0.4 0.4 0.4c0.002 0 0.004 0 0.006-0h-0c0.002 0 0.004 0 0.006 0 0.221 0 0.4-0.179 0.4-0.4s-0.179-0.4-0.4-0.4c-0.002 0-0.004 0-0.006 0h0zM9.971 11.627l-0.352 0.062-0.162 0.32 0.024 0.139 0.014 0.037 0.26 0.246 0.353-0.062 0.162-0.32-0.024-0.139-0.014-0.037-0.261-0.246zM25.989 11.999c-0.024 0.001-0.047 0.004-0.070 0.009l0.003-0.001c-0.019 0.004-0.026 0.005-0.019 0.004-0.188 0.035-0.329 0.198-0.329 0.394 0 0.221 0.179 0.4 0.4 0.4 0.030 0 0.060-0.003 0.089-0.010l-0.003 0.001c0.019-0.004 0.025-0.005 0.018-0.004 0.187-0.036 0.327-0.198 0.327-0.393 0-0.221-0.179-0.4-0.4-0.4-0.005 0-0.011 0-0.016 0l0.001-0zM17.813 12.255l-0.32 0.161-0.063 0.352 0.245 0.262 0.139 0.025 0.32-0.16 0.063-0.353-0.245-0.262-0.139-0.025zM24.351 12.438l-0.14 0.022-0.040 0.014-0.25 0.256 0.055 0.354 0.317 0.167 0.139-0.022 0.040-0.014 0.251-0.256-0.056-0.354-0.316-0.167zM14.4 12.8c-0.002-0-0.004-0-0.006-0-0.221 0-0.4 0.179-0.4 0.4s0.179 0.4 0.4 0.4c0.002 0 0.004 0 0.006-0h-0c0.002 0 0.004 0 0.006 0 0.221 0 0.4-0.179 0.4-0.4s-0.179-0.4-0.4-0.4c-0.002 0-0.004 0-0.006 0h0zM22.695 13.037l-0.137 0.030-0.039 0.016-0.234 0.272 0.077 0.35 0.327 0.148 0.137-0.030 0.039-0.016 0.234-0.271-0.077-0.35-0.327-0.148zM18.4 13.6c-0.002-0-0.004-0-0.006-0-0.221 0-0.4 0.179-0.4 0.4s0.179 0.4 0.4 0.4c0.002 0 0.004 0 0.006-0h-0c0.002 0 0.004 0 0.006 0 0.221 0 0.4-0.179 0.4-0.4s-0.179-0.4-0.4-0.4c-0.002 0-0.004 0-0.006 0h0zM21.082 13.759l-0.135 0.041-0.038 0.020-0.212 0.289 0.105 0.343 0.337 0.121 0.135-0.041 0.038-0.020 0.212-0.288-0.104-0.343-0.337-0.122zM14.831 14.276l-0.32 0.161-0.063 0.352 0.245 0.262 0.139 0.025 0.32-0.16 0.063-0.353-0.245-0.262-0.139-0.025zM6.005 14.572l-0.348 0.086-0.14 0.33 0.181 0.309 0.13 0.055 0.039 0.009 0.348-0.085 0.14-0.33-0.181-0.309-0.13-0.055-0.039-0.009zM19.529 14.62l-0.13 0.055-0.035 0.023-0.183 0.309 0.138 0.33 0.348 0.088 0.13-0.054 0.036-0.023 0.182-0.309-0.137-0.331-0.348-0.088zM9.23 14.801l-0.141 0.015-0.038 0.011-0.264 0.242 0.037 0.356 0.307 0.185 0.14-0.015 0.039-0.011 0.264-0.242-0.037-0.356-0.307-0.185zM7.577 14.842l-0.336 0.124-0.102 0.344 0.214 0.287 0.135 0.040 0.040 0.005 0.337-0.124 0.102-0.344-0.214-0.287-0.135-0.041-0.040-0.005zM15.6 15.6c-0.002-0-0.004-0-0.006-0-0.221 0-0.4 0.179-0.4 0.4s0.179 0.4 0.4 0.4c0.002 0 0.004 0 0.006-0h-0c0.002 0 0.004 0 0.006 0 0.221 0 0.4-0.179 0.4-0.4s-0.179-0.4-0.4-0.4c-0.002 0-0.004 0-0.006 0h0zM18.067 15.607l-0.127 0.063-0.034 0.025-0.161 0.32 0.161 0.321 0.352 0.063 0.127-0.063 0.034-0.026 0.161-0.32-0.161-0.32-0.352-0.063zM20.4 16c-0.002-0-0.004-0-0.006-0-0.221 0-0.4 0.179-0.4 0.4s0.179 0.4 0.4 0.4c0.002 0 0.004 0 0.006-0h-0c0.002 0 0.004 0 0.006 0 0.221 0 0.4-0.179 0.4-0.4s-0.179-0.4-0.4-0.4c-0.002 0-0.004 0-0.006 0h0zM16.688 16.709l-0.121 0.072-0.032 0.028-0.137 0.33 0.183 0.309 0.356 0.038 0.121-0.072 0.032-0.028 0.137-0.331-0.184-0.308-0.356-0.038zM21.688 16.98l-0.32 0.161-0.063 0.353 0.245 0.262 0.139 0.024 0.32-0.16 0.063-0.353-0.245-0.262-0.139-0.025zM23.2 17.6c-0.002-0-0.004-0-0.006-0-0.221 0-0.4 0.179-0.4 0.4s0.179 0.4 0.4 0.4c0.002 0 0.004 0 0.006-0h-0c0.002 0 0.004 0 0.006 0 0.221 0 0.4-0.179 0.4-0.4s-0.179-0.4-0.4-0.4c-0.002 0-0.004 0-0.006 0h0zM15.403 17.92l-0.116 0.080-0.030 0.030-0.112 0.341 0.205 0.293 0.358 0.012 0.116-0.081 0.030-0.030 0.113-0.341-0.205-0.294-0.359-0.011zM17.6 18c-0.002-0-0.004-0-0.006-0-0.221 0-0.4 0.179-0.4 0.4s0.179 0.4 0.4 0.4c0.002 0 0.004 0 0.006-0h-0c0.002 0 0.004 0 0.006 0 0.221 0 0.4-0.179 0.4-0.4s-0.179-0.4-0.4-0.4c-0.002 0-0.004 0-0.006 0h0zM14.412 19.18c-0.122 0.002-0.231 0.058-0.303 0.145l-0.001 0.001c-0.012 0.014-0.017 0.020-0.013 0.016-0.059 0.069-0.095 0.16-0.095 0.259 0 0.221 0.179 0.4 0.4 0.4 0.122 0 0.232-0.055 0.305-0.141l0-0.001c0.012-0.014 0.016-0.020 0.012-0.016 0.061-0.070 0.099-0.162 0.099-0.263 0-0.221-0.179-0.4-0.4-0.4-0.002 0-0.004 0-0.005 0h0zM18.513 19.26l-0.32 0.161-0.063 0.353 0.245 0.262 0.139 0.024 0.32-0.16 0.063-0.353-0.245-0.262-0.138-0.025zM11.663 19.636c0.503 0.657 1.027 1.057 1.352 1.268-0.74 0.957-1.529 2.104-2.166 3.28-0.099 0.182-0.183 0.363-0.274 0.545 0.151-1.161 0.376-2.048 0.586-2.806 0.229-0.828 0.444-1.536 0.503-2.288zM19.755 20.204l-0.32 0.161-0.063 0.352 0.245 0.262 0.138 0.025 0.32-0.16 0.063-0.353-0.245-0.262-0.139-0.025zM21.2 20.8c-0.002-0-0.004-0-0.006-0-0.221 0-0.4 0.179-0.4 0.4s0.179 0.4 0.4 0.4c0.002 0 0.004 0 0.006-0h-0c0.002 0 0.004 0 0.006 0 0.221 0 0.4-0.179 0.4-0.4s-0.179-0.4-0.4-0.4c-0.002 0-0.004 0-0.006 0h0z"></path>
</svg>
