<!-- Generated by IcoMoon.io -->
<svg version="1.1" xmlns="http://www.w3.org/2000/svg" width="32" height="32" viewBox="0 0 32 32">
<title>navigation-toolbar-top</title>
<path d="M4.4 5.2c-0.88 0-1.6 0.72-1.6 1.6v18.4c0 0.88 0.72 1.6 1.6 1.6h23.2c0.88 0 1.6-0.72 1.6-1.6v-18.4c0-0.88-0.72-1.6-1.6-1.6zM4.4 6h23.2c0.447 0 0.8 0.353 0.8 0.8v18.4c0 0.447-0.353 0.8-0.8 0.8h-23.2c-0.447 0-0.8-0.353-0.8-0.8v-18.4c0-0.447 0.353-0.8 0.8-0.8zM3.6 12c0 0.22 0.18 0.4 0.4 0.4s0.4-0.18 0.4-0.4c0-0.22-0.18-0.4-0.4-0.4s-0.4 0.18-0.4 0.4zM28.4 12c0-0.22-0.18-0.4-0.4-0.4s-0.4 0.18-0.4 0.4c0 0.22 0.18 0.4 0.4 0.4s0.4-0.18 0.4-0.4zM6.4 7.2c-0.88 0-1.6 0.72-1.6 1.6s0.72 1.6 1.6 1.6c0.88 0 1.6-0.72 1.6-1.6s-0.72-1.6-1.6-1.6zM10.4 7.2c-0.88 0-1.6 0.72-1.6 1.6s0.72 1.6 1.6 1.6c0.88 0 1.6-0.72 1.6-1.6s-0.72-1.6-1.6-1.6zM13.2 7.2v3.2h14v-3.2zM6.4 8c0.447 0 0.8 0.353 0.8 0.8s-0.353 0.8-0.8 0.8c-0.447 0-0.8-0.353-0.8-0.8s0.353-0.8 0.8-0.8zM10.4 8c0.447 0 0.8 0.353 0.8 0.8s-0.353 0.8-0.8 0.8c-0.447 0-0.8-0.353-0.8-0.8s0.353-0.8 0.8-0.8zM14 8h12.4v1.6h-12.4zM5.6 11.6c-0.22 0-0.4 0.18-0.4 0.4s0.18 0.4 0.4 0.4c0.22 0 0.4-0.18 0.4-0.4s-0.18-0.4-0.4-0.4zM7.2 11.6c-0.22 0-0.4 0.18-0.4 0.4s0.18 0.4 0.4 0.4c0.22 0 0.4-0.18 0.4-0.4s-0.18-0.4-0.4-0.4zM8.8 11.6c-0.22 0-0.4 0.18-0.4 0.4s0.18 0.4 0.4 0.4c0.22 0 0.4-0.18 0.4-0.4s-0.18-0.4-0.4-0.4zM10.4 11.6c-0.22 0-0.4 0.18-0.4 0.4s0.18 0.4 0.4 0.4c0.22 0 0.4-0.18 0.4-0.4s-0.18-0.4-0.4-0.4zM12 11.6c-0.22 0-0.4 0.18-0.4 0.4s0.18 0.4 0.4 0.4c0.22 0 0.4-0.18 0.4-0.4s-0.18-0.4-0.4-0.4zM13.6 11.6c-0.22 0-0.4 0.18-0.4 0.4s0.18 0.4 0.4 0.4c0.22 0 0.4-0.18 0.4-0.4s-0.18-0.4-0.4-0.4zM15.2 11.6c-0.22 0-0.4 0.18-0.4 0.4s0.18 0.4 0.4 0.4c0.22 0 0.4-0.18 0.4-0.4s-0.18-0.4-0.4-0.4zM16.8 11.6c-0.22 0-0.4 0.18-0.4 0.4s0.18 0.4 0.4 0.4c0.22 0 0.4-0.18 0.4-0.4s-0.18-0.4-0.4-0.4zM18.4 11.6c-0.22 0-0.4 0.18-0.4 0.4s0.18 0.4 0.4 0.4c0.22 0 0.4-0.18 0.4-0.4s-0.18-0.4-0.4-0.4zM20 11.6c-0.22 0-0.4 0.18-0.4 0.4s0.18 0.4 0.4 0.4c0.22 0 0.4-0.18 0.4-0.4s-0.18-0.4-0.4-0.4zM21.6 11.6c-0.22 0-0.4 0.18-0.4 0.4s0.18 0.4 0.4 0.4c0.22 0 0.4-0.18 0.4-0.4s-0.18-0.4-0.4-0.4zM23.2 11.6c-0.22 0-0.4 0.18-0.4 0.4s0.18 0.4 0.4 0.4c0.22 0 0.4-0.18 0.4-0.4s-0.18-0.4-0.4-0.4zM24.8 11.6c-0.22 0-0.4 0.18-0.4 0.4s0.18 0.4 0.4 0.4c0.22 0 0.4-0.18 0.4-0.4s-0.18-0.4-0.4-0.4zM26.4 11.6c-0.22 0-0.4 0.18-0.4 0.4s0.18 0.4 0.4 0.4c0.22 0 0.4-0.18 0.4-0.4s-0.18-0.4-0.4-0.4z"></path>
</svg>
