<!-- Generated by IcoMoon.io -->
<svg version="1.1" xmlns="http://www.w3.org/2000/svg" width="32" height="32" viewBox="0 0 32 32">
<title>networking-manager</title>
<path d="M8 4c-0.879 0-1.6 0.721-1.6 1.6v12h19.2v-12c0-0.879-0.721-1.6-1.6-1.6zM8 4.8h16c0.447 0 0.8 0.353 0.8 0.8v0.8c-0.221 0-0.4 0.179-0.4 0.4s0.179 0.4 0.4 0.4v9.6h-17.6v-9.6c0.221 0 0.4-0.179 0.4-0.4s-0.179-0.4-0.4-0.4v-0.8c0-0.447 0.353-0.8 0.8-0.8zM8.8 6.4c-0.221 0-0.4 0.179-0.4 0.4s0.179 0.4 0.4 0.4c0.221 0 0.4-0.179 0.4-0.4s-0.179-0.4-0.4-0.4zM10.4 6.4c-0.221 0-0.4 0.179-0.4 0.4s0.179 0.4 0.4 0.4c0.221 0 0.4-0.179 0.4-0.4s-0.179-0.4-0.4-0.4zM12 6.4c-0.221 0-0.4 0.179-0.4 0.4s0.179 0.4 0.4 0.4c0.221 0 0.4-0.179 0.4-0.4s-0.179-0.4-0.4-0.4zM13.6 6.4c-0.221 0-0.4 0.179-0.4 0.4s0.179 0.4 0.4 0.4c0.221 0 0.4-0.179 0.4-0.4s-0.179-0.4-0.4-0.4zM15.2 6.4c-0.221 0-0.4 0.179-0.4 0.4s0.179 0.4 0.4 0.4c0.221 0 0.4-0.179 0.4-0.4s-0.179-0.4-0.4-0.4zM16.8 6.4c-0.221 0-0.4 0.179-0.4 0.4s0.179 0.4 0.4 0.4c0.221 0 0.4-0.179 0.4-0.4s-0.179-0.4-0.4-0.4zM18.4 6.4c-0.221 0-0.4 0.179-0.4 0.4s0.179 0.4 0.4 0.4c0.221 0 0.4-0.179 0.4-0.4s-0.179-0.4-0.4-0.4zM20 6.4c-0.221 0-0.4 0.179-0.4 0.4s0.179 0.4 0.4 0.4c0.221 0 0.4-0.179 0.4-0.4s-0.179-0.4-0.4-0.4zM21.6 6.4c-0.221 0-0.4 0.179-0.4 0.4s0.179 0.4 0.4 0.4c0.221 0 0.4-0.179 0.4-0.4s-0.179-0.4-0.4-0.4zM23.2 6.4c-0.221 0-0.4 0.179-0.4 0.4s0.179 0.4 0.4 0.4c0.221 0 0.4-0.179 0.4-0.4s-0.179-0.4-0.4-0.4zM11.2 9.2c-0.221 0-0.4 0.179-0.4 0.4s0.179 0.4 0.4 0.4c0.221 0 0.4-0.179 0.4-0.4s-0.179-0.4-0.4-0.4zM12.8 9.2c-0.144-0.002-0.278 0.074-0.351 0.198s-0.073 0.279 0 0.403c0.073 0.125 0.207 0.2 0.351 0.198h8.4c0.144 0.002 0.278-0.074 0.351-0.198s0.073-0.279 0-0.403c-0.073-0.125-0.207-0.2-0.351-0.198zM11.2 11.6c-0.221 0-0.4 0.179-0.4 0.4s0.179 0.4 0.4 0.4c0.221 0 0.4-0.179 0.4-0.4s-0.179-0.4-0.4-0.4zM12.8 11.6c-0.144-0.002-0.278 0.074-0.351 0.198s-0.073 0.279 0 0.403c0.073 0.125 0.207 0.2 0.351 0.198h8.4c0.144 0.002 0.278-0.074 0.351-0.198s0.073-0.279 0-0.403c-0.073-0.125-0.207-0.2-0.351-0.198zM11.2 14c-0.221 0-0.4 0.179-0.4 0.4s0.179 0.4 0.4 0.4c0.221 0 0.4-0.179 0.4-0.4s-0.179-0.4-0.4-0.4zM12.8 14c-0.144-0.002-0.278 0.074-0.351 0.198s-0.073 0.279 0 0.403c0.073 0.125 0.207 0.2 0.351 0.198h8.4c0.144 0.002 0.278-0.074 0.351-0.198s0.073-0.279 0-0.403c-0.073-0.125-0.207-0.2-0.351-0.198zM8.8 18.4c-0.221 0-0.4 0.179-0.4 0.4s0.179 0.4 0.4 0.4c0.221 0 0.4-0.179 0.4-0.4s-0.179-0.4-0.4-0.4zM16 18.4c-0.221 0-0.4 0.179-0.4 0.4s0.179 0.4 0.4 0.4c0.221 0 0.4-0.179 0.4-0.4s-0.179-0.4-0.4-0.4zM23.2 18.4c-0.221 0-0.4 0.179-0.4 0.4s0.179 0.4 0.4 0.4c0.221 0 0.4-0.179 0.4-0.4s-0.179-0.4-0.4-0.4zM8 20c-0.221 0-0.4 0.179-0.4 0.4s0.179 0.4 0.4 0.4c0.221 0 0.4-0.179 0.4-0.4s-0.179-0.4-0.4-0.4zM16 20c-0.221 0-0.4 0.179-0.4 0.4s0.179 0.4 0.4 0.4c0.221 0 0.4-0.179 0.4-0.4s-0.179-0.4-0.4-0.4zM24 20c-0.221 0-0.4 0.179-0.4 0.4s0.179 0.4 0.4 0.4c0.221 0 0.4-0.179 0.4-0.4s-0.179-0.4-0.4-0.4zM7.2 21.6c-0.221 0-0.4 0.179-0.4 0.4h-2.8v4.4h6.4v-4.4h-2.8c0-0.221-0.179-0.4-0.4-0.4zM16 21.6c-0.221 0-0.4 0.179-0.4 0.4h-2.8v4.4h6.4v-4.4h-2.8c0-0.221-0.179-0.4-0.4-0.4zM24.8 21.6c-0.221 0-0.4 0.179-0.4 0.4h-2.8v4.4h6.4v-4.4h-2.8c0-0.221-0.179-0.4-0.4-0.4zM4.8 22.8h4.8v2.8h-4.8zM13.6 22.8h4.8v2.8h-4.8zM22.4 22.8h4.8v2.8h-4.8zM6 27.2c-0.144-0.002-0.278 0.074-0.351 0.198s-0.073 0.279 0 0.403c0.073 0.125 0.207 0.2 0.351 0.198h2.4c0.144 0.002 0.278-0.074 0.351-0.198s0.073-0.279 0-0.403c-0.073-0.125-0.207-0.2-0.351-0.198zM14.8 27.2c-0.144-0.002-0.278 0.074-0.351 0.198s-0.073 0.279 0 0.403c0.073 0.125 0.207 0.2 0.351 0.198h2.4c0.144 0.002 0.278-0.074 0.351-0.198s0.073-0.279 0-0.403c-0.073-0.125-0.207-0.2-0.351-0.198zM23.6 27.2c-0.144-0.002-0.278 0.074-0.351 0.198s-0.073 0.279 0 0.403c0.073 0.125 0.207 0.2 0.351 0.198h2.4c0.144 0.002 0.278-0.074 0.351-0.198s0.073-0.279 0-0.403c-0.073-0.125-0.207-0.2-0.351-0.198z"></path>
</svg>
