<!-- Generated by IcoMoon.io -->
<svg version="1.1" xmlns="http://www.w3.org/2000/svg" width="32" height="32" viewBox="0 0 32 32">
<title>pen</title>
<path d="M5.2 4c-0.658 0-1.2 0.542-1.2 1.2v15.2c0 0.658 0.542 1.2 1.2 1.2h2v2c0 0.658 0.542 1.2 1.2 1.2h2v2c0 0.661 0.539 1.2 1.2 1.2h11.539l-0.8-0.8h-10.739c-0.22 0-0.4-0.18-0.4-0.4v-15.2c0-0.22 0.18-0.4 0.4-0.4h15.2c0.22 0 0.4 0.18 0.4 0.4v10.739l0.8 0.8v-11.539c0-0.661-0.539-1.2-1.2-1.2h-2v-2c0-0.658-0.542-1.2-1.2-1.2h-2v-2c0-0.658-0.542-1.2-1.2-1.2zM5.2 4.8h15.2c0.227 0 0.4 0.173 0.4 0.4v2h-12.4c-0.658 0-1.2 0.542-1.2 1.2v12.4h-2c-0.227 0-0.4-0.173-0.4-0.4v-15.2c0-0.227 0.173-0.4 0.4-0.4zM8.4 8h15.2c0.227 0 0.4 0.173 0.4 0.4v2h-12.4c-0.661 0-1.2 0.539-1.2 1.2v12.4h-2c-0.227 0-0.4-0.173-0.4-0.4v-15.2c0-0.227 0.173-0.4 0.4-0.4zM12.8 12.4c-0.22 0-0.4 0.18-0.4 0.4s0.18 0.4 0.4 0.4c0.22 0 0.4-0.18 0.4-0.4s-0.18-0.4-0.4-0.4zM14.4 12.4c-0.22 0-0.4 0.18-0.4 0.4s0.18 0.4 0.4 0.4c0.22 0 0.4-0.18 0.4-0.4s-0.18-0.4-0.4-0.4zM16 12.4c-0.22 0-0.4 0.18-0.4 0.4s0.18 0.4 0.4 0.4c0.22 0 0.4-0.18 0.4-0.4s-0.18-0.4-0.4-0.4zM17.6 12.4c-0.22 0-0.4 0.18-0.4 0.4s0.18 0.4 0.4 0.4c0.22 0 0.4-0.18 0.4-0.4s-0.18-0.4-0.4-0.4zM19.2 12.4c-0.22 0-0.4 0.18-0.4 0.4s0.18 0.4 0.4 0.4c0.22 0 0.4-0.18 0.4-0.4s-0.18-0.4-0.4-0.4zM20.8 12.4c-0.22 0-0.4 0.18-0.4 0.4s0.18 0.4 0.4 0.4c0.22 0 0.4-0.18 0.4-0.4s-0.18-0.4-0.4-0.4zM22.4 12.4c-0.22 0-0.4 0.18-0.4 0.4s0.18 0.4 0.4 0.4c0.22 0 0.4-0.18 0.4-0.4s-0.18-0.4-0.4-0.4zM24 12.4c-0.22 0-0.4 0.18-0.4 0.4s0.18 0.4 0.4 0.4c0.22 0 0.4-0.18 0.4-0.4s-0.18-0.4-0.4-0.4zM25.6 12.4c-0.22 0-0.4 0.18-0.4 0.4s0.18 0.4 0.4 0.4c0.22 0 0.4-0.18 0.4-0.4s-0.18-0.4-0.4-0.4zM12.8 14c-0.22 0-0.4 0.18-0.4 0.4s0.18 0.4 0.4 0.4c0.22 0 0.4-0.18 0.4-0.4s-0.18-0.4-0.4-0.4zM25.6 14c-0.22 0-0.4 0.18-0.4 0.4s0.18 0.4 0.4 0.4c0.22 0 0.4-0.18 0.4-0.4s-0.18-0.4-0.4-0.4zM12.8 15.6c-0.22 0-0.4 0.18-0.4 0.4s0.18 0.4 0.4 0.4c0.22 0 0.4-0.18 0.4-0.4s-0.18-0.4-0.4-0.4zM25.6 15.6c-0.22 0-0.4 0.18-0.4 0.4s0.18 0.4 0.4 0.4c0.22 0 0.4-0.18 0.4-0.4s-0.18-0.4-0.4-0.4zM12.8 17.2c-0.22 0-0.4 0.18-0.4 0.4s0.18 0.4 0.4 0.4c0.22 0 0.4-0.18 0.4-0.4s-0.18-0.4-0.4-0.4zM25.6 17.2c-0.22 0-0.4 0.18-0.4 0.4s0.18 0.4 0.4 0.4c0.22 0 0.4-0.18 0.4-0.4s-0.18-0.4-0.4-0.4zM17.305 17.305l1.977 5.139 0.059 0.061 8.903 8.902c0.788 0.787 2.075 0.787 2.863 0l0.302-0.3c0.788-0.788 0.788-2.075 0-2.863l-8.964-8.963zM12.8 18.8c-0.22 0-0.4 0.18-0.4 0.4s0.18 0.4 0.4 0.4c0.22 0 0.4-0.18 0.4-0.4s-0.18-0.4-0.4-0.4zM25.6 18.8c-0.22 0-0.4 0.18-0.4 0.4s0.18 0.4 0.4 0.4c0.22 0 0.4-0.18 0.4-0.4s-0.18-0.4-0.4-0.4zM19.566 19.031l2.227 0.856c-0.003 0.009-0.002 0.014-0.005 0.023-0.031 0.163-0.106 0.334-0.175 0.403-0.067 0.069-0.241 0.142-0.405 0.175-0.163 0.033-0.286 0.033-0.286 0.033h-0.4v0.4c0 0 0 0.123-0.033 0.286-0.033 0.164-0.106 0.337-0.175 0.405-0.069 0.069-0.241 0.144-0.403 0.175-0.009 0.003-0.016 0.002-0.023 0.005l-0.856-2.227zM12.8 20.4c-0.22 0-0.4 0.18-0.4 0.4s0.18 0.4 0.4 0.4c0.22 0 0.4-0.18 0.4-0.4s-0.18-0.4-0.4-0.4zM25.6 20.4c-0.22 0-0.4 0.18-0.4 0.4s0.18 0.4 0.4 0.4c0.22 0 0.4-0.18 0.4-0.4s-0.18-0.4-0.4-0.4zM22.466 20.434l5.972 5.972-2.031 2.031-5.972-5.97c0.152-0.061 0.306-0.15 0.445-0.288 0.256-0.258 0.345-0.57 0.394-0.814 0.009-0.045 0.003-0.042 0.009-0.083 0.041-0.006 0.038 0 0.083-0.009 0.244-0.048 0.556-0.137 0.814-0.394 0.137-0.139 0.225-0.294 0.286-0.445zM12.8 22c-0.22 0-0.4 0.18-0.4 0.4s0.18 0.4 0.4 0.4c0.22 0 0.4-0.18 0.4-0.4s-0.18-0.4-0.4-0.4zM12.8 23.6c-0.22 0-0.4 0.18-0.4 0.4s0.18 0.4 0.4 0.4c0.22 0 0.4-0.18 0.4-0.4s-0.18-0.4-0.4-0.4zM12.8 25.2c-0.22 0-0.4 0.18-0.4 0.4s0.18 0.4 0.4 0.4c0.22 0 0.4-0.18 0.4-0.4s-0.18-0.4-0.4-0.4zM14.4 25.2c-0.22 0-0.4 0.18-0.4 0.4s0.18 0.4 0.4 0.4c0.22 0 0.4-0.18 0.4-0.4s-0.18-0.4-0.4-0.4zM16 25.2c-0.22 0-0.4 0.18-0.4 0.4s0.18 0.4 0.4 0.4c0.22 0 0.4-0.18 0.4-0.4s-0.18-0.4-0.4-0.4zM17.6 25.2c-0.22 0-0.4 0.18-0.4 0.4s0.18 0.4 0.4 0.4c0.22 0 0.4-0.18 0.4-0.4s-0.18-0.4-0.4-0.4zM19.2 25.2c-0.22 0-0.4 0.18-0.4 0.4s0.18 0.4 0.4 0.4c0.22 0 0.4-0.18 0.4-0.4s-0.18-0.4-0.4-0.4zM20.8 25.2c-0.22 0-0.4 0.18-0.4 0.4s0.18 0.4 0.4 0.4c0.22 0 0.4-0.18 0.4-0.4s-0.18-0.4-0.4-0.4zM29.002 26.97l1.059 1.058-2.033 2.033-1.058-1.058zM30.625 28.594l0.217 0.217c0.481 0.48 0.481 1.248 0 1.728l-0.302 0.303c-0.481 0.48-1.25 0.48-1.73 0l-0.217-0.217z"></path>
</svg>
