<!-- Generated by IcoMoon.io -->
<svg version="1.1" xmlns="http://www.w3.org/2000/svg" width="32" height="32" viewBox="0 0 32 32">
<title>profit-chart</title>
<path d="M28.369 4.081l-4.895 0.15 1.148 1.719-1.589 1.27-5.284 0.814-1.592 2.786-4.394 0.4-2.439 4.064-6.283 2.748 0.319 0.734 6.517-2.852 2.361-3.936 4.406-0.4 1.608-2.814 5.116-0.786 1.702-1.361 1.453 2.175 0.28-0.714zM27.181 4.919l-0.844 2.156-1.395-2.087zM24.4 10.3v18.1h-1.2v-14.5h-4v14.5h-1.2v-12.1h-4v12.1h-1.2v-8.1h-4v8.1h-1.2v-5.3h-4v5.3h-1.6v0.8h28v-0.8h-1.6v-18.1zM25.2 11.1h2.4v0.5c-0.22 0-0.4 0.18-0.4 0.4s0.18 0.4 0.4 0.4v1.6c-0.22 0-0.4 0.18-0.4 0.4s0.18 0.4 0.4 0.4v1.6c-0.22 0-0.4 0.18-0.4 0.4s0.18 0.4 0.4 0.4v1.6c-0.22 0-0.4 0.18-0.4 0.4s0.18 0.4 0.4 0.4v1.6c-0.22 0-0.4 0.18-0.4 0.4s0.18 0.4 0.4 0.4v1.6c-0.22 0-0.4 0.18-0.4 0.4s0.18 0.4 0.4 0.4v1.6c-0.22 0-0.4 0.18-0.4 0.4s0.18 0.4 0.4 0.4v1.6h-2.4v-1.6c0.22 0 0.4-0.18 0.4-0.4s-0.18-0.4-0.4-0.4v-1.6c0.22 0 0.4-0.18 0.4-0.4s-0.18-0.4-0.4-0.4v-1.6c0.22 0 0.4-0.18 0.4-0.4s-0.18-0.4-0.4-0.4v-1.6c0.22 0 0.4-0.18 0.4-0.4s-0.18-0.4-0.4-0.4v-1.6c0.22 0 0.4-0.18 0.4-0.4s-0.18-0.4-0.4-0.4v-1.6c0.22 0 0.4-0.18 0.4-0.4s-0.18-0.4-0.4-0.4v-1.6c0.22 0 0.4-0.18 0.4-0.4s-0.18-0.4-0.4-0.4zM26.4 12.8c-0.22 0-0.4 0.18-0.4 0.4s0.18 0.4 0.4 0.4c0.22 0 0.4-0.18 0.4-0.4s-0.18-0.4-0.4-0.4zM20 14.7h2.4v13.7h-2.4zM26.4 15.2c-0.22 0-0.4 0.18-0.4 0.4s0.18 0.4 0.4 0.4c0.22 0 0.4-0.18 0.4-0.4s-0.18-0.4-0.4-0.4zM14.8 17.1h2.4v1.7c-0.22 0-0.4 0.18-0.4 0.4s0.18 0.4 0.4 0.4v1.6c-0.22 0-0.4 0.18-0.4 0.4s0.18 0.4 0.4 0.4v1.6c-0.22 0-0.4 0.18-0.4 0.4s0.18 0.4 0.4 0.4v1.6c-0.22 0-0.4 0.18-0.4 0.4s0.18 0.4 0.4 0.4v1.6h-2.4v-1.6c0.22 0 0.4-0.18 0.4-0.4s-0.18-0.4-0.4-0.4v-1.6c0.22 0 0.4-0.18 0.4-0.4s-0.18-0.4-0.4-0.4v-1.6c0.22 0 0.4-0.18 0.4-0.4s-0.18-0.4-0.4-0.4v-1.6c0.22 0 0.4-0.18 0.4-0.4s-0.18-0.4-0.4-0.4zM16 17.6c-0.22 0-0.4 0.18-0.4 0.4s0.18 0.4 0.4 0.4c0.22 0 0.4-0.18 0.4-0.4s-0.18-0.4-0.4-0.4zM26.4 17.6c-0.22 0-0.4 0.18-0.4 0.4s0.18 0.4 0.4 0.4c0.22 0 0.4-0.18 0.4-0.4s-0.18-0.4-0.4-0.4zM16 20c-0.22 0-0.4 0.18-0.4 0.4s0.18 0.4 0.4 0.4c0.22 0 0.4-0.18 0.4-0.4s-0.18-0.4-0.4-0.4zM26.4 20c-0.22 0-0.4 0.18-0.4 0.4s0.18 0.4 0.4 0.4c0.22 0 0.4-0.18 0.4-0.4s-0.18-0.4-0.4-0.4zM9.6 21.1h2.4v7.3h-2.4zM16 22.4c-0.22 0-0.4 0.18-0.4 0.4s0.18 0.4 0.4 0.4c0.22 0 0.4-0.18 0.4-0.4s-0.18-0.4-0.4-0.4zM26.4 22.4c-0.22 0-0.4 0.18-0.4 0.4s0.18 0.4 0.4 0.4c0.22 0 0.4-0.18 0.4-0.4s-0.18-0.4-0.4-0.4zM4.787 23.9h1.625c-0.008 0.033-0.013 0.066-0.013 0.1 0 0.22 0.18 0.4 0.4 0.4v1.6c-0.22 0-0.4 0.18-0.4 0.4s0.18 0.4 0.4 0.4v1.6h-2.4v-1.6c0.22 0 0.4-0.18 0.4-0.4s-0.18-0.4-0.4-0.4v-1.6c0.22 0 0.4-0.18 0.4-0.4 0-0.034-0.005-0.067-0.013-0.1zM5.6 24.8c-0.22 0-0.4 0.18-0.4 0.4s0.18 0.4 0.4 0.4c0.22 0 0.4-0.18 0.4-0.4s-0.18-0.4-0.4-0.4zM16 24.8c-0.22 0-0.4 0.18-0.4 0.4s0.18 0.4 0.4 0.4c0.22 0 0.4-0.18 0.4-0.4s-0.18-0.4-0.4-0.4zM26.4 24.8c-0.22 0-0.4 0.18-0.4 0.4s0.18 0.4 0.4 0.4c0.22 0 0.4-0.18 0.4-0.4s-0.18-0.4-0.4-0.4zM5.6 27.2c-0.22 0-0.4 0.18-0.4 0.4s0.18 0.4 0.4 0.4c0.22 0 0.4-0.18 0.4-0.4s-0.18-0.4-0.4-0.4zM16 27.2c-0.22 0-0.4 0.18-0.4 0.4s0.18 0.4 0.4 0.4c0.22 0 0.4-0.18 0.4-0.4s-0.18-0.4-0.4-0.4zM26.4 27.2c-0.22 0-0.4 0.18-0.4 0.4s0.18 0.4 0.4 0.4c0.22 0 0.4-0.18 0.4-0.4s-0.18-0.4-0.4-0.4z"></path>
</svg>
