<!-- Generated by IcoMoon.io -->
<svg version="1.1" xmlns="http://www.w3.org/2000/svg" width="40" height="32" viewBox="0 0 40 32">
<title>pwa</title>
<path d="M8.254 5.25c-0.875 0-1.593 0.718-1.593 1.593v19.907h26.278v-19.907c0-0.875-0.718-1.593-1.593-1.593h-23.093zM8.254 6.046h23.093c0.445 0 0.796 0.352 0.796 0.796v4.778h-24.685v-4.778c0-0.444 0.352-0.796 0.796-0.796zM10.245 7.241c-0.875 0-1.593 0.718-1.593 1.593s0.718 1.593 1.593 1.593c0.476 0 0.902-0.217 1.194-0.553 0.293 0.335 0.718 0.553 1.194 0.553 0.875 0 1.593-0.718 1.593-1.593s-0.718-1.593-1.593-1.593c-0.476 0-0.902 0.217-1.194 0.553-0.293-0.335-0.718-0.553-1.194-0.553zM15.421 7.241v3.185h15.528v-3.185h-15.528zM10.245 8.037c0.444 0 0.796 0.352 0.796 0.796s-0.352 0.796-0.796 0.796c-0.444 0-0.796-0.352-0.796-0.796s0.352-0.796 0.796-0.796zM12.634 8.037c0.444 0 0.796 0.352 0.796 0.796s-0.352 0.796-0.796 0.796c-0.444 0-0.796-0.352-0.796-0.796s0.352-0.796 0.796-0.796zM16.217 8.037h13.935v1.593h-13.935v-1.593zM7.458 12.417h24.685v13.537h-24.685v-13.537zM9.449 14.009c-0.22 0-0.398 0.178-0.398 0.398s0.178 0.398 0.398 0.398c0.22 0 0.398-0.178 0.398-0.398s-0.178-0.398-0.398-0.398zM11.041 14.009c-0.22 0-0.398 0.178-0.398 0.398s0.178 0.398 0.398 0.398c0.22 0 0.398-0.178 0.398-0.398s-0.178-0.398-0.398-0.398zM12.634 14.009c-0.22 0-0.398 0.178-0.398 0.398s0.178 0.398 0.398 0.398c0.22 0 0.398-0.178 0.398-0.398s-0.178-0.398-0.398-0.398zM14.226 14.009c-0.22 0-0.398 0.178-0.398 0.398s0.178 0.398 0.398 0.398c0.22 0 0.398-0.178 0.398-0.398s-0.178-0.398-0.398-0.398zM15.819 14.009c-0.22 0-0.398 0.178-0.398 0.398s0.178 0.398 0.398 0.398c0.22 0 0.398-0.178 0.398-0.398s-0.178-0.398-0.398-0.398zM17.412 14.009c-0.22 0-0.398 0.178-0.398 0.398s0.178 0.398 0.398 0.398c0.22 0 0.398-0.178 0.398-0.398s-0.178-0.398-0.398-0.398zM19.004 14.009c-0.22 0-0.398 0.178-0.398 0.398s0.178 0.398 0.398 0.398c0.22 0 0.398-0.178 0.398-0.398s-0.178-0.398-0.398-0.398zM22.189 14.009c-0.22 0-0.398 0.178-0.398 0.398s0.178 0.398 0.398 0.398c0.22 0 0.398-0.178 0.398-0.398s-0.178-0.398-0.398-0.398zM23.782 14.009c-0.22 0-0.398 0.178-0.398 0.398s0.178 0.398 0.398 0.398c0.22 0 0.398-0.178 0.398-0.398s-0.178-0.398-0.398-0.398zM25.375 14.009c-0.22 0-0.398 0.178-0.398 0.398s0.178 0.398 0.398 0.398c0.22 0 0.398-0.178 0.398-0.398s-0.178-0.398-0.398-0.398zM26.967 14.009c-0.22 0-0.398 0.178-0.398 0.398s0.178 0.398 0.398 0.398c0.22 0 0.398-0.178 0.398-0.398s-0.178-0.398-0.398-0.398zM28.56 14.009c-0.22 0-0.398 0.178-0.398 0.398s0.178 0.398 0.398 0.398c0.22 0 0.398-0.178 0.398-0.398s-0.178-0.398-0.398-0.398zM30.152 14.009c-0.22 0-0.398 0.178-0.398 0.398s0.178 0.398 0.398 0.398c0.22 0 0.398-0.178 0.398-0.398s-0.178-0.398-0.398-0.398zM9.449 15.602c-0.22 0-0.398 0.178-0.398 0.398s0.178 0.398 0.398 0.398c0.22 0 0.398-0.178 0.398-0.398s-0.178-0.398-0.398-0.398zM19.004 15.602c-0.22 0-0.398 0.178-0.398 0.398s0.178 0.398 0.398 0.398c0.22 0 0.398-0.178 0.398-0.398s-0.178-0.398-0.398-0.398zM22.189 15.602c-0.22 0-0.398 0.178-0.398 0.398s0.178 0.398 0.398 0.398c0.22 0 0.398-0.178 0.398-0.398s-0.178-0.398-0.398-0.398zM30.152 15.602c-0.22 0-0.398 0.178-0.398 0.398s0.178 0.398 0.398 0.398c0.22 0 0.398-0.178 0.398-0.398s-0.178-0.398-0.398-0.398zM9.449 17.194c-0.22 0-0.398 0.178-0.398 0.398s0.178 0.398 0.398 0.398c0.22 0 0.398-0.178 0.398-0.398s-0.178-0.398-0.398-0.398zM11.041 17.194c-0.22 0-0.398 0.178-0.398 0.398s0.178 0.398 0.398 0.398c0.22 0 0.398-0.178 0.398-0.398s-0.178-0.398-0.398-0.398zM12.634 17.194c-0.22 0-0.398 0.178-0.398 0.398s0.178 0.398 0.398 0.398c0.22 0 0.398-0.178 0.398-0.398s-0.178-0.398-0.398-0.398zM14.226 17.194c-0.22 0-0.398 0.178-0.398 0.398s0.178 0.398 0.398 0.398c0.22 0 0.398-0.178 0.398-0.398s-0.178-0.398-0.398-0.398zM15.819 17.194c-0.22 0-0.398 0.178-0.398 0.398s0.178 0.398 0.398 0.398c0.22 0 0.398-0.178 0.398-0.398s-0.178-0.398-0.398-0.398zM17.412 17.194c-0.22 0-0.398 0.178-0.398 0.398s0.178 0.398 0.398 0.398c0.22 0 0.398-0.178 0.398-0.398s-0.178-0.398-0.398-0.398zM19.004 17.194c-0.22 0-0.398 0.178-0.398 0.398s0.178 0.398 0.398 0.398c0.22 0 0.398-0.178 0.398-0.398s-0.178-0.398-0.398-0.398zM22.189 17.194c-0.22 0-0.398 0.178-0.398 0.398s0.178 0.398 0.398 0.398c0.22 0 0.398-0.178 0.398-0.398s-0.178-0.398-0.398-0.398zM30.152 17.194c-0.22 0-0.398 0.178-0.398 0.398s0.178 0.398 0.398 0.398c0.22 0 0.398-0.178 0.398-0.398s-0.178-0.398-0.398-0.398zM22.189 18.787c-0.22 0-0.398 0.178-0.398 0.398s0.178 0.398 0.398 0.398c0.22 0 0.398-0.178 0.398-0.398s-0.178-0.398-0.398-0.398zM30.152 18.787c-0.22 0-0.398 0.178-0.398 0.398s0.178 0.398 0.398 0.398c0.22 0 0.398-0.178 0.398-0.398s-0.178-0.398-0.398-0.398zM9.449 20.38c-0.22 0-0.398 0.178-0.398 0.398s0.178 0.398 0.398 0.398c0.22 0 0.398-0.178 0.398-0.398s-0.178-0.398-0.398-0.398zM11.041 20.38c-0.22 0-0.398 0.178-0.398 0.398s0.178 0.398 0.398 0.398c0.22 0 0.398-0.178 0.398-0.398s-0.178-0.398-0.398-0.398zM12.634 20.38c-0.22 0-0.398 0.178-0.398 0.398s0.178 0.398 0.398 0.398c0.22 0 0.398-0.178 0.398-0.398s-0.178-0.398-0.398-0.398zM14.226 20.38c-0.22 0-0.398 0.178-0.398 0.398s0.178 0.398 0.398 0.398c0.22 0 0.398-0.178 0.398-0.398s-0.178-0.398-0.398-0.398zM15.819 20.38c-0.22 0-0.398 0.178-0.398 0.398s0.178 0.398 0.398 0.398c0.22 0 0.398-0.178 0.398-0.398s-0.178-0.398-0.398-0.398zM17.412 20.38c-0.22 0-0.398 0.178-0.398 0.398s0.178 0.398 0.398 0.398c0.22 0 0.398-0.178 0.398-0.398s-0.178-0.398-0.398-0.398zM19.004 20.38c-0.22 0-0.398 0.178-0.398 0.398s0.178 0.398 0.398 0.398c0.22 0 0.398-0.178 0.398-0.398s-0.178-0.398-0.398-0.398zM22.189 20.38c-0.22 0-0.398 0.178-0.398 0.398s0.178 0.398 0.398 0.398c0.22 0 0.398-0.178 0.398-0.398s-0.178-0.398-0.398-0.398zM30.152 20.38c-0.22 0-0.398 0.178-0.398 0.398s0.178 0.398 0.398 0.398c0.22 0 0.398-0.178 0.398-0.398s-0.178-0.398-0.398-0.398zM9.449 21.972c-0.22 0-0.398 0.178-0.398 0.398s0.178 0.398 0.398 0.398c0.22 0 0.398-0.178 0.398-0.398s-0.178-0.398-0.398-0.398zM19.004 21.972c-0.22 0-0.398 0.178-0.398 0.398s0.178 0.398 0.398 0.398c0.22 0 0.398-0.178 0.398-0.398s-0.178-0.398-0.398-0.398zM22.189 21.972c-0.22 0-0.398 0.178-0.398 0.398s0.178 0.398 0.398 0.398c0.22 0 0.398-0.178 0.398-0.398s-0.178-0.398-0.398-0.398zM30.152 21.972c-0.22 0-0.398 0.178-0.398 0.398s0.178 0.398 0.398 0.398c0.22 0 0.398-0.178 0.398-0.398s-0.178-0.398-0.398-0.398zM9.449 23.565c-0.22 0-0.398 0.178-0.398 0.398s0.178 0.398 0.398 0.398c0.22 0 0.398-0.178 0.398-0.398s-0.178-0.398-0.398-0.398zM11.041 23.565c-0.22 0-0.398 0.178-0.398 0.398s0.178 0.398 0.398 0.398c0.22 0 0.398-0.178 0.398-0.398s-0.178-0.398-0.398-0.398zM12.634 23.565c-0.22 0-0.398 0.178-0.398 0.398s0.178 0.398 0.398 0.398c0.22 0 0.398-0.178 0.398-0.398s-0.178-0.398-0.398-0.398zM14.226 23.565c-0.22 0-0.398 0.178-0.398 0.398s0.178 0.398 0.398 0.398c0.22 0 0.398-0.178 0.398-0.398s-0.178-0.398-0.398-0.398zM15.819 23.565c-0.22 0-0.398 0.178-0.398 0.398s0.178 0.398 0.398 0.398c0.22 0 0.398-0.178 0.398-0.398s-0.178-0.398-0.398-0.398zM17.412 23.565c-0.22 0-0.398 0.178-0.398 0.398s0.178 0.398 0.398 0.398c0.22 0 0.398-0.178 0.398-0.398s-0.178-0.398-0.398-0.398zM19.004 23.565c-0.22 0-0.398 0.178-0.398 0.398s0.178 0.398 0.398 0.398c0.22 0 0.398-0.178 0.398-0.398s-0.178-0.398-0.398-0.398zM22.189 23.565c-0.22 0-0.398 0.178-0.398 0.398s0.178 0.398 0.398 0.398c0.22 0 0.398-0.178 0.398-0.398s-0.178-0.398-0.398-0.398zM23.782 23.565c-0.22 0-0.398 0.178-0.398 0.398s0.178 0.398 0.398 0.398c0.22 0 0.398-0.178 0.398-0.398s-0.178-0.398-0.398-0.398zM25.375 23.565c-0.22 0-0.398 0.178-0.398 0.398s0.178 0.398 0.398 0.398c0.22 0 0.398-0.178 0.398-0.398s-0.178-0.398-0.398-0.398zM26.967 23.565c-0.22 0-0.398 0.178-0.398 0.398s0.178 0.398 0.398 0.398c0.22 0 0.398-0.178 0.398-0.398s-0.178-0.398-0.398-0.398zM28.56 23.565c-0.22 0-0.398 0.178-0.398 0.398s0.178 0.398 0.398 0.398c0.22 0 0.398-0.178 0.398-0.398s-0.178-0.398-0.398-0.398zM30.152 23.565c-0.22 0-0.398 0.178-0.398 0.398s0.178 0.398 0.398 0.398c0.22 0 0.398-0.178 0.398-0.398s-0.178-0.398-0.398-0.398z"></path>
</svg>
