<!-- Generated by IcoMoon.io -->
<svg version="1.1" xmlns="http://www.w3.org/2000/svg" width="32" height="32" viewBox="0 0 32 32">
<title>query-inner-join-right</title>
<path d="M11.2 5.6c-5.739 0-10.4 4.661-10.4 10.4s4.661 10.4 10.4 10.4c1.731 0 3.363-0.427 4.8-1.177 1.437 0.75 3.069 1.177 4.8 1.177 5.739 0 10.4-4.661 10.4-10.4s-4.661-10.4-10.4-10.4c-1.731 0-3.363 0.427-4.8 1.177-1.437-0.75-3.069-1.177-4.8-1.177zM11.2 6.4c1.418 0 2.761 0.309 3.972 0.859-2.869 1.853-4.772 5.075-4.772 8.741s1.903 6.888 4.772 8.741c-1.21 0.55-2.554 0.859-3.972 0.859-5.307 0-9.6-4.293-9.6-9.6s4.293-9.6 9.6-9.6zM20.8 6.4c0.271 0 0.538 0.014 0.802 0.036 0.019 0.205 0.19 0.364 0.398 0.364h0c0.174-0 0.322-0.112 0.376-0.267l0.001-0.003c1.010 0.167 1.966 0.492 2.843 0.947-0.013 0.037-0.020 0.079-0.020 0.122v0c0 0.221 0.179 0.4 0.4 0.4v0c0.119-0 0.225-0.052 0.298-0.135l0-0c0.272 0.171 0.536 0.355 0.789 0.552-0.167 0.050-0.287 0.203-0.288 0.384v0c0 0.221 0.179 0.4 0.4 0.4v0c0.206-0 0.376-0.157 0.398-0.358l0-0.002c0.268 0.24 0.522 0.494 0.762 0.762-0.203 0.021-0.359 0.191-0.359 0.398v0c0 0.221 0.179 0.4 0.4 0.4v0c0.181-0 0.333-0.12 0.383-0.285l0.001-0.003c0.197 0.253 0.38 0.516 0.551 0.788-0.083 0.074-0.134 0.18-0.134 0.299 0 0 0 0 0 0v0c0 0.221 0.179 0.4 0.4 0.4v0c0.044 0 0.087-0.007 0.126-0.020l-0.003 0.001c0.455 0.877 0.779 1.833 0.946 2.842-0.158 0.056-0.269 0.203-0.27 0.377v0c0 0 0 0 0 0 0 0.208 0.159 0.379 0.362 0.398l0.002 0c0.022 0.265 0.036 0.531 0.036 0.802s-0.014 0.538-0.036 0.802c-0.205 0.019-0.364 0.19-0.364 0.398v0c0 0.174 0.112 0.322 0.267 0.376l0.003 0.001c-0.167 1.010-0.491 1.966-0.947 2.843-0.037-0.013-0.079-0.020-0.122-0.020h-0c-0.221 0-0.4 0.179-0.4 0.4v0c0 0.119 0.052 0.225 0.135 0.298l0 0c-0.171 0.272-0.355 0.536-0.552 0.789-0.050-0.167-0.203-0.287-0.384-0.288v0c-0.221 0-0.4 0.179-0.4 0.4v0c0 0.206 0.157 0.376 0.358 0.398l0.002 0c-0.24 0.268-0.494 0.522-0.762 0.762-0.021-0.203-0.191-0.359-0.398-0.359v0c-0.221 0-0.4 0.179-0.4 0.4v0c0 0.181 0.12 0.333 0.285 0.383l0.003 0.001c-0.253 0.197-0.516 0.38-0.788 0.551-0.074-0.083-0.18-0.134-0.299-0.134-0 0-0 0-0 0v0c-0.221 0-0.4 0.179-0.4 0.4v0c0 0.044 0.007 0.087 0.020 0.126l-0.001-0.003c-0.877 0.455-1.833 0.779-2.842 0.946-0.056-0.158-0.203-0.269-0.377-0.27h-0c-0 0-0 0-0 0-0.208 0-0.379 0.159-0.398 0.362l-0 0.002c-0.265 0.022-0.531 0.036-0.802 0.036s-0.538-0.015-0.802-0.037c-0.019-0.204-0.19-0.363-0.398-0.363h-0c-0.174 0-0.322 0.112-0.377 0.267l-0.001 0.003c-0.84-0.14-1.643-0.388-2.395-0.73 1.759-1.136 3.153-2.788 3.97-4.741 0 0 0.001 0 0.001 0s0.001 0 0.001 0h-0c0.221 0 0.4-0.179 0.4-0.4v0c-0-0.12-0.053-0.227-0.136-0.3l-0-0c0.348-1.037 0.537-2.146 0.537-3.299s-0.189-2.262-0.537-3.299c0.084-0.074 0.137-0.181 0.137-0.301v-0c0-0.221-0.179-0.4-0.4-0.4v0c-0 0-0.001 0-0.001 0s-0.001 0-0.001 0h0c-0.817-1.952-2.211-3.605-3.97-4.741 0.751-0.341 1.554-0.59 2.394-0.73 0.055 0.159 0.204 0.27 0.378 0.27v0c0 0 0 0 0 0 0.208 0 0.379-0.159 0.398-0.362l0-0.002c0.265-0.022 0.531-0.037 0.802-0.037zM21.6 16c0 0.221 0.179 0.4 0.4 0.4v0c0.221 0 0.4-0.179 0.4-0.4v0c0-0.221-0.179-0.4-0.4-0.4v0c-0.221 0-0.4 0.179-0.4 0.4v0zM18.4 7.2c-0.221 0-0.4 0.179-0.4 0.4v0c0 0.221 0.179 0.4 0.4 0.4v0c0.221 0 0.4-0.179 0.4-0.4v0c0-0.221-0.179-0.4-0.4-0.4v0zM20.8 7.2c-0.221 0-0.4 0.179-0.4 0.4v0c0 0.221 0.179 0.4 0.4 0.4v0c0.221 0 0.4-0.179 0.4-0.4v0c0-0.221-0.179-0.4-0.4-0.4v0zM23.2 7.2c-0.221 0-0.4 0.179-0.4 0.4v0c0 0.221 0.179 0.4 0.4 0.4v0c0.221 0 0.4-0.179 0.4-0.4v0c0-0.221-0.179-0.4-0.4-0.4v0zM15.705 7.87c0.073 0.080 0.178 0.13 0.295 0.13v0c0.117-0 0.222-0.050 0.295-0.13l0-0c0.272 0.171 0.537 0.352 0.789 0.548-0.166 0.051-0.284 0.203-0.284 0.383v0c0 0.221 0.179 0.4 0.4 0.4v0c0.204-0 0.373-0.154 0.397-0.352l0-0.002c0.267 0.238 0.522 0.49 0.76 0.757-0.201 0.022-0.357 0.191-0.357 0.397v0c0 0.221 0.179 0.4 0.4 0.4v0c0.181-0 0.333-0.12 0.383-0.285l0.001-0.003c0.197 0.253 0.377 0.519 0.548 0.791-0.081 0.073-0.131 0.179-0.131 0.296v0c0 0.221 0.179 0.4 0.4 0.4v0c0.043-0 0.085-0.007 0.124-0.020l-0.003 0.001c0.456 0.877 0.778 1.833 0.945 2.843-0.156 0.057-0.266 0.204-0.266 0.377v0c0 0 0 0 0 0 0 0.208 0.159 0.379 0.362 0.398l0.002 0c0.022 0.265 0.037 0.531 0.037 0.802s-0.015 0.537-0.037 0.802c-0.204 0.019-0.363 0.19-0.363 0.398v0c0 0.173 0.11 0.32 0.264 0.376l0.003 0.001c-0.167 1.010-0.49 1.966-0.945 2.843-0.036-0.012-0.078-0.019-0.121-0.020h-0c-0.221 0-0.4 0.179-0.4 0.4v0c0 0.117 0.051 0.223 0.132 0.296l0 0c-0.171 0.272-0.352 0.538-0.548 0.791-0.050-0.167-0.203-0.287-0.384-0.288v0c-0.221 0-0.4 0.179-0.4 0.4v0c0 0 0 0 0 0 0 0.206 0.155 0.375 0.354 0.397l0.002 0c-0.238 0.266-0.493 0.518-0.759 0.756-0.024-0.2-0.192-0.354-0.397-0.354h-0c-0.221 0-0.4 0.179-0.4 0.4v0c0 0.179 0.119 0.331 0.282 0.381l0.003 0.001c-0.253 0.196-0.517 0.378-0.789 0.548-0.073-0.080-0.178-0.13-0.295-0.13v0c-0.117 0-0.222 0.050-0.295 0.13l-0 0c-0.272-0.171-0.537-0.352-0.789-0.548 0.166-0.051 0.284-0.203 0.284-0.383v0c0-0.221-0.179-0.4-0.4-0.4v0c-0.204 0-0.373 0.154-0.397 0.352l-0 0.002c-0.267-0.238-0.522-0.49-0.76-0.757 0.201-0.022 0.357-0.191 0.357-0.397v-0c0-0.221-0.179-0.4-0.4-0.4v0c-0.181 0-0.333 0.12-0.383 0.285l-0.001 0.003c-0.197-0.253-0.377-0.519-0.548-0.791 0.081-0.073 0.131-0.179 0.131-0.296v0c0-0.221-0.179-0.4-0.4-0.4v0c-0.043 0-0.085 0.007-0.124 0.020l0.003-0.001c-0.456-0.877-0.778-1.833-0.945-2.843 0.156-0.057 0.266-0.204 0.266-0.377v-0c0-0 0-0 0-0 0-0.208-0.159-0.379-0.362-0.398l-0.002-0c-0.022-0.265-0.037-0.531-0.037-0.802s0.015-0.537 0.037-0.802c0.204-0.019 0.363-0.19 0.363-0.398v-0c-0-0.173-0.11-0.32-0.264-0.376l-0.003-0.001c0.167-1.010 0.49-1.966 0.945-2.843 0.036 0.012 0.078 0.019 0.121 0.020h0c0.221 0 0.4-0.179 0.4-0.4v0c-0-0.117-0.051-0.223-0.132-0.296l-0-0c0.171-0.272 0.352-0.538 0.548-0.791 0.050 0.167 0.203 0.287 0.384 0.287v0c0.221 0 0.4-0.179 0.4-0.4v0c0-0 0-0 0-0 0-0.206-0.155-0.375-0.354-0.397l-0.002-0c0.238-0.266 0.493-0.518 0.759-0.756 0.024 0.2 0.192 0.354 0.397 0.354h0c0.221 0 0.4-0.179 0.4-0.4v0c-0-0.179-0.119-0.331-0.282-0.381l-0.003-0.001c0.253-0.196 0.517-0.378 0.789-0.548zM19.6 8.4c-0.221 0-0.4 0.179-0.4 0.4v0c0 0.221 0.179 0.4 0.4 0.4v0c0.221 0 0.4-0.179 0.4-0.4v0c0-0.221-0.179-0.4-0.4-0.4v0zM22 8.4c-0.221 0-0.4 0.179-0.4 0.4v0c0 0.221 0.179 0.4 0.4 0.4v0c0.221 0 0.4-0.179 0.4-0.4v0c0-0.221-0.179-0.4-0.4-0.4v0zM24.4 8.4c-0.221 0-0.4 0.179-0.4 0.4v0c0 0.221 0.179 0.4 0.4 0.4v0c0.221 0 0.4-0.179 0.4-0.4v0c0-0.221-0.179-0.4-0.4-0.4v0zM16 9.6c-0.221 0-0.4 0.179-0.4 0.4v0c0 0.221 0.179 0.4 0.4 0.4v0c0.221 0 0.4-0.179 0.4-0.4v0c0-0.221-0.179-0.4-0.4-0.4v0zM20.8 9.6c-0.221 0-0.4 0.179-0.4 0.4v0c0 0.221 0.179 0.4 0.4 0.4v0c0.221 0 0.4-0.179 0.4-0.4v0c0-0.221-0.179-0.4-0.4-0.4v0zM23.2 9.6c-0.221 0-0.4 0.179-0.4 0.4v0c0 0.221 0.179 0.4 0.4 0.4v0c0.221 0 0.4-0.179 0.4-0.4v0c0-0.221-0.179-0.4-0.4-0.4v0zM25.6 9.6c-0.221 0-0.4 0.179-0.4 0.4v0c0 0.221 0.179 0.4 0.4 0.4v0c0.221 0 0.4-0.179 0.4-0.4v0c0-0.221-0.179-0.4-0.4-0.4v0zM14.8 10.8c-0.221 0-0.4 0.179-0.4 0.4v0c0 0.221 0.179 0.4 0.4 0.4v0c0.221 0 0.4-0.179 0.4-0.4v0c0-0.221-0.179-0.4-0.4-0.4v0zM17.2 10.8c-0.221 0-0.4 0.179-0.4 0.4v0c0 0.221 0.179 0.4 0.4 0.4v0c0.221 0 0.4-0.179 0.4-0.4v0c0-0.221-0.179-0.4-0.4-0.4v0zM22 10.8c-0.221 0-0.4 0.179-0.4 0.4v0c0 0.221 0.179 0.4 0.4 0.4v0c0.221 0 0.4-0.179 0.4-0.4v0c0-0.221-0.179-0.4-0.4-0.4v0zM24.4 10.8c-0.221 0-0.4 0.179-0.4 0.4v0c0 0.221 0.179 0.4 0.4 0.4v0c0.221 0 0.4-0.179 0.4-0.4v0c0-0.221-0.179-0.4-0.4-0.4v0zM26.8 10.8c-0.221 0-0.4 0.179-0.4 0.4v0c0 0.221 0.179 0.4 0.4 0.4v0c0.221 0 0.4-0.179 0.4-0.4v0c0-0.221-0.179-0.4-0.4-0.4v0zM13.6 12c-0.221 0-0.4 0.179-0.4 0.4v0c0 0.221 0.179 0.4 0.4 0.4v0c0.221 0 0.4-0.179 0.4-0.4v0c0-0.221-0.179-0.4-0.4-0.4v0zM16 12c-0.221 0-0.4 0.179-0.4 0.4v0c0 0.221 0.179 0.4 0.4 0.4v0c0.221 0 0.4-0.179 0.4-0.4v0c0-0.221-0.179-0.4-0.4-0.4v0zM18.4 12c-0.221 0-0.4 0.179-0.4 0.4v0c0 0.221 0.179 0.4 0.4 0.4v0c0.221 0 0.4-0.179 0.4-0.4v0c0-0.221-0.179-0.4-0.4-0.4v0zM23.2 12c-0.221 0-0.4 0.179-0.4 0.4v0c0 0.221 0.179 0.4 0.4 0.4v0c0.221 0 0.4-0.179 0.4-0.4v0c0-0.221-0.179-0.4-0.4-0.4v0zM25.6 12c-0.221 0-0.4 0.179-0.4 0.4v0c0 0.221 0.179 0.4 0.4 0.4v0c0.221 0 0.4-0.179 0.4-0.4v0c0-0.221-0.179-0.4-0.4-0.4v0zM28 12c-0.221 0-0.4 0.179-0.4 0.4v0c0 0.221 0.179 0.4 0.4 0.4v0c0.221 0 0.4-0.179 0.4-0.4v0c0-0.221-0.179-0.4-0.4-0.4v0zM12.4 13.2c-0.221 0-0.4 0.179-0.4 0.4v0c0 0.221 0.179 0.4 0.4 0.4v0c0.221 0 0.4-0.179 0.4-0.4v0c0-0.221-0.179-0.4-0.4-0.4v0zM14.8 13.2c-0.221 0-0.4 0.179-0.4 0.4v0c0 0.221 0.179 0.4 0.4 0.4v0c0.221 0 0.4-0.179 0.4-0.4v0c0-0.221-0.179-0.4-0.4-0.4v0zM17.2 13.2c-0.221 0-0.4 0.179-0.4 0.4v0c0 0.221 0.179 0.4 0.4 0.4v0c0.221 0 0.4-0.179 0.4-0.4v0c0-0.221-0.179-0.4-0.4-0.4v0zM19.6 13.2c-0.221 0-0.4 0.179-0.4 0.4v0c0 0.221 0.179 0.4 0.4 0.4v0c0.221 0 0.4-0.179 0.4-0.4v0c0-0.221-0.179-0.4-0.4-0.4v0zM22 13.2c-0.221 0-0.4 0.179-0.4 0.4v0c0 0.221 0.179 0.4 0.4 0.4v0c0.221 0 0.4-0.179 0.4-0.4v0c0-0.221-0.179-0.4-0.4-0.4v0zM24.4 13.2c-0.221 0-0.4 0.179-0.4 0.4v0c0 0.221 0.179 0.4 0.4 0.4v0c0.221 0 0.4-0.179 0.4-0.4v0c0-0.221-0.179-0.4-0.4-0.4v0zM26.8 13.2c-0.221 0-0.4 0.179-0.4 0.4v0c0 0.221 0.179 0.4 0.4 0.4v0c0.221 0 0.4-0.179 0.4-0.4v0c0-0.221-0.179-0.4-0.4-0.4v0zM29.2 13.2c-0.221 0-0.4 0.179-0.4 0.4v0c0 0.221 0.179 0.4 0.4 0.4v0c0.221 0 0.4-0.179 0.4-0.4v0c0-0.221-0.179-0.4-0.4-0.4v0zM13.6 14.4c-0.221 0-0.4 0.179-0.4 0.4v0c0 0.221 0.179 0.4 0.4 0.4v0c0.221 0 0.4-0.179 0.4-0.4v0c0-0.221-0.179-0.4-0.4-0.4v0zM16 14.4c-0.221 0-0.4 0.179-0.4 0.4v0c0 0.221 0.179 0.4 0.4 0.4v0c0.221 0 0.4-0.179 0.4-0.4v0c0-0.221-0.179-0.4-0.4-0.4v0zM18.4 14.4c-0.221 0-0.4 0.179-0.4 0.4v0c0 0.221 0.179 0.4 0.4 0.4v0c0.221 0 0.4-0.179 0.4-0.4v0c0-0.221-0.179-0.4-0.4-0.4v0zM23.2 14.4c-0.221 0-0.4 0.179-0.4 0.4v0c0 0.221 0.179 0.4 0.4 0.4v0c0.221 0 0.4-0.179 0.4-0.4v0c0-0.221-0.179-0.4-0.4-0.4v0zM25.6 14.4c-0.221 0-0.4 0.179-0.4 0.4v0c0 0.221 0.179 0.4 0.4 0.4v0c0.221 0 0.4-0.179 0.4-0.4v0c0-0.221-0.179-0.4-0.4-0.4v0zM28 14.4c-0.221 0-0.4 0.179-0.4 0.4v0c0 0.221 0.179 0.4 0.4 0.4v0c0.221 0 0.4-0.179 0.4-0.4v0c0-0.221-0.179-0.4-0.4-0.4v0zM12.4 15.6c-0.221 0-0.4 0.179-0.4 0.4v0c0 0.221 0.179 0.4 0.4 0.4v0c0.221 0 0.4-0.179 0.4-0.4v0c0-0.221-0.179-0.4-0.4-0.4v0zM14.8 15.6c-0.221 0-0.4 0.179-0.4 0.4v0c0 0.221 0.179 0.4 0.4 0.4v0c0.221 0 0.4-0.179 0.4-0.4v0c0-0.221-0.179-0.4-0.4-0.4v0zM17.2 15.6c-0.221 0-0.4 0.179-0.4 0.4v0c0 0.221 0.179 0.4 0.4 0.4v0c0.221 0 0.4-0.179 0.4-0.4v0c0-0.221-0.179-0.4-0.4-0.4v0zM19.6 15.6c-0.221 0-0.4 0.179-0.4 0.4v0c0 0.221 0.179 0.4 0.4 0.4v0c0.221 0 0.4-0.179 0.4-0.4v0c0-0.221-0.179-0.4-0.4-0.4v0zM24.4 15.6c-0.221 0-0.4 0.179-0.4 0.4v0c0 0.221 0.179 0.4 0.4 0.4v0c0.221 0 0.4-0.179 0.4-0.4v0c0-0.221-0.179-0.4-0.4-0.4v0zM26.8 15.6c-0.221 0-0.4 0.179-0.4 0.4v0c0 0.221 0.179 0.4 0.4 0.4v0c0.221 0 0.4-0.179 0.4-0.4v0c0-0.221-0.179-0.4-0.4-0.4v0zM29.2 15.6c-0.221 0-0.4 0.179-0.4 0.4v0c0 0.221 0.179 0.4 0.4 0.4v0c0.221 0 0.4-0.179 0.4-0.4v0c0-0.221-0.179-0.4-0.4-0.4v0zM13.6 16.8c-0.221 0-0.4 0.179-0.4 0.4v0c0 0.221 0.179 0.4 0.4 0.4v0c0.221 0 0.4-0.179 0.4-0.4v0c0-0.221-0.179-0.4-0.4-0.4v0zM16 16.8c-0.221 0-0.4 0.179-0.4 0.4v0c0 0.221 0.179 0.4 0.4 0.4v0c0.221 0 0.4-0.179 0.4-0.4v0c0-0.221-0.179-0.4-0.4-0.4v0zM18.4 16.8c-0.221 0-0.4 0.179-0.4 0.4v0c0 0.221 0.179 0.4 0.4 0.4v0c0.221 0 0.4-0.179 0.4-0.4v0c0-0.221-0.179-0.4-0.4-0.4v0zM23.2 16.8c-0.221 0-0.4 0.179-0.4 0.4v0c0 0.221 0.179 0.4 0.4 0.4v0c0.221 0 0.4-0.179 0.4-0.4v0c0-0.221-0.179-0.4-0.4-0.4v0zM25.6 16.8c-0.221 0-0.4 0.179-0.4 0.4v0c0 0.221 0.179 0.4 0.4 0.4v0c0.221 0 0.4-0.179 0.4-0.4v0c0-0.221-0.179-0.4-0.4-0.4v0zM28 16.8c-0.221 0-0.4 0.179-0.4 0.4v0c0 0.221 0.179 0.4 0.4 0.4v0c0.221 0 0.4-0.179 0.4-0.4v0c0-0.221-0.179-0.4-0.4-0.4v0zM12.4 18c-0.221 0-0.4 0.179-0.4 0.4v0c0 0.221 0.179 0.4 0.4 0.4v0c0.221 0 0.4-0.179 0.4-0.4v0c0-0.221-0.179-0.4-0.4-0.4v0zM14.8 18c-0.221 0-0.4 0.179-0.4 0.4v0c0 0.221 0.179 0.4 0.4 0.4v0c0.221 0 0.4-0.179 0.4-0.4v0c0-0.221-0.179-0.4-0.4-0.4v0zM17.2 18c-0.221 0-0.4 0.179-0.4 0.4v0c0 0.221 0.179 0.4 0.4 0.4v0c0.221 0 0.4-0.179 0.4-0.4v0c0-0.221-0.179-0.4-0.4-0.4v0zM19.6 18c-0.221 0-0.4 0.179-0.4 0.4v0c0 0.221 0.179 0.4 0.4 0.4v0c0.221 0 0.4-0.179 0.4-0.4v0c0-0.221-0.179-0.4-0.4-0.4v0zM22 18c-0.221 0-0.4 0.179-0.4 0.4v0c0 0.221 0.179 0.4 0.4 0.4v0c0.221 0 0.4-0.179 0.4-0.4v0c0-0.221-0.179-0.4-0.4-0.4v0zM24.4 18c-0.221 0-0.4 0.179-0.4 0.4v0c0 0.221 0.179 0.4 0.4 0.4v0c0.221 0 0.4-0.179 0.4-0.4v0c0-0.221-0.179-0.4-0.4-0.4v0zM26.8 18c-0.221 0-0.4 0.179-0.4 0.4v0c0 0.221 0.179 0.4 0.4 0.4v0c0.221 0 0.4-0.179 0.4-0.4v0c0-0.221-0.179-0.4-0.4-0.4v0zM29.2 18c-0.221 0-0.4 0.179-0.4 0.4v0c0 0.221 0.179 0.4 0.4 0.4v0c0.221 0 0.4-0.179 0.4-0.4v0c0-0.221-0.179-0.4-0.4-0.4v0zM13.6 19.2c-0.221 0-0.4 0.179-0.4 0.4v0c0 0.221 0.179 0.4 0.4 0.4v0c0.221 0 0.4-0.179 0.4-0.4v0c0-0.221-0.179-0.4-0.4-0.4v0zM16 19.2c-0.221 0-0.4 0.179-0.4 0.4v0c0 0.221 0.179 0.4 0.4 0.4v0c0.221 0 0.4-0.179 0.4-0.4v0c0-0.221-0.179-0.4-0.4-0.4v0zM18.4 19.2c-0.221 0-0.4 0.179-0.4 0.4v0c0 0.221 0.179 0.4 0.4 0.4v0c0.221 0 0.4-0.179 0.4-0.4v0c0-0.221-0.179-0.4-0.4-0.4v0zM23.2 19.2c-0.221 0-0.4 0.179-0.4 0.4v0c0 0.221 0.179 0.4 0.4 0.4v0c0.221 0 0.4-0.179 0.4-0.4v0c0-0.221-0.179-0.4-0.4-0.4v0zM25.6 19.2c-0.221 0-0.4 0.179-0.4 0.4v0c0 0.221 0.179 0.4 0.4 0.4v0c0.221 0 0.4-0.179 0.4-0.4v0c0-0.221-0.179-0.4-0.4-0.4v0zM28 19.2c-0.221 0-0.4 0.179-0.4 0.4v0c0 0.221 0.179 0.4 0.4 0.4v0c0.221 0 0.4-0.179 0.4-0.4v0c0-0.221-0.179-0.4-0.4-0.4v0zM14.8 20.4c-0.221 0-0.4 0.179-0.4 0.4v0c0 0.221 0.179 0.4 0.4 0.4v0c0.221 0 0.4-0.179 0.4-0.4v0c0-0.221-0.179-0.4-0.4-0.4v0zM17.2 20.4c-0.221 0-0.4 0.179-0.4 0.4v0c0 0.221 0.179 0.4 0.4 0.4v0c0.221 0 0.4-0.179 0.4-0.4v0c0-0.221-0.179-0.4-0.4-0.4v0zM22 20.4c-0.221 0-0.4 0.179-0.4 0.4v0c0 0.221 0.179 0.4 0.4 0.4v0c0.221 0 0.4-0.179 0.4-0.4v0c0-0.221-0.179-0.4-0.4-0.4v0zM24.4 20.4c-0.221 0-0.4 0.179-0.4 0.4v0c0 0.221 0.179 0.4 0.4 0.4v0c0.221 0 0.4-0.179 0.4-0.4v0c0-0.221-0.179-0.4-0.4-0.4v0zM26.8 20.4c-0.221 0-0.4 0.179-0.4 0.4v0c0 0.221 0.179 0.4 0.4 0.4v0c0.221 0 0.4-0.179 0.4-0.4v0c0-0.221-0.179-0.4-0.4-0.4v0zM16 21.6c-0.221 0-0.4 0.179-0.4 0.4v0c0 0.221 0.179 0.4 0.4 0.4v0c0.221 0 0.4-0.179 0.4-0.4v0c0-0.221-0.179-0.4-0.4-0.4v0zM20.8 21.6c-0.221 0-0.4 0.179-0.4 0.4v0c0 0.221 0.179 0.4 0.4 0.4v0c0.221 0 0.4-0.179 0.4-0.4v0c0-0.221-0.179-0.4-0.4-0.4v0zM23.2 21.6c-0.221 0-0.4 0.179-0.4 0.4v0c0 0.221 0.179 0.4 0.4 0.4v0c0.221 0 0.4-0.179 0.4-0.4v0c0-0.221-0.179-0.4-0.4-0.4v0zM25.6 21.6c-0.221 0-0.4 0.179-0.4 0.4v0c0 0.221 0.179 0.4 0.4 0.4v0c0.221 0 0.4-0.179 0.4-0.4v0c0-0.221-0.179-0.4-0.4-0.4v0zM19.6 22.8c-0.221 0-0.4 0.179-0.4 0.4v0c0 0.221 0.179 0.4 0.4 0.4v0c0.221 0 0.4-0.179 0.4-0.4v0c0-0.221-0.179-0.4-0.4-0.4v0zM22 22.8c-0.221 0-0.4 0.179-0.4 0.4v0c0 0.221 0.179 0.4 0.4 0.4v0c0.221 0 0.4-0.179 0.4-0.4v0c0-0.221-0.179-0.4-0.4-0.4v0zM24.4 22.8c-0.221 0-0.4 0.179-0.4 0.4v0c0 0.221 0.179 0.4 0.4 0.4v0c0.221 0 0.4-0.179 0.4-0.4v0c0-0.221-0.179-0.4-0.4-0.4v0zM18.4 24c-0.221 0-0.4 0.179-0.4 0.4v0c0 0.221 0.179 0.4 0.4 0.4v0c0.221 0 0.4-0.179 0.4-0.4v0c0-0.221-0.179-0.4-0.4-0.4v0zM20.8 24c-0.221 0-0.4 0.179-0.4 0.4v0c0 0.221 0.179 0.4 0.4 0.4v0c0.221 0 0.4-0.179 0.4-0.4v0c0-0.221-0.179-0.4-0.4-0.4v0zM23.2 24c-0.221 0-0.4 0.179-0.4 0.4v0c0 0.221 0.179 0.4 0.4 0.4v0c0.221 0 0.4-0.179 0.4-0.4v0c0-0.221-0.179-0.4-0.4-0.4v0z"></path>
</svg>
