<!-- Generated by IcoMoon.io -->
<svg version="1.1" xmlns="http://www.w3.org/2000/svg" width="32" height="32" viewBox="0 0 32 32">
<title>quote</title>
<path d="M25.006 13.008c3.861 0 6.993 3.126 6.993 6.982s-3.132 6.981-6.993 6.981c-3.862 0-6.993-3.125-6.993-6.981l-0.031-0.997c0-7.712 6.262-13.964 13.986-13.964v3.99c-2.668 0-5.177 1.037-7.063 2.921-0.364 0.362-0.695 0.748-0.995 1.154 0.358-0.056 0.723-0.086 1.096-0.086zM7.024 13.008c3.863 0 6.994 3.126 6.994 6.982s-3.131 6.981-6.994 6.981c-3.862 0-6.992-3.125-6.992-6.981l-0.031-0.997c0-7.712 6.261-13.964 13.986-13.964v3.99c-2.668 0-5.177 1.037-7.064 2.921-0.363 0.362-0.694 0.748-0.994 1.154 0.358-0.056 0.723-0.086 1.096-0.086z"></path>
</svg>
