<!-- Generated by IcoMoon.io -->
<svg version="1.1" xmlns="http://www.w3.org/2000/svg" width="32" height="32" viewBox="0 0 32 32">
<title>refresh</title>
<path d="M16 2.8c-7.286 0-13.2 5.914-13.2 13.2 0 3.498 1.392 6.658 3.616 9.019l-2.181 2.181h7.766v-7.766l-2.194 2.194c-1.358-1.492-2.206-3.452-2.206-5.628 0-4.644 3.756-8.4 8.4-8.4h0.4v-4.8zM15.6 3.641v3.2c-4.888 0.214-8.8 4.22-8.8 9.159 0 2.538 1.031 4.839 2.695 6.505l0.284 0.283 1.42-1.422v5.034h-5.034l1.353-1.355-0.281-0.283c-2.247-2.244-3.638-5.336-3.638-8.762 0-6.716 5.338-12.144 12-12.359zM20 4.8v7.766l2.194-2.194c1.358 1.492 2.206 3.452 2.206 5.628 0 4.644-3.756 8.4-8.4 8.4h-0.4v4.8h0.4c7.286 0 13.2-5.914 13.2-13.2 0-3.498-1.391-6.659-3.614-9.020l2.18-2.18zM13.895 5.008c-0.027 0-0.053 0.002-0.080 0.006-0.217 0.044-0.358 0.255-0.314 0.472 0.020 0.103 0.081 0.195 0.17 0.255 0.088 0.058 0.195 0.080 0.3 0.059 0.217-0.044 0.358-0.253 0.314-0.47-0.037-0.186-0.2-0.32-0.391-0.322zM20.8 5.6h5.034l-1.353 1.352 0.283 0.284c2.245 2.244 3.636 5.338 3.636 8.764 0 6.716-5.338 12.144-12 12.359v-3.2c4.887-0.214 8.8-4.22 8.8-9.159 0-2.537-1.031-4.839-2.695-6.505l-0.284-0.283-1.42 1.422zM11.87 5.622c-0.053 0-0.106 0.009-0.156 0.030-0.205 0.086-0.302 0.319-0.216 0.523 0.084 0.205 0.317 0.302 0.522 0.217 0.205-0.086 0.302-0.319 0.217-0.523-0.063-0.148-0.206-0.245-0.367-0.247zM10.005 6.619c-0.081 0-0.161 0.023-0.228 0.069-0.183 0.122-0.233 0.37-0.109 0.555 0.122 0.183 0.37 0.233 0.555 0.109 0.184-0.122 0.233-0.37 0.111-0.553-0.073-0.111-0.197-0.178-0.328-0.18zM8.369 7.963c-0.108 0-0.213 0.042-0.287 0.119-0.156 0.155-0.156 0.409 0 0.564 0.155 0.156 0.409 0.156 0.564 0 0.156-0.155 0.156-0.409 0-0.564-0.073-0.075-0.172-0.117-0.277-0.119zM23.642 7.963c-0.108 0-0.212 0.042-0.288 0.119-0.156 0.155-0.156 0.409 0 0.564 0.155 0.156 0.409 0.156 0.564 0 0.156-0.155 0.156-0.409 0-0.564-0.073-0.075-0.172-0.117-0.277-0.119zM24.984 9.6c-0.081-0.002-0.159 0.022-0.227 0.067-0.183 0.122-0.233 0.37-0.109 0.553 0.122 0.184 0.37 0.234 0.553 0.111 0.184-0.123 0.234-0.37 0.111-0.555-0.073-0.109-0.197-0.177-0.328-0.177zM7.027 9.6c-0.136-0.003-0.264 0.064-0.339 0.177-0.122 0.184-0.073 0.433 0.111 0.555 0.184 0.123 0.431 0.073 0.555-0.109 0.122-0.184 0.073-0.433-0.111-0.555-0.064-0.042-0.138-0.066-0.216-0.067zM25.981 11.467c-0.053-0.002-0.106 0.009-0.156 0.030-0.205 0.084-0.302 0.319-0.217 0.522 0.086 0.205 0.319 0.302 0.523 0.217s0.302-0.319 0.217-0.523c-0.063-0.147-0.206-0.245-0.367-0.245zM6.031 11.467c-0.166-0.003-0.316 0.094-0.378 0.247-0.084 0.205 0.013 0.438 0.216 0.523 0.205 0.084 0.439-0.012 0.523-0.217s-0.013-0.438-0.217-0.522c-0.045-0.020-0.094-0.030-0.144-0.031zM26.594 13.494c-0.027-0.002-0.053 0.002-0.080 0.006-0.216 0.044-0.356 0.255-0.314 0.47 0.044 0.217 0.255 0.358 0.47 0.316 0.217-0.044 0.358-0.255 0.316-0.472-0.038-0.186-0.202-0.32-0.392-0.32zM5.419 13.494c-0.195-0.005-0.364 0.13-0.403 0.32-0.020 0.105 0 0.214 0.059 0.302 0.059 0.089 0.152 0.15 0.256 0.17 0.103 0.020 0.211-0.002 0.3-0.059 0.088-0.059 0.148-0.152 0.169-0.256 0.044-0.216-0.097-0.427-0.313-0.47-0.023-0.003-0.045-0.006-0.069-0.006zM5.2 15.6c-0.22 0-0.4 0.18-0.4 0.4s0.18 0.4 0.4 0.4c0.22 0 0.4-0.18 0.4-0.4s-0.18-0.4-0.4-0.4zM26.8 15.6c-0.22 0-0.4 0.18-0.4 0.4s0.18 0.4 0.4 0.4c0.22 0 0.4-0.18 0.4-0.4s-0.18-0.4-0.4-0.4zM5.409 17.706c-0.027 0-0.053 0.003-0.080 0.008-0.217 0.044-0.358 0.255-0.314 0.472 0.044 0.216 0.253 0.356 0.47 0.314 0.217-0.044 0.358-0.255 0.314-0.47-0.037-0.188-0.2-0.322-0.391-0.323zM26.603 17.706c-0.195-0.005-0.364 0.131-0.403 0.323-0.042 0.216 0.098 0.427 0.314 0.47 0.217 0.042 0.428-0.098 0.472-0.314 0.042-0.217-0.098-0.428-0.316-0.472-0.022-0.003-0.044-0.006-0.067-0.008zM25.988 19.731c-0.166-0.003-0.316 0.095-0.38 0.248-0.084 0.203 0.012 0.438 0.217 0.522s0.438-0.012 0.523-0.216c0.084-0.205-0.012-0.439-0.217-0.523-0.045-0.019-0.095-0.030-0.144-0.031zM6.025 19.733c-0.053 0-0.106 0.009-0.156 0.030-0.097 0.041-0.175 0.119-0.216 0.217s-0.041 0.208-0.002 0.306c0.086 0.205 0.319 0.302 0.523 0.216 0.098-0.039 0.177-0.117 0.217-0.216s0.041-0.208 0-0.306c-0.061-0.148-0.206-0.245-0.367-0.247zM24.988 21.6c-0.136-0.003-0.264 0.064-0.339 0.177-0.123 0.184-0.073 0.431 0.109 0.555 0.087 0.059 0.197 0.081 0.3 0.059 0.105-0.020 0.197-0.081 0.255-0.17 0.123-0.183 0.073-0.431-0.111-0.553-0.063-0.044-0.137-0.067-0.214-0.067zM7.025 21.6c-0.081-0.002-0.159 0.022-0.227 0.067-0.183 0.123-0.233 0.37-0.111 0.555 0.123 0.183 0.372 0.233 0.556 0.109 0.183-0.122 0.233-0.37 0.109-0.555-0.073-0.109-0.197-0.175-0.328-0.177zM8.369 23.238c-0.108-0.002-0.213 0.041-0.287 0.117-0.156 0.155-0.156 0.409 0 0.564 0.155 0.156 0.409 0.156 0.564 0 0.156-0.155 0.156-0.409 0-0.564-0.073-0.075-0.172-0.117-0.277-0.117zM23.642 23.238c-0.108-0.002-0.212 0.041-0.288 0.117-0.156 0.155-0.156 0.409 0 0.564 0.155 0.156 0.409 0.156 0.564 0 0.156-0.155 0.156-0.409 0-0.564-0.073-0.075-0.172-0.117-0.277-0.117zM22.005 24.58c-0.081-0.002-0.159 0.022-0.227 0.066-0.089 0.059-0.15 0.152-0.17 0.256-0.020 0.103 0.002 0.212 0.061 0.3 0.122 0.183 0.37 0.233 0.555 0.111 0.183-0.123 0.233-0.372 0.109-0.556-0.072-0.109-0.195-0.177-0.328-0.177zM20.136 25.577c-0.053 0-0.106 0.011-0.155 0.031-0.098 0.041-0.177 0.119-0.217 0.216-0.041 0.098-0.041 0.209-0.002 0.308 0.086 0.203 0.319 0.3 0.523 0.216 0.098-0.041 0.177-0.119 0.217-0.216 0.041-0.098 0.041-0.209 0-0.306-0.061-0.15-0.206-0.247-0.367-0.248zM18.108 26.194c-0.027-0.002-0.053 0.002-0.078 0.006-0.217 0.044-0.358 0.253-0.316 0.47 0.022 0.105 0.083 0.195 0.17 0.255 0.089 0.059 0.197 0.081 0.302 0.061 0.103-0.022 0.195-0.083 0.255-0.17 0.058-0.089 0.080-0.197 0.059-0.302-0.038-0.186-0.202-0.32-0.392-0.32z"></path>
</svg>
