<!-- Generated by IcoMoon.io -->
<svg version="1.1" xmlns="http://www.w3.org/2000/svg" width="32" height="32" viewBox="0 0 32 32">
<title>region-code</title>
<path d="M16 2.8c-5.076 0-9.2 4.124-9.2 9.2 0 1.336 0.575 3.015 1.411 4.841s1.942 3.785 3.048 5.59c2.21 3.61 4.42 6.606 4.42 6.606l0.322 0.437 0.322-0.437c0 0 2.209-2.997 4.42-6.606 1.105-1.805 2.212-3.764 3.048-5.59s1.411-3.506 1.411-4.841c0-5.076-4.124-9.2-9.2-9.2zM16 3.6c4.644 0 8.4 3.756 8.4 8.4 0 1.094-0.525 2.729-1.339 4.509s-1.908 3.717-3.002 5.505c-1.932 3.155-3.631 5.506-4.059 6.095-0.428-0.588-2.126-2.939-4.059-6.095-1.095-1.788-2.188-3.725-3.002-5.505s-1.339-3.414-1.339-4.509c0-4.644 3.756-8.4 8.4-8.4zM13.6 6.546c-0.002-0-0.004-0-0.006-0-0.221 0-0.4 0.179-0.4 0.4s0.179 0.4 0.4 0.4c0.002 0 0.004 0 0.006-0h-0c0.002 0 0.004 0 0.006 0 0.221 0 0.4-0.179 0.4-0.4s-0.179-0.4-0.4-0.4c-0.002 0-0.004 0-0.006 0h0zM18.4 6.546c-0.002-0-0.004-0-0.006-0-0.221 0-0.4 0.179-0.4 0.4s0.179 0.4 0.4 0.4c0.002 0 0.004 0 0.006-0h-0c0.002 0 0.004 0 0.006 0 0.221 0 0.4-0.179 0.4-0.4s-0.179-0.4-0.4-0.4c-0.002 0-0.004 0-0.006 0h0zM12.288 7.413l-0.32 0.16-0.063 0.353 0.245 0.262 0.138 0.025 0.32-0.161 0.063-0.352-0.245-0.262-0.139-0.025zM19.712 7.413l-0.32 0.16-0.063 0.353 0.245 0.262 0.139 0.025 0.32-0.161 0.063-0.352-0.245-0.262-0.138-0.025zM11.273 8.613l-0.32 0.16-0.063 0.353 0.245 0.262 0.138 0.025 0.321-0.161 0.063-0.352-0.245-0.262-0.139-0.025zM20.727 8.613l-0.321 0.16-0.063 0.353 0.245 0.262 0.139 0.025 0.32-0.161 0.063-0.352-0.245-0.262-0.138-0.025zM16 9.2c-1.542 0-2.8 1.258-2.8 2.8s1.258 2.8 2.8 2.8c1.542 0 2.8-1.258 2.8-2.8s-1.258-2.8-2.8-2.8zM16 10c1.109 0 2 0.891 2 2s-0.891 2-2 2c-1.109 0-2-0.891-2-2s0.891-2 2-2zM10.628 10.044l-0.321 0.16-0.063 0.353 0.245 0.262 0.139 0.025 0.32-0.161 0.063-0.353-0.245-0.262-0.138-0.024zM21.372 10.044l-0.32 0.16-0.063 0.353 0.245 0.262 0.138 0.025 0.321-0.161 0.063-0.353-0.245-0.262-0.139-0.024zM10.4 11.598l-0.32 0.161-0.063 0.352 0.245 0.262 0.138 0.025 0.32-0.16 0.063-0.353-0.245-0.262-0.139-0.025zM21.6 11.598l-0.32 0.161-0.063 0.352 0.245 0.262 0.139 0.025 0.32-0.16 0.063-0.353-0.245-0.262-0.138-0.025zM10.622 13.153l-0.32 0.161-0.063 0.352 0.245 0.262 0.139 0.025 0.32-0.16 0.063-0.353-0.245-0.262-0.138-0.025zM21.378 13.153l-0.32 0.161-0.063 0.352 0.245 0.262 0.138 0.025 0.32-0.16 0.063-0.353-0.245-0.262-0.139-0.025zM11.265 14.587l-0.32 0.16-0.063 0.353 0.245 0.262 0.138 0.025 0.321-0.161 0.063-0.352-0.245-0.262-0.139-0.024zM20.735 14.587l-0.321 0.16-0.063 0.353 0.245 0.262 0.139 0.025 0.32-0.161 0.063-0.352-0.245-0.262-0.138-0.024zM12.286 15.781l-0.321 0.161-0.063 0.352 0.245 0.262 0.139 0.025 0.32-0.161 0.063-0.352-0.245-0.262-0.138-0.025zM19.714 15.781l-0.32 0.161-0.063 0.352 0.245 0.262 0.138 0.025 0.321-0.161 0.063-0.352-0.245-0.262-0.139-0.025zM13.6 16.654c-0.002-0-0.004-0-0.006-0-0.221 0-0.4 0.179-0.4 0.4s0.179 0.4 0.4 0.4c0.002 0 0.004 0 0.006-0h-0c0.002 0 0.004 0 0.006 0 0.221 0 0.4-0.179 0.4-0.4s-0.179-0.4-0.4-0.4c-0.002 0-0.004 0-0.006 0h0zM18.4 16.654c-0.002-0-0.004-0-0.006-0-0.221 0-0.4 0.179-0.4 0.4s0.179 0.4 0.4 0.4c0.002 0 0.004 0 0.006-0h-0c0.002 0 0.004 0 0.006 0 0.221 0 0.4-0.179 0.4-0.4s-0.179-0.4-0.4-0.4c-0.002 0-0.004 0-0.006 0h0z"></path>
</svg>
