<!-- Generated by IcoMoon.io -->
<svg version="1.1" xmlns="http://www.w3.org/2000/svg" width="40" height="32" viewBox="0 0 40 32">
<title>responsiveness</title>
<path d="M2.016 0c-0.937 0-1.709 0.774-1.709 1.714v24c0 0.94 0.772 1.714 1.709 1.714h11.393v1.143h-3.418v3.429h19.368v-3.429h-3.418v-1.143h11.393c0.937 0 1.709-0.774 1.709-1.714v-24c0-0.94-0.772-1.714-1.709-1.714h-35.319zM2.016 1.143h35.319c0.322 0 0.57 0.249 0.57 0.571v24c0 0.323-0.248 0.571-0.57 0.571h-35.319c-0.322 0-0.57-0.249-0.57-0.571v-24c0-0.323 0.248-0.571 0.57-0.571zM6.004 4.571c-0.315 0-0.57 0.256-0.57 0.571s0.255 0.571 0.57 0.571c0.315 0 0.57-0.256 0.57-0.571s-0.255-0.571-0.57-0.571zM8.283 4.571c-0.315 0-0.57 0.256-0.57 0.571s0.255 0.571 0.57 0.571c0.315 0 0.57-0.256 0.57-0.571s-0.255-0.571-0.57-0.571zM10.561 4.571c-0.315 0-0.57 0.256-0.57 0.571s0.255 0.571 0.57 0.571c0.315 0 0.57-0.256 0.57-0.571s-0.255-0.571-0.57-0.571zM12.84 4.571c-0.315 0-0.57 0.256-0.57 0.571s0.255 0.571 0.57 0.571c0.315 0 0.57-0.256 0.57-0.571s-0.255-0.571-0.57-0.571zM15.118 4.571c-0.315 0-0.57 0.256-0.57 0.571s0.255 0.571 0.57 0.571c0.315 0 0.57-0.256 0.57-0.571s-0.255-0.571-0.57-0.571zM17.397 4.571c-0.315 0-0.57 0.256-0.57 0.571s0.255 0.571 0.57 0.571c0.315 0 0.57-0.256 0.57-0.571s-0.255-0.571-0.57-0.571zM21.954 4.571c-0.315 0-0.57 0.256-0.57 0.571s0.255 0.571 0.57 0.571c0.315 0 0.57-0.256 0.57-0.571s-0.255-0.571-0.57-0.571zM24.233 4.571c-0.315 0-0.57 0.256-0.57 0.571s0.255 0.571 0.57 0.571c0.315 0 0.57-0.256 0.57-0.571s-0.255-0.571-0.57-0.571zM26.512 4.571c-0.315 0-0.57 0.256-0.57 0.571s0.255 0.571 0.57 0.571c0.315 0 0.57-0.256 0.57-0.571s-0.255-0.571-0.57-0.571zM28.79 4.571c-0.315 0-0.57 0.256-0.57 0.571s0.255 0.571 0.57 0.571c0.315 0 0.57-0.256 0.57-0.571s-0.255-0.571-0.57-0.571zM31.069 4.571c-0.315 0-0.57 0.256-0.57 0.571s0.255 0.571 0.57 0.571c0.315 0 0.57-0.256 0.57-0.571s-0.255-0.571-0.57-0.571zM33.348 4.571c-0.315 0-0.57 0.256-0.57 0.571s0.255 0.571 0.57 0.571c0.315 0 0.57-0.256 0.57-0.571s-0.255-0.571-0.57-0.571zM6.004 6.857c-0.315 0-0.57 0.256-0.57 0.571s0.255 0.571 0.57 0.571c0.315 0 0.57-0.256 0.57-0.571s-0.255-0.571-0.57-0.571zM17.397 6.857c-0.315 0-0.57 0.256-0.57 0.571s0.255 0.571 0.57 0.571c0.315 0 0.57-0.256 0.57-0.571s-0.255-0.571-0.57-0.571zM21.954 6.857c-0.315 0-0.57 0.256-0.57 0.571s0.255 0.571 0.57 0.571c0.315 0 0.57-0.256 0.57-0.571s-0.255-0.571-0.57-0.571zM33.348 6.857c-0.315 0-0.57 0.256-0.57 0.571s0.255 0.571 0.57 0.571c0.315 0 0.57-0.256 0.57-0.571s-0.255-0.571-0.57-0.571zM6.004 9.143c-0.315 0-0.57 0.256-0.57 0.571s0.255 0.571 0.57 0.571c0.315 0 0.57-0.256 0.57-0.571s-0.255-0.571-0.57-0.571zM17.397 9.143c-0.315 0-0.57 0.256-0.57 0.571s0.255 0.571 0.57 0.571c0.315 0 0.57-0.256 0.57-0.571s-0.255-0.571-0.57-0.571zM21.954 9.143c-0.315 0-0.57 0.256-0.57 0.571s0.255 0.571 0.57 0.571c0.315 0 0.57-0.256 0.57-0.571s-0.255-0.571-0.57-0.571zM33.348 9.143c-0.315 0-0.57 0.256-0.57 0.571s0.255 0.571 0.57 0.571c0.315 0 0.57-0.256 0.57-0.571s-0.255-0.571-0.57-0.571zM6.004 11.429c-0.315 0-0.57 0.256-0.57 0.571s0.255 0.571 0.57 0.571c0.315 0 0.57-0.256 0.57-0.571s-0.255-0.571-0.57-0.571zM8.283 11.429c-0.315 0-0.57 0.256-0.57 0.571s0.255 0.571 0.57 0.571c0.315 0 0.57-0.256 0.57-0.571s-0.255-0.571-0.57-0.571zM10.561 11.429c-0.315 0-0.57 0.256-0.57 0.571s0.255 0.571 0.57 0.571c0.315 0 0.57-0.256 0.57-0.571s-0.255-0.571-0.57-0.571zM12.84 11.429c-0.315 0-0.57 0.256-0.57 0.571s0.255 0.571 0.57 0.571c0.315 0 0.57-0.256 0.57-0.571s-0.255-0.571-0.57-0.571zM15.118 11.429c-0.315 0-0.57 0.256-0.57 0.571s0.255 0.571 0.57 0.571c0.315 0 0.57-0.256 0.57-0.571s-0.255-0.571-0.57-0.571zM17.397 11.429c-0.315 0-0.57 0.256-0.57 0.571s0.255 0.571 0.57 0.571c0.315 0 0.57-0.256 0.57-0.571s-0.255-0.571-0.57-0.571zM21.954 11.429c-0.315 0-0.57 0.256-0.57 0.571s0.255 0.571 0.57 0.571c0.315 0 0.57-0.256 0.57-0.571s-0.255-0.571-0.57-0.571zM24.233 11.429c-0.315 0-0.57 0.256-0.57 0.571s0.255 0.571 0.57 0.571c0.315 0 0.57-0.256 0.57-0.571s-0.255-0.571-0.57-0.571zM26.512 11.429c-0.315 0-0.57 0.256-0.57 0.571s0.255 0.571 0.57 0.571c0.315 0 0.57-0.256 0.57-0.571s-0.255-0.571-0.57-0.571zM28.79 11.429c-0.315 0-0.57 0.256-0.57 0.571s0.255 0.571 0.57 0.571c0.315 0 0.57-0.256 0.57-0.571s-0.255-0.571-0.57-0.571zM31.069 11.429c-0.315 0-0.57 0.256-0.57 0.571s0.255 0.571 0.57 0.571c0.315 0 0.57-0.256 0.57-0.571s-0.255-0.571-0.57-0.571zM33.348 11.429c-0.315 0-0.57 0.256-0.57 0.571s0.255 0.571 0.57 0.571c0.315 0 0.57-0.256 0.57-0.571s-0.255-0.571-0.57-0.571zM6.004 14.857c-0.315 0-0.57 0.256-0.57 0.571s0.255 0.571 0.57 0.571c0.315 0 0.57-0.256 0.57-0.571s-0.255-0.571-0.57-0.571zM8.283 14.857c-0.315 0-0.57 0.256-0.57 0.571s0.255 0.571 0.57 0.571c0.315 0 0.57-0.256 0.57-0.571s-0.255-0.571-0.57-0.571zM10.561 14.857c-0.315 0-0.57 0.256-0.57 0.571s0.255 0.571 0.57 0.571c0.315 0 0.57-0.256 0.57-0.571s-0.255-0.571-0.57-0.571zM12.84 14.857c-0.315 0-0.57 0.256-0.57 0.571s0.255 0.571 0.57 0.571c0.315 0 0.57-0.256 0.57-0.571s-0.255-0.571-0.57-0.571zM15.118 14.857c-0.315 0-0.57 0.256-0.57 0.571s0.255 0.571 0.57 0.571c0.315 0 0.57-0.256 0.57-0.571s-0.255-0.571-0.57-0.571zM17.397 14.857c-0.315 0-0.57 0.256-0.57 0.571s0.255 0.571 0.57 0.571c0.315 0 0.57-0.256 0.57-0.571s-0.255-0.571-0.57-0.571zM21.954 14.857c-0.315 0-0.57 0.256-0.57 0.571s0.255 0.571 0.57 0.571c0.315 0 0.57-0.256 0.57-0.571s-0.255-0.571-0.57-0.571zM24.233 14.857c-0.315 0-0.57 0.256-0.57 0.571s0.255 0.571 0.57 0.571c0.315 0 0.57-0.256 0.57-0.571s-0.255-0.571-0.57-0.571zM26.512 14.857c-0.315 0-0.57 0.256-0.57 0.571s0.255 0.571 0.57 0.571c0.315 0 0.57-0.256 0.57-0.571s-0.255-0.571-0.57-0.571zM28.79 14.857c-0.315 0-0.57 0.256-0.57 0.571s0.255 0.571 0.57 0.571c0.315 0 0.57-0.256 0.57-0.571s-0.255-0.571-0.57-0.571zM31.069 14.857c-0.315 0-0.57 0.256-0.57 0.571s0.255 0.571 0.57 0.571c0.315 0 0.57-0.256 0.57-0.571s-0.255-0.571-0.57-0.571zM33.348 14.857c-0.315 0-0.57 0.256-0.57 0.571s0.255 0.571 0.57 0.571c0.315 0 0.57-0.256 0.57-0.571s-0.255-0.571-0.57-0.571zM6.004 17.143c-0.315 0-0.57 0.256-0.57 0.571s0.255 0.571 0.57 0.571c0.315 0 0.57-0.256 0.57-0.571s-0.255-0.571-0.57-0.571zM17.397 17.143c-0.315 0-0.57 0.256-0.57 0.571s0.255 0.571 0.57 0.571c0.315 0 0.57-0.256 0.57-0.571s-0.255-0.571-0.57-0.571zM21.954 17.143c-0.315 0-0.57 0.256-0.57 0.571s0.255 0.571 0.57 0.571c0.315 0 0.57-0.256 0.57-0.571s-0.255-0.571-0.57-0.571zM33.348 17.143c-0.315 0-0.57 0.256-0.57 0.571s0.255 0.571 0.57 0.571c0.315 0 0.57-0.256 0.57-0.571s-0.255-0.571-0.57-0.571zM6.004 19.429c-0.315 0-0.57 0.256-0.57 0.571s0.255 0.571 0.57 0.571c0.315 0 0.57-0.256 0.57-0.571s-0.255-0.571-0.57-0.571zM17.397 19.429c-0.315 0-0.57 0.256-0.57 0.571s0.255 0.571 0.57 0.571c0.315 0 0.57-0.256 0.57-0.571s-0.255-0.571-0.57-0.571zM21.954 19.429c-0.315 0-0.57 0.256-0.57 0.571s0.255 0.571 0.57 0.571c0.315 0 0.57-0.256 0.57-0.571s-0.255-0.571-0.57-0.571zM33.348 19.429c-0.315 0-0.57 0.256-0.57 0.571s0.255 0.571 0.57 0.571c0.315 0 0.57-0.256 0.57-0.571s-0.255-0.571-0.57-0.571zM6.004 21.714c-0.315 0-0.57 0.256-0.57 0.571s0.255 0.571 0.57 0.571c0.315 0 0.57-0.256 0.57-0.571s-0.255-0.571-0.57-0.571zM8.283 21.714c-0.315 0-0.57 0.256-0.57 0.571s0.255 0.571 0.57 0.571c0.315 0 0.57-0.256 0.57-0.571s-0.255-0.571-0.57-0.571zM10.561 21.714c-0.315 0-0.57 0.256-0.57 0.571s0.255 0.571 0.57 0.571c0.315 0 0.57-0.256 0.57-0.571s-0.255-0.571-0.57-0.571zM12.84 21.714c-0.315 0-0.57 0.256-0.57 0.571s0.255 0.571 0.57 0.571c0.315 0 0.57-0.256 0.57-0.571s-0.255-0.571-0.57-0.571zM15.118 21.714c-0.315 0-0.57 0.256-0.57 0.571s0.255 0.571 0.57 0.571c0.315 0 0.57-0.256 0.57-0.571s-0.255-0.571-0.57-0.571zM17.397 21.714c-0.315 0-0.57 0.256-0.57 0.571s0.255 0.571 0.57 0.571c0.315 0 0.57-0.256 0.57-0.571s-0.255-0.571-0.57-0.571zM21.954 21.714c-0.315 0-0.57 0.256-0.57 0.571s0.255 0.571 0.57 0.571c0.315 0 0.57-0.256 0.57-0.571s-0.255-0.571-0.57-0.571zM24.233 21.714c-0.315 0-0.57 0.256-0.57 0.571s0.255 0.571 0.57 0.571c0.315 0 0.57-0.256 0.57-0.571s-0.255-0.571-0.57-0.571zM26.512 21.714c-0.315 0-0.57 0.256-0.57 0.571s0.255 0.571 0.57 0.571c0.315 0 0.57-0.256 0.57-0.571s-0.255-0.571-0.57-0.571zM28.79 21.714c-0.315 0-0.57 0.256-0.57 0.571s0.255 0.571 0.57 0.571c0.315 0 0.57-0.256 0.57-0.571s-0.255-0.571-0.57-0.571zM31.069 21.714c-0.315 0-0.57 0.256-0.57 0.571s0.255 0.571 0.57 0.571c0.315 0 0.57-0.256 0.57-0.571s-0.255-0.571-0.57-0.571zM33.348 21.714c-0.315 0-0.57 0.256-0.57 0.571s0.255 0.571 0.57 0.571c0.315 0 0.57-0.256 0.57-0.571s-0.255-0.571-0.57-0.571zM14.549 27.429h10.254v1.143h-10.254v-1.143zM11.131 29.714h17.090v1.143h-17.090v-1.143z"></path>
</svg>
