<!-- Generated by IcoMoon.io -->
<svg version="1.1" xmlns="http://www.w3.org/2000/svg" width="32" height="32" viewBox="0 0 32 32">
<title>ruby</title>
<path d="M17.444 4.033c-0.050 0-0.097 0.008-0.144 0.023l-5.063 1.858c-0.050 0.019-0.097 0.047-0.136 0.084l-4.786 4.459c-0.028 0.027-0.053 0.058-0.072 0.092l-3.189 5.475c-0.036 0.059-0.055 0.13-0.055 0.2v6.719h0.005c0.072 2.35 1.002 3.68 2.119 4.344 1.12 0.666 2.372 0.692 3.072 0.712 0.012 0 0.027 0 0.039 0l17.072-1.197c0.198-0.014 0.356-0.172 0.37-0.37l1.323-17.597c0-0.012 0-0.025 0-0.036-0.016-1.052-0.262-2.095-0.905-2.948-0.641-0.853-1.673-1.484-3.145-1.736-0.022-0.003-0.042-0.005-0.063-0.005zM17.506 4.833l0.108 0.003 0.028 0.197 0.1 0.098 0.033 0.025 0.355 0.052 0.253-0.253-0.016-0.111 4.241 0.050-0.069 0.114 0.134 0.333 0.345 0.092 0.131-0.052 0.033-0.022 0.188-0.305-0.059-0.152 0.519 0.006c1.308 0.227 2.119 0.747 2.627 1.423 0.511 0.678 0.727 1.541 0.742 2.47l-0.209 2.778-0.133 0.088-0.050 0.133-0.006 0.041 0.102 0.344 0.042 0.014-0.069 0.912-0.12-0.083-0.341 0.114-0.081 0.114-0.016 0.037 0.012 0.358 0.295 0.205 0.2-0.067-0.919 12.239-13.108 0.919 0.155-0.181-0.078-0.35-0.327-0.148-0.137 0.031-0.037 0.016-0.234 0.272 0.080 0.35 0.097 0.044-0.953 0.067-0.005-0.042-0.308-0.181-0.139 0.014-0.039 0.011-0.262 0.245 0.002 0.005-0.667 0.048 0.031-0.081-0.039-0.136-0.019-0.036-0.286-0.216-0.344 0.1-0.127 0.334 0.025 0.084c-0.7-0.020-1.767-0.072-2.655-0.598-0.902-0.536-1.67-1.528-1.731-3.706v-0.262l0.027-0.008 0.084-0.113 0.019-0.036-0.002-0.358-0.128-0.097v-5.070l0.136-0.038 0.131-0.333-0.037-0.136-0.017-0.036-0.175-0.137 3.067-5.267 4.683-4.366zM19.189 5.364l-0.253 0.255 0.050 0.355 0.1 0.1 0.033 0.022 0.355 0.053 0.253-0.255-0.050-0.355-0.1-0.1-0.033-0.022zM21.5 5.495l-0.131 0.053-0.034 0.020-0.186 0.306 0.133 0.333 0.345 0.092 0.131-0.052 0.034-0.022 0.188-0.305-0.134-0.333zM20.297 6.412l-0.32 0.159-0.064 0.127-0.011 0.039 0.064 0.352 0.32 0.161 0.32-0.161 0.063-0.127 0.012-0.037-0.063-0.353zM21.377 7.298l-0.258 0.248 0.048 0.355 0.097 0.103 0.033 0.022 0.353 0.056 0.258-0.25-0.045-0.355-0.1-0.102-0.031-0.022zM19.833 7.984l-0.32 0.161-0.063 0.125-0.012 0.039 0.064 0.353 0.32 0.161 0.32-0.161 0.064-0.127 0.011-0.037-0.064-0.355zM22.709 8.255l-0.258 0.25 0.047 0.355 0.098 0.102 0.033 0.022 0.353 0.056 0.256-0.25-0.045-0.355-0.098-0.102-0.033-0.022zM24.042 9.211l-0.258 0.25 0.047 0.355 0.098 0.102 0.031 0.022 0.353 0.056 0.259-0.248-0.048-0.355-0.097-0.103-0.033-0.022zM19.369 9.556l-0.32 0.162-0.063 0.125-0.011 0.039 0.063 0.353 0.32 0.159 0.32-0.159 0.064-0.128 0.009-0.037-0.063-0.352zM25.373 10.167l-0.256 0.25 0.045 0.355 0.098 0.102 0.033 0.022 0.355 0.058 0.256-0.25-0.047-0.355-0.097-0.103-0.034-0.022zM18.905 11.131l-0.32 0.161-0.064 0.125-0.009 0.039 0.063 0.352 0.32 0.161 0.32-0.161 0.063-0.127 0.011-0.037-0.063-0.353zM26.145 11.614l-0.039 0.005-0.3 0.197-0.022 0.358 0.272 0.233 0.142 0.008 0.039-0.003 0.3-0.197 0.023-0.358-0.273-0.231zM24.517 11.803l-0.041 0.003-0.3 0.198-0.022 0.356 0.273 0.233 0.141 0.008 0.039-0.003 0.3-0.197 0.023-0.358-0.273-0.231zM22.887 11.991l-0.039 0.005-0.3 0.197-0.023 0.358 0.273 0.231 0.141 0.008 0.041-0.003 0.3-0.197 0.022-0.358-0.273-0.231zM21.258 12.178l-0.039 0.005-0.3 0.197-0.023 0.358 0.273 0.231 0.142 0.008 0.039-0.003 0.3-0.197 0.023-0.358-0.273-0.231zM19.63 12.366l-0.041 0.005-0.3 0.197-0.022 0.358 0.273 0.231 0.141 0.008 0.039-0.003 0.3-0.197 0.023-0.358-0.275-0.231zM18.194 12.662l-0.12 0.073-0.031 0.027-0.136 0.331 0.186 0.306 0.356 0.036 0.12-0.073 0.031-0.025 0.134-0.331-0.184-0.308zM16.958 13.742l-0.12 0.072-0.030 0.028-0.134 0.331 0.184 0.308 0.356 0.036 0.122-0.073 0.028-0.027 0.136-0.331-0.184-0.308zM26.012 14.475l-0.352 0.067-0.097 0.103-0.020 0.034-0.036 0.356 0.266 0.241 0.352-0.066 0.095-0.105 0.022-0.033 0.034-0.358zM18.927 14.556l-0.358 0.019-0.2 0.297 0.006 0.141 0.008 0.039 0.23 0.277 0.358-0.017 0.2-0.298-0.008-0.141-0.008-0.039zM15.725 14.823l-0.12 0.072-0.030 0.025-0.137 0.333 0.186 0.308 0.356 0.034 0.12-0.072 0.031-0.027 0.136-0.331-0.186-0.308zM25.114 15.838l-0.356 0.044-0.102 0.098-0.023 0.033-0.058 0.355 0.25 0.258 0.356-0.045 0.1-0.098 0.023-0.033 0.058-0.355zM14.491 15.902l-0.122 0.073-0.030 0.027-0.134 0.331 0.184 0.308 0.356 0.034 0.122-0.072 0.030-0.027 0.134-0.331-0.184-0.308zM19.294 16.155l-0.358 0.019-0.2 0.297 0.008 0.141 0.008 0.039 0.23 0.275 0.356-0.017 0.2-0.297-0.006-0.141-0.008-0.039zM13.256 16.981l-0.12 0.075-0.030 0.025-0.136 0.331 0.184 0.308 0.358 0.036 0.119-0.073 0.031-0.027 0.136-0.331-0.186-0.306zM24.127 17.137l-0.358 0.022-0.106 0.091-0.027 0.031-0.080 0.35 0.231 0.273 0.358-0.023 0.108-0.091 0.025-0.030 0.080-0.35zM5.433 17.669l-0.345 0.094-0.131 0.333 0.037 0.136 0.017 0.038 0.283 0.22 0.345-0.095 0.131-0.333-0.037-0.136-0.016-0.036zM19.663 17.753l-0.358 0.017-0.2 0.298 0.006 0.139 0.008 0.041 0.23 0.277 0.358-0.019 0.2-0.297-0.006-0.141-0.009-0.039zM12.023 18.063l-0.122 0.073-0.031 0.027-0.097 0.238-0.053 0.108 0.164 0.319 0.127 0.061 0.039 0.012 0.352-0.067 0.158-0.32-0.022-0.044 0.027-0.063-0.184-0.308zM23.077 18.389l-0.358 0.005-0.113 0.087-0.027 0.030-0.097 0.345 0.219 0.283 0.359-0.005 0.111-0.086 0.027-0.030 0.097-0.345zM13.808 18.57l-0.352 0.067-0.158 0.32 0.164 0.319 0.125 0.063 0.039 0.011 0.353-0.067 0.158-0.32-0.164-0.319-0.128-0.063zM10.719 18.587l-0.141 0.006-0.039 0.008-0.278 0.225 0.012 0.359 0.295 0.203 0.139-0.006 0.041-0.008 0.278-0.225-0.012-0.358zM9.117 18.936l-0.142 0.005-0.037 0.009-0.281 0.225 0.014 0.356 0.294 0.206 0.142-0.006 0.039-0.008 0.28-0.225-0.014-0.359zM15.386 19.020l-0.353 0.067-0.158 0.32 0.162 0.32 0.127 0.061 0.041 0.011 0.352-0.066 0.156-0.322-0.162-0.319-0.127-0.063zM6.138 19.15l-0.345 0.094-0.131 0.333 0.036 0.136 0.017 0.038 0.283 0.22 0.345-0.095 0.133-0.331-0.037-0.137-0.019-0.036zM7.514 19.283l-0.141 0.005-0.041 0.009-0.278 0.225 0.014 0.358 0.294 0.203 0.141-0.003 0.039-0.009 0.278-0.225-0.013-0.358zM20.030 19.352l-0.358 0.017-0.2 0.298 0.008 0.139 0.008 0.039 0.23 0.278 0.358-0.019 0.2-0.297-0.008-0.141-0.009-0.041zM16.962 19.47l-0.353 0.067-0.158 0.322 0.164 0.319 0.127 0.063 0.039 0.011 0.352-0.066 0.158-0.323-0.164-0.319-0.127-0.063zM21.614 19.589l-0.114 0.084-0.028 0.027-0.109 0.344 0.211 0.289 0.358 0.008 0.114-0.083 0.028-0.028 0.108-0.342-0.208-0.291zM18.538 19.922l-0.35 0.066-0.158 0.323 0.163 0.319 0.127 0.061 0.038 0.011 0.353-0.066 0.158-0.322-0.163-0.32-0.128-0.061zM11.798 20.003l-0.322 0.159-0.063 0.127-0.011 0.039 0.064 0.353 0.32 0.161 0.319-0.161 0.064-0.127 0.011-0.038-0.063-0.355zM5.375 20.436l-0.344 0.102-0.084 0.113-0.017 0.036v0.358l0.287 0.214 0.344-0.102 0.083-0.113 0.019-0.036v-0.358zM20.461 20.731l-0.117 0.077-0.030 0.028-0.125 0.337 0.197 0.3 0.358 0.022 0.119-0.077 0.028-0.027 0.123-0.336-0.195-0.302zM6.727 20.798l-0.345 0.098-0.125 0.336 0.039 0.136 0.017 0.036 0.286 0.216 0.345-0.1 0.125-0.334-0.037-0.136-0.019-0.038zM11.333 21.575l-0.32 0.161-0.063 0.127-0.012 0.038 0.064 0.353 0.322 0.161 0.32-0.161 0.063-0.127 0.011-0.038-0.063-0.353zM21.458 21.783l-0.281 0.223 0.011 0.358 0.087 0.111 0.030 0.025 0.347 0.094 0.28-0.223-0.008-0.358-0.087-0.111-0.031-0.027zM19.262 21.825l-0.12 0.070-0.031 0.028-0.141 0.328 0.181 0.311 0.356 0.039 0.123-0.070 0.030-0.027 0.139-0.33-0.181-0.309zM7.453 22.269l-0.345 0.098-0.127 0.336 0.039 0.134 0.019 0.038 0.286 0.216 0.344-0.1 0.127-0.334-0.039-0.136-0.017-0.036zM18.011 22.869l-0.123 0.069-0.006 0.005-0.003 0.002-0.014 0.011-0.158 0.322 0.166 0.319 0.353 0.059 0.125-0.066 0.023-0.016 0.003-0.005 0.005-0.003 0.009-0.008 0.147-0.327-0.172-0.313zM22.688 22.87l-0.281 0.222 0.009 0.358 0.087 0.111 0.030 0.027 0.347 0.092 0.281-0.223-0.011-0.356-0.087-0.113-0.030-0.025zM4.030 22.944h0.731l-0.361 0.361zM10.869 23.148l-0.32 0.161-0.063 0.127-0.011 0.038 0.063 0.353 0.32 0.161 0.32-0.161 0.064-0.127 0.009-0.038-0.063-0.353zM8.18 23.738l-0.345 0.1-0.127 0.336 0.041 0.134 0.017 0.036 0.286 0.217 0.344-0.1 0.127-0.336-0.039-0.134-0.019-0.036zM16.719 23.844l-0.127 0.063-0.033 0.023-0.166 0.319 0.156 0.322 0.35 0.069 0.128-0.063 0.033-0.022 0.164-0.317-0.155-0.325zM23.914 23.956l-0.28 0.223 0.009 0.358 0.087 0.111 0.030 0.027 0.347 0.092 0.281-0.223-0.009-0.358-0.087-0.111-0.030-0.025zM10.405 24.72l-0.32 0.161-0.064 0.127-0.011 0.038 0.064 0.355 0.32 0.159 0.319-0.159 0.064-0.127 0.011-0.039-0.063-0.353zM15.38 24.75l-0.13 0.052-0.036 0.022-0.184 0.308 0.134 0.331 0.347 0.091 0.131-0.053 0.033-0.020 0.186-0.308-0.134-0.333zM25.144 25.044l-0.281 0.222 0.009 0.359 0.087 0.109 0.030 0.027 0.347 0.092 0.281-0.222-0.011-0.358-0.087-0.111-0.030-0.027zM8.906 25.208l-0.345 0.1-0.127 0.336 0.041 0.136 0.017 0.034 0.284 0.217 0.345-0.1 0.127-0.336-0.041-0.134-0.016-0.036zM13.989 25.566l-0.133 0.042-0.036 0.019-0.208 0.292 0.111 0.342 0.338 0.116 0.134-0.042 0.036-0.019 0.208-0.292-0.109-0.342z"></path>
</svg>
