<!-- Generated by IcoMoon.io -->
<svg version="1.1" xmlns="http://www.w3.org/2000/svg" width="32" height="32" viewBox="0 0 32 32">
<title>save-money</title>
<path d="M15.2 1.6c-2.867 0-5.2 2.333-5.2 5.2 0 0.703 0.147 1.371 0.401 1.984-3.097 1.471-5.454 4.161-6.374 7.217-0.008-0-0.016-0.001-0.025-0.001-0.001 0-0.001 0-0.002 0h0c-0.667 0-1.2-0.533-1.2-1.2 0-0.408 0.201-0.764 0.509-0.981 0.106-0.073 0.175-0.194 0.175-0.33 0-0.221-0.179-0.4-0.4-0.4-0.009 0-0.017 0-0.026 0.001l0.001-0c-0.080 0.005-0.153 0.033-0.213 0.077l0.001-0.001c-0.513 0.362-0.848 0.963-0.848 1.635 0 1.040 0.806 1.901 1.823 1.991-0.142 0.66-0.223 1.331-0.223 2.009 0 3.395 1.919 6.125 4.8 7.782v1.418c0 0.658 0.542 1.2 1.2 1.2h2c0.615 0 1.089-0.49 1.154-1.089 0.918 0.165 1.859 0.289 2.846 0.289 1.12 0 2.194-0.13 3.224-0.341 0.036 0.627 0.541 1.141 1.176 1.141h2c0.658 0 1.2-0.542 1.2-1.2v-1.646c1.716-1.080 3.039-2.561 3.764-4.354h1.036c0.658 0 1.2-0.542 1.2-1.2v-4.8c0-0.658-0.542-1.2-1.2-1.2h-1.427c-0.413-0.846-0.944-1.665-1.572-2.436l3.227-3.227-0.406-0.27c0 0-0.886-0.591-2.175-0.829-0.322-0.059-0.673-0.096-1.043-0.097-1.041-0.001-2.236 0.319-3.393 1.204-0.366-0.207-0.741-0.399-1.127-0.573 0.201-0.554 0.316-1.15 0.316-1.773 0-2.867-2.333-5.2-5.2-5.2zM15.2 2.4c2.435 0 4.4 1.965 4.4 4.4 0 1.266-0.536 2.398-1.39 3.2h-6.021c-0.853-0.803-1.389-1.934-1.389-3.2 0-2.435 1.965-4.4 4.4-4.4zM15.2 3.2c-0.221 0-0.4 0.179-0.4 0.4v0c0 0.221 0.179 0.4 0.4 0.4v0c0.221 0 0.4-0.179 0.4-0.4v0c0-0.221-0.179-0.4-0.4-0.4v0zM13.591 3.629c-0.070 0.002-0.136 0.022-0.193 0.055l0.002-0.001c-0.121 0.070-0.2 0.199-0.2 0.347 0 0.073 0.020 0.142 0.054 0.201l-0.001-0.002c0.070 0.12 0.199 0.2 0.346 0.2 0.074 0 0.143-0.020 0.202-0.055l-0.002 0.001c0.12-0.071 0.2-0.199 0.2-0.346 0-0.074-0.020-0.143-0.055-0.202l0.001 0.002c-0.070-0.12-0.199-0.2-0.346-0.2-0.003 0-0.006 0-0.009 0h0zM16.78 3.63c-0.14 0.007-0.26 0.084-0.326 0.197l-0.001 0.002c-0.034 0.057-0.054 0.126-0.054 0.2 0 0.147 0.080 0.276 0.199 0.346l0.002 0.001c0.057 0.034 0.126 0.053 0.2 0.053 0.147 0 0.276-0.080 0.346-0.198l0.001-0.002c0.034-0.057 0.054-0.126 0.054-0.2 0-0.147-0.079-0.276-0.198-0.345l-0.002-0.001c-0.057-0.034-0.126-0.054-0.2-0.054-0.007 0-0.014 0-0.020 0.001l0.001-0zM17.961 4.8c-0.070 0.002-0.135 0.021-0.192 0.054l0.002-0.001c-0.121 0.070-0.201 0.199-0.201 0.347 0 0.074 0.020 0.143 0.055 0.202l-0.001-0.002c0.070 0.12 0.199 0.2 0.346 0.2 0.074 0 0.143-0.020 0.202-0.055l-0.002 0.001c0.12-0.071 0.2-0.199 0.2-0.346 0-0.074-0.020-0.143-0.055-0.202l0.001 0.002c-0.070-0.12-0.199-0.2-0.346-0.2-0.003 0-0.007 0-0.010 0h0zM12.41 4.801c-0.14 0.007-0.261 0.084-0.327 0.197l-0.001 0.002c-0.034 0.057-0.053 0.126-0.053 0.2 0 0.147 0.080 0.276 0.198 0.346l0.002 0.001c0.057 0.034 0.126 0.054 0.2 0.054 0.147 0 0.276-0.079 0.345-0.198l0.001-0.002c0.034-0.057 0.054-0.126 0.054-0.2 0-0.147-0.079-0.276-0.198-0.345l-0.002-0.001c-0.057-0.034-0.126-0.054-0.2-0.054-0.007 0-0.013 0-0.020 0l0.001-0zM15.2 5.6c-0.221 0-0.4 0.179-0.4 0.4v0c0 0.221 0.179 0.4 0.4 0.4v0c0.221 0 0.4-0.179 0.4-0.4v0c0-0.221-0.179-0.4-0.4-0.4v0zM12 6.4c-0.221 0-0.4 0.179-0.4 0.4v0c0 0.221 0.179 0.4 0.4 0.4v0c0.221 0 0.4-0.179 0.4-0.4v0c0-0.221-0.179-0.4-0.4-0.4v0zM18.4 6.4c-0.221 0-0.4 0.179-0.4 0.4v0c0 0.221 0.179 0.4 0.4 0.4v0c0.221 0 0.4-0.179 0.4-0.4v0c0-0.221-0.179-0.4-0.4-0.4v0zM15.2 7.2c-0.221 0-0.4 0.179-0.4 0.4v0c0 0.221 0.179 0.4 0.4 0.4v0c0.221 0 0.4-0.179 0.4-0.4v0c0-0.221-0.179-0.4-0.4-0.4v0zM12.419 8c-0.070 0.002-0.136 0.021-0.193 0.054l0.002-0.001c-0.12 0.070-0.2 0.199-0.2 0.346 0 0.074 0.020 0.143 0.055 0.202l-0.001-0.002c0.070 0.12 0.199 0.2 0.346 0.2 0.074 0 0.143-0.020 0.202-0.055l-0.002 0.001c0.121-0.070 0.2-0.199 0.2-0.347 0-0.073-0.020-0.142-0.054-0.201l0.001 0.002c-0.070-0.12-0.199-0.2-0.346-0.2-0.003 0-0.007 0-0.010 0h0.001zM17.952 8.001c-0.14 0.007-0.26 0.085-0.326 0.198l-0.001 0.002c-0.034 0.057-0.054 0.126-0.054 0.2 0 0.147 0.079 0.276 0.198 0.345l0.002 0.001c0.057 0.034 0.126 0.054 0.2 0.054 0.147 0 0.276-0.079 0.345-0.198l0.001-0.002c0.034-0.057 0.054-0.127 0.054-0.2 0-0.147-0.080-0.276-0.198-0.345l-0.002-0.001c-0.057-0.034-0.126-0.054-0.2-0.054-0.007 0-0.013 0-0.020 0l0.001-0zM24.605 8.737c0.315 0.003 0.616 0.036 0.897 0.088 0.644 0.119 1.107 0.31 1.436 0.472l-3.009 3.009 0.072 0.084c-0 0.002-0 0.004-0 0.005s0 0.004 0 0.006v-0c0 0 0 0 0 0 0 0.199 0.145 0.364 0.336 0.395l0.002 0c0.67 0.812 1.227 1.684 1.637 2.572l0.107 0.233h1.918c0.226 0 0.4 0.174 0.4 0.4v4.8c0 0.226-0.174 0.4-0.4 0.4h-1.567l-0.096 0.263c-0.654 1.797-1.97 3.279-3.742 4.341l-0.195 0.116v2.079c0 0.226-0.174 0.4-0.4 0.4h-2c-0.226 0-0.4-0.174-0.4-0.4v-0.919l-0.492 0.116c-1.102 0.262-2.281 0.402-3.508 0.402-1.083 0-2.129-0.11-3.119-0.316l-0.481-0.101v0.816c0 0.226-0.174 0.4-0.4 0.4h-2c-0.226 0-0.4-0.174-0.4-0.4v-1.86l-0.209-0.114c-2.806-1.531-4.591-4.045-4.591-7.226 0-3.705 2.474-7.343 6.096-9.173-0.059 0.112-0.096 0.237-0.096 0.373 0 0.442 0.358 0.8 0.8 0.8h8c0.442 0 0.8-0.358 0.8-0.8 0-0.249-0.116-0.468-0.294-0.615 0.016-0.028 0.030-0.058 0.046-0.087 0.439 0.192 0.869 0.406 1.28 0.649l0.245 0.145 0.217-0.183c1.084-0.91 2.165-1.181 3.111-1.173zM23.2 13.2c-0.221 0-0.4 0.179-0.4 0.4v0c0 0.221 0.179 0.4 0.4 0.4v0c0.221 0 0.4-0.179 0.4-0.4v0c0-0.221-0.179-0.4-0.4-0.4v0zM22 14.4c-0.221 0-0.4 0.179-0.4 0.4v0c0 0.221 0.179 0.4 0.4 0.4v0c0.221 0 0.4-0.179 0.4-0.4v0c0-0.221-0.179-0.4-0.4-0.4v0zM26.8 16.4c-0.221 0-0.4 0.179-0.4 0.4v0c0 0.221 0.179 0.4 0.4 0.4v0c0.221 0 0.4-0.179 0.4-0.4v0c0-0.221-0.179-0.4-0.4-0.4v0zM26.8 18c-0.221 0-0.4 0.179-0.4 0.4v0c0 0.221 0.179 0.4 0.4 0.4v0c0.221 0 0.4-0.179 0.4-0.4v0c0-0.221-0.179-0.4-0.4-0.4v0zM26.8 19.6c-0.221 0-0.4 0.179-0.4 0.4v0c0 0.221 0.179 0.4 0.4 0.4v0c0.221 0 0.4-0.179 0.4-0.4v0c0-0.221-0.179-0.4-0.4-0.4v0zM12.4 24c-0.221 0-0.4 0.179-0.4 0.4v0c0 0.221 0.179 0.4 0.4 0.4v0c0.221 0 0.4-0.179 0.4-0.4v0c0-0.221-0.179-0.4-0.4-0.4v0zM19.2 24c-0.221 0-0.4 0.179-0.4 0.4v0c0 0.221 0.179 0.4 0.4 0.4v0c0.221 0 0.4-0.179 0.4-0.4v0c0-0.221-0.179-0.4-0.4-0.4v0zM12.4 25.6c-0.221 0-0.4 0.179-0.4 0.4v0c0 0.221 0.179 0.4 0.4 0.4v0c0.221 0 0.4-0.179 0.4-0.4v0c0-0.221-0.179-0.4-0.4-0.4v0zM19.2 25.6c-0.221 0-0.4 0.179-0.4 0.4v0c0 0.221 0.179 0.4 0.4 0.4v0c0.221 0 0.4-0.179 0.4-0.4v0c0-0.221-0.179-0.4-0.4-0.4v0z"></path>
</svg>
