<!-- Generated by IcoMoon.io -->
<svg version="1.1" xmlns="http://www.w3.org/2000/svg" width="32" height="32" viewBox="0 0 32 32">
<title>scales</title>
<path d="M16 3.297l-0.33 0.475c0 0-0.208 0.302-0.416 0.661-0.105 0.181-0.211 0.377-0.297 0.569-0.084 0.194-0.158 0.367-0.158 0.598 0 0.397 0.2 0.75 0.5 0.969-0.358 0.177-0.639 0.483-0.787 0.856-0.803-0.355-2.523-1.025-4.113-1.025-2.159 0-4.58 1.242-4.58 1.242-0.197 0.098-0.277 0.339-0.178 0.537 0.098 0.197 0.339 0.277 0.537 0.178 0 0 2.38-1.158 4.22-1.158 1.617 0 3.559 0.855 4.027 1.070 0.070 0.405 0.295 0.755 0.609 0.995-0.145 0.186-0.236 0.414-0.236 0.666v14.469h-0.4c-0.958 0-1.727 0.697-1.919 1.6h-0.481c-1.1 0-2 0.9-2 2v0.4h12v-0.4c0-1.1-0.9-2-2-2h-0.481c-0.192-0.903-0.961-1.6-1.919-1.6h-0.4v-14.469c0-0.252-0.091-0.48-0.236-0.666 0.314-0.241 0.539-0.592 0.609-0.995 0.467-0.216 2.409-1.070 4.027-1.070 1.841 0 4.22 1.158 4.22 1.158 0.198 0.098 0.439 0.019 0.538-0.178 0.098-0.198 0.019-0.439-0.178-0.537 0 0-2.42-1.242-4.58-1.242-1.589 0-3.309 0.669-4.113 1.025-0.147-0.375-0.43-0.68-0.788-0.856 0.3-0.219 0.5-0.572 0.5-0.969 0-0.231-0.073-0.405-0.158-0.598-0.086-0.192-0.192-0.388-0.297-0.569-0.208-0.359-0.416-0.661-0.416-0.661zM16 4.75c0.027 0.044 0.027 0.039 0.055 0.086 0.095 0.164 0.189 0.339 0.253 0.489 0.066 0.148 0.092 0.286 0.092 0.275 0 0.227-0.173 0.4-0.4 0.4s-0.4-0.173-0.4-0.4c0 0.011 0.027-0.127 0.092-0.275 0.064-0.15 0.158-0.325 0.253-0.489 0.028-0.047 0.028-0.042 0.055-0.086zM16 7.2c0.447 0 0.8 0.353 0.8 0.8s-0.353 0.8-0.8 0.8c-0.447 0-0.8-0.353-0.8-0.8s0.353-0.8 0.8-0.8zM5.466 8.902l-0.341 0.116-0.080 0.116-0.016 0.036 0.014 0.358 0.294 0.205 0.339-0.114 0.080-0.117 0.019-0.036-0.014-0.358zM25.466 8.902l-0.341 0.116-0.080 0.116-0.016 0.036 0.014 0.358 0.294 0.205 0.339-0.114 0.080-0.117 0.019-0.036-0.014-0.358zM6.675 8.908l-0.347 0.088-0.136 0.331 0.033 0.137 0.019 0.036 0.277 0.225 0.348-0.088 0.138-0.331-0.036-0.137-0.016-0.036zM26.675 8.908l-0.347 0.088-0.136 0.331 0.033 0.137 0.019 0.036 0.277 0.225 0.348-0.088 0.137-0.331-0.036-0.137-0.016-0.036zM16 9.6c0.244 0 0.4 0.164 0.4 0.331v15.269h1.2c0.667 0 1.2 0.533 1.2 1.2v0.4h1.2c0.511 0 0.861 0.355 1.036 0.8h-10.072c0.175-0.445 0.525-0.8 1.036-0.8h1.2v-0.4c0-0.667 0.533-1.2 1.2-1.2h1.2v-15.269c0-0.167 0.156-0.331 0.4-0.331zM4.787 10.395l-0.341 0.116-0.080 0.114-0.017 0.037 0.014 0.358 0.295 0.205 0.339-0.116 0.081-0.116 0.016-0.037-0.014-0.356zM24.788 10.395l-0.341 0.116-0.080 0.114-0.017 0.037 0.014 0.358 0.295 0.205 0.339-0.116 0.081-0.116 0.016-0.037-0.014-0.356zM7.355 10.4l-0.348 0.089-0.136 0.331 0.034 0.136 0.016 0.037 0.28 0.225 0.348-0.088 0.136-0.331-0.034-0.137-0.017-0.037zM27.355 10.4l-0.348 0.089-0.136 0.331 0.034 0.136 0.016 0.037 0.28 0.225 0.348-0.088 0.136-0.331-0.034-0.137-0.017-0.037zM4.108 11.887l-0.339 0.116-0.081 0.116-0.016 0.037 0.013 0.356 0.297 0.205 0.339-0.116 0.080-0.114 0.017-0.037-0.014-0.358zM24.108 11.887l-0.339 0.116-0.081 0.116-0.016 0.037 0.014 0.356 0.295 0.205 0.339-0.116 0.080-0.114 0.017-0.037-0.014-0.358zM8.033 11.894l-0.347 0.088-0.138 0.331 0.034 0.137 0.017 0.037 0.28 0.225 0.345-0.089 0.137-0.331-0.034-0.136-0.016-0.037zM28.033 11.894l-0.347 0.088-0.137 0.331 0.034 0.137 0.017 0.037 0.28 0.225 0.345-0.089 0.137-0.331-0.034-0.136-0.016-0.037zM3.43 13.381l-0.339 0.114-0.081 0.117-0.016 0.036 0.013 0.358 0.295 0.205 0.339-0.116 0.081-0.116 0.016-0.036-0.013-0.358zM23.43 13.381l-0.341 0.114-0.080 0.117-0.016 0.036 0.012 0.358 0.295 0.205 0.341-0.116 0.078-0.116 0.017-0.036-0.012-0.358zM8.713 13.387l-0.348 0.088-0.137 0.331 0.036 0.137 0.017 0.036 0.277 0.225 0.348-0.088 0.137-0.331-0.036-0.137-0.016-0.036zM28.712 13.387l-0.348 0.088-0.137 0.331 0.036 0.137 0.017 0.036 0.277 0.225 0.348-0.088 0.137-0.331-0.036-0.137-0.016-0.036zM2.75 14.875l-0.339 0.114-0.080 0.116-0.016 0.037 0.013 0.358 0.295 0.203 0.339-0.116 0.081-0.114 0.016-0.037-0.013-0.358zM22.75 14.875l-0.339 0.114-0.080 0.116-0.017 0.037 0.014 0.358 0.295 0.203 0.339-0.116 0.081-0.114 0.016-0.037-0.014-0.358zM9.389 14.88l-0.345 0.089-0.137 0.331 0.034 0.136 0.016 0.037 0.28 0.225 0.347-0.089 0.137-0.331-0.034-0.136-0.017-0.037zM29.389 14.88l-0.345 0.089-0.137 0.331 0.034 0.136 0.016 0.037 0.28 0.225 0.347-0.089 0.137-0.331-0.034-0.136-0.017-0.037zM2.072 16.367l-0.339 0.114-0.080 0.117-0.017 0.036 0.014 0.359 0.294 0.202 0.341-0.114 0.080-0.116 0.017-0.036-0.014-0.359zM22.072 16.367l-0.339 0.114-0.081 0.117-0.016 0.036 0.014 0.359 0.294 0.202 0.341-0.114 0.080-0.116 0.017-0.036-0.014-0.359zM10.069 16.373l-0.347 0.087-0.137 0.331 0.034 0.137 0.017 0.036 0.278 0.225 0.348-0.089 0.137-0.331-0.036-0.136-0.016-0.036zM30.069 16.373l-0.347 0.087-0.137 0.331 0.034 0.137 0.017 0.036 0.278 0.225 0.348-0.089 0.137-0.331-0.036-0.136-0.016-0.036zM1.6 17.6v0.8l-0.4-0.4c0 1.983 1.617 3.6 3.6 3.6h2.4c1.983 0 3.6-1.617 3.6-3.6l-0.4 0.4v-0.8zM21.6 17.6v0.8l-0.4-0.4c0 1.983 1.617 3.6 3.6 3.6h2.4c1.983 0 3.6-1.617 3.6-3.6l-0.4 0.4v-0.8zM2.081 18.4h7.837c-0.2 1.352-1.309 2.4-2.719 2.4h-2.4c-1.409 0-2.519-1.048-2.719-2.4zM22.081 18.4h7.838c-0.2 1.352-1.309 2.4-2.719 2.4h-2.4c-1.409 0-2.519-1.048-2.719-2.4zM14.4 26c-0.22 0-0.4 0.18-0.4 0.4s0.18 0.4 0.4 0.4c0.22 0 0.4-0.18 0.4-0.4s-0.18-0.4-0.4-0.4zM16 26c-0.22 0-0.4 0.18-0.4 0.4s0.18 0.4 0.4 0.4c0.22 0 0.4-0.18 0.4-0.4s-0.18-0.4-0.4-0.4zM17.6 26c-0.22 0-0.4 0.18-0.4 0.4s0.18 0.4 0.4 0.4c0.22 0 0.4-0.18 0.4-0.4s-0.18-0.4-0.4-0.4z"></path>
</svg>
