<!-- Generated by IcoMoon.io -->
<svg version="1.1" xmlns="http://www.w3.org/2000/svg" width="32" height="32" viewBox="0 0 32 32">
<title>shopify</title>
<path d="M14.652 2.801c-0.41 0.015-0.82 0.174-1.208 0.423-0.517 0.331-1.014 0.827-1.486 1.443-0.894 1.167-1.691 2.773-2.208 4.535l-3.042 0.995c-0.145 0.048-0.252 0.174-0.272 0.327l-0 0.002-2.032 15.857c-0.002 0.015-0.003 0.033-0.003 0.051 0 0.194 0.139 0.356 0.323 0.393l0.003 0 14.491 2.767c0.014 0.003 0.031 0.005 0.048 0.005l0.001 0c0.021 0.004 0.046 0.006 0.071 0.006 0.052 0 0.103-0.010 0.148-0.028l-0.003 0.001 7.804-1.733c0.181-0.041 0.313-0.2 0.313-0.391 0-0.020-0.002-0.040-0.004-0.059l0 0.002c0 0-0.689-4.794-1.38-9.605-0.345-2.406-0.691-4.816-0.952-6.633-0.13-0.909-0.239-1.669-0.316-2.206-0.038-0.269-0.069-0.482-0.090-0.63-0.010-0.074-0.019-0.131-0.024-0.171s-0.012-0.092-0.008-0.055c-0.005-0.043-0.015-0.082-0.031-0.118l0.001 0.003c-0.11-0.254-0.338-0.397-0.491-0.449-0.039-0.014-0.083-0.022-0.13-0.022h-0c0.046 0-0.026-0.001-0.087-0.005s-0.143-0.010-0.241-0.017c-0.195-0.014-0.447-0.034-0.696-0.053-0.423-0.032-0.72-0.056-0.836-0.065-0.081-0.083-0.288-0.296-0.594-0.607-0.18-0.183-0.366-0.371-0.517-0.523-0.14-0.14-0.223-0.225-0.305-0.296l-0.002-0.001c-0.101-0.102-0.217-0.172-0.357-0.198-0.032-0.010-0.068-0.017-0.106-0.018l-0.001-0c-0.003-0-0.007-0-0.012-0-0.067 0-0.129 0.016-0.184 0.045l0.002-0.001-1.193 0.39c-0.158-0.677-0.387-1.263-0.705-1.723-0.329-0.476-0.769-0.826-1.299-0.94-0.285-0.061-0.572-0.029-0.848 0.058-0.31-0.363-0.689-0.623-1.136-0.719h-0.001c-0.136-0.029-0.273-0.040-0.409-0.035zM14.676 3.601c0.077-0.003 0.149 0.003 0.217 0.017 0.201 0.043 0.391 0.15 0.57 0.32-0.309 0.23-0.602 0.527-0.883 0.88-0.695 0.872-1.325 2.078-1.848 3.408l-2.050 0.671c0.49-1.464 1.18-2.79 1.911-3.745 0.432-0.563 0.878-0.996 1.282-1.255 0.303-0.194 0.571-0.287 0.801-0.297zM16.708 4.261c0.058-0 0.114 0.006 0.17 0.018 0.295 0.063 0.562 0.256 0.809 0.613s0.458 0.874 0.6 1.509l0.078-0.017-1.070 0.35c-0.098-0.961-0.305-1.802-0.636-2.468 0.016-0.001 0.033-0.005 0.049-0.005zM15.928 4.589c0.001 0.001 0.001 0.002 0.002 0.003 0.295 0.581 0.505 1.411 0.589 2.395l0.005-0.001-2.786 0.912c0.447-1.024 0.953-1.935 1.468-2.58 0.245-0.307 0.491-0.553 0.723-0.728zM19.997 6.693l-0.061 1.284c-0 0.005-0 0.011-0 0.017 0 0.041 0.006 0.080 0.018 0.117l-0.001-0.003v0.001l0.001 0.001c0.037 0.12 0.125 0.214 0.239 0.258l0.003 0.001 0.002 0.002 0.007 0.002c0.039 0.014 0.085 0.023 0.132 0.023h0.001c0.129-0.001 0.244-0.063 0.316-0.158l0.001-0.001 0.002-0.001 0.001-0.002c0.045-0.061 0.074-0.136 0.078-0.218l0-0.001 0.050-1.064c0.119 0.12 0.239 0.24 0.368 0.371 0.358 0.365 0.696 0.713 0.696 0.713 0.066 0.067 0.155 0.111 0.254 0.119l0.001 0c0 0 0.488 0.038 0.988 0.077 0.25 0.019 0.502 0.039 0.698 0.053 0.098 0.007 0.182 0.013 0.245 0.017 0.006 0 0.008 0 0.012 0.001 0.005 0.037 0.011 0.076 0.019 0.133 0.021 0.148 0.051 0.361 0.090 0.63 0.077 0.538 0.186 1.298 0.316 2.207 0.26 1.817 0.605 4.227 0.951 6.633 0.664 4.628 1.277 8.893 1.327 9.239l-6.99 1.552 0.051-1.077c0-0.006 0-0.013 0-0.019 0-0.075-0.021-0.146-0.057-0.206l0.001 0.002 0.059-0.334-0.245-0.262-0.139-0.025-0.32 0.161-0.063 0.352 0.054 0.058c-0.052 0.064-0.085 0.145-0.090 0.233l-0 0.001-0.054 1.148-13.714-2.618 1.952-15.234 12.8-4.184zM20.26 9.195l-0.32 0.161-0.063 0.352 0.245 0.262 0.138 0.025 0.32-0.16 0.063-0.353-0.245-0.262-0.139-0.025zM20.185 10.793l-0.32 0.16-0.063 0.353 0.245 0.262 0.139 0.025 0.32-0.161 0.063-0.352-0.245-0.262-0.138-0.025zM14.68 11.647c-1.782 0.001-3.165 0.622-4.083 1.58s-1.37 2.239-1.37 3.528c0 1.558 0.805 2.445 1.517 3.058 0.356 0.306 0.688 0.561 0.907 0.812s0.331 0.467 0.331 0.794c0 0.118-0.049 0.285-0.143 0.398s-0.215 0.195-0.468 0.195c-0.402 0-0.955-0.244-1.383-0.511s-0.727-0.532-0.727-0.532c-0.070-0.063-0.163-0.101-0.266-0.101-0.181 0-0.333 0.12-0.383 0.284l-0.001 0.003-0.659 2.227c-0.010 0.034-0.016 0.073-0.016 0.113 0 0.094 0.032 0.18 0.087 0.248l-0.001-0.001c0 0 1.376 1.718 4.008 1.718 1.122 0 2.128-0.444 2.835-1.228s1.113-1.896 1.113-3.204c0-1.701-0.958-2.747-1.834-3.456-0.438-0.355-0.861-0.643-1.145-0.897s-0.393-0.434-0.393-0.595c0-0.080 0.016-0.289 0.145-0.459s0.37-0.36 1.038-0.36c0.889 0 1.67 0.417 1.67 0.417 0.055 0.031 0.122 0.049 0.192 0.049 0.177 0 0.327-0.115 0.38-0.274l0.001-0.003 0.938-2.903c0.012-0.037 0.019-0.079 0.019-0.123 0-0.144-0.076-0.271-0.191-0.341l-0.002-0.001c0 0-0.217-0.128-0.572-0.235s-0.872-0.208-1.544-0.2h-0.002zM20.109 12.391l-0.32 0.16-0.063 0.353 0.245 0.262 0.138 0.025 0.321-0.161 0.063-0.353-0.245-0.262-0.139-0.024zM14.684 12.447c0.001 0 0.002 0 0.002 0s0.002 0 0.002 0h-0c0.588-0.007 1.022 0.080 1.305 0.166 0.074 0.022 0.051 0.021 0.102 0.040l-0.69 2.136c-0.366-0.152-0.895-0.327-1.616-0.327-0.841 0-1.391 0.299-1.677 0.678s-0.306 0.779-0.306 0.941c0 0.501 0.312 0.881 0.66 1.192s0.769 0.594 1.173 0.922c0.81 0.656 1.537 1.422 1.537 2.834 0 1.144-0.349 2.049-0.907 2.668s-1.325 0.964-2.241 0.964c-2.099-0-3.070-1.093-3.239-1.293l0.427-1.441c0.139 0.105 0.143 0.127 0.346 0.254 0.488 0.305 1.123 0.632 1.806 0.632 0.465 0 0.85-0.204 1.082-0.482s0.329-0.607 0.329-0.911c0-0.539-0.231-0.981-0.529-1.32s-0.655-0.606-0.988-0.892c-0.665-0.572-1.239-1.15-1.239-2.451 0-1.103 0.384-2.178 1.148-2.975s1.908-1.334 3.51-1.334zM20.034 13.989l-0.32 0.161-0.063 0.352 0.245 0.262 0.139 0.024 0.32-0.16 0.063-0.353-0.245-0.262-0.139-0.025zM19.959 15.588l-0.321 0.161-0.063 0.352 0.245 0.262 0.139 0.025 0.32-0.16 0.063-0.353-0.245-0.262-0.138-0.025zM19.884 17.186l-0.32 0.16-0.063 0.353 0.245 0.262 0.138 0.025 0.32-0.161 0.063-0.352-0.245-0.262-0.139-0.025zM19.809 18.784l-0.32 0.16-0.063 0.353 0.245 0.262 0.139 0.025 0.32-0.161 0.063-0.353-0.245-0.262-0.139-0.024zM19.733 20.382l-0.32 0.161-0.063 0.352 0.245 0.262 0.138 0.025 0.321-0.16 0.063-0.353-0.245-0.262-0.139-0.025zM19.658 21.98l-0.32 0.161-0.063 0.352 0.245 0.262 0.139 0.025 0.32-0.161 0.063-0.352-0.245-0.262-0.139-0.025zM19.583 23.579l-0.32 0.16-0.063 0.353 0.245 0.262 0.139 0.025 0.32-0.161 0.063-0.352-0.245-0.262-0.138-0.025zM19.507 25.177l-0.32 0.161-0.063 0.353 0.245 0.262 0.138 0.024 0.32-0.16 0.063-0.353-0.245-0.262-0.139-0.025z"></path>
</svg>
