<!-- Generated by IcoMoon.io -->
<svg version="1.1" xmlns="http://www.w3.org/2000/svg" width="32" height="32" viewBox="0 0 32 32">
<title>shopping-bag</title>
<path d="M7.6 3.6c-0.438 0-0.8 0.362-0.8 0.8v1.2c-0.438 0-0.8 0.362-0.8 0.8v19.161l-0.4 2v0.839h20.8v-0.839l-0.4-2.003v-19.158c0-0.438-0.363-0.8-0.8-0.8v-1.2c0-0.438-0.363-0.8-0.8-0.8zM7.6 4.4h16.8v1.2h-16.8zM6.8 6.4h18.4v19.238l0.392 1.962h-19.184l0.392-1.961zM12 8.4c-0.442 0-0.8 0.358-0.8 0.8 0 0.286 0.153 0.55 0.4 0.692v1.308c0 2.425 1.975 4.4 4.4 4.4s4.4-1.975 4.4-4.4v-1.308c0.247-0.144 0.4-0.406 0.4-0.692 0-0.442-0.358-0.8-0.8-0.8s-0.8 0.358-0.8 0.8c0 0.286 0.153 0.55 0.4 0.692v1.308c0 1.994-1.606 3.6-3.6 3.6s-3.6-1.606-3.6-3.6v-1.308c0.247-0.144 0.4-0.406 0.4-0.692 0-0.442-0.358-0.8-0.8-0.8zM8 25.2c-0.22 0-0.4 0.18-0.4 0.4s0.18 0.4 0.4 0.4c0.22 0 0.4-0.18 0.4-0.4s-0.18-0.4-0.4-0.4zM9.6 25.2c-0.22 0-0.4 0.18-0.4 0.4s0.18 0.4 0.4 0.4c0.22 0 0.4-0.18 0.4-0.4s-0.18-0.4-0.4-0.4zM11.2 25.2c-0.22 0-0.4 0.18-0.4 0.4s0.18 0.4 0.4 0.4c0.22 0 0.4-0.18 0.4-0.4s-0.18-0.4-0.4-0.4zM12.8 25.2c-0.22 0-0.4 0.18-0.4 0.4s0.18 0.4 0.4 0.4c0.22 0 0.4-0.18 0.4-0.4s-0.18-0.4-0.4-0.4zM14.4 25.2c-0.22 0-0.4 0.18-0.4 0.4s0.18 0.4 0.4 0.4c0.22 0 0.4-0.18 0.4-0.4s-0.18-0.4-0.4-0.4zM16 25.2c-0.22 0-0.4 0.18-0.4 0.4s0.18 0.4 0.4 0.4c0.22 0 0.4-0.18 0.4-0.4s-0.18-0.4-0.4-0.4zM17.6 25.2c-0.22 0-0.4 0.18-0.4 0.4s0.18 0.4 0.4 0.4c0.22 0 0.4-0.18 0.4-0.4s-0.18-0.4-0.4-0.4zM19.2 25.2c-0.22 0-0.4 0.18-0.4 0.4s0.18 0.4 0.4 0.4c0.22 0 0.4-0.18 0.4-0.4s-0.18-0.4-0.4-0.4zM20.8 25.2c-0.22 0-0.4 0.18-0.4 0.4s0.18 0.4 0.4 0.4c0.22 0 0.4-0.18 0.4-0.4s-0.18-0.4-0.4-0.4zM22.4 25.2c-0.22 0-0.4 0.18-0.4 0.4s0.18 0.4 0.4 0.4c0.22 0 0.4-0.18 0.4-0.4s-0.18-0.4-0.4-0.4zM24 25.2c-0.22 0-0.4 0.18-0.4 0.4s0.18 0.4 0.4 0.4c0.22 0 0.4-0.18 0.4-0.4s-0.18-0.4-0.4-0.4z"></path>
</svg>
