<!-- Generated by IcoMoon.io -->
<svg version="1.1" xmlns="http://www.w3.org/2000/svg" width="32" height="32" viewBox="0 0 32 32">
<title>time-span</title>
<path d="M16 2.8c-7.285 0-13.2 5.915-13.2 13.2s5.915 13.2 13.2 13.2c7.285 0 13.2-5.915 13.2-13.2s-5.915-13.2-13.2-13.2zM16 3.6c-0.221 0-0.4 0.179-0.4 0.4v0c0 0.221 0.179 0.4 0.4 0.4v0c0.221 0 0.4-0.179 0.4-0.4v0c0-0 0-0 0-0 0-0.211-0.163-0.384-0.371-0.399l-0.001-0c6.84 0.015 12.372 5.556 12.372 12.399 0 6.853-5.547 12.4-12.4 12.4s-12.4-5.547-12.4-12.4c0-4.524 2.418-8.477 6.032-10.643 0.063 0.144 0.204 0.243 0.368 0.243 0 0 0 0 0 0v0c0.221 0 0.4-0.179 0.4-0.4v0c0-0 0-0 0-0 0-0.085-0.027-0.164-0.072-0.229l0.001 0.001c0.901-0.464 1.866-0.82 2.88-1.053-0.005 0.024-0.008 0.052-0.009 0.081v0c0 0.221 0.179 0.4 0.4 0.4v0c0.221 0 0.4-0.179 0.4-0.4v0c-0-0.084-0.026-0.162-0.070-0.226l0.001 0.001c0.673-0.113 1.364-0.175 2.070-0.175zM12.4 4.8c-0.221 0-0.4 0.179-0.4 0.4v0c0 0.221 0.179 0.4 0.4 0.4v0c0.221 0 0.4-0.179 0.4-0.4v0c0-0.221-0.179-0.4-0.4-0.4v0zM14.8 4.8c-0.221 0-0.4 0.179-0.4 0.4v0c0 0.221 0.179 0.4 0.4 0.4v0c0.221 0 0.4-0.179 0.4-0.4v0c0-0.221-0.179-0.4-0.4-0.4v0zM8.8 6c-0.221 0-0.4 0.179-0.4 0.4v0c0 0.221 0.179 0.4 0.4 0.4v0c0.221 0 0.4-0.179 0.4-0.4v0c0-0.221-0.179-0.4-0.4-0.4v0zM11.2 6c-0.221 0-0.4 0.179-0.4 0.4v0c0 0.221 0.179 0.4 0.4 0.4v0c0.221 0 0.4-0.179 0.4-0.4v0c0-0.221-0.179-0.4-0.4-0.4v0zM13.6 6c-0.221 0-0.4 0.179-0.4 0.4v0c0 0.221 0.179 0.4 0.4 0.4v0c0.221 0 0.4-0.179 0.4-0.4v0c0-0.221-0.179-0.4-0.4-0.4v0zM16 6c-0.221 0-0.4 0.179-0.4 0.4v0c0 0.221 0.179 0.4 0.4 0.4v0c0.221 0 0.4-0.179 0.4-0.4v0c0-0.221-0.179-0.4-0.4-0.4v0zM7.6 7.2c-0.221 0-0.4 0.179-0.4 0.4v0c0 0.221 0.179 0.4 0.4 0.4v0c0.221 0 0.4-0.179 0.4-0.4v0c0-0.221-0.179-0.4-0.4-0.4v0zM10 7.2c-0.221 0-0.4 0.179-0.4 0.4v0c0 0.221 0.179 0.4 0.4 0.4v0c0.221 0 0.4-0.179 0.4-0.4v0c0-0.221-0.179-0.4-0.4-0.4v0zM12.4 7.2c-0.221 0-0.4 0.179-0.4 0.4v0c0 0.221 0.179 0.4 0.4 0.4v0c0.221 0 0.4-0.179 0.4-0.4v0c0-0.221-0.179-0.4-0.4-0.4v0zM14.8 7.2c-0.221 0-0.4 0.179-0.4 0.4v0c0 0.221 0.179 0.4 0.4 0.4v0c0.221 0 0.4-0.179 0.4-0.4v0c0-0.221-0.179-0.4-0.4-0.4v0zM11.2 8.4c-0.221 0-0.4 0.179-0.4 0.4v0c0 0.221 0.179 0.4 0.4 0.4v0c0.221 0 0.4-0.179 0.4-0.4v0c0-0.221-0.179-0.4-0.4-0.4v0zM13.6 8.4c-0.221 0-0.4 0.179-0.4 0.4v0c0 0.221 0.179 0.4 0.4 0.4v0c0.221 0 0.4-0.179 0.4-0.4v0c0-0.221-0.179-0.4-0.4-0.4v0zM16 8.4c-0.221 0-0.4 0.179-0.4 0.4v0c0 0.221 0.179 0.4 0.4 0.4v0c0.221 0 0.4-0.179 0.4-0.4v0c0-0.221-0.179-0.4-0.4-0.4v0zM9.083 8.517l-0.566 0.566 6.11 6.11c-0.141 0.238-0.227 0.512-0.227 0.807 0 0.879 0.721 1.6 1.6 1.6s1.6-0.721 1.6-1.6c0-0.295-0.086-0.569-0.227-0.807l4.51-4.51-0.566-0.566-4.51 4.51c-0.238-0.141-0.512-0.227-0.807-0.227s-0.569 0.086-0.807 0.227l-6.11-6.11zM12.4 9.6c-0.221 0-0.4 0.179-0.4 0.4v0c0 0.221 0.179 0.4 0.4 0.4v0c0.221 0 0.4-0.179 0.4-0.4v0c0-0.221-0.179-0.4-0.4-0.4v0zM14.8 9.6c-0.221 0-0.4 0.179-0.4 0.4v0c0 0.221 0.179 0.4 0.4 0.4v0c0.221 0 0.4-0.179 0.4-0.4v0c0-0.221-0.179-0.4-0.4-0.4v0zM13.6 10.8c-0.221 0-0.4 0.179-0.4 0.4v0c0 0.221 0.179 0.4 0.4 0.4v0c0.221 0 0.4-0.179 0.4-0.4v0c0-0.221-0.179-0.4-0.4-0.4v0zM16 10.8c-0.221 0-0.4 0.179-0.4 0.4v0c0 0.221 0.179 0.4 0.4 0.4v0c0.221 0 0.4-0.179 0.4-0.4v0c0-0.221-0.179-0.4-0.4-0.4v0zM14.8 12c-0.221 0-0.4 0.179-0.4 0.4v0c0 0.221 0.179 0.4 0.4 0.4v0c0.221 0 0.4-0.179 0.4-0.4v0c0-0.221-0.179-0.4-0.4-0.4v0zM16 13.2c-0.221 0-0.4 0.179-0.4 0.4v0c0 0.221 0.179 0.4 0.4 0.4v0c0.221 0 0.4-0.179 0.4-0.4v0c0-0.221-0.179-0.4-0.4-0.4v0zM5.2 15.2c-0.442 0-0.8 0.358-0.8 0.8v0c0 0.442 0.358 0.8 0.8 0.8v0c0.442 0 0.8-0.358 0.8-0.8v0c0-0.442-0.358-0.8-0.8-0.8v0zM16 15.2c0.447 0 0.8 0.353 0.8 0.8s-0.353 0.8-0.8 0.8c-0.447 0-0.8-0.353-0.8-0.8s0.353-0.8 0.8-0.8zM26.8 15.2c-0.442 0-0.8 0.358-0.8 0.8v0c0 0.442 0.358 0.8 0.8 0.8v0c0.442 0 0.8-0.358 0.8-0.8v0c0-0.442-0.358-0.8-0.8-0.8v0zM7.2 15.6c-0.221 0-0.4 0.179-0.4 0.4v0c0 0.221 0.179 0.4 0.4 0.4v0c0.221 0 0.4-0.179 0.4-0.4v0c0-0.221-0.179-0.4-0.4-0.4v0zM24.8 15.6c-0.221 0-0.4 0.179-0.4 0.4v0c0 0.221 0.179 0.4 0.4 0.4v0c0.221 0 0.4-0.179 0.4-0.4v0c0-0.221-0.179-0.4-0.4-0.4v0zM16 24.4c-0.221 0-0.4 0.179-0.4 0.4v0c0 0.221 0.179 0.4 0.4 0.4v0c0.221 0 0.4-0.179 0.4-0.4v0c0-0.221-0.179-0.4-0.4-0.4v0zM16 26c-0.442 0-0.8 0.358-0.8 0.8v0c0 0.442 0.358 0.8 0.8 0.8v0c0.442 0 0.8-0.358 0.8-0.8v0c0-0.442-0.358-0.8-0.8-0.8v0z"></path>
</svg>
