<!-- Generated by IcoMoon.io -->
<svg version="1.1" xmlns="http://www.w3.org/2000/svg" width="32" height="32" viewBox="0 0 32 32">
<title>trust</title>
<path d="M18 3.2c-2.425 0-4.4 1.975-4.4 4.4 0 1.006 0.502 2.005 1.203 2.955 0.702 0.948 1.62 1.855 2.534 2.65 1.828 1.589 3.65 2.734 3.65 2.734l0.212 0.134 0.212-0.134c0 0 1.822-1.145 3.65-2.734 0.914-0.795 1.833-1.702 2.534-2.65 0.702-0.95 1.203-1.948 1.203-2.955 0-2.425-1.975-4.4-4.4-4.4-1.272 0-2.397 0.563-3.2 1.427-0.803-0.864-1.928-1.427-3.2-1.427zM18 4c1.181 0 2.222 0.569 2.88 1.447l0.32 0.428 0.32-0.428c0.658-0.878 1.698-1.447 2.88-1.447 1.994 0 3.6 1.606 3.6 3.6 0 0.731-0.398 1.602-1.047 2.478s-1.53 1.753-2.416 2.523c-1.603 1.394-3.045 2.328-3.337 2.516-0.292-0.188-1.734-1.122-3.337-2.516-0.886-0.77-1.767-1.647-2.416-2.523s-1.047-1.747-1.047-2.478c0-1.994 1.606-3.6 3.6-3.6zM18 5.2c-0.22 0-0.4 0.18-0.4 0.4s0.18 0.4 0.4 0.4c0.22 0 0.4-0.18 0.4-0.4s-0.18-0.4-0.4-0.4zM16.592 5.786c-0.109-0.002-0.212 0.041-0.289 0.117-0.156 0.156-0.156 0.409 0 0.566s0.409 0.156 0.566 0c0.156-0.156 0.156-0.409 0-0.566-0.073-0.073-0.173-0.116-0.277-0.117zM16 7.2c-0.22 0-0.4 0.18-0.4 0.4s0.18 0.4 0.4 0.4c0.22 0 0.4-0.18 0.4-0.4s-0.18-0.4-0.4-0.4zM16.592 8.614c-0.109-0.002-0.212 0.041-0.289 0.117-0.156 0.156-0.156 0.409 0 0.566s0.409 0.156 0.566 0c0.156-0.156 0.156-0.409 0-0.566-0.073-0.073-0.173-0.116-0.277-0.117zM9.2 15.6c-0.392 0-0.767 0.075-1.113 0.205-0.012 0.002 0.003-0.006-0.042 0.008l0.011-0.003c-0.866 0.262-4.963 1.405-4.963 1.405-0.144 0.034-0.256 0.144-0.294 0.284-0.039 0.142 0.003 0.294 0.109 0.395 0.105 0.1 0.258 0.136 0.397 0.092 0 0 4.006-1.116 4.955-1.403 0.028-0.005 0.056-0.011 0.083-0.022 0.269-0.103 0.555-0.161 0.856-0.161 0.439 0 0.847 0.119 1.202 0.325 0.014 0.009 0.030 0.016 0.044 0.022 0.003 0.002 0.006 0.003 0.009 0.005 2.52 1.191 7.641 3.753 7.653 3.761h0.003c-0.025-0.012-0.022-0.011 0.027 0.020 0.009 0.006 0.019 0.012 0.027 0.017 0.38 0.205 0.636 0.592 0.636 1.050 0 0.241-0.070 0.459-0.192 0.648-0.352 0.547-1.033 0.663-1.669 0.356-0.008-0.003-0.016-0.006-0.022-0.011l-0.273-0.111c-0.133-0.059-0.289-0.041-0.405 0.048-0.116 0.087-0.175 0.233-0.153 0.377 0.020 0.144 0.119 0.266 0.256 0.317l0.272 0.111-0.022-0.011c0.805 0.387 1.788 0.3 2.416-0.313l0.436 0.298c0.111 0.077 0.255 0.091 0.38 0.039l6.563-2.712-0.167-0.333c0.095 0.189 0.32 0.272 0.514 0.189 0.144-0.061 0.3-0.094 0.467-0.094 0.667 0 1.2 0.533 1.2 1.2 0 0.456-0.255 0.842-0.63 1.048-0.181 0.098-0.258 0.322-0.172 0.512l-0.15-0.337-7.886 4.186c0.012-0.006 0.002-0.002-0.017 0.005s-0.038 0.012-0.055 0.022c-0.216 0.103-0.445 0.164-0.691 0.164-0.236 0-0.458-0.055-0.664-0.15-0.009-0.003-0.019-0.008-0.028-0.011-0.030-0.011-0.034-0.014-0.014-0.003l-9.938-4.205c-0.091-0.038-0.191-0.042-0.283-0.011l-4.8 1.6c-0.209 0.070-0.323 0.297-0.253 0.506s0.297 0.323 0.506 0.253l4.656-1.553 9.789 4.141c0.061 0.028 0.073 0.028 0.059 0.022 0.292 0.131 0.62 0.211 0.969 0.211 0.377 0 0.728-0.094 1.038-0.244 0.023-0.008 0.045-0.012 0.075-0.028 0.005-0.002 0.009-0.005 0.012-0.006l8.227-4.366c0.067-0.036 0.122-0.089 0.159-0.155 0.516-0.359 0.889-0.923 0.889-1.602 0-1.1-0.9-2-2-2-0.219 0-0.422 0.059-0.619 0.125h-0.002c-0.053 0-0.106 0.009-0.155 0.031l-6.708 2.772-0.33-0.223c0.092-0.228 0.212-0.445 0.212-0.705 0-0.759-0.433-1.419-1.056-1.755l0.028 0.017c0.014 0.008-0.012-0.017-0.084-0.056-0.003-0.002-0.006-0.003-0.011-0.005 0 0-5.145-2.578-7.689-3.778-0.003-0.002-0.006-0.003-0.008-0.005-0.045-0.019-0.048-0.019-0.028-0.011-0.459-0.256-0.988-0.408-1.552-0.408zM11.6 20.8c-0.22 0-0.4 0.18-0.4 0.4s0.18 0.4 0.4 0.4c0.22 0 0.4-0.18 0.4-0.4s-0.18-0.4-0.4-0.4zM12.8 21.2c-0.22 0-0.4 0.18-0.4 0.4s0.18 0.4 0.4 0.4c0.22 0 0.4-0.18 0.4-0.4s-0.18-0.4-0.4-0.4zM14 21.6c-0.22 0-0.4 0.18-0.4 0.4s0.18 0.4 0.4 0.4c0.22 0 0.4-0.18 0.4-0.4s-0.18-0.4-0.4-0.4zM15.2 22c-0.22 0-0.4 0.18-0.4 0.4s0.18 0.4 0.4 0.4c0.22 0 0.4-0.18 0.4-0.4s-0.18-0.4-0.4-0.4z"></path>
</svg>
