<!-- Generated by IcoMoon.io -->
<svg version="1.1" xmlns="http://www.w3.org/2000/svg" width="32" height="32" viewBox="0 0 32 32">
<title>twitter</title>
<path d="M29.075 5.098l-0.906 0.537c-0.92 0.545-1.939 0.938-3.019 1.17-1.012-0.987-2.387-1.609-3.913-1.609-3.102 0-5.627 2.525-5.627 5.628 0 0.245 0.050 0.478 0.081 0.717-4.028-0.338-7.597-2.281-10.011-5.241l-0.364-0.448-0.291 0.5c-0.484 0.831-0.763 1.798-0.763 2.828 0 1.417 0.536 2.706 1.402 3.697-0.294-0.097-0.583-0.202-0.848-0.348l-0.594-0.331v0.745c0 2.095 1.159 3.908 2.862 4.875-0.186-0.012-0.375-0.017-0.555-0.052l-0.662-0.127 0.206 0.641c0.611 1.908 2.234 3.303 4.217 3.722-1.577 1.012-3.431 1.623-5.445 1.623-0.406 0-0.806-0.022-1.2-0.070l-1.728-0.206 1.466 0.942c2.375 1.522 5.198 2.409 8.228 2.409 4.917 0 8.756-2.048 11.341-4.981 2.584-2.931 3.93-6.734 3.93-10.289 0-0.169-0.005-0.334-0.009-0.5 0.983-0.742 1.85-1.636 2.536-2.661l0.767-1.148-1.262 0.561c-0.472 0.211-0.955 0.377-1.45 0.511 0.561-0.6 1.030-1.28 1.291-2.092zM21.238 5.997c1.391 0 2.644 0.586 3.525 1.525l0.15 0.161 0.219-0.042c0.822-0.162 1.594-0.447 2.337-0.781-0.391 0.658-0.872 1.242-1.539 1.642l-0.319 0.191 0.302 0.602 0.28-0.033c0.583-0.072 1.139-0.195 1.68-0.353-0.497 0.559-1.031 1.084-1.637 1.523l-0.173 0.125 0.008 0.216c0.009 0.219 0.014 0.439 0.014 0.659 0 3.352-1.281 6.984-3.73 9.761s-6.044 4.709-10.741 4.709c-2.295 0-4.452-0.555-6.378-1.508 2.388-0.084 4.591-0.909 6.352-2.289l0.884-0.694-1.125-0.022c-1.881-0.034-3.448-1.172-4.214-2.766 0.103 0.006 0.202 0.030 0.306 0.030 0.514 0 1.013-0.069 1.484-0.197l1.628-0.447-1.656-0.333c-2.019-0.405-3.517-2.089-3.77-4.162 0.583 0.228 1.197 0.397 1.853 0.417l1.398 0.045-1.162-0.777c-1.295-0.866-2.148-2.341-2.148-4.019 0-0.694 0.183-1.333 0.444-1.928 2.637 2.975 6.383 4.95 10.617 5.161l0.53 0.028-0.119-0.517c-0.083-0.353-0.125-0.722-0.125-1.1 0-2.67 2.158-4.828 4.827-4.828zM21.2 6.8c-0.22 0-0.4 0.18-0.4 0.4s0.18 0.4 0.4 0.4c0.22 0 0.4-0.18 0.4-0.4s-0.18-0.4-0.4-0.4zM19.389 7.281c-0.066 0.003-0.131 0.020-0.189 0.055-0.192 0.111-0.258 0.355-0.147 0.545 0.111 0.192 0.355 0.258 0.547 0.148 0.091-0.053 0.158-0.141 0.186-0.244s0.014-0.213-0.041-0.305c-0.072-0.127-0.209-0.203-0.356-0.2zM18.063 8.6c-0.134 0.008-0.258 0.083-0.327 0.2-0.053 0.092-0.067 0.202-0.041 0.303 0.028 0.103 0.095 0.191 0.186 0.244 0.192 0.111 0.436 0.044 0.547-0.147s0.045-0.436-0.147-0.545c-0.066-0.039-0.142-0.058-0.219-0.055zM17.6 10.4c-0.22 0-0.4 0.18-0.4 0.4s0.18 0.4 0.4 0.4c0.22 0 0.4-0.18 0.4-0.4s-0.18-0.4-0.4-0.4zM9.6 14c-0.22 0-0.4 0.18-0.4 0.4s0.18 0.4 0.4 0.4c0.22 0 0.4-0.18 0.4-0.4s-0.18-0.4-0.4-0.4zM11.2 14.4c-0.22 0-0.4 0.18-0.4 0.4s0.18 0.4 0.4 0.4c0.22 0 0.4-0.18 0.4-0.4s-0.18-0.4-0.4-0.4zM12.8 14.8c-0.22 0-0.4 0.18-0.4 0.4s0.18 0.4 0.4 0.4c0.22 0 0.4-0.18 0.4-0.4s-0.18-0.4-0.4-0.4zM11.6 17.6c-0.22 0-0.4 0.18-0.4 0.4s0.18 0.4 0.4 0.4c0.22 0 0.4-0.18 0.4-0.4s-0.18-0.4-0.4-0.4zM13.2 17.6c-0.22 0-0.4 0.18-0.4 0.4s0.18 0.4 0.4 0.4c0.22 0 0.4-0.18 0.4-0.4s-0.18-0.4-0.4-0.4zM13.6 20.4c-0.22 0-0.4 0.18-0.4 0.4s0.18 0.4 0.4 0.4c0.22 0 0.4-0.18 0.4-0.4s-0.18-0.4-0.4-0.4z"></path>
</svg>
