<!-- Generated by IcoMoon.io -->
<svg version="1.1" xmlns="http://www.w3.org/2000/svg" width="32" height="32" viewBox="0 0 32 32">
<title>uxui</title>
<path d="M3.461 4.91c-0.764 0-1.386 0.623-1.386 1.386v19.408c0 0.764 0.623 1.386 1.386 1.386h24.953c0.764 0 1.386-0.623 1.386-1.386v-19.408c0-0.763-0.623-1.386-1.386-1.386h-24.953zM3.461 5.834h24.953c0.254 0 0.462 0.208 0.462 0.462v17.097h-25.877v-17.097c0-0.254 0.208-0.462 0.462-0.462zM4.385 6.758c-0.256 0-0.462 0.208-0.462 0.462v0.924c0 0.254 0.206 0.462 0.462 0.462s0.462-0.208 0.462-0.462v-0.924c0-0.254-0.206-0.462-0.462-0.462zM6.696 6.758c-0.256 0-0.462 0.208-0.462 0.462v0.924c0 0.254 0.206 0.462 0.462 0.462s0.462-0.208 0.462-0.462v-0.924c0-0.254-0.206-0.462-0.462-0.462zM9.006 6.758c-0.256 0-0.462 0.208-0.462 0.462v0.924c0 0.254 0.206 0.462 0.462 0.462s0.462-0.208 0.462-0.462v-0.924c0-0.254-0.206-0.462-0.462-0.462zM11.317 6.758c-0.256 0-0.462 0.208-0.462 0.462v0.924c0 0.254 0.206 0.462 0.462 0.462s0.462-0.208 0.462-0.462v-0.924c0-0.254-0.206-0.462-0.462-0.462zM13.627 6.758c-0.256 0-0.462 0.208-0.462 0.462v0.924c0 0.254 0.206 0.462 0.462 0.462s0.462-0.208 0.462-0.462v-0.924c0-0.254-0.206-0.462-0.462-0.462zM15.938 6.758c-0.256 0-0.462 0.208-0.462 0.462v0.924c0 0.254 0.206 0.462 0.462 0.462s0.462-0.208 0.462-0.462v-0.924c0-0.254-0.206-0.462-0.462-0.462zM18.248 6.758c-0.256 0-0.462 0.208-0.462 0.462v0.924c0 0.254 0.206 0.462 0.462 0.462s0.462-0.208 0.462-0.462v-0.924c0-0.254-0.206-0.462-0.462-0.462zM20.559 6.758c-0.256 0-0.462 0.208-0.462 0.462v0.924c0 0.254 0.206 0.462 0.462 0.462s0.462-0.208 0.462-0.462v-0.924c0-0.254-0.206-0.462-0.462-0.462zM22.869 6.758c-0.256 0-0.462 0.208-0.462 0.462v0.924c0 0.254 0.206 0.462 0.462 0.462s0.462-0.208 0.462-0.462v-0.924c0-0.254-0.206-0.462-0.462-0.462zM25.179 6.758c-0.256 0-0.462 0.208-0.462 0.462v0.924c0 0.254 0.206 0.462 0.462 0.462s0.462-0.208 0.462-0.462v-0.924c0-0.254-0.206-0.462-0.462-0.462zM27.49 6.758c-0.256 0-0.462 0.208-0.462 0.462v0.924c0 0.254 0.206 0.462 0.462 0.462s0.462-0.208 0.462-0.462v-0.924c0-0.254-0.206-0.462-0.462-0.462zM6.234 10.455c-0.763 0-1.386 0.623-1.386 1.386v1.848c0 0.764 0.623 1.386 1.386 1.386h1.848c0.764 0 1.386-0.623 1.386-1.386v-1.848c0-0.764-0.623-1.386-1.386-1.386h-1.848zM6.234 11.379h1.848c0.254 0 0.462 0.208 0.462 0.462v1.848c0 0.254-0.208 0.462-0.462 0.462h-1.848c-0.254 0-0.462-0.208-0.462-0.462v-1.848c0-0.254 0.208-0.462 0.462-0.462zM6.234 16c-0.763 0-1.386 0.623-1.386 1.386v1.848c0 0.764 0.623 1.386 1.386 1.386h1.848c0.764 0 1.386-0.623 1.386-1.386v-1.848c0-0.764-0.623-1.386-1.386-1.386h-1.848zM6.234 16.924h1.848c0.254 0 0.462 0.208 0.462 0.462v1.848c0 0.254-0.208 0.462-0.462 0.462h-1.848c-0.254 0-0.462-0.208-0.462-0.462v-1.848c0-0.254 0.208-0.462 0.462-0.462zM2.999 24.318h25.877v1.386c0 0.254-0.208 0.462-0.462 0.462h-24.953c-0.254 0-0.462-0.208-0.462-0.462v-1.386z"></path>
</svg>
