<!-- Generated by IcoMoon.io -->
<svg version="1.1" xmlns="http://www.w3.org/2000/svg" width="32" height="32" viewBox="0 0 32 32">
<title>venn_diagram</title>
<path d="M10 4.4c-4.414 0-8 3.586-8 8 0 3.799 2.659 6.978 6.213 7.792-0.135 0.582-0.213 1.185-0.213 1.808 0 4.414 3.586 8 8 8s8-3.586 8-8c0-0.623-0.078-1.226-0.213-1.808 3.554-0.814 6.213-3.994 6.213-7.792 0-4.414-3.586-8-8-8-2.391 0-4.533 1.058-6 2.724-1.467-1.666-3.609-2.724-6-2.724zM10 5.2c2.208 0 4.178 0.993 5.498 2.554-0.939 1.311-1.498 2.913-1.498 4.646 0 0.623 0.078 1.226 0.213 1.808-2.71 0.621-4.894 2.617-5.78 5.216-3.225-0.715-5.633-3.582-5.633-7.024 0-3.981 3.219-7.2 7.2-7.2zM22 5.2c3.981 0 7.2 3.219 7.2 7.2 0 3.442-2.408 6.31-5.633 7.024-0.886-2.599-3.070-4.596-5.78-5.216 0.135-0.582 0.213-1.185 0.213-1.808 0-1.734-0.559-3.335-1.498-4.646 1.32-1.561 3.29-2.554 5.498-2.554zM10 6.8c-0.221 0-0.4 0.179-0.4 0.4v0c0 0.221 0.179 0.4 0.4 0.4v0c0.221 0 0.4-0.179 0.4-0.4v0c0-0.221-0.179-0.4-0.4-0.4v0zM22 6.8c-0.221 0-0.4 0.179-0.4 0.4v0c0 0.221 0.179 0.4 0.4 0.4v0c0.221 0 0.4-0.179 0.4-0.4v0c0-0.221-0.179-0.4-0.4-0.4v0zM20.013 7.195c-0.001 0-0.002 0-0.003 0-0.055 0-0.108 0.011-0.156 0.031l0.003-0.001c-0.146 0.062-0.247 0.204-0.247 0.37 0 0.055 0.011 0.108 0.031 0.156l-0.001-0.003c0.062 0.146 0.204 0.247 0.37 0.247 0.055 0 0.108-0.011 0.156-0.031l-0.003 0.001c0.146-0.062 0.247-0.204 0.247-0.369 0-0.055-0.011-0.107-0.031-0.155l0.001 0.003c-0.061-0.146-0.202-0.246-0.366-0.248h-0zM23.999 7.195c-0.003-0-0.006-0-0.009-0-0.166 0-0.308 0.101-0.369 0.244l-0.001 0.003c-0.019 0.045-0.030 0.098-0.030 0.153 0 0.166 0.101 0.308 0.244 0.369l0.003 0.001c0.045 0.019 0.098 0.030 0.153 0.030 0.166 0 0.308-0.101 0.369-0.244l0.001-0.003c0.019-0.045 0.030-0.098 0.030-0.153 0-0.166-0.101-0.308-0.244-0.369l-0.003-0.001c-0.042-0.018-0.092-0.029-0.143-0.030h-0zM8.013 7.196c-0.001 0-0.002 0-0.003 0-0.055 0-0.108 0.011-0.156 0.031l0.003-0.001c-0.146 0.062-0.247 0.204-0.247 0.37 0 0.055 0.011 0.108 0.031 0.156l-0.001-0.003c0.062 0.146 0.204 0.247 0.37 0.247 0.055 0 0.108-0.011 0.156-0.031l-0.003 0.001c0.146-0.062 0.247-0.204 0.247-0.37 0-0.055-0.011-0.108-0.031-0.156l0.001 0.003c-0.061-0.145-0.202-0.246-0.366-0.247h-0zM11.998 7.196c-0.003-0-0.006-0-0.009-0-0.165 0-0.307 0.1-0.368 0.244l-0.001 0.003c-0.019 0.045-0.030 0.098-0.030 0.153 0 0.166 0.101 0.308 0.244 0.369l0.003 0.001c0.045 0.019 0.098 0.030 0.153 0.030 0.166 0 0.308-0.101 0.369-0.244l0.001-0.003c0.019-0.045 0.030-0.098 0.030-0.153 0-0.166-0.101-0.308-0.244-0.369l-0.003-0.001c-0.043-0.018-0.092-0.029-0.144-0.030h-0zM6.329 8.323c-0.002-0-0.003-0-0.005-0-0.111 0-0.211 0.045-0.283 0.117v0c-0.072 0.072-0.117 0.172-0.117 0.283s0.045 0.21 0.117 0.283v0c0.072 0.072 0.172 0.117 0.283 0.117s0.21-0.045 0.283-0.117v0c0.072-0.072 0.117-0.172 0.117-0.283s-0.045-0.21-0.117-0.283v0c-0.071-0.071-0.169-0.116-0.277-0.117h-0zM13.683 8.323c-0.002-0-0.004-0-0.006-0-0.111 0-0.211 0.045-0.283 0.117v0c-0.072 0.072-0.117 0.172-0.117 0.283s0.045 0.21 0.117 0.283v0c0.072 0.072 0.172 0.117 0.283 0.117s0.21-0.045 0.283-0.117v0c0.072-0.072 0.117-0.172 0.117-0.283s-0.045-0.21-0.117-0.283v0c-0.071-0.071-0.168-0.115-0.276-0.117h-0zM18.329 8.323c-0.002-0-0.003-0-0.005-0-0.11 0-0.211 0.045-0.283 0.117v0c-0.072 0.072-0.117 0.172-0.117 0.283s0.045 0.21 0.117 0.283v0c0.072 0.072 0.172 0.117 0.283 0.117s0.21-0.045 0.283-0.117v0c0.072-0.072 0.117-0.172 0.117-0.283s-0.045-0.21-0.117-0.283v0c-0.071-0.071-0.169-0.116-0.277-0.117h-0zM25.683 8.323c-0.002-0-0.004-0-0.006-0-0.11 0-0.211 0.045-0.283 0.117v0c-0.072 0.072-0.117 0.172-0.117 0.283s0.045 0.21 0.117 0.283v0c0.072 0.072 0.172 0.117 0.283 0.117s0.21-0.045 0.283-0.117v0c0.072-0.072 0.117-0.172 0.117-0.283s-0.045-0.21-0.117-0.283v0c-0.071-0.071-0.168-0.115-0.276-0.117h-0zM16 8.419c0.757 1.14 1.2 2.508 1.2 3.981 0 0.574-0.074 1.13-0.201 1.665-0.328-0.041-0.661-0.065-0.999-0.065s-0.672 0.024-0.999 0.065c-0.127-0.535-0.201-1.091-0.201-1.665 0-1.474 0.443-2.841 1.2-3.981zM26.807 10.009c-0.001 0-0.002 0-0.003 0-0.055 0-0.108 0.011-0.156 0.031l0.003-0.001c-0.146 0.062-0.247 0.204-0.247 0.37 0 0.055 0.011 0.108 0.031 0.156l-0.001-0.003c0.062 0.146 0.204 0.247 0.37 0.247 0.055 0 0.108-0.011 0.156-0.031l-0.003 0.001c0.146-0.062 0.247-0.204 0.247-0.37 0-0.055-0.011-0.108-0.031-0.156l0.001 0.003c-0.061-0.145-0.202-0.246-0.366-0.247h-0zM5.205 10.010c-0.003-0-0.006-0-0.009-0-0.166 0-0.308 0.101-0.369 0.244l-0.001 0.003c-0.019 0.045-0.030 0.098-0.030 0.153 0 0.166 0.101 0.308 0.244 0.369l0.003 0.001c0.045 0.019 0.098 0.030 0.153 0.030 0.166 0 0.308-0.101 0.369-0.244l0.001-0.003c0.019-0.045 0.030-0.098 0.030-0.153 0-0.166-0.101-0.308-0.244-0.369l-0.003-0.001c-0.043-0.018-0.092-0.029-0.144-0.030h-0zM4.8 12c-0.221 0-0.4 0.179-0.4 0.4v0c0 0.221 0.179 0.4 0.4 0.4v0c0.221 0 0.4-0.179 0.4-0.4v0c0-0.221-0.179-0.4-0.4-0.4v0zM27.2 12c-0.221 0-0.4 0.179-0.4 0.4v0c0 0.221 0.179 0.4 0.4 0.4v0c0.221 0 0.4-0.179 0.4-0.4v0c0-0.221-0.179-0.4-0.4-0.4v0zM5.199 13.99c-0.001 0-0.002 0-0.003 0-0.055 0-0.108 0.011-0.156 0.031l0.003-0.001c-0.146 0.062-0.247 0.204-0.247 0.37 0 0.055 0.011 0.108 0.031 0.156l-0.001-0.003c0.062 0.146 0.204 0.247 0.37 0.247 0.055 0 0.108-0.011 0.156-0.031l-0.003 0.001c0.146-0.062 0.247-0.204 0.247-0.37 0-0.055-0.011-0.108-0.031-0.156l0.001 0.003c-0.061-0.145-0.202-0.246-0.366-0.247h-0zM26.813 13.99c-0.003-0-0.006-0-0.009-0-0.166 0-0.308 0.101-0.369 0.244l-0.001 0.003c-0.019 0.045-0.030 0.098-0.030 0.153 0 0.166 0.101 0.308 0.244 0.369l0.003 0.001c0.045 0.019 0.098 0.030 0.153 0.030 0.166 0 0.308-0.101 0.369-0.244l0.001-0.003c0.019-0.045 0.030-0.098 0.030-0.153 0-0.166-0.101-0.308-0.244-0.369l-0.003-0.001c-0.043-0.018-0.092-0.029-0.144-0.030h-0zM16 14.8c0.259 0 0.515 0.016 0.767 0.042-0.197 0.546-0.451 1.064-0.767 1.539-0.316-0.476-0.57-0.993-0.767-1.539 0.252-0.027 0.508-0.042 0.767-0.042zM14.433 14.976c0.254 0.746 0.615 1.441 1.066 2.070-1.32 1.561-3.29 2.554-5.498 2.554-0.259 0-0.515-0.016-0.767-0.042 0.827-2.295 2.78-4.046 5.2-4.582zM17.567 14.976c2.42 0.536 4.373 2.287 5.2 4.582-0.252 0.027-0.508 0.042-0.767 0.042-2.208 0-4.178-0.993-5.498-2.554 0.451-0.629 0.811-1.324 1.066-2.070zM6.329 15.677c-0.002-0-0.004-0-0.006-0-0.111 0-0.211 0.045-0.283 0.117v0c-0.072 0.072-0.117 0.172-0.117 0.283s0.045 0.21 0.117 0.283v0c0.072 0.072 0.172 0.117 0.283 0.117s0.21-0.045 0.283-0.117v0c0.072-0.072 0.117-0.172 0.117-0.283s-0.045-0.21-0.117-0.283v0c-0.071-0.071-0.168-0.115-0.276-0.117h-0zM25.682 15.677c-0.002-0-0.004-0-0.006-0-0.11 0-0.21 0.044-0.282 0.116l0-0c-0.072 0.072-0.117 0.172-0.117 0.283s0.045 0.21 0.117 0.283v0c0.072 0.072 0.172 0.117 0.283 0.117s0.21-0.045 0.283-0.117v0c0.072-0.072 0.117-0.172 0.117-0.283s-0.045-0.21-0.117-0.283v0c-0.071-0.071-0.169-0.115-0.277-0.116h-0zM8.019 16.804c-0.003-0-0.006-0-0.009-0-0.166 0-0.308 0.101-0.369 0.244l-0.001 0.003c-0.019 0.045-0.030 0.098-0.030 0.153 0 0.166 0.101 0.308 0.244 0.369l0.003 0.001c0.045 0.019 0.098 0.030 0.153 0.030 0.166 0 0.308-0.101 0.369-0.244l0.001-0.003c0.019-0.045 0.030-0.098 0.030-0.153 0-0.166-0.101-0.308-0.244-0.369l-0.003-0.001c-0.043-0.018-0.092-0.029-0.144-0.030h-0zM23.993 16.804c-0.001-0-0.003-0-0.005-0-0.055 0-0.107 0.011-0.154 0.031l0.003-0.001c-0.146 0.062-0.247 0.204-0.247 0.37 0 0.055 0.011 0.108 0.031 0.156l-0.001-0.003c0.062 0.147 0.204 0.248 0.37 0.248 0.055 0 0.108-0.011 0.155-0.031l-0.003 0.001c0.146-0.062 0.247-0.204 0.247-0.37 0-0.055-0.011-0.108-0.031-0.156l0.001 0.003c-0.061-0.145-0.202-0.246-0.366-0.247h-0zM16 17.676c1.467 1.666 3.609 2.724 6 2.724 0.339 0 0.672-0.024 0.999-0.065 0.127 0.535 0.201 1.091 0.201 1.665 0 3.981-3.219 7.2-7.2 7.2s-7.2-3.219-7.2-7.2c0-0.574 0.074-1.13 0.201-1.665 0.328 0.041 0.661 0.065 0.999 0.065 2.391 0 4.533-1.058 6-2.724zM10.8 21.6c-0.221 0-0.4 0.179-0.4 0.4v0c0 0.221 0.179 0.4 0.4 0.4v0c0.221 0 0.4-0.179 0.4-0.4v0c0-0.221-0.179-0.4-0.4-0.4v0zM21.2 21.6c-0.221 0-0.4 0.179-0.4 0.4v0c0 0.221 0.179 0.4 0.4 0.4v0c0.221 0 0.4-0.179 0.4-0.4v0c0-0.221-0.179-0.4-0.4-0.4v0zM11.199 23.59c-0.001 0-0.002 0-0.003 0-0.055 0-0.108 0.011-0.156 0.031l0.003-0.001c-0.146 0.062-0.247 0.204-0.247 0.37 0 0.055 0.011 0.108 0.031 0.156l-0.001-0.003c0.062 0.146 0.204 0.247 0.37 0.247 0.055 0 0.108-0.011 0.156-0.031l-0.003 0.001c0.146-0.062 0.247-0.204 0.247-0.37 0-0.055-0.011-0.108-0.031-0.156l0.001 0.003c-0.061-0.145-0.202-0.246-0.366-0.247h-0zM20.813 23.59c-0.003-0-0.006-0-0.009-0-0.166 0-0.308 0.101-0.369 0.244l-0.001 0.003c-0.019 0.045-0.030 0.098-0.030 0.153 0 0.166 0.101 0.308 0.244 0.369l0.003 0.001c0.045 0.019 0.098 0.030 0.153 0.030 0.166 0 0.308-0.101 0.369-0.244l0.001-0.003c0.019-0.045 0.030-0.098 0.030-0.153 0-0.166-0.101-0.308-0.244-0.369l-0.003-0.001c-0.043-0.018-0.092-0.029-0.144-0.030h-0zM12.329 25.277c-0.002-0-0.004-0-0.006-0-0.111 0-0.211 0.045-0.283 0.117v0c-0.072 0.072-0.117 0.172-0.117 0.283s0.045 0.21 0.117 0.283v0c0.072 0.072 0.172 0.117 0.283 0.117s0.21-0.045 0.283-0.117v0c0.072-0.072 0.117-0.172 0.117-0.283s-0.045-0.21-0.117-0.283v0c-0.071-0.071-0.168-0.115-0.276-0.117h-0zM19.682 25.277c-0.002-0-0.004-0-0.006-0-0.11 0-0.21 0.044-0.282 0.116l0-0c-0.072 0.072-0.117 0.172-0.117 0.283s0.045 0.21 0.117 0.283v0c0.072 0.072 0.172 0.117 0.283 0.117s0.21-0.045 0.283-0.117v0c0.072-0.072 0.117-0.172 0.117-0.283s-0.045-0.21-0.117-0.283v0c-0.071-0.071-0.169-0.115-0.277-0.116h-0zM14.019 26.404c-0.003-0-0.006-0-0.009-0-0.166 0-0.308 0.101-0.369 0.244l-0.001 0.003c-0.019 0.045-0.030 0.098-0.030 0.153 0 0.166 0.101 0.308 0.244 0.369l0.003 0.001c0.045 0.019 0.098 0.030 0.153 0.030 0.166 0 0.308-0.101 0.369-0.244l0.001-0.003c0.019-0.045 0.030-0.098 0.030-0.153 0-0.166-0.101-0.308-0.244-0.369l-0.003-0.001c-0.043-0.018-0.092-0.029-0.144-0.030h-0zM17.993 26.404c-0.001 0-0.002 0-0.002 0-0.055 0-0.108 0.011-0.156 0.031l0.003-0.001c-0.147 0.062-0.248 0.204-0.248 0.37 0 0.055 0.011 0.108 0.031 0.155l-0.001-0.003c0.062 0.146 0.204 0.247 0.37 0.247 0.055 0 0.108-0.011 0.156-0.031l-0.003 0.001c0.147-0.062 0.248-0.204 0.248-0.37 0-0.055-0.011-0.108-0.031-0.155l0.001 0.003c-0.061-0.145-0.202-0.246-0.367-0.247h-0zM16 26.8c-0.221 0-0.4 0.179-0.4 0.4v0c0 0.221 0.179 0.4 0.4 0.4v0c0.221 0 0.4-0.179 0.4-0.4v0c0-0.221-0.179-0.4-0.4-0.4v0z"></path>
</svg>
