<!-- Generated by IcoMoon.io -->
<svg version="1.1" xmlns="http://www.w3.org/2000/svg" width="32" height="32" viewBox="0 0 32 32">
<title>webwritting</title>
<path d="M5.65 3.25v25.5h20.579v-19.501l-6.003-5.999h-14.576zM6.473 4.073h13.17v5.758h5.762v18.097h-18.933v-23.855zM20.467 4.654l4.357 4.354h-4.357v-4.354zM8.531 4.895c-0.227 0-0.412 0.185-0.412 0.411s0.185 0.411 0.412 0.411c0.227 0 0.412-0.185 0.412-0.411s-0.185-0.411-0.412-0.411zM8.531 6.54c-0.227 0-0.412 0.185-0.412 0.411s0.185 0.411 0.412 0.411c0.227 0 0.412-0.185 0.412-0.411s-0.185-0.411-0.412-0.411zM8.531 8.185c-0.227 0-0.412 0.185-0.412 0.411s0.185 0.411 0.412 0.411c0.227 0 0.412-0.185 0.412-0.411s-0.185-0.411-0.412-0.411zM8.531 9.831c-0.227 0-0.412 0.185-0.412 0.411s0.185 0.411 0.412 0.411c0.227 0 0.412-0.185 0.412-0.411s-0.185-0.411-0.412-0.411zM8.531 11.476c-0.227 0-0.412 0.185-0.412 0.411s0.185 0.411 0.412 0.411c0.227 0 0.412-0.185 0.412-0.411s-0.185-0.411-0.412-0.411zM11.412 12.71v0.823h10.701v-0.823h-10.701zM8.531 13.121c-0.227 0-0.412 0.185-0.412 0.411s0.185 0.411 0.412 0.411c0.227 0 0.412-0.185 0.412-0.411s-0.185-0.411-0.412-0.411zM8.531 14.766c-0.227 0-0.412 0.185-0.412 0.411s0.185 0.411 0.412 0.411c0.227 0 0.412-0.185 0.412-0.411s-0.185-0.411-0.412-0.411zM11.824 16c-0.227 0-0.412 0.185-0.412 0.411s0.185 0.411 0.412 0.411c0.227 0 0.412-0.185 0.412-0.411s-0.185-0.411-0.412-0.411zM13.47 16v0.823h8.643v-0.823h-8.643zM8.531 16.411c-0.227 0-0.412 0.185-0.412 0.411s0.185 0.411 0.412 0.411c0.227 0 0.412-0.185 0.412-0.411s-0.185-0.411-0.412-0.411zM8.531 18.057c-0.227 0-0.412 0.185-0.412 0.411s0.185 0.411 0.412 0.411c0.227 0 0.412-0.185 0.412-0.411s-0.185-0.411-0.412-0.411zM11.824 18.468c-0.227 0-0.412 0.185-0.412 0.411s0.185 0.411 0.412 0.411c0.227 0 0.412-0.185 0.412-0.411s-0.185-0.411-0.412-0.411zM13.47 18.468v0.823h8.643v-0.823h-8.643zM8.531 19.701c-0.227 0-0.412 0.185-0.412 0.411s0.185 0.411 0.412 0.411c0.227 0 0.412-0.185 0.412-0.411s-0.185-0.411-0.412-0.411zM11.824 20.935c-0.227 0-0.412 0.185-0.412 0.411s0.185 0.411 0.412 0.411c0.227 0 0.412-0.185 0.412-0.411s-0.185-0.411-0.412-0.411zM13.47 20.935v0.823h8.643v-0.823h-8.643zM8.531 21.347c-0.227 0-0.412 0.185-0.412 0.411s0.185 0.411 0.412 0.411c0.227 0 0.412-0.185 0.412-0.411s-0.185-0.411-0.412-0.411zM8.531 22.992c-0.227 0-0.412 0.185-0.412 0.411s0.185 0.411 0.412 0.411c0.227 0 0.412-0.185 0.412-0.411s-0.185-0.411-0.412-0.411zM11.824 23.403c-0.227 0-0.412 0.185-0.412 0.411s0.185 0.411 0.412 0.411c0.227 0 0.412-0.185 0.412-0.411s-0.185-0.411-0.412-0.411zM13.47 23.403v0.823h8.643v-0.823h-8.643zM8.531 24.637c-0.227 0-0.412 0.185-0.412 0.411s0.185 0.411 0.412 0.411c0.227 0 0.412-0.185 0.412-0.411s-0.185-0.411-0.412-0.411zM8.531 26.282c-0.227 0-0.412 0.185-0.412 0.411s0.185 0.411 0.412 0.411c0.227 0 0.412-0.185 0.412-0.411s-0.185-0.411-0.412-0.411z"></path>
</svg>
