<!-- Generated by IcoMoon.io -->
<svg version="1.1" xmlns="http://www.w3.org/2000/svg" width="32" height="32" viewBox="0 0 32 32">
<title>youtube</title>
<path d="M15.906 5.502c-4.186 0-8.1 0.313-10.244 0.767h-0.006c-1.508 0.344-2.861 1.403-3.145 3.036l-0.002 0.002v0.002c-0.255 1.536-0.509 3.828-0.509 6.692 0 2.861 0.253 5.092 0.575 6.7 0.288 1.573 1.625 2.684 3.144 3.030l0.006 0.002h0.005c2.259 0.453 6.053 0.766 10.239 0.766s7.98-0.313 10.239-0.766h0.005l0.006-0.002c1.508-0.342 2.861-1.402 3.144-3.034l0.002-0.003v-0.003c0.253-1.584 0.572-3.878 0.636-6.744v-0.008c0-2.867-0.317-5.162-0.637-6.763-0.286-1.573-1.625-2.686-3.144-3.031l-0.017-0.005-0.016-0.002c-2.236-0.319-6.095-0.636-10.28-0.636zM15.906 6.302c4.134 0 7.961 0.314 10.145 0.625 1.253 0.289 2.306 1.194 2.523 2.392l0.002 0.003v0.003c0.313 1.555 0.623 3.798 0.623 6.606-0.063 2.811-0.373 5.058-0.625 6.627-0.22 1.269-1.264 2.102-2.53 2.391-2.159 0.431-5.934 0.748-10.077 0.748s-7.917-0.317-10.077-0.748c-1.255-0.288-2.313-1.192-2.53-2.394l-0.003-0.006c-0.309-1.548-0.559-3.733-0.559-6.548s0.25-5.066 0.5-6.558c0.22-1.27 1.264-2.103 2.533-2.392 2.023-0.428 5.93-0.748 10.073-0.748zM6 9.2c-0.22 0-0.4 0.18-0.4 0.4s0.18 0.4 0.4 0.4c0.22 0 0.4-0.18 0.4-0.4s-0.18-0.4-0.4-0.4zM12.4 10.108v11.784l10.245-5.892zM5.6 10.8c-0.22 0-0.4 0.18-0.4 0.4s0.18 0.4 0.4 0.4c0.22 0 0.4-0.18 0.4-0.4s-0.18-0.4-0.4-0.4zM13.2 11.492l7.842 4.508-7.842 4.508zM5.6 12.4c-0.22 0-0.4 0.18-0.4 0.4s0.18 0.4 0.4 0.4c0.22 0 0.4-0.18 0.4-0.4s-0.18-0.4-0.4-0.4zM14.4 13.2c-0.22 0-0.4 0.18-0.4 0.4s0.18 0.4 0.4 0.4c0.22 0 0.4-0.18 0.4-0.4s-0.18-0.4-0.4-0.4zM5.6 14c-0.22 0-0.4 0.18-0.4 0.4s0.18 0.4 0.4 0.4c0.22 0 0.4-0.18 0.4-0.4s-0.18-0.4-0.4-0.4zM14.4 14.8c-0.22 0-0.4 0.18-0.4 0.4s0.18 0.4 0.4 0.4c0.22 0 0.4-0.18 0.4-0.4s-0.18-0.4-0.4-0.4zM5.6 15.6c-0.22 0-0.4 0.18-0.4 0.4s0.18 0.4 0.4 0.4c0.22 0 0.4-0.18 0.4-0.4s-0.18-0.4-0.4-0.4zM14.4 16.4c-0.22 0-0.4 0.18-0.4 0.4s0.18 0.4 0.4 0.4c0.22 0 0.4-0.18 0.4-0.4s-0.18-0.4-0.4-0.4zM5.6 17.2c-0.22 0-0.4 0.18-0.4 0.4s0.18 0.4 0.4 0.4c0.22 0 0.4-0.18 0.4-0.4s-0.18-0.4-0.4-0.4zM14.4 18c-0.22 0-0.4 0.18-0.4 0.4s0.18 0.4 0.4 0.4c0.22 0 0.4-0.18 0.4-0.4s-0.18-0.4-0.4-0.4zM5.6 18.8c-0.22 0-0.4 0.18-0.4 0.4s0.18 0.4 0.4 0.4c0.22 0 0.4-0.18 0.4-0.4s-0.18-0.4-0.4-0.4zM5.6 20.4c-0.22 0-0.4 0.18-0.4 0.4s0.18 0.4 0.4 0.4c0.22 0 0.4-0.18 0.4-0.4s-0.18-0.4-0.4-0.4zM6 22c-0.22 0-0.4 0.18-0.4 0.4s0.18 0.4 0.4 0.4c0.22 0 0.4-0.18 0.4-0.4s-0.18-0.4-0.4-0.4z"></path>
</svg>
